%TF.GenerationSoftware,KiCad,Pcbnew,(5.1.9)-1*%
%TF.CreationDate,2021-05-27T19:58:41+02:00*%
%TF.ProjectId,DifferentialProbe,44696666-6572-4656-9e74-69616c50726f,rev?*%
%TF.SameCoordinates,Original*%
%TF.FileFunction,Legend,Bot*%
%TF.FilePolarity,Positive*%
%FSLAX46Y46*%
G04 Gerber Fmt 4.6, Leading zero omitted, Abs format (unit mm)*
G04 Created by KiCad (PCBNEW (5.1.9)-1) date 2021-05-27 19:58:41*
%MOMM*%
%LPD*%
G01*
G04 APERTURE LIST*
%ADD10C,0.300000*%
%ADD11C,0.152400*%
G04 APERTURE END LIST*
D10*
X32360714Y98842857D02*
X32175000Y98780952D01*
X32113095Y98719047D01*
X32051190Y98595238D01*
X32051190Y98409523D01*
X32113095Y98285714D01*
X32175000Y98223809D01*
X32298809Y98161904D01*
X32794047Y98161904D01*
X32794047Y99461904D01*
X32360714Y99461904D01*
X32236904Y99400000D01*
X32175000Y99338095D01*
X32113095Y99214285D01*
X32113095Y99090476D01*
X32175000Y98966666D01*
X32236904Y98904761D01*
X32360714Y98842857D01*
X32794047Y98842857D01*
X31679761Y99461904D02*
X31246428Y98161904D01*
X30813095Y99461904D01*
X30379761Y98161904D02*
X30379761Y99461904D01*
X29636904Y98161904D02*
X30194047Y98904761D01*
X29636904Y99461904D02*
X30379761Y98719047D01*
X29141666Y98223809D02*
X28955952Y98161904D01*
X28646428Y98161904D01*
X28522619Y98223809D01*
X28460714Y98285714D01*
X28398809Y98409523D01*
X28398809Y98533333D01*
X28460714Y98657142D01*
X28522619Y98719047D01*
X28646428Y98780952D01*
X28894047Y98842857D01*
X29017857Y98904761D01*
X29079761Y98966666D01*
X29141666Y99090476D01*
X29141666Y99214285D01*
X29079761Y99338095D01*
X29017857Y99400000D01*
X28894047Y99461904D01*
X28584523Y99461904D01*
X28398809Y99400000D01*
X27655952Y98161904D02*
X27779761Y98223809D01*
X27841666Y98285714D01*
X27903571Y98409523D01*
X27903571Y98780952D01*
X27841666Y98904761D01*
X27779761Y98966666D01*
X27655952Y99028571D01*
X27470238Y99028571D01*
X27346428Y98966666D01*
X27284523Y98904761D01*
X27222619Y98780952D01*
X27222619Y98409523D01*
X27284523Y98285714D01*
X27346428Y98223809D01*
X27470238Y98161904D01*
X27655952Y98161904D01*
X26108333Y99028571D02*
X26108333Y98161904D01*
X26665476Y99028571D02*
X26665476Y98347619D01*
X26603571Y98223809D01*
X26479761Y98161904D01*
X26294047Y98161904D01*
X26170238Y98223809D01*
X26108333Y98285714D01*
X25489285Y99028571D02*
X25489285Y98161904D01*
X25489285Y98904761D02*
X25427380Y98966666D01*
X25303571Y99028571D01*
X25117857Y99028571D01*
X24994047Y98966666D01*
X24932142Y98842857D01*
X24932142Y98161904D01*
X23755952Y98161904D02*
X23755952Y99461904D01*
X23755952Y98223809D02*
X23879761Y98161904D01*
X24127380Y98161904D01*
X24251190Y98223809D01*
X24313095Y98285714D01*
X24375000Y98409523D01*
X24375000Y98780952D01*
X24313095Y98904761D01*
X24251190Y98966666D01*
X24127380Y99028571D01*
X23879761Y99028571D01*
X23755952Y98966666D01*
X36663095Y95911904D02*
X36663095Y97211904D01*
X36353571Y97211904D01*
X36167857Y97150000D01*
X36044047Y97026190D01*
X35982142Y96902380D01*
X35920238Y96654761D01*
X35920238Y96469047D01*
X35982142Y96221428D01*
X36044047Y96097619D01*
X36167857Y95973809D01*
X36353571Y95911904D01*
X36663095Y95911904D01*
X35363095Y95911904D02*
X35363095Y96778571D01*
X35363095Y97211904D02*
X35425000Y97150000D01*
X35363095Y97088095D01*
X35301190Y97150000D01*
X35363095Y97211904D01*
X35363095Y97088095D01*
X34929761Y96778571D02*
X34434523Y96778571D01*
X34744047Y95911904D02*
X34744047Y97026190D01*
X34682142Y97150000D01*
X34558333Y97211904D01*
X34434523Y97211904D01*
X34186904Y96778571D02*
X33691666Y96778571D01*
X34001190Y95911904D02*
X34001190Y97026190D01*
X33939285Y97150000D01*
X33815476Y97211904D01*
X33691666Y97211904D01*
X32763095Y95973809D02*
X32886904Y95911904D01*
X33134523Y95911904D01*
X33258333Y95973809D01*
X33320238Y96097619D01*
X33320238Y96592857D01*
X33258333Y96716666D01*
X33134523Y96778571D01*
X32886904Y96778571D01*
X32763095Y96716666D01*
X32701190Y96592857D01*
X32701190Y96469047D01*
X33320238Y96345238D01*
X32144047Y95911904D02*
X32144047Y96778571D01*
X32144047Y96530952D02*
X32082142Y96654761D01*
X32020238Y96716666D01*
X31896428Y96778571D01*
X31772619Y96778571D01*
X30844047Y95973809D02*
X30967857Y95911904D01*
X31215476Y95911904D01*
X31339285Y95973809D01*
X31401190Y96097619D01*
X31401190Y96592857D01*
X31339285Y96716666D01*
X31215476Y96778571D01*
X30967857Y96778571D01*
X30844047Y96716666D01*
X30782142Y96592857D01*
X30782142Y96469047D01*
X31401190Y96345238D01*
X30225000Y96778571D02*
X30225000Y95911904D01*
X30225000Y96654761D02*
X30163095Y96716666D01*
X30039285Y96778571D01*
X29853571Y96778571D01*
X29729761Y96716666D01*
X29667857Y96592857D01*
X29667857Y95911904D01*
X29234523Y96778571D02*
X28739285Y96778571D01*
X29048809Y97211904D02*
X29048809Y96097619D01*
X28986904Y95973809D01*
X28863095Y95911904D01*
X28739285Y95911904D01*
X28305952Y95911904D02*
X28305952Y96778571D01*
X28305952Y97211904D02*
X28367857Y97150000D01*
X28305952Y97088095D01*
X28244047Y97150000D01*
X28305952Y97211904D01*
X28305952Y97088095D01*
X27129761Y95911904D02*
X27129761Y96592857D01*
X27191666Y96716666D01*
X27315476Y96778571D01*
X27563095Y96778571D01*
X27686904Y96716666D01*
X27129761Y95973809D02*
X27253571Y95911904D01*
X27563095Y95911904D01*
X27686904Y95973809D01*
X27748809Y96097619D01*
X27748809Y96221428D01*
X27686904Y96345238D01*
X27563095Y96407142D01*
X27253571Y96407142D01*
X27129761Y96469047D01*
X26325000Y95911904D02*
X26448809Y95973809D01*
X26510714Y96097619D01*
X26510714Y97211904D01*
X24839285Y95911904D02*
X24839285Y97211904D01*
X24344047Y97211904D01*
X24220238Y97150000D01*
X24158333Y97088095D01*
X24096428Y96964285D01*
X24096428Y96778571D01*
X24158333Y96654761D01*
X24220238Y96592857D01*
X24344047Y96530952D01*
X24839285Y96530952D01*
X23539285Y95911904D02*
X23539285Y96778571D01*
X23539285Y96530952D02*
X23477380Y96654761D01*
X23415476Y96716666D01*
X23291666Y96778571D01*
X23167857Y96778571D01*
X22548809Y95911904D02*
X22672619Y95973809D01*
X22734523Y96035714D01*
X22796428Y96159523D01*
X22796428Y96530952D01*
X22734523Y96654761D01*
X22672619Y96716666D01*
X22548809Y96778571D01*
X22363095Y96778571D01*
X22239285Y96716666D01*
X22177380Y96654761D01*
X22115476Y96530952D01*
X22115476Y96159523D01*
X22177380Y96035714D01*
X22239285Y95973809D01*
X22363095Y95911904D01*
X22548809Y95911904D01*
X21558333Y95911904D02*
X21558333Y97211904D01*
X21558333Y96716666D02*
X21434523Y96778571D01*
X21186904Y96778571D01*
X21063095Y96716666D01*
X21001190Y96654761D01*
X20939285Y96530952D01*
X20939285Y96159523D01*
X21001190Y96035714D01*
X21063095Y95973809D01*
X21186904Y95911904D01*
X21434523Y95911904D01*
X21558333Y95973809D01*
X19886904Y95973809D02*
X20010714Y95911904D01*
X20258333Y95911904D01*
X20382142Y95973809D01*
X20444047Y96097619D01*
X20444047Y96592857D01*
X20382142Y96716666D01*
X20258333Y96778571D01*
X20010714Y96778571D01*
X19886904Y96716666D01*
X19825000Y96592857D01*
X19825000Y96469047D01*
X20444047Y96345238D01*
X33320238Y94838095D02*
X33258333Y94900000D01*
X33134523Y94961904D01*
X32825000Y94961904D01*
X32701190Y94900000D01*
X32639285Y94838095D01*
X32577380Y94714285D01*
X32577380Y94590476D01*
X32639285Y94404761D01*
X33382142Y93661904D01*
X32577380Y93661904D01*
X31772619Y94961904D02*
X31648809Y94961904D01*
X31525000Y94900000D01*
X31463095Y94838095D01*
X31401190Y94714285D01*
X31339285Y94466666D01*
X31339285Y94157142D01*
X31401190Y93909523D01*
X31463095Y93785714D01*
X31525000Y93723809D01*
X31648809Y93661904D01*
X31772619Y93661904D01*
X31896428Y93723809D01*
X31958333Y93785714D01*
X32020238Y93909523D01*
X32082142Y94157142D01*
X32082142Y94466666D01*
X32020238Y94714285D01*
X31958333Y94838095D01*
X31896428Y94900000D01*
X31772619Y94961904D01*
X30844047Y94838095D02*
X30782142Y94900000D01*
X30658333Y94961904D01*
X30348809Y94961904D01*
X30225000Y94900000D01*
X30163095Y94838095D01*
X30101190Y94714285D01*
X30101190Y94590476D01*
X30163095Y94404761D01*
X30905952Y93661904D01*
X30101190Y93661904D01*
X28863095Y93661904D02*
X29605952Y93661904D01*
X29234523Y93661904D02*
X29234523Y94961904D01*
X29358333Y94776190D01*
X29482142Y94652380D01*
X29605952Y94590476D01*
X26572619Y93661904D02*
X27005952Y94280952D01*
X27315476Y93661904D02*
X27315476Y94961904D01*
X26820238Y94961904D01*
X26696428Y94900000D01*
X26634523Y94838095D01*
X26572619Y94714285D01*
X26572619Y94528571D01*
X26634523Y94404761D01*
X26696428Y94342857D01*
X26820238Y94280952D01*
X27315476Y94280952D01*
X25520238Y93723809D02*
X25644047Y93661904D01*
X25891666Y93661904D01*
X26015476Y93723809D01*
X26077380Y93847619D01*
X26077380Y94342857D01*
X26015476Y94466666D01*
X25891666Y94528571D01*
X25644047Y94528571D01*
X25520238Y94466666D01*
X25458333Y94342857D01*
X25458333Y94219047D01*
X26077380Y94095238D01*
X25025000Y94528571D02*
X24715476Y93661904D01*
X24405952Y94528571D01*
X23663095Y94961904D02*
X23539285Y94961904D01*
X23415476Y94900000D01*
X23353571Y94838095D01*
X23291666Y94714285D01*
X23229761Y94466666D01*
X23229761Y94157142D01*
X23291666Y93909523D01*
X23353571Y93785714D01*
X23415476Y93723809D01*
X23539285Y93661904D01*
X23663095Y93661904D01*
X23786904Y93723809D01*
X23848809Y93785714D01*
X23910714Y93909523D01*
X23972619Y94157142D01*
X23972619Y94466666D01*
X23910714Y94714285D01*
X23848809Y94838095D01*
X23786904Y94900000D01*
X23663095Y94961904D01*
D11*
%TO.C,RV2*%
X18126000Y42614000D02*
G75*
G03*
X18126000Y42614000I-381000J0D01*
G01*
%TD*%
M02*
