%TF.GenerationSoftware,KiCad,Pcbnew,(5.1.9)-1*%
%TF.CreationDate,2021-05-27T19:58:41+02:00*%
%TF.ProjectId,DifferentialProbe,44696666-6572-4656-9e74-69616c50726f,rev?*%
%TF.SameCoordinates,Original*%
%TF.FileFunction,Legend,Top*%
%TF.FilePolarity,Positive*%
%FSLAX46Y46*%
G04 Gerber Fmt 4.6, Leading zero omitted, Abs format (unit mm)*
G04 Created by KiCad (PCBNEW (5.1.9)-1) date 2021-05-27 19:58:41*
%MOMM*%
%LPD*%
G01*
G04 APERTURE LIST*
%ADD10C,0.300000*%
%ADD11C,0.200000*%
%ADD12C,0.152400*%
%ADD13C,0.120000*%
%ADD14C,0.127000*%
%ADD15C,0.100000*%
%ADD16C,0.150000*%
%ADD17C,0.254000*%
G04 APERTURE END LIST*
D10*
X41817142Y98011428D02*
X41817142Y99511428D01*
X42531428Y99011428D02*
X42531428Y98011428D01*
X42531428Y98868571D02*
X42602857Y98940000D01*
X42745714Y99011428D01*
X42960000Y99011428D01*
X43102857Y98940000D01*
X43174285Y98797142D01*
X43174285Y98011428D01*
X43888571Y99011428D02*
X43888571Y97511428D01*
X43888571Y98940000D02*
X44031428Y99011428D01*
X44317142Y99011428D01*
X44460000Y98940000D01*
X44531428Y98868571D01*
X44602857Y98725714D01*
X44602857Y98297142D01*
X44531428Y98154285D01*
X44460000Y98082857D01*
X44317142Y98011428D01*
X44031428Y98011428D01*
X43888571Y98082857D01*
X45888571Y99011428D02*
X45888571Y98011428D01*
X45245714Y99011428D02*
X45245714Y98225714D01*
X45317142Y98082857D01*
X45460000Y98011428D01*
X45674285Y98011428D01*
X45817142Y98082857D01*
X45888571Y98154285D01*
X46388571Y99011428D02*
X46960000Y99011428D01*
X46602857Y99511428D02*
X46602857Y98225714D01*
X46674285Y98082857D01*
X46817142Y98011428D01*
X46960000Y98011428D01*
X47460000Y98582857D02*
X48602857Y98582857D01*
X48031428Y98011428D02*
X48031428Y99154285D01*
X8097142Y97961428D02*
X8097142Y99461428D01*
X8811428Y98961428D02*
X8811428Y97961428D01*
X8811428Y98818571D02*
X8882857Y98890000D01*
X9025714Y98961428D01*
X9240000Y98961428D01*
X9382857Y98890000D01*
X9454285Y98747142D01*
X9454285Y97961428D01*
X10168571Y98961428D02*
X10168571Y97461428D01*
X10168571Y98890000D02*
X10311428Y98961428D01*
X10597142Y98961428D01*
X10740000Y98890000D01*
X10811428Y98818571D01*
X10882857Y98675714D01*
X10882857Y98247142D01*
X10811428Y98104285D01*
X10740000Y98032857D01*
X10597142Y97961428D01*
X10311428Y97961428D01*
X10168571Y98032857D01*
X12168571Y98961428D02*
X12168571Y97961428D01*
X11525714Y98961428D02*
X11525714Y98175714D01*
X11597142Y98032857D01*
X11740000Y97961428D01*
X11954285Y97961428D01*
X12097142Y98032857D01*
X12168571Y98104285D01*
X12668571Y98961428D02*
X13240000Y98961428D01*
X12882857Y99461428D02*
X12882857Y98175714D01*
X12954285Y98032857D01*
X13097142Y97961428D01*
X13240000Y97961428D01*
X13740000Y98532857D02*
X14882857Y98532857D01*
D11*
%TO.C,RV4*%
X43685880Y71209000D02*
G75*
G03*
X43685880Y71209000I-79880J0D01*
G01*
X53790000Y71590000D02*
X53790000Y66590000D01*
X44090000Y71590000D02*
X53790000Y71590000D01*
X44090000Y66590000D02*
X44090000Y71590000D01*
X53790000Y66590000D02*
X44090000Y66590000D01*
D12*
%TO.C,RV2*%
X18126000Y42614000D02*
G75*
G03*
X18126000Y42614000I-381000J0D01*
G01*
X17110000Y43630000D02*
X22317000Y43630000D01*
X17110000Y53790000D02*
X17110000Y43630000D01*
X22317000Y53790000D02*
X17110000Y53790000D01*
X22317000Y43630000D02*
X22317000Y53790000D01*
D13*
%TO.C,C25*%
X56215000Y68850000D02*
X56230000Y68850000D01*
X54090000Y68850000D02*
X54105000Y68850000D01*
X56215000Y64310000D02*
X56230000Y64310000D01*
X54090000Y64310000D02*
X54105000Y64310000D01*
X56230000Y64310000D02*
X56230000Y68850000D01*
X54090000Y64310000D02*
X54090000Y68850000D01*
%TO.C,C15*%
X36040000Y61841000D02*
X36040000Y63099000D01*
X34200000Y61841000D02*
X34200000Y63099000D01*
%TO.C,R1*%
X47375127Y88937900D02*
X46553552Y91528671D01*
X51672935Y95075806D02*
X48374657Y94129479D01*
X48365270Y93894912D02*
G75*
G03*
X48365270Y93894912I-1085089J0D01*
G01*
X47451511Y92589931D02*
G75*
G03*
X47451511Y92589931I-1085088J0D01*
G01*
%TO.C,U3*%
X51580000Y66030000D02*
X49930000Y66030000D01*
X51580000Y55750000D02*
X51580000Y66030000D01*
X46280000Y55750000D02*
X51580000Y55750000D01*
X46280000Y66030000D02*
X46280000Y55750000D01*
X47930000Y66030000D02*
X46280000Y66030000D01*
X49930000Y66030000D02*
G75*
G02*
X47930000Y66030000I-1000000J0D01*
G01*
D14*
%TO.C,U1*%
X1810000Y63346000D02*
X2497000Y62659000D01*
X1064000Y62600000D02*
X1810000Y63346000D01*
X1751000Y61913000D02*
X1064000Y62600000D01*
D11*
X460000Y60240000D02*
G75*
G03*
X460000Y60240000I-100000J0D01*
G01*
D14*
X2497000Y62659000D02*
G75*
G02*
X1751000Y61913000I1669354J-2415354D01*
G01*
D11*
%TO.C,SW1*%
X30370000Y48490000D02*
X30370000Y48490000D01*
X30370000Y48590000D02*
X30370000Y48590000D01*
X30370000Y48490000D02*
X30370000Y48490000D01*
D15*
X37120000Y57640000D02*
X38370000Y57640000D01*
X37120000Y57640000D02*
X37120000Y57640000D01*
X38370000Y57640000D02*
X37120000Y57640000D01*
X38370000Y57640000D02*
X38370000Y57640000D01*
X38370000Y43140000D02*
X38370000Y43140000D01*
X38370000Y57640000D02*
X38370000Y43140000D01*
X38370000Y57640000D02*
X38370000Y57640000D01*
X38370000Y43140000D02*
X38370000Y57640000D01*
X38370000Y43140000D02*
X37120000Y43140000D01*
X38370000Y43140000D02*
X38370000Y43140000D01*
X37120000Y43140000D02*
X38370000Y43140000D01*
X37120000Y43140000D02*
X37120000Y43140000D01*
X31370000Y57640000D02*
X32620000Y57640000D01*
X31370000Y57640000D02*
X31370000Y57640000D01*
X32620000Y57640000D02*
X31370000Y57640000D01*
X32620000Y57640000D02*
X32620000Y57640000D01*
X31370000Y43140000D02*
X31370000Y43140000D01*
X31370000Y57640000D02*
X31370000Y43140000D01*
X31370000Y57640000D02*
X31370000Y57640000D01*
X31370000Y43140000D02*
X31370000Y57640000D01*
X31370000Y43140000D02*
X32620000Y43140000D01*
X31370000Y43140000D02*
X31370000Y43140000D01*
X32620000Y43140000D02*
X31370000Y43140000D01*
X32620000Y43140000D02*
X32620000Y43140000D01*
D11*
X30370000Y48590000D02*
G75*
G02*
X30370000Y48490000I0J-50000D01*
G01*
X30370000Y48490000D02*
G75*
G02*
X30370000Y48590000I0J50000D01*
G01*
X30370000Y48590000D02*
G75*
G02*
X30370000Y48490000I0J-50000D01*
G01*
%TO.C,RV3*%
X36515000Y61652000D02*
G75*
G03*
X36515000Y61652000I-57000J0D01*
G01*
X43480000Y65110000D02*
X36880000Y65110000D01*
X43480000Y58120000D02*
X43480000Y65110000D01*
X36880000Y58120000D02*
X43480000Y58120000D01*
X36880000Y65110000D02*
X36880000Y58120000D01*
D13*
%TO.C,R22*%
X37610000Y70750000D02*
X36840000Y70750000D01*
X29530000Y70750000D02*
X30300000Y70750000D01*
X36840000Y72120000D02*
X30300000Y72120000D01*
X36840000Y69380000D02*
X36840000Y72120000D01*
X30300000Y69380000D02*
X36840000Y69380000D01*
X30300000Y72120000D02*
X30300000Y69380000D01*
%TO.C,R21*%
X54160000Y47920000D02*
X53390000Y47920000D01*
X46080000Y47920000D02*
X46850000Y47920000D01*
X53390000Y49290000D02*
X46850000Y49290000D01*
X53390000Y46550000D02*
X53390000Y49290000D01*
X46850000Y46550000D02*
X53390000Y46550000D01*
X46850000Y49290000D02*
X46850000Y46550000D01*
%TO.C,R20*%
X40720000Y68310000D02*
X40720000Y69260000D01*
X40720000Y74050000D02*
X40720000Y73100000D01*
X41640000Y69260000D02*
X41640000Y73100000D01*
X39800000Y69260000D02*
X41640000Y69260000D01*
X39800000Y73100000D02*
X39800000Y69260000D01*
X41640000Y73100000D02*
X39800000Y73100000D01*
%TO.C,R19*%
X14670000Y44990000D02*
X13900000Y44990000D01*
X6590000Y44990000D02*
X7360000Y44990000D01*
X13900000Y46360000D02*
X7360000Y46360000D01*
X13900000Y43620000D02*
X13900000Y46360000D01*
X7360000Y43620000D02*
X13900000Y43620000D01*
X7360000Y46360000D02*
X7360000Y43620000D01*
%TO.C,R18*%
X2450000Y46720000D02*
X2450000Y46650000D01*
X3820000Y48090000D02*
G75*
G03*
X3820000Y48090000I-1370000J0D01*
G01*
%TO.C,R17*%
X14160000Y66810000D02*
X14160000Y66880000D01*
X15530000Y65440000D02*
G75*
G03*
X15530000Y65440000I-1370000J0D01*
G01*
%TO.C,R16*%
X17290000Y66150000D02*
X17290000Y66080000D01*
X18660000Y67520000D02*
G75*
G03*
X18660000Y67520000I-1370000J0D01*
G01*
%TO.C,R15*%
X23500000Y73970000D02*
X23500000Y73200000D01*
X23500000Y65890000D02*
X23500000Y66660000D01*
X22130000Y73200000D02*
X22130000Y66660000D01*
X24870000Y73200000D02*
X22130000Y73200000D01*
X24870000Y66660000D02*
X24870000Y73200000D01*
X22130000Y66660000D02*
X24870000Y66660000D01*
%TO.C,R13*%
X29740000Y65760000D02*
X29740000Y64990000D01*
X29740000Y57680000D02*
X29740000Y58450000D01*
X28370000Y64990000D02*
X28370000Y58450000D01*
X31110000Y64990000D02*
X28370000Y64990000D01*
X31110000Y58450000D02*
X31110000Y64990000D01*
X28370000Y58450000D02*
X31110000Y58450000D01*
%TO.C,R12*%
X27070000Y45520000D02*
X27070000Y46290000D01*
X27070000Y53600000D02*
X27070000Y52830000D01*
X28440000Y46290000D02*
X28440000Y52830000D01*
X25700000Y46290000D02*
X28440000Y46290000D01*
X25700000Y52830000D02*
X25700000Y46290000D01*
X28440000Y52830000D02*
X25700000Y52830000D01*
%TO.C,R11*%
X42770000Y55770000D02*
X42770000Y54820000D01*
X42770000Y50030000D02*
X42770000Y50980000D01*
X41850000Y54820000D02*
X41850000Y50980000D01*
X43690000Y54820000D02*
X41850000Y54820000D01*
X43690000Y50980000D02*
X43690000Y54820000D01*
X41850000Y50980000D02*
X43690000Y50980000D01*
%TO.C,R10*%
X40080000Y55540000D02*
X40080000Y54770000D01*
X40080000Y47460000D02*
X40080000Y48230000D01*
X38710000Y54770000D02*
X38710000Y48230000D01*
X41450000Y54770000D02*
X38710000Y54770000D01*
X41450000Y48230000D02*
X41450000Y54770000D01*
X38710000Y48230000D02*
X41450000Y48230000D01*
%TO.C,R9*%
X20460000Y73940000D02*
X20460000Y73170000D01*
X20460000Y65860000D02*
X20460000Y66630000D01*
X19090000Y73170000D02*
X19090000Y66630000D01*
X21830000Y73170000D02*
X19090000Y73170000D01*
X21830000Y66630000D02*
X21830000Y73170000D01*
X19090000Y66630000D02*
X21830000Y66630000D01*
%TO.C,R8*%
X24010000Y53620000D02*
X24010000Y52850000D01*
X24010000Y45540000D02*
X24010000Y46310000D01*
X22640000Y52850000D02*
X22640000Y46310000D01*
X25380000Y52850000D02*
X22640000Y52850000D01*
X25380000Y46310000D02*
X25380000Y52850000D01*
X22640000Y46310000D02*
X25380000Y46310000D01*
%TO.C,R7*%
X55040000Y58640000D02*
X55040000Y57690000D01*
X55040000Y52900000D02*
X55040000Y53850000D01*
X54120000Y57690000D02*
X54120000Y53850000D01*
X55960000Y57690000D02*
X54120000Y57690000D01*
X55960000Y53850000D02*
X55960000Y57690000D01*
X54120000Y53850000D02*
X55960000Y53850000D01*
%TO.C,Q2*%
X555552Y56088499D02*
X1467719Y55176331D01*
X1545501Y57078448D02*
X555552Y56088499D01*
X2457669Y56166281D02*
X1545501Y57078448D01*
X1467850Y55176544D02*
G75*
G03*
X2457669Y56166281I2572150J-1582544D01*
G01*
%TO.C,Q1*%
X10345552Y61084499D02*
X11257719Y60172331D01*
X11335501Y62074448D02*
X10345552Y61084499D01*
X12247669Y61162281D02*
X11335501Y62074448D01*
X11257850Y60172544D02*
G75*
G03*
X12247669Y61162281I2572150J-1582544D01*
G01*
%TO.C,D3*%
X11100000Y51970000D02*
X11100000Y51814000D01*
X11100000Y54286000D02*
X11100000Y54130000D01*
X13701130Y51970163D02*
G75*
G02*
X11619039Y51970000I-1041130J1079837D01*
G01*
X13701130Y54129837D02*
G75*
G03*
X11619039Y54130000I-1041130J-1079837D01*
G01*
X14332335Y51971392D02*
G75*
G02*
X11100000Y51814484I-1672335J1078608D01*
G01*
X14332335Y54128608D02*
G75*
G03*
X11100000Y54285516I-1672335J-1078608D01*
G01*
%TO.C,C39*%
X50350000Y45945000D02*
X50350000Y45960000D01*
X50350000Y43820000D02*
X50350000Y43835000D01*
X54890000Y45945000D02*
X54890000Y45960000D01*
X54890000Y43820000D02*
X54890000Y43835000D01*
X54890000Y45960000D02*
X50350000Y45960000D01*
X54890000Y43820000D02*
X50350000Y43820000D01*
%TO.C,C26*%
X47840000Y53125000D02*
X47840000Y53140000D01*
X47840000Y51000000D02*
X47840000Y51015000D01*
X52380000Y53125000D02*
X52380000Y53140000D01*
X52380000Y51000000D02*
X52380000Y51015000D01*
X52380000Y53140000D02*
X47840000Y53140000D01*
X52380000Y51000000D02*
X47840000Y51000000D01*
%TO.C,C24*%
X33081000Y67160000D02*
X34339000Y67160000D01*
X33081000Y69000000D02*
X34339000Y69000000D01*
%TO.C,C23*%
X48261000Y53490000D02*
X49519000Y53490000D01*
X48261000Y55330000D02*
X49519000Y55330000D01*
%TO.C,C22*%
X34619000Y75910000D02*
X33361000Y75910000D01*
X34619000Y74070000D02*
X33361000Y74070000D01*
%TO.C,C21*%
X15450000Y46835000D02*
X15450000Y46820000D01*
X15450000Y48960000D02*
X15450000Y48945000D01*
X10910000Y46835000D02*
X10910000Y46820000D01*
X10910000Y48960000D02*
X10910000Y48945000D01*
X10910000Y46820000D02*
X15450000Y46820000D01*
X10910000Y48960000D02*
X15450000Y48960000D01*
%TO.C,C20*%
X9815000Y55760000D02*
X9830000Y55760000D01*
X7690000Y55760000D02*
X7705000Y55760000D01*
X9815000Y51220000D02*
X9830000Y51220000D01*
X7690000Y51220000D02*
X7705000Y51220000D01*
X9830000Y51220000D02*
X9830000Y55760000D01*
X7690000Y51220000D02*
X7690000Y55760000D01*
%TO.C,C18*%
X43690000Y45111000D02*
X43690000Y46369000D01*
X41850000Y45111000D02*
X41850000Y46369000D01*
%TO.C,C17*%
X33580000Y61861000D02*
X33580000Y63119000D01*
X31740000Y61861000D02*
X31740000Y63119000D01*
%TO.C,U2*%
X27865000Y59880000D02*
X27865000Y61830000D01*
X27865000Y59880000D02*
X27865000Y57930000D01*
X18995000Y59880000D02*
X18995000Y61830000D01*
X18995000Y59880000D02*
X18995000Y56430000D01*
D14*
%TO.C,C14*%
X25190000Y80580000D02*
X24690000Y81080000D01*
X25190000Y78380000D02*
X24690000Y77880000D01*
X20590000Y77880000D02*
X24690000Y77880000D01*
X20590000Y81080000D02*
X20590000Y77880000D01*
X24690000Y81080000D02*
X20590000Y81080000D01*
X25190000Y78380000D02*
X25190000Y80580000D01*
%TO.C,C10*%
X36290000Y80580000D02*
X35790000Y81080000D01*
X36290000Y78380000D02*
X35790000Y77880000D01*
X31690000Y77880000D02*
X35790000Y77880000D01*
X31690000Y81080000D02*
X31690000Y77880000D01*
X35790000Y81080000D02*
X31690000Y81080000D01*
X36290000Y78380000D02*
X36290000Y80580000D01*
D13*
%TO.C,R14*%
X27800000Y73190000D02*
X25060000Y73190000D01*
X25060000Y73190000D02*
X25060000Y66650000D01*
X25060000Y66650000D02*
X27800000Y66650000D01*
X27800000Y66650000D02*
X27800000Y73190000D01*
X26430000Y73960000D02*
X26430000Y73190000D01*
X26430000Y65880000D02*
X26430000Y66650000D01*
%TO.C,D2*%
X7116371Y69088000D02*
G75*
G03*
X7116371Y69088000I-1326371J0D01*
G01*
X5790000Y67761629D02*
X5790000Y67648000D01*
%TO.C,D1*%
X9896371Y69088000D02*
G75*
G03*
X9896371Y69088000I-1326371J0D01*
G01*
X8570000Y67761629D02*
X8570000Y67648000D01*
%TO.C,C16*%
X1940000Y65220000D02*
X1940000Y69760000D01*
X4080000Y65220000D02*
X4080000Y69760000D01*
X1940000Y65220000D02*
X1955000Y65220000D01*
X4065000Y65220000D02*
X4080000Y65220000D01*
X1940000Y69760000D02*
X1955000Y69760000D01*
X4065000Y69760000D02*
X4080000Y69760000D01*
%TO.C,C19*%
X12240000Y69760000D02*
X12240000Y65220000D01*
X10100000Y69760000D02*
X10100000Y65220000D01*
X12240000Y69760000D02*
X12225000Y69760000D01*
X10115000Y69760000D02*
X10100000Y69760000D01*
X12240000Y65220000D02*
X12225000Y65220000D01*
X10115000Y65220000D02*
X10100000Y65220000D01*
D12*
%TO.C,RV1*%
X31027000Y83111600D02*
X31027000Y93068400D01*
X31027000Y93068400D02*
X25693000Y93068400D01*
X25693000Y93068400D02*
X25693000Y83111600D01*
X25693000Y83111600D02*
X31027000Y83111600D01*
D13*
%TO.C,C13*%
X22241000Y86740000D02*
X23499000Y86740000D01*
X22241000Y84900000D02*
X23499000Y84900000D01*
%TO.C,C12*%
X22241000Y88840000D02*
X23499000Y88840000D01*
X22241000Y87000000D02*
X23499000Y87000000D01*
%TO.C,C11*%
X22241000Y90970000D02*
X23499000Y90970000D01*
X22241000Y89130000D02*
X23499000Y89130000D01*
%TO.C,C9*%
X33231000Y86750000D02*
X34489000Y86750000D01*
X33231000Y84910000D02*
X34489000Y84910000D01*
%TO.C,C8*%
X33231000Y88860000D02*
X34489000Y88860000D01*
X33231000Y87020000D02*
X34489000Y87020000D01*
%TO.C,C7*%
X33231000Y90960000D02*
X34489000Y90960000D01*
X33231000Y89120000D02*
X34489000Y89120000D01*
%TO.C,R4b1*%
X20080000Y84950000D02*
G75*
G03*
X20080000Y84950000I-920000J0D01*
G01*
X18509462Y85600538D02*
X16275004Y87834996D01*
%TO.C,R4a1*%
X16440000Y87230000D02*
G75*
G03*
X16440000Y87230000I-920000J0D01*
G01*
X14655483Y86915341D02*
X11686054Y85834558D01*
%TO.C,R6*%
X25040000Y92160000D02*
G75*
G03*
X25040000Y92160000I-920000J0D01*
G01*
X23200000Y92160000D02*
X22580000Y92160000D01*
%TO.C,R5*%
X35970000Y92170000D02*
G75*
G03*
X35970000Y92170000I-920000J0D01*
G01*
X34130000Y92170000D02*
X33510000Y92170000D01*
%TO.C,R3*%
X9194873Y88557900D02*
X10005980Y91606457D01*
X4897065Y94695806D02*
X8580284Y93863979D01*
X10791036Y93806289D02*
G75*
G03*
X10791036Y93806289I-1085088J0D01*
G01*
X11704794Y92501307D02*
G75*
G03*
X11704794Y92501307I-1085088J0D01*
G01*
%TO.C,C6*%
X17964681Y79921887D02*
X8865057Y78317378D01*
X17488885Y82620261D02*
X8389261Y81015751D01*
X17964681Y79921887D02*
X17842259Y80616177D01*
X17611307Y81925971D02*
X17488885Y82620261D01*
X8865057Y78317378D02*
X8742635Y79011668D01*
X8511683Y80321462D02*
X8389261Y81015751D01*
%TO.C,C5*%
X8116447Y77276081D02*
X1582780Y83809747D01*
X10053919Y79213553D02*
X3520253Y85747220D01*
X8116447Y77276081D02*
X8614957Y77774591D01*
X9555409Y78715043D02*
X10053919Y79213553D01*
X1582780Y83809747D02*
X2081290Y84308258D01*
X3021742Y85248710D02*
X3520253Y85747220D01*
%TO.C,C4*%
X3090000Y85480000D02*
X3090000Y94720000D01*
X5830000Y85480000D02*
X5830000Y94720000D01*
X3090000Y85480000D02*
X3795000Y85480000D01*
X5125000Y85480000D02*
X5830000Y85480000D01*
X3090000Y94720000D02*
X3795000Y94720000D01*
X5125000Y94720000D02*
X5830000Y94720000D01*
%TO.C,C3*%
X38831115Y82450261D02*
X47930739Y80845751D01*
X38355319Y79751887D02*
X47454943Y78147378D01*
X38831115Y82450261D02*
X38708693Y81755971D01*
X38477741Y80446177D02*
X38355319Y79751887D01*
X47930739Y80845751D02*
X47808317Y80151462D01*
X47577365Y78841668D02*
X47454943Y78147378D01*
%TO.C,C2*%
X46446081Y79213553D02*
X52979747Y85747220D01*
X48383553Y77276081D02*
X54917220Y83809747D01*
X46446081Y79213553D02*
X46944591Y78715043D01*
X47885043Y77774591D02*
X48383553Y77276081D01*
X52979747Y85747220D02*
X53478258Y85248710D01*
X54418710Y84308258D02*
X54917220Y83809747D01*
%TO.C,R2b1*%
X38770000Y84860000D02*
G75*
G03*
X38770000Y84860000I-920000J0D01*
G01*
X38500538Y85510538D02*
X40734996Y87744996D01*
%TO.C,R2a1*%
X42350000Y87280000D02*
G75*
G03*
X42350000Y87280000I-920000J0D01*
G01*
X42294517Y86965341D02*
X45263946Y85884558D01*
%TO.C,C1*%
X50740000Y85910000D02*
X50740000Y95150000D01*
X53480000Y85910000D02*
X53480000Y95150000D01*
X50740000Y85910000D02*
X51445000Y85910000D01*
X52775000Y85910000D02*
X53480000Y85910000D01*
X50740000Y95150000D02*
X51445000Y95150000D01*
X52775000Y95150000D02*
X53480000Y95150000D01*
%TO.C,J8*%
D16*
X54676666Y61787619D02*
X54676666Y61073333D01*
X54629047Y60930476D01*
X54533809Y60835238D01*
X54390952Y60787619D01*
X54295714Y60787619D01*
X55295714Y61359047D02*
X55200476Y61406666D01*
X55152857Y61454285D01*
X55105238Y61549523D01*
X55105238Y61597142D01*
X55152857Y61692380D01*
X55200476Y61740000D01*
X55295714Y61787619D01*
X55486190Y61787619D01*
X55581428Y61740000D01*
X55629047Y61692380D01*
X55676666Y61597142D01*
X55676666Y61549523D01*
X55629047Y61454285D01*
X55581428Y61406666D01*
X55486190Y61359047D01*
X55295714Y61359047D01*
X55200476Y61311428D01*
X55152857Y61263809D01*
X55105238Y61168571D01*
X55105238Y60978095D01*
X55152857Y60882857D01*
X55200476Y60835238D01*
X55295714Y60787619D01*
X55486190Y60787619D01*
X55581428Y60835238D01*
X55629047Y60882857D01*
X55676666Y60978095D01*
X55676666Y61168571D01*
X55629047Y61263809D01*
X55581428Y61311428D01*
X55486190Y61359047D01*
%TO.C,J7*%
X29206666Y74797619D02*
X29206666Y74083333D01*
X29159047Y73940476D01*
X29063809Y73845238D01*
X28920952Y73797619D01*
X28825714Y73797619D01*
X29587619Y74797619D02*
X30254285Y74797619D01*
X29825714Y73797619D01*
%TO.C,J6*%
X5254666Y64047619D02*
X5254666Y63333333D01*
X5207047Y63190476D01*
X5111809Y63095238D01*
X4968952Y63047619D01*
X4873714Y63047619D01*
X6159428Y64047619D02*
X5968952Y64047619D01*
X5873714Y64000000D01*
X5826095Y63952380D01*
X5730857Y63809523D01*
X5683238Y63619047D01*
X5683238Y63238095D01*
X5730857Y63142857D01*
X5778476Y63095238D01*
X5873714Y63047619D01*
X6064190Y63047619D01*
X6159428Y63095238D01*
X6207047Y63142857D01*
X6254666Y63238095D01*
X6254666Y63476190D01*
X6207047Y63571428D01*
X6159428Y63619047D01*
X6064190Y63666666D01*
X5873714Y63666666D01*
X5778476Y63619047D01*
X5730857Y63571428D01*
X5683238Y63476190D01*
%TO.C,J5*%
X8048666Y64047619D02*
X8048666Y63333333D01*
X8001047Y63190476D01*
X7905809Y63095238D01*
X7762952Y63047619D01*
X7667714Y63047619D01*
X9001047Y64047619D02*
X8524857Y64047619D01*
X8477238Y63571428D01*
X8524857Y63619047D01*
X8620095Y63666666D01*
X8858190Y63666666D01*
X8953428Y63619047D01*
X9001047Y63571428D01*
X9048666Y63476190D01*
X9048666Y63238095D01*
X9001047Y63142857D01*
X8953428Y63095238D01*
X8858190Y63047619D01*
X8620095Y63047619D01*
X8524857Y63095238D01*
X8477238Y63142857D01*
%TO.C,J4*%
X18970666Y81327619D02*
X18970666Y80613333D01*
X18923047Y80470476D01*
X18827809Y80375238D01*
X18684952Y80327619D01*
X18589714Y80327619D01*
X19875428Y80994285D02*
X19875428Y80327619D01*
X19637333Y81375238D02*
X19399238Y80660952D01*
X20018285Y80660952D01*
%TO.C,J3*%
X37004666Y81581619D02*
X37004666Y80867333D01*
X36957047Y80724476D01*
X36861809Y80629238D01*
X36718952Y80581619D01*
X36623714Y80581619D01*
X37385619Y81581619D02*
X38004666Y81581619D01*
X37671333Y81200666D01*
X37814190Y81200666D01*
X37909428Y81153047D01*
X37957047Y81105428D01*
X38004666Y81010190D01*
X38004666Y80772095D01*
X37957047Y80676857D01*
X37909428Y80629238D01*
X37814190Y80581619D01*
X37528476Y80581619D01*
X37433238Y80629238D01*
X37385619Y80676857D01*
%TO.C,RV4*%
D17*
X43694523Y68364047D02*
X43089761Y67940714D01*
X43694523Y67638333D02*
X42424523Y67638333D01*
X42424523Y68122142D01*
X42485000Y68243095D01*
X42545476Y68303571D01*
X42666428Y68364047D01*
X42847857Y68364047D01*
X42968809Y68303571D01*
X43029285Y68243095D01*
X43089761Y68122142D01*
X43089761Y67638333D01*
X42424523Y68726904D02*
X43694523Y69150238D01*
X42424523Y69573571D01*
X42847857Y70541190D02*
X43694523Y70541190D01*
X42364047Y70238809D02*
X43271190Y69936428D01*
X43271190Y70722619D01*
%TO.C,RV2*%
D16*
X19054761Y54411619D02*
X18721428Y54887809D01*
X18483333Y54411619D02*
X18483333Y55411619D01*
X18864285Y55411619D01*
X18959523Y55364000D01*
X19007142Y55316380D01*
X19054761Y55221142D01*
X19054761Y55078285D01*
X19007142Y54983047D01*
X18959523Y54935428D01*
X18864285Y54887809D01*
X18483333Y54887809D01*
X19340476Y55411619D02*
X19673809Y54411619D01*
X20007142Y55411619D01*
X20292857Y55316380D02*
X20340476Y55364000D01*
X20435714Y55411619D01*
X20673809Y55411619D01*
X20769047Y55364000D01*
X20816666Y55316380D01*
X20864285Y55221142D01*
X20864285Y55125904D01*
X20816666Y54983047D01*
X20245238Y54411619D01*
X20864285Y54411619D01*
%TO.C,C25*%
X54967142Y70947142D02*
X55014761Y70899523D01*
X55062380Y70756666D01*
X55062380Y70661428D01*
X55014761Y70518571D01*
X54919523Y70423333D01*
X54824285Y70375714D01*
X54633809Y70328095D01*
X54490952Y70328095D01*
X54300476Y70375714D01*
X54205238Y70423333D01*
X54110000Y70518571D01*
X54062380Y70661428D01*
X54062380Y70756666D01*
X54110000Y70899523D01*
X54157619Y70947142D01*
X54157619Y71328095D02*
X54110000Y71375714D01*
X54062380Y71470952D01*
X54062380Y71709047D01*
X54110000Y71804285D01*
X54157619Y71851904D01*
X54252857Y71899523D01*
X54348095Y71899523D01*
X54490952Y71851904D01*
X55062380Y71280476D01*
X55062380Y71899523D01*
X54062380Y72804285D02*
X54062380Y72328095D01*
X54538571Y72280476D01*
X54490952Y72328095D01*
X54443333Y72423333D01*
X54443333Y72661428D01*
X54490952Y72756666D01*
X54538571Y72804285D01*
X54633809Y72851904D01*
X54871904Y72851904D01*
X54967142Y72804285D01*
X55014761Y72756666D01*
X55062380Y72661428D01*
X55062380Y72423333D01*
X55014761Y72328095D01*
X54967142Y72280476D01*
%TO.C,C15*%
X35577142Y65227142D02*
X35624761Y65179523D01*
X35672380Y65036666D01*
X35672380Y64941428D01*
X35624761Y64798571D01*
X35529523Y64703333D01*
X35434285Y64655714D01*
X35243809Y64608095D01*
X35100952Y64608095D01*
X34910476Y64655714D01*
X34815238Y64703333D01*
X34720000Y64798571D01*
X34672380Y64941428D01*
X34672380Y65036666D01*
X34720000Y65179523D01*
X34767619Y65227142D01*
X35672380Y66179523D02*
X35672380Y65608095D01*
X35672380Y65893809D02*
X34672380Y65893809D01*
X34815238Y65798571D01*
X34910476Y65703333D01*
X34958095Y65608095D01*
X34672380Y67084285D02*
X34672380Y66608095D01*
X35148571Y66560476D01*
X35100952Y66608095D01*
X35053333Y66703333D01*
X35053333Y66941428D01*
X35100952Y67036666D01*
X35148571Y67084285D01*
X35243809Y67131904D01*
X35481904Y67131904D01*
X35577142Y67084285D01*
X35624761Y67036666D01*
X35672380Y66941428D01*
X35672380Y66703333D01*
X35624761Y66608095D01*
X35577142Y66560476D01*
%TO.C,R1*%
X48013332Y95417619D02*
X47679999Y95893809D01*
X47441903Y95417619D02*
X47441903Y96417619D01*
X47822856Y96417619D01*
X47918094Y96370000D01*
X47965713Y96322380D01*
X48013332Y96227142D01*
X48013332Y96084285D01*
X47965713Y95989047D01*
X47918094Y95941428D01*
X47822856Y95893809D01*
X47441903Y95893809D01*
X48965713Y95417619D02*
X48394284Y95417619D01*
X48679999Y95417619D02*
X48679999Y96417619D01*
X48584760Y96274761D01*
X48489522Y96179523D01*
X48394284Y96131904D01*
%TO.C,U3*%
X42164095Y66587619D02*
X42164095Y65778095D01*
X42211714Y65682857D01*
X42259333Y65635238D01*
X42354571Y65587619D01*
X42545047Y65587619D01*
X42640285Y65635238D01*
X42687904Y65682857D01*
X42735523Y65778095D01*
X42735523Y66587619D01*
X43116476Y66587619D02*
X43735523Y66587619D01*
X43402190Y66206666D01*
X43545047Y66206666D01*
X43640285Y66159047D01*
X43687904Y66111428D01*
X43735523Y66016190D01*
X43735523Y65778095D01*
X43687904Y65682857D01*
X43640285Y65635238D01*
X43545047Y65587619D01*
X43259333Y65587619D01*
X43164095Y65635238D01*
X43116476Y65682857D01*
%TO.C,U1*%
X7366095Y62269619D02*
X7366095Y61460095D01*
X7413714Y61364857D01*
X7461333Y61317238D01*
X7556571Y61269619D01*
X7747047Y61269619D01*
X7842285Y61317238D01*
X7889904Y61364857D01*
X7937523Y61460095D01*
X7937523Y62269619D01*
X8937523Y61269619D02*
X8366095Y61269619D01*
X8651809Y61269619D02*
X8651809Y62269619D01*
X8556571Y62126761D01*
X8461333Y62031523D01*
X8366095Y61983904D01*
%TO.C,SW1*%
D17*
X32596666Y38601952D02*
X32778095Y38541476D01*
X33080476Y38541476D01*
X33201428Y38601952D01*
X33261904Y38662428D01*
X33322380Y38783380D01*
X33322380Y38904333D01*
X33261904Y39025285D01*
X33201428Y39085761D01*
X33080476Y39146238D01*
X32838571Y39206714D01*
X32717619Y39267190D01*
X32657142Y39327666D01*
X32596666Y39448619D01*
X32596666Y39569571D01*
X32657142Y39690523D01*
X32717619Y39751000D01*
X32838571Y39811476D01*
X33140952Y39811476D01*
X33322380Y39751000D01*
X33745714Y39811476D02*
X34048095Y38541476D01*
X34290000Y39448619D01*
X34531904Y38541476D01*
X34834285Y39811476D01*
X35983333Y38541476D02*
X35257619Y38541476D01*
X35620476Y38541476D02*
X35620476Y39811476D01*
X35499523Y39630047D01*
X35378571Y39509095D01*
X35257619Y39448619D01*
%TO.C,RV3*%
X37504047Y65425476D02*
X37080714Y66030238D01*
X36778333Y65425476D02*
X36778333Y66695476D01*
X37262142Y66695476D01*
X37383095Y66635000D01*
X37443571Y66574523D01*
X37504047Y66453571D01*
X37504047Y66272142D01*
X37443571Y66151190D01*
X37383095Y66090714D01*
X37262142Y66030238D01*
X36778333Y66030238D01*
X37866904Y66695476D02*
X38290238Y65425476D01*
X38713571Y66695476D01*
X39015952Y66695476D02*
X39802142Y66695476D01*
X39378809Y66211666D01*
X39560238Y66211666D01*
X39681190Y66151190D01*
X39741666Y66090714D01*
X39802142Y65969761D01*
X39802142Y65667380D01*
X39741666Y65546428D01*
X39681190Y65485952D01*
X39560238Y65425476D01*
X39197380Y65425476D01*
X39076428Y65485952D01*
X39015952Y65546428D01*
%TO.C,R22*%
D16*
X33117142Y72537619D02*
X32783809Y73013809D01*
X32545714Y72537619D02*
X32545714Y73537619D01*
X32926666Y73537619D01*
X33021904Y73490000D01*
X33069523Y73442380D01*
X33117142Y73347142D01*
X33117142Y73204285D01*
X33069523Y73109047D01*
X33021904Y73061428D01*
X32926666Y73013809D01*
X32545714Y73013809D01*
X33498095Y73442380D02*
X33545714Y73490000D01*
X33640952Y73537619D01*
X33879047Y73537619D01*
X33974285Y73490000D01*
X34021904Y73442380D01*
X34069523Y73347142D01*
X34069523Y73251904D01*
X34021904Y73109047D01*
X33450476Y72537619D01*
X34069523Y72537619D01*
X34450476Y73442380D02*
X34498095Y73490000D01*
X34593333Y73537619D01*
X34831428Y73537619D01*
X34926666Y73490000D01*
X34974285Y73442380D01*
X35021904Y73347142D01*
X35021904Y73251904D01*
X34974285Y73109047D01*
X34402857Y72537619D01*
X35021904Y72537619D01*
%TO.C,R21*%
X46855142Y45137619D02*
X46521809Y45613809D01*
X46283714Y45137619D02*
X46283714Y46137619D01*
X46664666Y46137619D01*
X46759904Y46090000D01*
X46807523Y46042380D01*
X46855142Y45947142D01*
X46855142Y45804285D01*
X46807523Y45709047D01*
X46759904Y45661428D01*
X46664666Y45613809D01*
X46283714Y45613809D01*
X47236095Y46042380D02*
X47283714Y46090000D01*
X47378952Y46137619D01*
X47617047Y46137619D01*
X47712285Y46090000D01*
X47759904Y46042380D01*
X47807523Y45947142D01*
X47807523Y45851904D01*
X47759904Y45709047D01*
X47188476Y45137619D01*
X47807523Y45137619D01*
X48759904Y45137619D02*
X48188476Y45137619D01*
X48474190Y45137619D02*
X48474190Y46137619D01*
X48378952Y45994761D01*
X48283714Y45899523D01*
X48188476Y45851904D01*
%TO.C,R20*%
X39322380Y73407142D02*
X38846190Y73073809D01*
X39322380Y72835714D02*
X38322380Y72835714D01*
X38322380Y73216666D01*
X38370000Y73311904D01*
X38417619Y73359523D01*
X38512857Y73407142D01*
X38655714Y73407142D01*
X38750952Y73359523D01*
X38798571Y73311904D01*
X38846190Y73216666D01*
X38846190Y72835714D01*
X38417619Y73788095D02*
X38370000Y73835714D01*
X38322380Y73930952D01*
X38322380Y74169047D01*
X38370000Y74264285D01*
X38417619Y74311904D01*
X38512857Y74359523D01*
X38608095Y74359523D01*
X38750952Y74311904D01*
X39322380Y73740476D01*
X39322380Y74359523D01*
X38322380Y74978571D02*
X38322380Y75073809D01*
X38370000Y75169047D01*
X38417619Y75216666D01*
X38512857Y75264285D01*
X38703333Y75311904D01*
X38941428Y75311904D01*
X39131904Y75264285D01*
X39227142Y75216666D01*
X39274761Y75169047D01*
X39322380Y75073809D01*
X39322380Y74978571D01*
X39274761Y74883333D01*
X39227142Y74835714D01*
X39131904Y74788095D01*
X38941428Y74740476D01*
X38703333Y74740476D01*
X38512857Y74788095D01*
X38417619Y74835714D01*
X38370000Y74883333D01*
X38322380Y74978571D01*
%TO.C,R19*%
X11549142Y42219619D02*
X11215809Y42695809D01*
X10977714Y42219619D02*
X10977714Y43219619D01*
X11358666Y43219619D01*
X11453904Y43172000D01*
X11501523Y43124380D01*
X11549142Y43029142D01*
X11549142Y42886285D01*
X11501523Y42791047D01*
X11453904Y42743428D01*
X11358666Y42695809D01*
X10977714Y42695809D01*
X12501523Y42219619D02*
X11930095Y42219619D01*
X12215809Y42219619D02*
X12215809Y43219619D01*
X12120571Y43076761D01*
X12025333Y42981523D01*
X11930095Y42933904D01*
X12977714Y42219619D02*
X13168190Y42219619D01*
X13263428Y42267238D01*
X13311047Y42314857D01*
X13406285Y42457714D01*
X13453904Y42648190D01*
X13453904Y43029142D01*
X13406285Y43124380D01*
X13358666Y43172000D01*
X13263428Y43219619D01*
X13072952Y43219619D01*
X12977714Y43172000D01*
X12930095Y43124380D01*
X12882476Y43029142D01*
X12882476Y42791047D01*
X12930095Y42695809D01*
X12977714Y42648190D01*
X13072952Y42600571D01*
X13263428Y42600571D01*
X13358666Y42648190D01*
X13406285Y42695809D01*
X13453904Y42791047D01*
%TO.C,R18*%
X5272380Y47617142D02*
X4796190Y47283809D01*
X5272380Y47045714D02*
X4272380Y47045714D01*
X4272380Y47426666D01*
X4320000Y47521904D01*
X4367619Y47569523D01*
X4462857Y47617142D01*
X4605714Y47617142D01*
X4700952Y47569523D01*
X4748571Y47521904D01*
X4796190Y47426666D01*
X4796190Y47045714D01*
X5272380Y48569523D02*
X5272380Y47998095D01*
X5272380Y48283809D02*
X4272380Y48283809D01*
X4415238Y48188571D01*
X4510476Y48093333D01*
X4558095Y47998095D01*
X4700952Y49140952D02*
X4653333Y49045714D01*
X4605714Y48998095D01*
X4510476Y48950476D01*
X4462857Y48950476D01*
X4367619Y48998095D01*
X4320000Y49045714D01*
X4272380Y49140952D01*
X4272380Y49331428D01*
X4320000Y49426666D01*
X4367619Y49474285D01*
X4462857Y49521904D01*
X4510476Y49521904D01*
X4605714Y49474285D01*
X4653333Y49426666D01*
X4700952Y49331428D01*
X4700952Y49140952D01*
X4748571Y49045714D01*
X4796190Y48998095D01*
X4891428Y48950476D01*
X5081904Y48950476D01*
X5177142Y48998095D01*
X5224761Y49045714D01*
X5272380Y49140952D01*
X5272380Y49331428D01*
X5224761Y49426666D01*
X5177142Y49474285D01*
X5081904Y49521904D01*
X4891428Y49521904D01*
X4796190Y49474285D01*
X4748571Y49426666D01*
X4700952Y49331428D01*
%TO.C,R17*%
X10487142Y62637619D02*
X10153809Y63113809D01*
X9915714Y62637619D02*
X9915714Y63637619D01*
X10296666Y63637619D01*
X10391904Y63590000D01*
X10439523Y63542380D01*
X10487142Y63447142D01*
X10487142Y63304285D01*
X10439523Y63209047D01*
X10391904Y63161428D01*
X10296666Y63113809D01*
X9915714Y63113809D01*
X11439523Y62637619D02*
X10868095Y62637619D01*
X11153809Y62637619D02*
X11153809Y63637619D01*
X11058571Y63494761D01*
X10963333Y63399523D01*
X10868095Y63351904D01*
X11772857Y63637619D02*
X12439523Y63637619D01*
X12010952Y62637619D01*
%TO.C,R16*%
X16647142Y69287619D02*
X16313809Y69763809D01*
X16075714Y69287619D02*
X16075714Y70287619D01*
X16456666Y70287619D01*
X16551904Y70240000D01*
X16599523Y70192380D01*
X16647142Y70097142D01*
X16647142Y69954285D01*
X16599523Y69859047D01*
X16551904Y69811428D01*
X16456666Y69763809D01*
X16075714Y69763809D01*
X17599523Y69287619D02*
X17028095Y69287619D01*
X17313809Y69287619D02*
X17313809Y70287619D01*
X17218571Y70144761D01*
X17123333Y70049523D01*
X17028095Y70001904D01*
X18456666Y70287619D02*
X18266190Y70287619D01*
X18170952Y70240000D01*
X18123333Y70192380D01*
X18028095Y70049523D01*
X17980476Y69859047D01*
X17980476Y69478095D01*
X18028095Y69382857D01*
X18075714Y69335238D01*
X18170952Y69287619D01*
X18361428Y69287619D01*
X18456666Y69335238D01*
X18504285Y69382857D01*
X18551904Y69478095D01*
X18551904Y69716190D01*
X18504285Y69811428D01*
X18456666Y69859047D01*
X18361428Y69906666D01*
X18170952Y69906666D01*
X18075714Y69859047D01*
X18028095Y69811428D01*
X17980476Y69716190D01*
%TO.C,R15*%
X22867142Y76417619D02*
X22533809Y76893809D01*
X22295714Y76417619D02*
X22295714Y77417619D01*
X22676666Y77417619D01*
X22771904Y77370000D01*
X22819523Y77322380D01*
X22867142Y77227142D01*
X22867142Y77084285D01*
X22819523Y76989047D01*
X22771904Y76941428D01*
X22676666Y76893809D01*
X22295714Y76893809D01*
X23819523Y76417619D02*
X23248095Y76417619D01*
X23533809Y76417619D02*
X23533809Y77417619D01*
X23438571Y77274761D01*
X23343333Y77179523D01*
X23248095Y77131904D01*
X24724285Y77417619D02*
X24248095Y77417619D01*
X24200476Y76941428D01*
X24248095Y76989047D01*
X24343333Y77036666D01*
X24581428Y77036666D01*
X24676666Y76989047D01*
X24724285Y76941428D01*
X24771904Y76846190D01*
X24771904Y76608095D01*
X24724285Y76512857D01*
X24676666Y76465238D01*
X24581428Y76417619D01*
X24343333Y76417619D01*
X24248095Y76465238D01*
X24200476Y76512857D01*
%TO.C,R13*%
X29075142Y68127619D02*
X28741809Y68603809D01*
X28503714Y68127619D02*
X28503714Y69127619D01*
X28884666Y69127619D01*
X28979904Y69080000D01*
X29027523Y69032380D01*
X29075142Y68937142D01*
X29075142Y68794285D01*
X29027523Y68699047D01*
X28979904Y68651428D01*
X28884666Y68603809D01*
X28503714Y68603809D01*
X30027523Y68127619D02*
X29456095Y68127619D01*
X29741809Y68127619D02*
X29741809Y69127619D01*
X29646571Y68984761D01*
X29551333Y68889523D01*
X29456095Y68841904D01*
X30360857Y69127619D02*
X30979904Y69127619D01*
X30646571Y68746666D01*
X30789428Y68746666D01*
X30884666Y68699047D01*
X30932285Y68651428D01*
X30979904Y68556190D01*
X30979904Y68318095D01*
X30932285Y68222857D01*
X30884666Y68175238D01*
X30789428Y68127619D01*
X30503714Y68127619D01*
X30408476Y68175238D01*
X30360857Y68222857D01*
%TO.C,R12*%
X28392380Y41267142D02*
X27916190Y40933809D01*
X28392380Y40695714D02*
X27392380Y40695714D01*
X27392380Y41076666D01*
X27440000Y41171904D01*
X27487619Y41219523D01*
X27582857Y41267142D01*
X27725714Y41267142D01*
X27820952Y41219523D01*
X27868571Y41171904D01*
X27916190Y41076666D01*
X27916190Y40695714D01*
X28392380Y42219523D02*
X28392380Y41648095D01*
X28392380Y41933809D02*
X27392380Y41933809D01*
X27535238Y41838571D01*
X27630476Y41743333D01*
X27678095Y41648095D01*
X27487619Y42600476D02*
X27440000Y42648095D01*
X27392380Y42743333D01*
X27392380Y42981428D01*
X27440000Y43076666D01*
X27487619Y43124285D01*
X27582857Y43171904D01*
X27678095Y43171904D01*
X27820952Y43124285D01*
X28392380Y42552857D01*
X28392380Y43171904D01*
%TO.C,R11*%
X44569142Y49839619D02*
X44235809Y50315809D01*
X43997714Y49839619D02*
X43997714Y50839619D01*
X44378666Y50839619D01*
X44473904Y50792000D01*
X44521523Y50744380D01*
X44569142Y50649142D01*
X44569142Y50506285D01*
X44521523Y50411047D01*
X44473904Y50363428D01*
X44378666Y50315809D01*
X43997714Y50315809D01*
X45521523Y49839619D02*
X44950095Y49839619D01*
X45235809Y49839619D02*
X45235809Y50839619D01*
X45140571Y50696761D01*
X45045333Y50601523D01*
X44950095Y50553904D01*
X46473904Y49839619D02*
X45902476Y49839619D01*
X46188190Y49839619D02*
X46188190Y50839619D01*
X46092952Y50696761D01*
X45997714Y50601523D01*
X45902476Y50553904D01*
%TO.C,R10*%
X40592380Y43247142D02*
X40116190Y42913809D01*
X40592380Y42675714D02*
X39592380Y42675714D01*
X39592380Y43056666D01*
X39640000Y43151904D01*
X39687619Y43199523D01*
X39782857Y43247142D01*
X39925714Y43247142D01*
X40020952Y43199523D01*
X40068571Y43151904D01*
X40116190Y43056666D01*
X40116190Y42675714D01*
X40592380Y44199523D02*
X40592380Y43628095D01*
X40592380Y43913809D02*
X39592380Y43913809D01*
X39735238Y43818571D01*
X39830476Y43723333D01*
X39878095Y43628095D01*
X39592380Y44818571D02*
X39592380Y44913809D01*
X39640000Y45009047D01*
X39687619Y45056666D01*
X39782857Y45104285D01*
X39973333Y45151904D01*
X40211428Y45151904D01*
X40401904Y45104285D01*
X40497142Y45056666D01*
X40544761Y45009047D01*
X40592380Y44913809D01*
X40592380Y44818571D01*
X40544761Y44723333D01*
X40497142Y44675714D01*
X40401904Y44628095D01*
X40211428Y44580476D01*
X39973333Y44580476D01*
X39782857Y44628095D01*
X39687619Y44675714D01*
X39640000Y44723333D01*
X39592380Y44818571D01*
%TO.C,R9*%
X20293333Y76337619D02*
X19960000Y76813809D01*
X19721904Y76337619D02*
X19721904Y77337619D01*
X20102857Y77337619D01*
X20198095Y77290000D01*
X20245714Y77242380D01*
X20293333Y77147142D01*
X20293333Y77004285D01*
X20245714Y76909047D01*
X20198095Y76861428D01*
X20102857Y76813809D01*
X19721904Y76813809D01*
X20769523Y76337619D02*
X20960000Y76337619D01*
X21055238Y76385238D01*
X21102857Y76432857D01*
X21198095Y76575714D01*
X21245714Y76766190D01*
X21245714Y77147142D01*
X21198095Y77242380D01*
X21150476Y77290000D01*
X21055238Y77337619D01*
X20864761Y77337619D01*
X20769523Y77290000D01*
X20721904Y77242380D01*
X20674285Y77147142D01*
X20674285Y76909047D01*
X20721904Y76813809D01*
X20769523Y76766190D01*
X20864761Y76718571D01*
X21055238Y76718571D01*
X21150476Y76766190D01*
X21198095Y76813809D01*
X21245714Y76909047D01*
%TO.C,R8*%
X23820380Y41997333D02*
X23344190Y41664000D01*
X23820380Y41425904D02*
X22820380Y41425904D01*
X22820380Y41806857D01*
X22868000Y41902095D01*
X22915619Y41949714D01*
X23010857Y41997333D01*
X23153714Y41997333D01*
X23248952Y41949714D01*
X23296571Y41902095D01*
X23344190Y41806857D01*
X23344190Y41425904D01*
X23248952Y42568761D02*
X23201333Y42473523D01*
X23153714Y42425904D01*
X23058476Y42378285D01*
X23010857Y42378285D01*
X22915619Y42425904D01*
X22868000Y42473523D01*
X22820380Y42568761D01*
X22820380Y42759238D01*
X22868000Y42854476D01*
X22915619Y42902095D01*
X23010857Y42949714D01*
X23058476Y42949714D01*
X23153714Y42902095D01*
X23201333Y42854476D01*
X23248952Y42759238D01*
X23248952Y42568761D01*
X23296571Y42473523D01*
X23344190Y42425904D01*
X23439428Y42378285D01*
X23629904Y42378285D01*
X23725142Y42425904D01*
X23772761Y42473523D01*
X23820380Y42568761D01*
X23820380Y42759238D01*
X23772761Y42854476D01*
X23725142Y42902095D01*
X23629904Y42949714D01*
X23439428Y42949714D01*
X23344190Y42902095D01*
X23296571Y42854476D01*
X23248952Y42759238D01*
%TO.C,R7*%
X53562380Y54393333D02*
X53086190Y54060000D01*
X53562380Y53821904D02*
X52562380Y53821904D01*
X52562380Y54202857D01*
X52610000Y54298095D01*
X52657619Y54345714D01*
X52752857Y54393333D01*
X52895714Y54393333D01*
X52990952Y54345714D01*
X53038571Y54298095D01*
X53086190Y54202857D01*
X53086190Y53821904D01*
X52562380Y54726666D02*
X52562380Y55393333D01*
X53562380Y54964761D01*
%TO.C,Q2*%
X1224761Y49946380D02*
X1129523Y49994000D01*
X1034285Y50089238D01*
X891428Y50232095D01*
X796190Y50279714D01*
X700952Y50279714D01*
X748571Y50041619D02*
X653333Y50089238D01*
X558095Y50184476D01*
X510476Y50374952D01*
X510476Y50708285D01*
X558095Y50898761D01*
X653333Y50994000D01*
X748571Y51041619D01*
X939047Y51041619D01*
X1034285Y50994000D01*
X1129523Y50898761D01*
X1177142Y50708285D01*
X1177142Y50374952D01*
X1129523Y50184476D01*
X1034285Y50089238D01*
X939047Y50041619D01*
X748571Y50041619D01*
X1558095Y50946380D02*
X1605714Y50994000D01*
X1700952Y51041619D01*
X1939047Y51041619D01*
X2034285Y50994000D01*
X2081904Y50946380D01*
X2129523Y50851142D01*
X2129523Y50755904D01*
X2081904Y50613047D01*
X1510476Y50041619D01*
X2129523Y50041619D01*
%TO.C,Q1*%
X9834761Y59412380D02*
X9739523Y59460000D01*
X9644285Y59555238D01*
X9501428Y59698095D01*
X9406190Y59745714D01*
X9310952Y59745714D01*
X9358571Y59507619D02*
X9263333Y59555238D01*
X9168095Y59650476D01*
X9120476Y59840952D01*
X9120476Y60174285D01*
X9168095Y60364761D01*
X9263333Y60460000D01*
X9358571Y60507619D01*
X9549047Y60507619D01*
X9644285Y60460000D01*
X9739523Y60364761D01*
X9787142Y60174285D01*
X9787142Y59840952D01*
X9739523Y59650476D01*
X9644285Y59555238D01*
X9549047Y59507619D01*
X9358571Y59507619D01*
X10739523Y59507619D02*
X10168095Y59507619D01*
X10453809Y59507619D02*
X10453809Y60507619D01*
X10358571Y60364761D01*
X10263333Y60269523D01*
X10168095Y60221904D01*
%TO.C,J2*%
X31036666Y37087619D02*
X31036666Y36373333D01*
X30989047Y36230476D01*
X30893809Y36135238D01*
X30750952Y36087619D01*
X30655714Y36087619D01*
X31465238Y36992380D02*
X31512857Y37040000D01*
X31608095Y37087619D01*
X31846190Y37087619D01*
X31941428Y37040000D01*
X31989047Y36992380D01*
X32036666Y36897142D01*
X32036666Y36801904D01*
X31989047Y36659047D01*
X31417619Y36087619D01*
X32036666Y36087619D01*
%TO.C,J1*%
X44046666Y37127619D02*
X44046666Y36413333D01*
X43999047Y36270476D01*
X43903809Y36175238D01*
X43760952Y36127619D01*
X43665714Y36127619D01*
X45046666Y36127619D02*
X44475238Y36127619D01*
X44760952Y36127619D02*
X44760952Y37127619D01*
X44665714Y36984761D01*
X44570476Y36889523D01*
X44475238Y36841904D01*
%TO.C,D3*%
X15341904Y54157619D02*
X15341904Y55157619D01*
X15580000Y55157619D01*
X15722857Y55110000D01*
X15818095Y55014761D01*
X15865714Y54919523D01*
X15913333Y54729047D01*
X15913333Y54586190D01*
X15865714Y54395714D01*
X15818095Y54300476D01*
X15722857Y54205238D01*
X15580000Y54157619D01*
X15341904Y54157619D01*
X16246666Y55157619D02*
X16865714Y55157619D01*
X16532380Y54776666D01*
X16675238Y54776666D01*
X16770476Y54729047D01*
X16818095Y54681428D01*
X16865714Y54586190D01*
X16865714Y54348095D01*
X16818095Y54252857D01*
X16770476Y54205238D01*
X16675238Y54157619D01*
X16389523Y54157619D01*
X16294285Y54205238D01*
X16246666Y54252857D01*
%TO.C,C39*%
X49649142Y42568857D02*
X49601523Y42521238D01*
X49458666Y42473619D01*
X49363428Y42473619D01*
X49220571Y42521238D01*
X49125333Y42616476D01*
X49077714Y42711714D01*
X49030095Y42902190D01*
X49030095Y43045047D01*
X49077714Y43235523D01*
X49125333Y43330761D01*
X49220571Y43426000D01*
X49363428Y43473619D01*
X49458666Y43473619D01*
X49601523Y43426000D01*
X49649142Y43378380D01*
X49982476Y43473619D02*
X50601523Y43473619D01*
X50268190Y43092666D01*
X50411047Y43092666D01*
X50506285Y43045047D01*
X50553904Y42997428D01*
X50601523Y42902190D01*
X50601523Y42664095D01*
X50553904Y42568857D01*
X50506285Y42521238D01*
X50411047Y42473619D01*
X50125333Y42473619D01*
X50030095Y42521238D01*
X49982476Y42568857D01*
X51077714Y42473619D02*
X51268190Y42473619D01*
X51363428Y42521238D01*
X51411047Y42568857D01*
X51506285Y42711714D01*
X51553904Y42902190D01*
X51553904Y43283142D01*
X51506285Y43378380D01*
X51458666Y43426000D01*
X51363428Y43473619D01*
X51172952Y43473619D01*
X51077714Y43426000D01*
X51030095Y43378380D01*
X50982476Y43283142D01*
X50982476Y43045047D01*
X51030095Y42949809D01*
X51077714Y42902190D01*
X51172952Y42854571D01*
X51363428Y42854571D01*
X51458666Y42902190D01*
X51506285Y42949809D01*
X51553904Y43045047D01*
%TO.C,C26*%
X44527142Y51712857D02*
X44479523Y51665238D01*
X44336666Y51617619D01*
X44241428Y51617619D01*
X44098571Y51665238D01*
X44003333Y51760476D01*
X43955714Y51855714D01*
X43908095Y52046190D01*
X43908095Y52189047D01*
X43955714Y52379523D01*
X44003333Y52474761D01*
X44098571Y52570000D01*
X44241428Y52617619D01*
X44336666Y52617619D01*
X44479523Y52570000D01*
X44527142Y52522380D01*
X44908095Y52522380D02*
X44955714Y52570000D01*
X45050952Y52617619D01*
X45289047Y52617619D01*
X45384285Y52570000D01*
X45431904Y52522380D01*
X45479523Y52427142D01*
X45479523Y52331904D01*
X45431904Y52189047D01*
X44860476Y51617619D01*
X45479523Y51617619D01*
X46336666Y52617619D02*
X46146190Y52617619D01*
X46050952Y52570000D01*
X46003333Y52522380D01*
X45908095Y52379523D01*
X45860476Y52189047D01*
X45860476Y51808095D01*
X45908095Y51712857D01*
X45955714Y51665238D01*
X46050952Y51617619D01*
X46241428Y51617619D01*
X46336666Y51665238D01*
X46384285Y51712857D01*
X46431904Y51808095D01*
X46431904Y52046190D01*
X46384285Y52141428D01*
X46336666Y52189047D01*
X46241428Y52236666D01*
X46050952Y52236666D01*
X45955714Y52189047D01*
X45908095Y52141428D01*
X45860476Y52046190D01*
%TO.C,C24*%
X36857142Y67802857D02*
X36809523Y67755238D01*
X36666666Y67707619D01*
X36571428Y67707619D01*
X36428571Y67755238D01*
X36333333Y67850476D01*
X36285714Y67945714D01*
X36238095Y68136190D01*
X36238095Y68279047D01*
X36285714Y68469523D01*
X36333333Y68564761D01*
X36428571Y68660000D01*
X36571428Y68707619D01*
X36666666Y68707619D01*
X36809523Y68660000D01*
X36857142Y68612380D01*
X37238095Y68612380D02*
X37285714Y68660000D01*
X37380952Y68707619D01*
X37619047Y68707619D01*
X37714285Y68660000D01*
X37761904Y68612380D01*
X37809523Y68517142D01*
X37809523Y68421904D01*
X37761904Y68279047D01*
X37190476Y67707619D01*
X37809523Y67707619D01*
X38666666Y68374285D02*
X38666666Y67707619D01*
X38428571Y68755238D02*
X38190476Y68040952D01*
X38809523Y68040952D01*
%TO.C,C23*%
X44569142Y53998857D02*
X44521523Y53951238D01*
X44378666Y53903619D01*
X44283428Y53903619D01*
X44140571Y53951238D01*
X44045333Y54046476D01*
X43997714Y54141714D01*
X43950095Y54332190D01*
X43950095Y54475047D01*
X43997714Y54665523D01*
X44045333Y54760761D01*
X44140571Y54856000D01*
X44283428Y54903619D01*
X44378666Y54903619D01*
X44521523Y54856000D01*
X44569142Y54808380D01*
X44950095Y54808380D02*
X44997714Y54856000D01*
X45092952Y54903619D01*
X45331047Y54903619D01*
X45426285Y54856000D01*
X45473904Y54808380D01*
X45521523Y54713142D01*
X45521523Y54617904D01*
X45473904Y54475047D01*
X44902476Y53903619D01*
X45521523Y53903619D01*
X45854857Y54903619D02*
X46473904Y54903619D01*
X46140571Y54522666D01*
X46283428Y54522666D01*
X46378666Y54475047D01*
X46426285Y54427428D01*
X46473904Y54332190D01*
X46473904Y54094095D01*
X46426285Y53998857D01*
X46378666Y53951238D01*
X46283428Y53903619D01*
X45997714Y53903619D01*
X45902476Y53951238D01*
X45854857Y53998857D01*
%TO.C,C22*%
X29617142Y75202857D02*
X29569523Y75155238D01*
X29426666Y75107619D01*
X29331428Y75107619D01*
X29188571Y75155238D01*
X29093333Y75250476D01*
X29045714Y75345714D01*
X28998095Y75536190D01*
X28998095Y75679047D01*
X29045714Y75869523D01*
X29093333Y75964761D01*
X29188571Y76060000D01*
X29331428Y76107619D01*
X29426666Y76107619D01*
X29569523Y76060000D01*
X29617142Y76012380D01*
X29998095Y76012380D02*
X30045714Y76060000D01*
X30140952Y76107619D01*
X30379047Y76107619D01*
X30474285Y76060000D01*
X30521904Y76012380D01*
X30569523Y75917142D01*
X30569523Y75821904D01*
X30521904Y75679047D01*
X29950476Y75107619D01*
X30569523Y75107619D01*
X30950476Y76012380D02*
X30998095Y76060000D01*
X31093333Y76107619D01*
X31331428Y76107619D01*
X31426666Y76060000D01*
X31474285Y76012380D01*
X31521904Y75917142D01*
X31521904Y75821904D01*
X31474285Y75679047D01*
X30902857Y75107619D01*
X31521904Y75107619D01*
%TO.C,C21*%
X7231142Y47602857D02*
X7183523Y47555238D01*
X7040666Y47507619D01*
X6945428Y47507619D01*
X6802571Y47555238D01*
X6707333Y47650476D01*
X6659714Y47745714D01*
X6612095Y47936190D01*
X6612095Y48079047D01*
X6659714Y48269523D01*
X6707333Y48364761D01*
X6802571Y48460000D01*
X6945428Y48507619D01*
X7040666Y48507619D01*
X7183523Y48460000D01*
X7231142Y48412380D01*
X7612095Y48412380D02*
X7659714Y48460000D01*
X7754952Y48507619D01*
X7993047Y48507619D01*
X8088285Y48460000D01*
X8135904Y48412380D01*
X8183523Y48317142D01*
X8183523Y48221904D01*
X8135904Y48079047D01*
X7564476Y47507619D01*
X8183523Y47507619D01*
X9135904Y47507619D02*
X8564476Y47507619D01*
X8850190Y47507619D02*
X8850190Y48507619D01*
X8754952Y48364761D01*
X8659714Y48269523D01*
X8564476Y48221904D01*
%TO.C,C20*%
X8137142Y57372857D02*
X8089523Y57325238D01*
X7946666Y57277619D01*
X7851428Y57277619D01*
X7708571Y57325238D01*
X7613333Y57420476D01*
X7565714Y57515714D01*
X7518095Y57706190D01*
X7518095Y57849047D01*
X7565714Y58039523D01*
X7613333Y58134761D01*
X7708571Y58230000D01*
X7851428Y58277619D01*
X7946666Y58277619D01*
X8089523Y58230000D01*
X8137142Y58182380D01*
X8518095Y58182380D02*
X8565714Y58230000D01*
X8660952Y58277619D01*
X8899047Y58277619D01*
X8994285Y58230000D01*
X9041904Y58182380D01*
X9089523Y58087142D01*
X9089523Y57991904D01*
X9041904Y57849047D01*
X8470476Y57277619D01*
X9089523Y57277619D01*
X9708571Y58277619D02*
X9803809Y58277619D01*
X9899047Y58230000D01*
X9946666Y58182380D01*
X9994285Y58087142D01*
X10041904Y57896666D01*
X10041904Y57658571D01*
X9994285Y57468095D01*
X9946666Y57372857D01*
X9899047Y57325238D01*
X9803809Y57277619D01*
X9708571Y57277619D01*
X9613333Y57325238D01*
X9565714Y57372857D01*
X9518095Y57468095D01*
X9470476Y57658571D01*
X9470476Y57896666D01*
X9518095Y58087142D01*
X9565714Y58182380D01*
X9613333Y58230000D01*
X9708571Y58277619D01*
%TO.C,C18*%
X45061142Y44061142D02*
X45108761Y44013523D01*
X45156380Y43870666D01*
X45156380Y43775428D01*
X45108761Y43632571D01*
X45013523Y43537333D01*
X44918285Y43489714D01*
X44727809Y43442095D01*
X44584952Y43442095D01*
X44394476Y43489714D01*
X44299238Y43537333D01*
X44204000Y43632571D01*
X44156380Y43775428D01*
X44156380Y43870666D01*
X44204000Y44013523D01*
X44251619Y44061142D01*
X45156380Y45013523D02*
X45156380Y44442095D01*
X45156380Y44727809D02*
X44156380Y44727809D01*
X44299238Y44632571D01*
X44394476Y44537333D01*
X44442095Y44442095D01*
X44584952Y45584952D02*
X44537333Y45489714D01*
X44489714Y45442095D01*
X44394476Y45394476D01*
X44346857Y45394476D01*
X44251619Y45442095D01*
X44204000Y45489714D01*
X44156380Y45584952D01*
X44156380Y45775428D01*
X44204000Y45870666D01*
X44251619Y45918285D01*
X44346857Y45965904D01*
X44394476Y45965904D01*
X44489714Y45918285D01*
X44537333Y45870666D01*
X44584952Y45775428D01*
X44584952Y45584952D01*
X44632571Y45489714D01*
X44680190Y45442095D01*
X44775428Y45394476D01*
X44965904Y45394476D01*
X45061142Y45442095D01*
X45108761Y45489714D01*
X45156380Y45584952D01*
X45156380Y45775428D01*
X45108761Y45870666D01*
X45061142Y45918285D01*
X44965904Y45965904D01*
X44775428Y45965904D01*
X44680190Y45918285D01*
X44632571Y45870666D01*
X44584952Y45775428D01*
%TO.C,C17*%
X32897142Y65187142D02*
X32944761Y65139523D01*
X32992380Y64996666D01*
X32992380Y64901428D01*
X32944761Y64758571D01*
X32849523Y64663333D01*
X32754285Y64615714D01*
X32563809Y64568095D01*
X32420952Y64568095D01*
X32230476Y64615714D01*
X32135238Y64663333D01*
X32040000Y64758571D01*
X31992380Y64901428D01*
X31992380Y64996666D01*
X32040000Y65139523D01*
X32087619Y65187142D01*
X32992380Y66139523D02*
X32992380Y65568095D01*
X32992380Y65853809D02*
X31992380Y65853809D01*
X32135238Y65758571D01*
X32230476Y65663333D01*
X32278095Y65568095D01*
X31992380Y66472857D02*
X31992380Y67139523D01*
X32992380Y66710952D01*
%TO.C,U2*%
X17392380Y59128095D02*
X18201904Y59128095D01*
X18297142Y59175714D01*
X18344761Y59223333D01*
X18392380Y59318571D01*
X18392380Y59509047D01*
X18344761Y59604285D01*
X18297142Y59651904D01*
X18201904Y59699523D01*
X17392380Y59699523D01*
X17487619Y60128095D02*
X17440000Y60175714D01*
X17392380Y60270952D01*
X17392380Y60509047D01*
X17440000Y60604285D01*
X17487619Y60651904D01*
X17582857Y60699523D01*
X17678095Y60699523D01*
X17820952Y60651904D01*
X18392380Y60080476D01*
X18392380Y60699523D01*
%TO.C,C14*%
X21797142Y81432857D02*
X21749523Y81385238D01*
X21606666Y81337619D01*
X21511428Y81337619D01*
X21368571Y81385238D01*
X21273333Y81480476D01*
X21225714Y81575714D01*
X21178095Y81766190D01*
X21178095Y81909047D01*
X21225714Y82099523D01*
X21273333Y82194761D01*
X21368571Y82290000D01*
X21511428Y82337619D01*
X21606666Y82337619D01*
X21749523Y82290000D01*
X21797142Y82242380D01*
X22749523Y81337619D02*
X22178095Y81337619D01*
X22463809Y81337619D02*
X22463809Y82337619D01*
X22368571Y82194761D01*
X22273333Y82099523D01*
X22178095Y82051904D01*
X23606666Y82004285D02*
X23606666Y81337619D01*
X23368571Y82385238D02*
X23130476Y81670952D01*
X23749523Y81670952D01*
%TO.C,C10*%
X32937142Y81492857D02*
X32889523Y81445238D01*
X32746666Y81397619D01*
X32651428Y81397619D01*
X32508571Y81445238D01*
X32413333Y81540476D01*
X32365714Y81635714D01*
X32318095Y81826190D01*
X32318095Y81969047D01*
X32365714Y82159523D01*
X32413333Y82254761D01*
X32508571Y82350000D01*
X32651428Y82397619D01*
X32746666Y82397619D01*
X32889523Y82350000D01*
X32937142Y82302380D01*
X33889523Y81397619D02*
X33318095Y81397619D01*
X33603809Y81397619D02*
X33603809Y82397619D01*
X33508571Y82254761D01*
X33413333Y82159523D01*
X33318095Y82111904D01*
X34508571Y82397619D02*
X34603809Y82397619D01*
X34699047Y82350000D01*
X34746666Y82302380D01*
X34794285Y82207142D01*
X34841904Y82016666D01*
X34841904Y81778571D01*
X34794285Y81588095D01*
X34746666Y81492857D01*
X34699047Y81445238D01*
X34603809Y81397619D01*
X34508571Y81397619D01*
X34413333Y81445238D01*
X34365714Y81492857D01*
X34318095Y81588095D01*
X34270476Y81778571D01*
X34270476Y82016666D01*
X34318095Y82207142D01*
X34365714Y82302380D01*
X34413333Y82350000D01*
X34508571Y82397619D01*
%TO.C,R14*%
X25767142Y76417619D02*
X25433809Y76893809D01*
X25195714Y76417619D02*
X25195714Y77417619D01*
X25576666Y77417619D01*
X25671904Y77370000D01*
X25719523Y77322380D01*
X25767142Y77227142D01*
X25767142Y77084285D01*
X25719523Y76989047D01*
X25671904Y76941428D01*
X25576666Y76893809D01*
X25195714Y76893809D01*
X26719523Y76417619D02*
X26148095Y76417619D01*
X26433809Y76417619D02*
X26433809Y77417619D01*
X26338571Y77274761D01*
X26243333Y77179523D01*
X26148095Y77131904D01*
X27576666Y77084285D02*
X27576666Y76417619D01*
X27338571Y77465238D02*
X27100476Y76750952D01*
X27719523Y76750952D01*
%TO.C,D2*%
X5103904Y70667619D02*
X5103904Y71667619D01*
X5342000Y71667619D01*
X5484857Y71620000D01*
X5580095Y71524761D01*
X5627714Y71429523D01*
X5675333Y71239047D01*
X5675333Y71096190D01*
X5627714Y70905714D01*
X5580095Y70810476D01*
X5484857Y70715238D01*
X5342000Y70667619D01*
X5103904Y70667619D01*
X6056285Y71572380D02*
X6103904Y71620000D01*
X6199142Y71667619D01*
X6437238Y71667619D01*
X6532476Y71620000D01*
X6580095Y71572380D01*
X6627714Y71477142D01*
X6627714Y71381904D01*
X6580095Y71239047D01*
X6008666Y70667619D01*
X6627714Y70667619D01*
X4310095Y66095619D02*
X4310095Y67095619D01*
X4881523Y66095619D02*
X4452952Y66667047D01*
X4881523Y67095619D02*
X4310095Y66524190D01*
%TO.C,D1*%
X7811904Y70701619D02*
X7811904Y71701619D01*
X8050000Y71701619D01*
X8192857Y71654000D01*
X8288095Y71558761D01*
X8335714Y71463523D01*
X8383333Y71273047D01*
X8383333Y71130190D01*
X8335714Y70939714D01*
X8288095Y70844476D01*
X8192857Y70749238D01*
X8050000Y70701619D01*
X7811904Y70701619D01*
X9335714Y70701619D02*
X8764285Y70701619D01*
X9050000Y70701619D02*
X9050000Y71701619D01*
X8954761Y71558761D01*
X8859523Y71463523D01*
X8764285Y71415904D01*
X7104095Y66095619D02*
X7104095Y67095619D01*
X7675523Y66095619D02*
X7246952Y66667047D01*
X7675523Y67095619D02*
X7104095Y66524190D01*
%TO.C,C16*%
X1397142Y66687142D02*
X1444761Y66639523D01*
X1492380Y66496666D01*
X1492380Y66401428D01*
X1444761Y66258571D01*
X1349523Y66163333D01*
X1254285Y66115714D01*
X1063809Y66068095D01*
X920952Y66068095D01*
X730476Y66115714D01*
X635238Y66163333D01*
X540000Y66258571D01*
X492380Y66401428D01*
X492380Y66496666D01*
X540000Y66639523D01*
X587619Y66687142D01*
X1492380Y67639523D02*
X1492380Y67068095D01*
X1492380Y67353809D02*
X492380Y67353809D01*
X635238Y67258571D01*
X730476Y67163333D01*
X778095Y67068095D01*
X492380Y68496666D02*
X492380Y68306190D01*
X540000Y68210952D01*
X587619Y68163333D01*
X730476Y68068095D01*
X920952Y68020476D01*
X1301904Y68020476D01*
X1397142Y68068095D01*
X1444761Y68115714D01*
X1492380Y68210952D01*
X1492380Y68401428D01*
X1444761Y68496666D01*
X1397142Y68544285D01*
X1301904Y68591904D01*
X1063809Y68591904D01*
X968571Y68544285D01*
X920952Y68496666D01*
X873333Y68401428D01*
X873333Y68210952D01*
X920952Y68115714D01*
X968571Y68068095D01*
X1063809Y68020476D01*
%TO.C,C19*%
X13537142Y69382857D02*
X13489523Y69335238D01*
X13346666Y69287619D01*
X13251428Y69287619D01*
X13108571Y69335238D01*
X13013333Y69430476D01*
X12965714Y69525714D01*
X12918095Y69716190D01*
X12918095Y69859047D01*
X12965714Y70049523D01*
X13013333Y70144761D01*
X13108571Y70240000D01*
X13251428Y70287619D01*
X13346666Y70287619D01*
X13489523Y70240000D01*
X13537142Y70192380D01*
X14489523Y69287619D02*
X13918095Y69287619D01*
X14203809Y69287619D02*
X14203809Y70287619D01*
X14108571Y70144761D01*
X14013333Y70049523D01*
X13918095Y70001904D01*
X14965714Y69287619D02*
X15156190Y69287619D01*
X15251428Y69335238D01*
X15299047Y69382857D01*
X15394285Y69525714D01*
X15441904Y69716190D01*
X15441904Y70097142D01*
X15394285Y70192380D01*
X15346666Y70240000D01*
X15251428Y70287619D01*
X15060952Y70287619D01*
X14965714Y70240000D01*
X14918095Y70192380D01*
X14870476Y70097142D01*
X14870476Y69859047D01*
X14918095Y69763809D01*
X14965714Y69716190D01*
X15060952Y69668571D01*
X15251428Y69668571D01*
X15346666Y69716190D01*
X15394285Y69763809D01*
X15441904Y69859047D01*
%TO.C,RV1*%
X27854761Y81637619D02*
X27521428Y82113809D01*
X27283333Y81637619D02*
X27283333Y82637619D01*
X27664285Y82637619D01*
X27759523Y82590000D01*
X27807142Y82542380D01*
X27854761Y82447142D01*
X27854761Y82304285D01*
X27807142Y82209047D01*
X27759523Y82161428D01*
X27664285Y82113809D01*
X27283333Y82113809D01*
X28140476Y82637619D02*
X28473809Y81637619D01*
X28807142Y82637619D01*
X29664285Y81637619D02*
X29092857Y81637619D01*
X29378571Y81637619D02*
X29378571Y82637619D01*
X29283333Y82494761D01*
X29188095Y82399523D01*
X29092857Y82351904D01*
X27812380Y86875714D02*
X27812380Y86399523D01*
X28288571Y86351904D01*
X28240952Y86399523D01*
X28193333Y86494761D01*
X28193333Y86732857D01*
X28240952Y86828095D01*
X28288571Y86875714D01*
X28383809Y86923333D01*
X28621904Y86923333D01*
X28717142Y86875714D01*
X28764761Y86828095D01*
X28812380Y86732857D01*
X28812380Y86494761D01*
X28764761Y86399523D01*
X28717142Y86351904D01*
X27812380Y87542380D02*
X27812380Y87637619D01*
X27860000Y87732857D01*
X27907619Y87780476D01*
X28002857Y87828095D01*
X28193333Y87875714D01*
X28431428Y87875714D01*
X28621904Y87828095D01*
X28717142Y87780476D01*
X28764761Y87732857D01*
X28812380Y87637619D01*
X28812380Y87542380D01*
X28764761Y87447142D01*
X28717142Y87399523D01*
X28621904Y87351904D01*
X28431428Y87304285D01*
X28193333Y87304285D01*
X28002857Y87351904D01*
X27907619Y87399523D01*
X27860000Y87447142D01*
X27812380Y87542380D01*
X27812380Y88494761D02*
X27812380Y88590000D01*
X27860000Y88685238D01*
X27907619Y88732857D01*
X28002857Y88780476D01*
X28193333Y88828095D01*
X28431428Y88828095D01*
X28621904Y88780476D01*
X28717142Y88732857D01*
X28764761Y88685238D01*
X28812380Y88590000D01*
X28812380Y88494761D01*
X28764761Y88399523D01*
X28717142Y88351904D01*
X28621904Y88304285D01*
X28431428Y88256666D01*
X28193333Y88256666D01*
X28002857Y88304285D01*
X27907619Y88351904D01*
X27860000Y88399523D01*
X27812380Y88494761D01*
X28812380Y89828095D02*
X28336190Y89494761D01*
X28812380Y89256666D02*
X27812380Y89256666D01*
X27812380Y89637619D01*
X27860000Y89732857D01*
X27907619Y89780476D01*
X28002857Y89828095D01*
X28145714Y89828095D01*
X28240952Y89780476D01*
X28288571Y89732857D01*
X28336190Y89637619D01*
X28336190Y89256666D01*
X26082380Y82310000D02*
X26320476Y82310000D01*
X26225238Y82071904D02*
X26320476Y82310000D01*
X26225238Y82548095D01*
X26510952Y82167142D02*
X26320476Y82310000D01*
X26510952Y82452857D01*
X26082380Y82310000D02*
X26320476Y82310000D01*
X26225238Y82071904D02*
X26320476Y82310000D01*
X26225238Y82548095D01*
X26510952Y82167142D02*
X26320476Y82310000D01*
X26510952Y82452857D01*
%TO.C,C13*%
X21647142Y83652857D02*
X21599523Y83605238D01*
X21456666Y83557619D01*
X21361428Y83557619D01*
X21218571Y83605238D01*
X21123333Y83700476D01*
X21075714Y83795714D01*
X21028095Y83986190D01*
X21028095Y84129047D01*
X21075714Y84319523D01*
X21123333Y84414761D01*
X21218571Y84510000D01*
X21361428Y84557619D01*
X21456666Y84557619D01*
X21599523Y84510000D01*
X21647142Y84462380D01*
X22599523Y83557619D02*
X22028095Y83557619D01*
X22313809Y83557619D02*
X22313809Y84557619D01*
X22218571Y84414761D01*
X22123333Y84319523D01*
X22028095Y84271904D01*
X22932857Y84557619D02*
X23551904Y84557619D01*
X23218571Y84176666D01*
X23361428Y84176666D01*
X23456666Y84129047D01*
X23504285Y84081428D01*
X23551904Y83986190D01*
X23551904Y83748095D01*
X23504285Y83652857D01*
X23456666Y83605238D01*
X23361428Y83557619D01*
X23075714Y83557619D01*
X22980476Y83605238D01*
X22932857Y83652857D01*
%TO.C,C12*%
X18527142Y87642857D02*
X18479523Y87595238D01*
X18336666Y87547619D01*
X18241428Y87547619D01*
X18098571Y87595238D01*
X18003333Y87690476D01*
X17955714Y87785714D01*
X17908095Y87976190D01*
X17908095Y88119047D01*
X17955714Y88309523D01*
X18003333Y88404761D01*
X18098571Y88500000D01*
X18241428Y88547619D01*
X18336666Y88547619D01*
X18479523Y88500000D01*
X18527142Y88452380D01*
X19479523Y87547619D02*
X18908095Y87547619D01*
X19193809Y87547619D02*
X19193809Y88547619D01*
X19098571Y88404761D01*
X19003333Y88309523D01*
X18908095Y88261904D01*
X19860476Y88452380D02*
X19908095Y88500000D01*
X20003333Y88547619D01*
X20241428Y88547619D01*
X20336666Y88500000D01*
X20384285Y88452380D01*
X20431904Y88357142D01*
X20431904Y88261904D01*
X20384285Y88119047D01*
X19812857Y87547619D01*
X20431904Y87547619D01*
%TO.C,C11*%
X18827142Y89642857D02*
X18779523Y89595238D01*
X18636666Y89547619D01*
X18541428Y89547619D01*
X18398571Y89595238D01*
X18303333Y89690476D01*
X18255714Y89785714D01*
X18208095Y89976190D01*
X18208095Y90119047D01*
X18255714Y90309523D01*
X18303333Y90404761D01*
X18398571Y90500000D01*
X18541428Y90547619D01*
X18636666Y90547619D01*
X18779523Y90500000D01*
X18827142Y90452380D01*
X19779523Y89547619D02*
X19208095Y89547619D01*
X19493809Y89547619D02*
X19493809Y90547619D01*
X19398571Y90404761D01*
X19303333Y90309523D01*
X19208095Y90261904D01*
X20731904Y89547619D02*
X20160476Y89547619D01*
X20446190Y89547619D02*
X20446190Y90547619D01*
X20350952Y90404761D01*
X20255714Y90309523D01*
X20160476Y90261904D01*
%TO.C,C9*%
X33413333Y83512857D02*
X33365714Y83465238D01*
X33222857Y83417619D01*
X33127619Y83417619D01*
X32984761Y83465238D01*
X32889523Y83560476D01*
X32841904Y83655714D01*
X32794285Y83846190D01*
X32794285Y83989047D01*
X32841904Y84179523D01*
X32889523Y84274761D01*
X32984761Y84370000D01*
X33127619Y84417619D01*
X33222857Y84417619D01*
X33365714Y84370000D01*
X33413333Y84322380D01*
X33889523Y83417619D02*
X34080000Y83417619D01*
X34175238Y83465238D01*
X34222857Y83512857D01*
X34318095Y83655714D01*
X34365714Y83846190D01*
X34365714Y84227142D01*
X34318095Y84322380D01*
X34270476Y84370000D01*
X34175238Y84417619D01*
X33984761Y84417619D01*
X33889523Y84370000D01*
X33841904Y84322380D01*
X33794285Y84227142D01*
X33794285Y83989047D01*
X33841904Y83893809D01*
X33889523Y83846190D01*
X33984761Y83798571D01*
X34175238Y83798571D01*
X34270476Y83846190D01*
X34318095Y83893809D01*
X34365714Y83989047D01*
%TO.C,C8*%
X37003333Y87532857D02*
X36955714Y87485238D01*
X36812857Y87437619D01*
X36717619Y87437619D01*
X36574761Y87485238D01*
X36479523Y87580476D01*
X36431904Y87675714D01*
X36384285Y87866190D01*
X36384285Y88009047D01*
X36431904Y88199523D01*
X36479523Y88294761D01*
X36574761Y88390000D01*
X36717619Y88437619D01*
X36812857Y88437619D01*
X36955714Y88390000D01*
X37003333Y88342380D01*
X37574761Y88009047D02*
X37479523Y88056666D01*
X37431904Y88104285D01*
X37384285Y88199523D01*
X37384285Y88247142D01*
X37431904Y88342380D01*
X37479523Y88390000D01*
X37574761Y88437619D01*
X37765238Y88437619D01*
X37860476Y88390000D01*
X37908095Y88342380D01*
X37955714Y88247142D01*
X37955714Y88199523D01*
X37908095Y88104285D01*
X37860476Y88056666D01*
X37765238Y88009047D01*
X37574761Y88009047D01*
X37479523Y87961428D01*
X37431904Y87913809D01*
X37384285Y87818571D01*
X37384285Y87628095D01*
X37431904Y87532857D01*
X37479523Y87485238D01*
X37574761Y87437619D01*
X37765238Y87437619D01*
X37860476Y87485238D01*
X37908095Y87532857D01*
X37955714Y87628095D01*
X37955714Y87818571D01*
X37908095Y87913809D01*
X37860476Y87961428D01*
X37765238Y88009047D01*
%TO.C,C7*%
X37003333Y89612857D02*
X36955714Y89565238D01*
X36812857Y89517619D01*
X36717619Y89517619D01*
X36574761Y89565238D01*
X36479523Y89660476D01*
X36431904Y89755714D01*
X36384285Y89946190D01*
X36384285Y90089047D01*
X36431904Y90279523D01*
X36479523Y90374761D01*
X36574761Y90470000D01*
X36717619Y90517619D01*
X36812857Y90517619D01*
X36955714Y90470000D01*
X37003333Y90422380D01*
X37336666Y90517619D02*
X38003333Y90517619D01*
X37574761Y89517619D01*
%TO.C,R4b1*%
X14584761Y84007619D02*
X14251428Y84483809D01*
X14013333Y84007619D02*
X14013333Y85007619D01*
X14394285Y85007619D01*
X14489523Y84960000D01*
X14537142Y84912380D01*
X14584761Y84817142D01*
X14584761Y84674285D01*
X14537142Y84579047D01*
X14489523Y84531428D01*
X14394285Y84483809D01*
X14013333Y84483809D01*
X15441904Y84674285D02*
X15441904Y84007619D01*
X15203809Y85055238D02*
X14965714Y84340952D01*
X15584761Y84340952D01*
X15965714Y84007619D02*
X15965714Y85007619D01*
X15965714Y84626666D02*
X16060952Y84674285D01*
X16251428Y84674285D01*
X16346666Y84626666D01*
X16394285Y84579047D01*
X16441904Y84483809D01*
X16441904Y84198095D01*
X16394285Y84102857D01*
X16346666Y84055238D01*
X16251428Y84007619D01*
X16060952Y84007619D01*
X15965714Y84055238D01*
X17394285Y84007619D02*
X16822857Y84007619D01*
X17108571Y84007619D02*
X17108571Y85007619D01*
X17013333Y84864761D01*
X16918095Y84769523D01*
X16822857Y84721904D01*
%TO.C,R4a1*%
X7114761Y84037619D02*
X6781428Y84513809D01*
X6543333Y84037619D02*
X6543333Y85037619D01*
X6924285Y85037619D01*
X7019523Y84990000D01*
X7067142Y84942380D01*
X7114761Y84847142D01*
X7114761Y84704285D01*
X7067142Y84609047D01*
X7019523Y84561428D01*
X6924285Y84513809D01*
X6543333Y84513809D01*
X7971904Y84704285D02*
X7971904Y84037619D01*
X7733809Y85085238D02*
X7495714Y84370952D01*
X8114761Y84370952D01*
X8924285Y84037619D02*
X8924285Y84561428D01*
X8876666Y84656666D01*
X8781428Y84704285D01*
X8590952Y84704285D01*
X8495714Y84656666D01*
X8924285Y84085238D02*
X8829047Y84037619D01*
X8590952Y84037619D01*
X8495714Y84085238D01*
X8448095Y84180476D01*
X8448095Y84275714D01*
X8495714Y84370952D01*
X8590952Y84418571D01*
X8829047Y84418571D01*
X8924285Y84466190D01*
X9924285Y84037619D02*
X9352857Y84037619D01*
X9638571Y84037619D02*
X9638571Y85037619D01*
X9543333Y84894761D01*
X9448095Y84799523D01*
X9352857Y84751904D01*
%TO.C,R6*%
X19363333Y91647619D02*
X19030000Y92123809D01*
X18791904Y91647619D02*
X18791904Y92647619D01*
X19172857Y92647619D01*
X19268095Y92600000D01*
X19315714Y92552380D01*
X19363333Y92457142D01*
X19363333Y92314285D01*
X19315714Y92219047D01*
X19268095Y92171428D01*
X19172857Y92123809D01*
X18791904Y92123809D01*
X20220476Y92647619D02*
X20030000Y92647619D01*
X19934761Y92600000D01*
X19887142Y92552380D01*
X19791904Y92409523D01*
X19744285Y92219047D01*
X19744285Y91838095D01*
X19791904Y91742857D01*
X19839523Y91695238D01*
X19934761Y91647619D01*
X20125238Y91647619D01*
X20220476Y91695238D01*
X20268095Y91742857D01*
X20315714Y91838095D01*
X20315714Y92076190D01*
X20268095Y92171428D01*
X20220476Y92219047D01*
X20125238Y92266666D01*
X19934761Y92266666D01*
X19839523Y92219047D01*
X19791904Y92171428D01*
X19744285Y92076190D01*
%TO.C,R5*%
X36883333Y91667619D02*
X36550000Y92143809D01*
X36311904Y91667619D02*
X36311904Y92667619D01*
X36692857Y92667619D01*
X36788095Y92620000D01*
X36835714Y92572380D01*
X36883333Y92477142D01*
X36883333Y92334285D01*
X36835714Y92239047D01*
X36788095Y92191428D01*
X36692857Y92143809D01*
X36311904Y92143809D01*
X37788095Y92667619D02*
X37311904Y92667619D01*
X37264285Y92191428D01*
X37311904Y92239047D01*
X37407142Y92286666D01*
X37645238Y92286666D01*
X37740476Y92239047D01*
X37788095Y92191428D01*
X37835714Y92096190D01*
X37835714Y91858095D01*
X37788095Y91762857D01*
X37740476Y91715238D01*
X37645238Y91667619D01*
X37407142Y91667619D01*
X37311904Y91715238D01*
X37264285Y91762857D01*
%TO.C,R3*%
X8273333Y95067619D02*
X7940000Y95543809D01*
X7701904Y95067619D02*
X7701904Y96067619D01*
X8082857Y96067619D01*
X8178095Y96020000D01*
X8225714Y95972380D01*
X8273333Y95877142D01*
X8273333Y95734285D01*
X8225714Y95639047D01*
X8178095Y95591428D01*
X8082857Y95543809D01*
X7701904Y95543809D01*
X8606666Y96067619D02*
X9225714Y96067619D01*
X8892380Y95686666D01*
X9035238Y95686666D01*
X9130476Y95639047D01*
X9178095Y95591428D01*
X9225714Y95496190D01*
X9225714Y95258095D01*
X9178095Y95162857D01*
X9130476Y95115238D01*
X9035238Y95067619D01*
X8749523Y95067619D01*
X8654285Y95115238D01*
X8606666Y95162857D01*
%TO.C,C6*%
X13447882Y77709340D02*
X13409255Y77654176D01*
X13276838Y77582473D01*
X13183046Y77565935D01*
X13034091Y77588024D01*
X12923761Y77665277D01*
X12860328Y77750799D01*
X12780356Y77930113D01*
X12755550Y78070800D01*
X12769369Y78266651D01*
X12799727Y78368711D01*
X12876980Y78479040D01*
X13009398Y78550743D01*
X13103189Y78567281D01*
X13252145Y78545192D01*
X13307310Y78506565D01*
X14134893Y78749198D02*
X13947310Y78716122D01*
X13861788Y78652689D01*
X13823161Y78597524D01*
X13754177Y78440299D01*
X13740357Y78244448D01*
X13806509Y77869283D01*
X13869943Y77783761D01*
X13925107Y77745134D01*
X14027167Y77714776D01*
X14214750Y77747852D01*
X14300272Y77811286D01*
X14338899Y77866450D01*
X14369256Y77968511D01*
X14327912Y78202989D01*
X14264478Y78288511D01*
X14209313Y78327137D01*
X14107253Y78357495D01*
X13919671Y78324419D01*
X13834149Y78260986D01*
X13795522Y78205821D01*
X13765164Y78103761D01*
%TO.C,C5*%
X2103333Y80902857D02*
X2055714Y80855238D01*
X1912857Y80807619D01*
X1817619Y80807619D01*
X1674761Y80855238D01*
X1579523Y80950476D01*
X1531904Y81045714D01*
X1484285Y81236190D01*
X1484285Y81379047D01*
X1531904Y81569523D01*
X1579523Y81664761D01*
X1674761Y81760000D01*
X1817619Y81807619D01*
X1912857Y81807619D01*
X2055714Y81760000D01*
X2103333Y81712380D01*
X3008095Y81807619D02*
X2531904Y81807619D01*
X2484285Y81331428D01*
X2531904Y81379047D01*
X2627142Y81426666D01*
X2865238Y81426666D01*
X2960476Y81379047D01*
X3008095Y81331428D01*
X3055714Y81236190D01*
X3055714Y80998095D01*
X3008095Y80902857D01*
X2960476Y80855238D01*
X2865238Y80807619D01*
X2627142Y80807619D01*
X2531904Y80855238D01*
X2484285Y80902857D01*
%TO.C,C4*%
X7013333Y85962857D02*
X6965714Y85915238D01*
X6822857Y85867619D01*
X6727619Y85867619D01*
X6584761Y85915238D01*
X6489523Y86010476D01*
X6441904Y86105714D01*
X6394285Y86296190D01*
X6394285Y86439047D01*
X6441904Y86629523D01*
X6489523Y86724761D01*
X6584761Y86820000D01*
X6727619Y86867619D01*
X6822857Y86867619D01*
X6965714Y86820000D01*
X7013333Y86772380D01*
X7870476Y86534285D02*
X7870476Y85867619D01*
X7632380Y86915238D02*
X7394285Y86200952D01*
X8013333Y86200952D01*
%TO.C,C3*%
X42453848Y77667224D02*
X42398683Y77628597D01*
X42249727Y77606508D01*
X42155936Y77623046D01*
X42023518Y77694749D01*
X41946265Y77805078D01*
X41915907Y77907138D01*
X41902087Y78102990D01*
X41926894Y78243676D01*
X42006866Y78422990D01*
X42070299Y78508512D01*
X42180628Y78585765D01*
X42329584Y78607854D01*
X42423375Y78591316D01*
X42555793Y78519614D01*
X42594420Y78464449D01*
X42939227Y78500358D02*
X43548870Y78392861D01*
X43154449Y78075579D01*
X43295136Y78050772D01*
X43380658Y77987339D01*
X43419285Y77932174D01*
X43449643Y77830114D01*
X43408298Y77595636D01*
X43344864Y77510114D01*
X43289700Y77471487D01*
X43187639Y77441129D01*
X42906266Y77490743D01*
X42820744Y77554177D01*
X42782117Y77609341D01*
%TO.C,C2*%
X53913333Y80732857D02*
X53865714Y80685238D01*
X53722857Y80637619D01*
X53627619Y80637619D01*
X53484761Y80685238D01*
X53389523Y80780476D01*
X53341904Y80875714D01*
X53294285Y81066190D01*
X53294285Y81209047D01*
X53341904Y81399523D01*
X53389523Y81494761D01*
X53484761Y81590000D01*
X53627619Y81637619D01*
X53722857Y81637619D01*
X53865714Y81590000D01*
X53913333Y81542380D01*
X54294285Y81542380D02*
X54341904Y81590000D01*
X54437142Y81637619D01*
X54675238Y81637619D01*
X54770476Y81590000D01*
X54818095Y81542380D01*
X54865714Y81447142D01*
X54865714Y81351904D01*
X54818095Y81209047D01*
X54246666Y80637619D01*
X54865714Y80637619D01*
%TO.C,R2b1*%
X39964761Y83897619D02*
X39631428Y84373809D01*
X39393333Y83897619D02*
X39393333Y84897619D01*
X39774285Y84897619D01*
X39869523Y84850000D01*
X39917142Y84802380D01*
X39964761Y84707142D01*
X39964761Y84564285D01*
X39917142Y84469047D01*
X39869523Y84421428D01*
X39774285Y84373809D01*
X39393333Y84373809D01*
X40345714Y84802380D02*
X40393333Y84850000D01*
X40488571Y84897619D01*
X40726666Y84897619D01*
X40821904Y84850000D01*
X40869523Y84802380D01*
X40917142Y84707142D01*
X40917142Y84611904D01*
X40869523Y84469047D01*
X40298095Y83897619D01*
X40917142Y83897619D01*
X41345714Y83897619D02*
X41345714Y84897619D01*
X41345714Y84516666D02*
X41440952Y84564285D01*
X41631428Y84564285D01*
X41726666Y84516666D01*
X41774285Y84469047D01*
X41821904Y84373809D01*
X41821904Y84088095D01*
X41774285Y83992857D01*
X41726666Y83945238D01*
X41631428Y83897619D01*
X41440952Y83897619D01*
X41345714Y83945238D01*
X42774285Y83897619D02*
X42202857Y83897619D01*
X42488571Y83897619D02*
X42488571Y84897619D01*
X42393333Y84754761D01*
X42298095Y84659523D01*
X42202857Y84611904D01*
%TO.C,R2a1*%
X47904761Y84037619D02*
X47571428Y84513809D01*
X47333333Y84037619D02*
X47333333Y85037619D01*
X47714285Y85037619D01*
X47809523Y84990000D01*
X47857142Y84942380D01*
X47904761Y84847142D01*
X47904761Y84704285D01*
X47857142Y84609047D01*
X47809523Y84561428D01*
X47714285Y84513809D01*
X47333333Y84513809D01*
X48285714Y84942380D02*
X48333333Y84990000D01*
X48428571Y85037619D01*
X48666666Y85037619D01*
X48761904Y84990000D01*
X48809523Y84942380D01*
X48857142Y84847142D01*
X48857142Y84751904D01*
X48809523Y84609047D01*
X48238095Y84037619D01*
X48857142Y84037619D01*
X49714285Y84037619D02*
X49714285Y84561428D01*
X49666666Y84656666D01*
X49571428Y84704285D01*
X49380952Y84704285D01*
X49285714Y84656666D01*
X49714285Y84085238D02*
X49619047Y84037619D01*
X49380952Y84037619D01*
X49285714Y84085238D01*
X49238095Y84180476D01*
X49238095Y84275714D01*
X49285714Y84370952D01*
X49380952Y84418571D01*
X49619047Y84418571D01*
X49714285Y84466190D01*
X50714285Y84037619D02*
X50142857Y84037619D01*
X50428571Y84037619D02*
X50428571Y85037619D01*
X50333333Y84894761D01*
X50238095Y84799523D01*
X50142857Y84751904D01*
%TO.C,C1*%
X49413333Y86392857D02*
X49365714Y86345238D01*
X49222857Y86297619D01*
X49127619Y86297619D01*
X48984761Y86345238D01*
X48889523Y86440476D01*
X48841904Y86535714D01*
X48794285Y86726190D01*
X48794285Y86869047D01*
X48841904Y87059523D01*
X48889523Y87154761D01*
X48984761Y87250000D01*
X49127619Y87297619D01*
X49222857Y87297619D01*
X49365714Y87250000D01*
X49413333Y87202380D01*
X50365714Y86297619D02*
X49794285Y86297619D01*
X50080000Y86297619D02*
X50080000Y87297619D01*
X49984761Y87154761D01*
X49889523Y87059523D01*
X49794285Y87011904D01*
%TD*%
M02*
