%TF.GenerationSoftware,KiCad,Pcbnew,(5.1.9)-1*%
%TF.CreationDate,2021-05-24T21:10:03+02:00*%
%TF.ProjectId,DifferentialProbe,44696666-6572-4656-9e74-69616c50726f,rev?*%
%TF.SameCoordinates,Original*%
%TF.FileFunction,Copper,L1,Top*%
%TF.FilePolarity,Positive*%
%FSLAX46Y46*%
G04 Gerber Fmt 4.6, Leading zero omitted, Abs format (unit mm)*
G04 Created by KiCad (PCBNEW (5.1.9)-1) date 2021-05-24 21:10:03*
%MOMM*%
%LPD*%
G01*
G04 APERTURE LIST*
%TA.AperFunction,ComponentPad*%
%ADD10C,1.524000*%
%TD*%
%TA.AperFunction,ComponentPad*%
%ADD11C,1.200000*%
%TD*%
%TA.AperFunction,ComponentPad*%
%ADD12C,1.371600*%
%TD*%
%TA.AperFunction,ComponentPad*%
%ADD13C,1.600000*%
%TD*%
%TA.AperFunction,ComponentPad*%
%ADD14O,1.600000X1.600000*%
%TD*%
%TA.AperFunction,ComponentPad*%
%ADD15R,1.600000X1.600000*%
%TD*%
%TA.AperFunction,ComponentPad*%
%ADD16C,0.880000*%
%TD*%
%TA.AperFunction,ComponentPad*%
%ADD17C,3.285000*%
%TD*%
%TA.AperFunction,ComponentPad*%
%ADD18C,1.120000*%
%TD*%
%TA.AperFunction,ComponentPad*%
%ADD19O,1.400000X1.400000*%
%TD*%
%TA.AperFunction,ComponentPad*%
%ADD20C,1.400000*%
%TD*%
%TA.AperFunction,ComponentPad*%
%ADD21O,1.200000X1.200000*%
%TD*%
%TA.AperFunction,ComponentPad*%
%ADD22O,1.600000X1.200000*%
%TD*%
%TA.AperFunction,ComponentPad*%
%ADD23C,1.800000*%
%TD*%
%TA.AperFunction,ComponentPad*%
%ADD24R,1.800000X1.800000*%
%TD*%
%TA.AperFunction,SMDPad,CuDef*%
%ADD25R,0.900000X1.400000*%
%TD*%
%TA.AperFunction,ComponentPad*%
%ADD26R,1.270000X1.270000*%
%TD*%
%TA.AperFunction,ComponentPad*%
%ADD27C,1.270000*%
%TD*%
%TA.AperFunction,SMDPad,CuDef*%
%ADD28R,1.800000X4.000000*%
%TD*%
%TA.AperFunction,ViaPad*%
%ADD29C,0.800000*%
%TD*%
%TA.AperFunction,Conductor*%
%ADD30C,1.000000*%
%TD*%
%TA.AperFunction,Conductor*%
%ADD31C,0.500000*%
%TD*%
%TA.AperFunction,Conductor*%
%ADD32C,0.254000*%
%TD*%
%TA.AperFunction,Conductor*%
%ADD33C,0.100000*%
%TD*%
G04 APERTURE END LIST*
D10*
%TO.P,J8,1*%
%TO.N,+9V*%
X55110000Y62718000D03*
%TD*%
%TO.P,J7,1*%
%TO.N,+9V*%
X27780000Y75010000D03*
%TD*%
%TO.P,J6,1*%
%TO.N,Net-(C11-Pad1)*%
X5842000Y64770000D03*
%TD*%
%TO.P,J5,1*%
%TO.N,Net-(C10-Pad1)*%
X8636000Y64770000D03*
%TD*%
%TO.P,J4,1*%
%TO.N,Net-(C11-Pad1)*%
X19304000Y79248000D03*
%TD*%
%TO.P,J3,1*%
%TO.N,Net-(C10-Pad1)*%
X37338000Y79502000D03*
%TD*%
D11*
%TO.P,RV4,1*%
%TO.N,Net-(RV4-Pad1)*%
X46400000Y69290000D03*
%TO.P,RV4,2*%
%TO.N,-9V*%
X48940000Y69290000D03*
%TO.P,RV4,3*%
%TO.N,Net-(RV4-Pad3)*%
X51480000Y69290000D03*
%TD*%
D12*
%TO.P,RV2,1*%
%TO.N,Net-(RV2-Pad1)*%
X19650000Y46170000D03*
%TO.P,RV2,2*%
X19650000Y48710000D03*
%TO.P,RV2,3*%
%TO.N,Net-(R8-Pad1)*%
X19650000Y51250000D03*
%TD*%
D13*
%TO.P,C25,2*%
%TO.N,GND*%
X55160000Y69080000D03*
%TO.P,C25,1*%
%TO.N,+9V*%
X55160000Y64080000D03*
%TD*%
%TO.P,C15,2*%
%TO.N,Net-(C15-Pad2)*%
X35120000Y63720000D03*
%TO.P,C15,1*%
%TO.N,Net-(C15-Pad1)*%
X35120000Y61220000D03*
%TD*%
%TO.P,R1,2*%
%TO.N,Net-(R1-Pad2)*%
%TA.AperFunction,ComponentPad*%
G36*
G01*
X47406673Y88982954D02*
X47406673Y88982954D01*
G75*
G02*
X47603134Y87868771I-458861J-655322D01*
G01*
X47603134Y87868771D01*
G75*
G02*
X46488951Y87672310I-655322J458861D01*
G01*
X46488951Y87672310D01*
G75*
G02*
X46292490Y88786493I458861J655322D01*
G01*
X46292490Y88786493D01*
G75*
G02*
X47406673Y88982954I655322J-458861D01*
G01*
G37*
%TD.AperFunction*%
%TO.P,R1,1*%
%TO.N,Net-(C1-Pad2)*%
X52110000Y95700000D03*
%TD*%
D14*
%TO.P,U3,8*%
%TO.N,Net-(U3-Pad8)*%
X52740000Y64700000D03*
%TO.P,U3,4*%
%TO.N,-9V*%
X45120000Y57080000D03*
%TO.P,U3,7*%
%TO.N,+9V*%
X52740000Y62160000D03*
%TO.P,U3,3*%
%TO.N,Net-(R17-Pad2)*%
X45120000Y59620000D03*
%TO.P,U3,6*%
%TO.N,Net-(C23-Pad2)*%
X52740000Y59620000D03*
%TO.P,U3,2*%
%TO.N,Net-(C22-Pad2)*%
X45120000Y62160000D03*
%TO.P,U3,5*%
%TO.N,Net-(RV4-Pad1)*%
X52740000Y57080000D03*
D15*
%TO.P,U3,1*%
%TO.N,Net-(RV4-Pad3)*%
X45120000Y64700000D03*
%TD*%
D16*
%TO.P,U1,3*%
%TO.N,Net-(C10-Pad1)*%
X4170000Y58970000D03*
%TO.P,U1,2*%
%TO.N,Net-(R14-Pad2)*%
X3271975Y59341975D03*
%TO.P,U1,1*%
%TO.N,Net-(RV2-Pad1)*%
X2900000Y60240000D03*
%TO.P,U1,7*%
%TO.N,Net-(C11-Pad1)*%
X4170000Y61510000D03*
%TO.P,U1,6*%
%TO.N,Net-(R16-Pad2)*%
X5068025Y61138025D03*
%TO.P,U1,5*%
%TO.N,Net-(R9-Pad1)*%
X5440000Y60240000D03*
%TD*%
D11*
%TO.P,SW1,1*%
%TO.N,Net-(SW1-Pad1)*%
X33620000Y48390000D03*
%TO.P,SW1,2*%
%TO.N,Net-(R12-Pad2)*%
X33620000Y50390000D03*
%TO.P,SW1,3*%
%TO.N,Net-(C15-Pad1)*%
X33620000Y52390000D03*
D17*
%TO.P,SW1,MH1*%
%TO.N,N/C*%
X34870000Y43490000D03*
%TO.P,SW1,MH2*%
X34870000Y57290000D03*
%TD*%
D18*
%TO.P,RV3,1*%
%TO.N,Net-(C15-Pad2)*%
X37640000Y61650000D03*
%TO.P,RV3,2*%
X40180000Y64190000D03*
%TO.P,RV3,3*%
%TO.N,Net-(R10-Pad2)*%
X42720000Y61650000D03*
%TD*%
D14*
%TO.P,R22,2*%
%TO.N,Net-(C22-Pad2)*%
X38650000Y70750000D03*
D13*
%TO.P,R22,1*%
%TO.N,GND*%
X28490000Y70750000D03*
%TD*%
D14*
%TO.P,R21,2*%
%TO.N,Net-(C39-Pad1)*%
X55200000Y47920000D03*
D13*
%TO.P,R21,1*%
%TO.N,Net-(C22-Pad2)*%
X45040000Y47920000D03*
%TD*%
D19*
%TO.P,R20,2*%
%TO.N,Net-(R17-Pad2)*%
X40720000Y67370000D03*
D20*
%TO.P,R20,1*%
%TO.N,Net-(C22-Pad1)*%
X40720000Y74990000D03*
%TD*%
D14*
%TO.P,R19,2*%
%TO.N,Net-(C20-Pad2)*%
X15710000Y44990000D03*
D13*
%TO.P,R19,1*%
%TO.N,-9V*%
X5550000Y44990000D03*
%TD*%
D14*
%TO.P,R18,2*%
%TO.N,GND*%
X2450000Y45550000D03*
D13*
%TO.P,R18,1*%
%TO.N,Net-(Q2-Pad1)*%
X2450000Y48090000D03*
%TD*%
D14*
%TO.P,R17,2*%
%TO.N,Net-(R17-Pad2)*%
X14160000Y67980000D03*
D13*
%TO.P,R17,1*%
%TO.N,Net-(R16-Pad2)*%
X14160000Y65440000D03*
%TD*%
D14*
%TO.P,R16,2*%
%TO.N,Net-(R16-Pad2)*%
X17290000Y64980000D03*
D13*
%TO.P,R16,1*%
%TO.N,+9V*%
X17290000Y67520000D03*
%TD*%
D14*
%TO.P,R15,2*%
%TO.N,Net-(C22-Pad2)*%
X23500000Y75010000D03*
D13*
%TO.P,R15,1*%
%TO.N,Net-(R14-Pad2)*%
X23500000Y64850000D03*
%TD*%
D14*
%TO.P,R13,2*%
%TO.N,Net-(C15-Pad2)*%
X29740000Y66800000D03*
D13*
%TO.P,R13,1*%
%TO.N,Net-(Q1-Pad3)*%
X29740000Y56640000D03*
%TD*%
D14*
%TO.P,R12,2*%
%TO.N,Net-(R12-Pad2)*%
X27070000Y44480000D03*
D13*
%TO.P,R12,1*%
%TO.N,Net-(Q1-Pad3)*%
X27070000Y54640000D03*
%TD*%
D19*
%TO.P,R11,2*%
%TO.N,Net-(C15-Pad2)*%
X42770000Y56710000D03*
D20*
%TO.P,R11,1*%
%TO.N,Net-(C18-Pad2)*%
X42770000Y49090000D03*
%TD*%
D14*
%TO.P,R10,2*%
%TO.N,Net-(R10-Pad2)*%
X40080000Y56580000D03*
D13*
%TO.P,R10,1*%
%TO.N,Net-(C15-Pad1)*%
X40080000Y46420000D03*
%TD*%
D14*
%TO.P,R9,2*%
%TO.N,Net-(C15-Pad2)*%
X20460000Y74980000D03*
D13*
%TO.P,R9,1*%
%TO.N,Net-(R9-Pad1)*%
X20460000Y64820000D03*
%TD*%
D14*
%TO.P,R8,2*%
%TO.N,Net-(R12-Pad2)*%
X24010000Y54660000D03*
D13*
%TO.P,R8,1*%
%TO.N,Net-(R8-Pad1)*%
X24010000Y44500000D03*
%TD*%
D19*
%TO.P,R7,2*%
%TO.N,Net-(C23-Pad2)*%
X55040000Y59580000D03*
D20*
%TO.P,R7,1*%
%TO.N,Net-(C39-Pad1)*%
X55040000Y51960000D03*
%TD*%
D21*
%TO.P,Q2,3*%
%TO.N,Net-(Q1-Pad2)*%
X5310000Y53594000D03*
%TO.P,Q2,2*%
%TO.N,Net-(C20-Pad2)*%
X4040000Y52324000D03*
D22*
%TO.P,Q2,1*%
%TO.N,Net-(Q2-Pad1)*%
X2770000Y53594000D03*
%TD*%
D21*
%TO.P,Q1,3*%
%TO.N,Net-(Q1-Pad3)*%
X15100000Y58590000D03*
%TO.P,Q1,2*%
%TO.N,Net-(Q1-Pad2)*%
X13830000Y57320000D03*
D22*
%TO.P,Q1,1*%
%TO.N,Net-(Q1-Pad1)*%
X12560000Y58590000D03*
%TD*%
%TO.P,J2,1*%
%TO.N,GND*%
%TA.AperFunction,ComponentPad*%
G36*
G01*
X25370000Y34619999D02*
X25370000Y38520001D01*
G75*
G02*
X25619999Y38770000I249999J0D01*
G01*
X29520001Y38770000D01*
G75*
G02*
X29770000Y38520001I0J-249999D01*
G01*
X29770000Y34619999D01*
G75*
G02*
X29520001Y34370000I-249999J0D01*
G01*
X25619999Y34370000D01*
G75*
G02*
X25370000Y34619999I0J249999D01*
G01*
G37*
%TD.AperFunction*%
%TD*%
%TO.P,J1,1*%
%TO.N,Net-(C39-Pad1)*%
%TA.AperFunction,ComponentPad*%
G36*
G01*
X38210000Y34619999D02*
X38210000Y38520001D01*
G75*
G02*
X38459999Y38770000I249999J0D01*
G01*
X42360001Y38770000D01*
G75*
G02*
X42610000Y38520001I0J-249999D01*
G01*
X42610000Y34619999D01*
G75*
G02*
X42360001Y34370000I-249999J0D01*
G01*
X38459999Y34370000D01*
G75*
G02*
X38210000Y34619999I0J249999D01*
G01*
G37*
%TD.AperFunction*%
%TD*%
D23*
%TO.P,D3,2*%
%TO.N,GND*%
X13930000Y53050000D03*
D24*
%TO.P,D3,1*%
%TO.N,Net-(C20-Pad2)*%
X11390000Y53050000D03*
%TD*%
D13*
%TO.P,C39,2*%
%TO.N,GND*%
X50120000Y44890000D03*
%TO.P,C39,1*%
%TO.N,Net-(C39-Pad1)*%
X55120000Y44890000D03*
%TD*%
%TO.P,C26,2*%
%TO.N,GND*%
X47610000Y52070000D03*
%TO.P,C26,1*%
%TO.N,-9V*%
X52610000Y52070000D03*
%TD*%
%TO.P,C24,2*%
%TO.N,Net-(C22-Pad2)*%
X34960000Y68080000D03*
%TO.P,C24,1*%
%TO.N,GND*%
X32460000Y68080000D03*
%TD*%
%TO.P,C23,2*%
%TO.N,Net-(C23-Pad2)*%
X50140000Y54410000D03*
%TO.P,C23,1*%
%TO.N,Net-(C22-Pad2)*%
X47640000Y54410000D03*
%TD*%
%TO.P,C22,2*%
%TO.N,Net-(C22-Pad2)*%
X32740000Y74990000D03*
%TO.P,C22,1*%
%TO.N,Net-(C22-Pad1)*%
X35240000Y74990000D03*
%TD*%
%TO.P,C21,2*%
%TO.N,-9V*%
X15680000Y47890000D03*
%TO.P,C21,1*%
%TO.N,GND*%
X10680000Y47890000D03*
%TD*%
%TO.P,C20,2*%
%TO.N,Net-(C20-Pad2)*%
X8760000Y55990000D03*
%TO.P,C20,1*%
%TO.N,GND*%
X8760000Y50990000D03*
%TD*%
%TO.P,C18,2*%
%TO.N,Net-(C18-Pad2)*%
X42770000Y46990000D03*
%TO.P,C18,1*%
%TO.N,Net-(C15-Pad1)*%
X42770000Y44490000D03*
%TD*%
%TO.P,C17,2*%
%TO.N,Net-(C15-Pad2)*%
X32660000Y63740000D03*
%TO.P,C17,1*%
%TO.N,Net-(C15-Pad1)*%
X32660000Y61240000D03*
%TD*%
%TO.P,U2,14*%
%TO.N,Net-(Q1-Pad1)*%
%TA.AperFunction,SMDPad,CuDef*%
G36*
G01*
X19770000Y61380000D02*
X19470000Y61380000D01*
G75*
G02*
X19320000Y61530000I0J150000D01*
G01*
X19320000Y63180000D01*
G75*
G02*
X19470000Y63330000I150000J0D01*
G01*
X19770000Y63330000D01*
G75*
G02*
X19920000Y63180000I0J-150000D01*
G01*
X19920000Y61530000D01*
G75*
G02*
X19770000Y61380000I-150000J0D01*
G01*
G37*
%TD.AperFunction*%
%TO.P,U2,13*%
%TO.N,-9V*%
%TA.AperFunction,SMDPad,CuDef*%
G36*
G01*
X21040000Y61380000D02*
X20740000Y61380000D01*
G75*
G02*
X20590000Y61530000I0J150000D01*
G01*
X20590000Y63180000D01*
G75*
G02*
X20740000Y63330000I150000J0D01*
G01*
X21040000Y63330000D01*
G75*
G02*
X21190000Y63180000I0J-150000D01*
G01*
X21190000Y61530000D01*
G75*
G02*
X21040000Y61380000I-150000J0D01*
G01*
G37*
%TD.AperFunction*%
%TO.P,U2,12*%
%TO.N,Net-(Q1-Pad1)*%
%TA.AperFunction,SMDPad,CuDef*%
G36*
G01*
X22310000Y61380000D02*
X22010000Y61380000D01*
G75*
G02*
X21860000Y61530000I0J150000D01*
G01*
X21860000Y63180000D01*
G75*
G02*
X22010000Y63330000I150000J0D01*
G01*
X22310000Y63330000D01*
G75*
G02*
X22460000Y63180000I0J-150000D01*
G01*
X22460000Y61530000D01*
G75*
G02*
X22310000Y61380000I-150000J0D01*
G01*
G37*
%TD.AperFunction*%
%TO.P,U2,11*%
%TO.N,Net-(R16-Pad2)*%
%TA.AperFunction,SMDPad,CuDef*%
G36*
G01*
X23580000Y61380000D02*
X23280000Y61380000D01*
G75*
G02*
X23130000Y61530000I0J150000D01*
G01*
X23130000Y63180000D01*
G75*
G02*
X23280000Y63330000I150000J0D01*
G01*
X23580000Y63330000D01*
G75*
G02*
X23730000Y63180000I0J-150000D01*
G01*
X23730000Y61530000D01*
G75*
G02*
X23580000Y61380000I-150000J0D01*
G01*
G37*
%TD.AperFunction*%
%TO.P,U2,10*%
%TO.N,N/C*%
%TA.AperFunction,SMDPad,CuDef*%
G36*
G01*
X24850000Y61380000D02*
X24550000Y61380000D01*
G75*
G02*
X24400000Y61530000I0J150000D01*
G01*
X24400000Y63180000D01*
G75*
G02*
X24550000Y63330000I150000J0D01*
G01*
X24850000Y63330000D01*
G75*
G02*
X25000000Y63180000I0J-150000D01*
G01*
X25000000Y61530000D01*
G75*
G02*
X24850000Y61380000I-150000J0D01*
G01*
G37*
%TD.AperFunction*%
%TO.P,U2,9*%
%TO.N,Net-(C15-Pad2)*%
%TA.AperFunction,SMDPad,CuDef*%
G36*
G01*
X26120000Y61380000D02*
X25820000Y61380000D01*
G75*
G02*
X25670000Y61530000I0J150000D01*
G01*
X25670000Y63180000D01*
G75*
G02*
X25820000Y63330000I150000J0D01*
G01*
X26120000Y63330000D01*
G75*
G02*
X26270000Y63180000I0J-150000D01*
G01*
X26270000Y61530000D01*
G75*
G02*
X26120000Y61380000I-150000J0D01*
G01*
G37*
%TD.AperFunction*%
%TO.P,U2,8*%
%TO.N,Net-(R14-Pad2)*%
%TA.AperFunction,SMDPad,CuDef*%
G36*
G01*
X27390000Y61380000D02*
X27090000Y61380000D01*
G75*
G02*
X26940000Y61530000I0J150000D01*
G01*
X26940000Y63180000D01*
G75*
G02*
X27090000Y63330000I150000J0D01*
G01*
X27390000Y63330000D01*
G75*
G02*
X27540000Y63180000I0J-150000D01*
G01*
X27540000Y61530000D01*
G75*
G02*
X27390000Y61380000I-150000J0D01*
G01*
G37*
%TD.AperFunction*%
%TO.P,U2,7*%
%TO.N,N/C*%
%TA.AperFunction,SMDPad,CuDef*%
G36*
G01*
X27390000Y56430000D02*
X27090000Y56430000D01*
G75*
G02*
X26940000Y56580000I0J150000D01*
G01*
X26940000Y58230000D01*
G75*
G02*
X27090000Y58380000I150000J0D01*
G01*
X27390000Y58380000D01*
G75*
G02*
X27540000Y58230000I0J-150000D01*
G01*
X27540000Y56580000D01*
G75*
G02*
X27390000Y56430000I-150000J0D01*
G01*
G37*
%TD.AperFunction*%
%TO.P,U2,6*%
%TO.N,Net-(RV2-Pad1)*%
%TA.AperFunction,SMDPad,CuDef*%
G36*
G01*
X26120000Y56430000D02*
X25820000Y56430000D01*
G75*
G02*
X25670000Y56580000I0J150000D01*
G01*
X25670000Y58230000D01*
G75*
G02*
X25820000Y58380000I150000J0D01*
G01*
X26120000Y58380000D01*
G75*
G02*
X26270000Y58230000I0J-150000D01*
G01*
X26270000Y56580000D01*
G75*
G02*
X26120000Y56430000I-150000J0D01*
G01*
G37*
%TD.AperFunction*%
%TO.P,U2,5*%
%TO.N,Net-(Q1-Pad2)*%
%TA.AperFunction,SMDPad,CuDef*%
G36*
G01*
X24850000Y56430000D02*
X24550000Y56430000D01*
G75*
G02*
X24400000Y56580000I0J150000D01*
G01*
X24400000Y58230000D01*
G75*
G02*
X24550000Y58380000I150000J0D01*
G01*
X24850000Y58380000D01*
G75*
G02*
X25000000Y58230000I0J-150000D01*
G01*
X25000000Y56580000D01*
G75*
G02*
X24850000Y56430000I-150000J0D01*
G01*
G37*
%TD.AperFunction*%
%TO.P,U2,4*%
%TO.N,Net-(Q1-Pad1)*%
%TA.AperFunction,SMDPad,CuDef*%
G36*
G01*
X23580000Y56430000D02*
X23280000Y56430000D01*
G75*
G02*
X23130000Y56580000I0J150000D01*
G01*
X23130000Y58230000D01*
G75*
G02*
X23280000Y58380000I150000J0D01*
G01*
X23580000Y58380000D01*
G75*
G02*
X23730000Y58230000I0J-150000D01*
G01*
X23730000Y56580000D01*
G75*
G02*
X23580000Y56430000I-150000J0D01*
G01*
G37*
%TD.AperFunction*%
%TO.P,U2,3*%
%TO.N,-9V*%
%TA.AperFunction,SMDPad,CuDef*%
G36*
G01*
X22310000Y56430000D02*
X22010000Y56430000D01*
G75*
G02*
X21860000Y56580000I0J150000D01*
G01*
X21860000Y58230000D01*
G75*
G02*
X22010000Y58380000I150000J0D01*
G01*
X22310000Y58380000D01*
G75*
G02*
X22460000Y58230000I0J-150000D01*
G01*
X22460000Y56580000D01*
G75*
G02*
X22310000Y56430000I-150000J0D01*
G01*
G37*
%TD.AperFunction*%
%TO.P,U2,2*%
%TO.N,Net-(Q1-Pad1)*%
%TA.AperFunction,SMDPad,CuDef*%
G36*
G01*
X21040000Y56430000D02*
X20740000Y56430000D01*
G75*
G02*
X20590000Y56580000I0J150000D01*
G01*
X20590000Y58230000D01*
G75*
G02*
X20740000Y58380000I150000J0D01*
G01*
X21040000Y58380000D01*
G75*
G02*
X21190000Y58230000I0J-150000D01*
G01*
X21190000Y56580000D01*
G75*
G02*
X21040000Y56430000I-150000J0D01*
G01*
G37*
%TD.AperFunction*%
%TO.P,U2,1*%
%TA.AperFunction,SMDPad,CuDef*%
G36*
G01*
X19770000Y56430000D02*
X19470000Y56430000D01*
G75*
G02*
X19320000Y56580000I0J150000D01*
G01*
X19320000Y58230000D01*
G75*
G02*
X19470000Y58380000I150000J0D01*
G01*
X19770000Y58380000D01*
G75*
G02*
X19920000Y58230000I0J-150000D01*
G01*
X19920000Y56580000D01*
G75*
G02*
X19770000Y56430000I-150000J0D01*
G01*
G37*
%TD.AperFunction*%
%TD*%
D25*
%TO.P,C14,1*%
%TO.N,GND*%
X24840000Y79480000D03*
%TO.P,C14,2*%
%TO.N,Net-(C11-Pad1)*%
X20940000Y79480000D03*
%TD*%
%TO.P,C10,1*%
%TO.N,Net-(C10-Pad1)*%
X35940000Y79480000D03*
%TO.P,C10,2*%
%TO.N,GND*%
X32040000Y79480000D03*
%TD*%
D14*
%TO.P,R14,2*%
%TO.N,Net-(R14-Pad2)*%
X26430000Y64840000D03*
D13*
%TO.P,R14,1*%
%TO.N,+9V*%
X26430000Y75000000D03*
%TD*%
D14*
%TO.P,D2,2*%
%TO.N,-9V*%
X5790000Y69088000D03*
D15*
%TO.P,D2,1*%
%TO.N,Net-(C11-Pad1)*%
X5790000Y66548000D03*
%TD*%
D14*
%TO.P,D1,2*%
%TO.N,-9V*%
X8570000Y69088000D03*
D15*
%TO.P,D1,1*%
%TO.N,Net-(C10-Pad1)*%
X8570000Y66548000D03*
%TD*%
D13*
%TO.P,C16,2*%
%TO.N,-9V*%
X3010000Y69990000D03*
%TO.P,C16,1*%
%TO.N,GND*%
X3010000Y64990000D03*
%TD*%
%TO.P,C19,2*%
%TO.N,GND*%
X11170000Y64990000D03*
%TO.P,C19,1*%
%TO.N,+9V*%
X11170000Y69990000D03*
%TD*%
D26*
%TO.P,RV1,1*%
%TO.N,Net-(R5-Pad2)*%
X29630000Y85550000D03*
D27*
%TO.P,RV1,2*%
%TO.N,GND*%
X27090000Y88090000D03*
%TO.P,RV1,3*%
%TO.N,Net-(R6-Pad1)*%
X29630000Y90630000D03*
%TD*%
D13*
%TO.P,C13,2*%
%TO.N,GND*%
X24120000Y85820000D03*
%TO.P,C13,1*%
%TO.N,Net-(C11-Pad1)*%
X21620000Y85820000D03*
%TD*%
%TO.P,C12,2*%
%TO.N,GND*%
X24120000Y87920000D03*
%TO.P,C12,1*%
%TO.N,Net-(C11-Pad1)*%
X21620000Y87920000D03*
%TD*%
%TO.P,C11,2*%
%TO.N,GND*%
X24120000Y90050000D03*
%TO.P,C11,1*%
%TO.N,Net-(C11-Pad1)*%
X21620000Y90050000D03*
%TD*%
%TO.P,C9,2*%
%TO.N,Net-(C10-Pad1)*%
X35110000Y85830000D03*
%TO.P,C9,1*%
%TO.N,GND*%
X32610000Y85830000D03*
%TD*%
%TO.P,C8,2*%
%TO.N,Net-(C10-Pad1)*%
X35110000Y87940000D03*
%TO.P,C8,1*%
%TO.N,GND*%
X32610000Y87940000D03*
%TD*%
%TO.P,C7,2*%
%TO.N,Net-(C10-Pad1)*%
X35110000Y90040000D03*
%TO.P,C7,1*%
%TO.N,GND*%
X32610000Y90040000D03*
%TD*%
%TO.P,R4b1,2*%
%TO.N,Net-(R4a1-Pad1)*%
%TA.AperFunction,ComponentPad*%
G36*
G01*
X16062873Y88047127D02*
X16062873Y88047127D01*
G75*
G02*
X15072923Y88047127I-494975J494975D01*
G01*
X15072923Y88047127D01*
G75*
G02*
X15072923Y89037077I494975J494975D01*
G01*
X15072923Y89037077D01*
G75*
G02*
X16062873Y89037077I494975J-494975D01*
G01*
X16062873Y89037077D01*
G75*
G02*
X16062873Y88047127I-494975J-494975D01*
G01*
G37*
%TD.AperFunction*%
D20*
%TO.P,R4b1,1*%
%TO.N,Net-(C11-Pad1)*%
X19160000Y84950000D03*
%TD*%
%TO.P,R4a1,2*%
%TO.N,Net-(R3-Pad2)*%
%TA.AperFunction,ComponentPad*%
G36*
G01*
X11404146Y85731952D02*
X11404146Y85731952D01*
G75*
G02*
X10985775Y84834753I-657785J-239414D01*
G01*
X10985775Y84834753D01*
G75*
G02*
X10088576Y85253124I-239414J657785D01*
G01*
X10088576Y85253124D01*
G75*
G02*
X10506947Y86150323I657785J239414D01*
G01*
X10506947Y86150323D01*
G75*
G02*
X11404146Y85731952I239414J-657785D01*
G01*
G37*
%TD.AperFunction*%
%TO.P,R4a1,1*%
%TO.N,Net-(R4a1-Pad1)*%
X15520000Y87230000D03*
%TD*%
D19*
%TO.P,R6,2*%
%TO.N,Net-(C11-Pad1)*%
X21580000Y92160000D03*
D20*
%TO.P,R6,1*%
%TO.N,Net-(R6-Pad1)*%
X24120000Y92160000D03*
%TD*%
D19*
%TO.P,R5,2*%
%TO.N,Net-(R5-Pad2)*%
X32510000Y92170000D03*
D20*
%TO.P,R5,1*%
%TO.N,Net-(C10-Pad1)*%
X35050000Y92170000D03*
%TD*%
%TO.P,R3,2*%
%TO.N,Net-(R3-Pad2)*%
%TA.AperFunction,ComponentPad*%
G36*
G01*
X9163327Y88602954D02*
X9163327Y88602954D01*
G75*
G02*
X10277510Y88406493I458861J-655322D01*
G01*
X10277510Y88406493D01*
G75*
G02*
X10081049Y87292310I-655322J-458861D01*
G01*
X10081049Y87292310D01*
G75*
G02*
X8966866Y87488771I-458861J655322D01*
G01*
X8966866Y87488771D01*
G75*
G02*
X9163327Y88602954I655322J458861D01*
G01*
G37*
%TD.AperFunction*%
D13*
%TO.P,R3,1*%
%TO.N,Net-(C4-Pad2)*%
X4460000Y95320000D03*
%TD*%
%TO.P,C6,2*%
%TO.N,Net-(C5-Pad1)*%
X9483942Y79817639D03*
%TO.P,C6,1*%
%TO.N,Net-(C11-Pad1)*%
X16870000Y81120000D03*
%TD*%
%TO.P,C5,2*%
%TO.N,Net-(C4-Pad1)*%
X3166699Y84163301D03*
%TO.P,C5,1*%
%TO.N,Net-(C5-Pad1)*%
X8470000Y78860000D03*
%TD*%
%TO.P,C4,2*%
%TO.N,Net-(C4-Pad2)*%
X4460000Y93850000D03*
%TO.P,C4,1*%
%TO.N,Net-(C4-Pad1)*%
X4460000Y86350000D03*
%TD*%
%TO.P,C3,2*%
%TO.N,Net-(C2-Pad1)*%
X46836058Y79647639D03*
%TO.P,C3,1*%
%TO.N,Net-(C10-Pad1)*%
X39450000Y80950000D03*
%TD*%
%TO.P,C2,2*%
%TO.N,Net-(C1-Pad1)*%
X53333301Y84163301D03*
%TO.P,C2,1*%
%TO.N,Net-(C2-Pad1)*%
X48030000Y78860000D03*
%TD*%
%TO.P,R2b1,2*%
%TO.N,Net-(R2a1-Pad1)*%
%TA.AperFunction,ComponentPad*%
G36*
G01*
X40947127Y87957127D02*
X40947127Y87957127D01*
G75*
G02*
X40947127Y88947077I494975J494975D01*
G01*
X40947127Y88947077D01*
G75*
G02*
X41937077Y88947077I494975J-494975D01*
G01*
X41937077Y88947077D01*
G75*
G02*
X41937077Y87957127I-494975J-494975D01*
G01*
X41937077Y87957127D01*
G75*
G02*
X40947127Y87957127I-494975J494975D01*
G01*
G37*
%TD.AperFunction*%
D20*
%TO.P,R2b1,1*%
%TO.N,Net-(C10-Pad1)*%
X37850000Y84860000D03*
%TD*%
%TO.P,R2a1,2*%
%TO.N,Net-(R1-Pad2)*%
%TA.AperFunction,ComponentPad*%
G36*
G01*
X45545854Y85781952D02*
X45545854Y85781952D01*
G75*
G02*
X46443053Y86200323I657785J-239414D01*
G01*
X46443053Y86200323D01*
G75*
G02*
X46861424Y85303124I-239414J-657785D01*
G01*
X46861424Y85303124D01*
G75*
G02*
X45964225Y84884753I-657785J239414D01*
G01*
X45964225Y84884753D01*
G75*
G02*
X45545854Y85781952I239414J657785D01*
G01*
G37*
%TD.AperFunction*%
%TO.P,R2a1,1*%
%TO.N,Net-(R2a1-Pad1)*%
X41430000Y87280000D03*
%TD*%
D13*
%TO.P,C1,2*%
%TO.N,Net-(C1-Pad2)*%
X52110000Y94280000D03*
%TO.P,C1,1*%
%TO.N,Net-(C1-Pad1)*%
X52110000Y86780000D03*
%TD*%
D28*
%TO.P,Probe-1,1*%
%TO.N,Net-(C4-Pad2)*%
X4520000Y97030000D03*
%TD*%
%TO.P,Probe+1,1*%
%TO.N,Net-(C1-Pad2)*%
X52080000Y97030000D03*
%TD*%
D29*
%TO.N,GND*%
X6930000Y62890000D03*
X48750000Y57650000D03*
X880000Y56190000D03*
X32040000Y81575003D03*
X24825000Y81550000D03*
%TO.N,-9V*%
X22180000Y51200000D03*
X21215000Y60065000D03*
%TO.N,Net-(R16-Pad2)*%
X24302000Y66548000D03*
%TO.N,Net-(C22-Pad2)*%
X47752000Y48006000D03*
%TO.N,Net-(Q1-Pad3)*%
X17272000Y54864000D03*
%TO.N,Net-(Q1-Pad2)*%
X24699993Y59030007D03*
%TO.N,Net-(Q1-Pad1)*%
X18319998Y62355000D03*
X22160000Y61165000D03*
%TO.N,Net-(R17-Pad2)*%
X19450000Y69775000D03*
X33700000Y70850000D03*
%TO.N,Net-(RV2-Pad1)*%
X25575000Y51775000D03*
%TO.N,Net-(RV4-Pad3)*%
X50800000Y67310000D03*
X48514000Y65024000D03*
%TD*%
D30*
%TO.N,Net-(R1-Pad2)*%
X46947812Y86286711D02*
X46203639Y85542538D01*
X46947812Y88327632D02*
X46947812Y86286711D01*
%TO.N,Net-(C1-Pad2)*%
X52080000Y95730000D02*
X52110000Y95700000D01*
X52080000Y97030000D02*
X52080000Y95730000D01*
X52080000Y94310000D02*
X52110000Y94280000D01*
X52080000Y97030000D02*
X52080000Y94310000D01*
%TO.N,Net-(C1-Pad1)*%
X52110000Y85386602D02*
X52110000Y86780000D01*
X53333301Y84163301D02*
X52110000Y85386602D01*
%TO.N,Net-(R2a1-Pad1)*%
X41430000Y88440000D02*
X41442102Y88452102D01*
X41430000Y87280000D02*
X41430000Y88440000D01*
%TO.N,Net-(C2-Pad1)*%
X47242361Y79647639D02*
X48030000Y78860000D01*
X46836058Y79647639D02*
X47242361Y79647639D01*
D31*
%TO.N,Net-(C4-Pad2)*%
X4520000Y93910000D02*
X4460000Y93850000D01*
X4520000Y97030000D02*
X4520000Y93910000D01*
D30*
X4460000Y93850000D02*
X4460000Y95320000D01*
X4520000Y95380000D02*
X4460000Y95320000D01*
X4520000Y97030000D02*
X4520000Y95380000D01*
%TO.N,Net-(C4-Pad1)*%
X4460000Y85456602D02*
X4460000Y86350000D01*
X3166699Y84163301D02*
X4460000Y85456602D01*
%TO.N,Net-(C5-Pad1)*%
X8526303Y78860000D02*
X9483942Y79817639D01*
X8470000Y78860000D02*
X8526303Y78860000D01*
%TO.N,Net-(R3-Pad2)*%
X9622188Y86616711D02*
X10746361Y85492538D01*
X9622188Y87947632D02*
X9622188Y86616711D01*
%TO.N,Net-(R4a1-Pad1)*%
X15520000Y88494204D02*
X15567898Y88542102D01*
X15520000Y87230000D02*
X15520000Y88494204D01*
%TO.N,Net-(C11-Pad1)*%
X16870000Y81120000D02*
X18760000Y79230000D01*
X20690000Y79230000D02*
X20940000Y79480000D01*
X18760000Y79230000D02*
X20690000Y79230000D01*
X21580000Y90090000D02*
X21620000Y90050000D01*
X21620000Y80160000D02*
X20940000Y79480000D01*
D31*
X5450000Y64770000D02*
X5842000Y64770000D01*
X4170000Y63490000D02*
X5450000Y64770000D01*
X4170000Y61510000D02*
X4170000Y63490000D01*
X5842000Y66496000D02*
X5790000Y66548000D01*
X5842000Y64770000D02*
X5842000Y66496000D01*
D30*
X21580000Y92160000D02*
X21580000Y90090000D01*
X21620000Y90050000D02*
X21620000Y87920000D01*
X21620000Y87920000D02*
X21620000Y85820000D01*
X20750000Y84950000D02*
X21620000Y85820000D01*
X21620000Y85820000D02*
X21620000Y80160000D01*
X19160000Y84950000D02*
X20750000Y84950000D01*
%TO.N,Net-(C10-Pad1)*%
X36080000Y84860000D02*
X35110000Y85830000D01*
X37850000Y84860000D02*
X36080000Y84860000D01*
X35110000Y85830000D02*
X35110000Y87940000D01*
X35110000Y87940000D02*
X35110000Y90040000D01*
X35110000Y92110000D02*
X35050000Y92170000D01*
X35110000Y90040000D02*
X35110000Y92110000D01*
X37980000Y79480000D02*
X39450000Y80950000D01*
X35940000Y79480000D02*
X37980000Y79480000D01*
D31*
X8570000Y64836000D02*
X8636000Y64770000D01*
X8570000Y66548000D02*
X8570000Y64836000D01*
D30*
X35940000Y85000000D02*
X35940000Y79480000D01*
X35110000Y85830000D02*
X35940000Y85000000D01*
D31*
%TO.N,GND*%
X10680000Y49070000D02*
X8760000Y50990000D01*
X10680000Y47890000D02*
X10680000Y49070000D01*
X7890000Y50990000D02*
X8760000Y50990000D01*
X2450000Y45550000D02*
X7890000Y50990000D01*
X29790000Y70750000D02*
X32460000Y68080000D01*
X28490000Y70750000D02*
X29790000Y70750000D01*
X9070000Y62890000D02*
X11170000Y64990000D01*
X6930000Y62890000D02*
X9070000Y62890000D01*
X52130000Y66700000D02*
X48750000Y63320000D01*
X48750000Y63320000D02*
X48750000Y57650000D01*
X32160000Y72670000D02*
X32139999Y72690001D01*
X39960000Y72670000D02*
X32160000Y72670000D01*
X41710000Y70920000D02*
X39960000Y72670000D01*
X42170459Y70920000D02*
X41710000Y70920000D01*
X42180459Y70910000D02*
X42170459Y70920000D01*
X53330000Y70910000D02*
X42180459Y70910000D01*
X55160000Y69080000D02*
X53330000Y70910000D01*
X52780000Y66700000D02*
X55160000Y69080000D01*
X52130000Y66700000D02*
X52780000Y66700000D01*
X3010000Y64990000D02*
X880000Y62860000D01*
X880000Y62860000D02*
X880000Y56190000D01*
D30*
X32040000Y79480000D02*
X32040000Y81575003D01*
X24840000Y79480000D02*
X24840000Y81735054D01*
D31*
X31715000Y72675000D02*
X29790000Y70750000D01*
X32155000Y72675000D02*
X31715000Y72675000D01*
X32160000Y72670000D02*
X32155000Y72675000D01*
%TO.N,+9V*%
X52740000Y62160000D02*
X53240000Y62160000D01*
X55160000Y62768000D02*
X55110000Y62718000D01*
X55160000Y64080000D02*
X55160000Y62768000D01*
X54552000Y62160000D02*
X55110000Y62718000D01*
X52740000Y62160000D02*
X54552000Y62160000D01*
X27770000Y75000000D02*
X27780000Y75010000D01*
X26430000Y75000000D02*
X27770000Y75000000D01*
%TO.N,-9V*%
X51359999Y50819999D02*
X52610000Y52070000D01*
X46208001Y50819999D02*
X51359999Y50819999D01*
X45120000Y51908000D02*
X46208001Y50819999D01*
X45120000Y57080000D02*
X45120000Y51908000D01*
X12780000Y44990000D02*
X15680000Y47890000D01*
X5550000Y44990000D02*
X12780000Y44990000D01*
X20890000Y60390000D02*
X20890000Y62355000D01*
X22160000Y57405000D02*
X22160000Y59120000D01*
X8570000Y69088000D02*
X5790000Y69088000D01*
X22160000Y51220000D02*
X22180000Y51200000D01*
X22160000Y57405000D02*
X22160000Y51220000D01*
X21215000Y60065000D02*
X20890000Y60390000D01*
X22160000Y59120000D02*
X21215000Y60065000D01*
X21970000Y64134000D02*
X20890000Y63054000D01*
X20890000Y63054000D02*
X20890000Y62355000D01*
X21970000Y69530000D02*
X21970000Y64134000D01*
X20400000Y71100000D02*
X21970000Y69530000D01*
X14712000Y71100000D02*
X20400000Y71100000D01*
X11938000Y68326000D02*
X14712000Y71100000D01*
X10160000Y68326000D02*
X11938000Y68326000D01*
X9398000Y69088000D02*
X10160000Y68326000D01*
X8570000Y69088000D02*
X9398000Y69088000D01*
%TO.N,Net-(R14-Pad2)*%
X27240000Y64030000D02*
X26430000Y64840000D01*
X27240000Y62355000D02*
X27240000Y64030000D01*
X23510000Y64840000D02*
X23500000Y64850000D01*
%TO.N,Net-(R16-Pad2)*%
X9858025Y61138025D02*
X14160000Y65440000D01*
X5068025Y61138025D02*
X9858025Y61138025D01*
X24750001Y66099999D02*
X24302000Y66548000D01*
X24750001Y64249999D02*
X24750001Y66099999D01*
X23430000Y62929998D02*
X24750001Y64249999D01*
X23430000Y62355000D02*
X23430000Y62929998D01*
%TO.N,Net-(C18-Pad2)*%
X42770000Y46990000D02*
X42770000Y49090000D01*
%TO.N,Net-(C20-Pad2)*%
X8760000Y55680000D02*
X11390000Y53050000D01*
X8760000Y55990000D02*
X8760000Y55680000D01*
X8760000Y54858630D02*
X8760000Y55990000D01*
X6225370Y52324000D02*
X8760000Y54858630D01*
X4040000Y52324000D02*
X6225370Y52324000D01*
X16796000Y44990000D02*
X15710000Y44990000D01*
X17526000Y45720000D02*
X16796000Y44990000D01*
X17526000Y49784000D02*
X17526000Y45720000D01*
X17018000Y50292000D02*
X17526000Y49784000D01*
X11938000Y50292000D02*
X17018000Y50292000D01*
X11390000Y50840000D02*
X11938000Y50292000D01*
X11390000Y53050000D02*
X11390000Y50840000D01*
%TO.N,Net-(C22-Pad2)*%
X39781370Y70750000D02*
X38650000Y70750000D01*
X46440630Y66843370D02*
X43688000Y66843370D01*
X46990000Y66294000D02*
X46440630Y66843370D01*
X46990000Y62992000D02*
X46990000Y66294000D01*
X46158000Y62160000D02*
X46990000Y62992000D01*
X43688000Y66843370D02*
X39781370Y70750000D01*
X45120000Y62160000D02*
X46158000Y62160000D01*
X47666000Y47920000D02*
X47752000Y48006000D01*
X45040000Y47920000D02*
X47666000Y47920000D01*
X30775000Y73025000D02*
X32740000Y74990000D01*
X24100000Y73025000D02*
X30775000Y73025000D01*
X23500000Y73625000D02*
X24100000Y73025000D01*
X23500000Y75010000D02*
X23500000Y73625000D01*
%TO.N,Net-(C22-Pad1)*%
X35240000Y74990000D02*
X40720000Y74990000D01*
%TO.N,Net-(C23-Pad2)*%
X55000000Y59620000D02*
X55040000Y59580000D01*
X52740000Y59620000D02*
X55000000Y59620000D01*
X51492000Y59620000D02*
X52740000Y59620000D01*
X50140000Y58268000D02*
X51492000Y59620000D01*
X50140000Y54410000D02*
X50140000Y58268000D01*
%TO.N,Net-(C39-Pad1)*%
X55120000Y47840000D02*
X55200000Y47920000D01*
X55120000Y44890000D02*
X55120000Y47840000D01*
X55040000Y48080000D02*
X55200000Y47920000D01*
X55040000Y51960000D02*
X55040000Y48080000D01*
X55120000Y38610000D02*
X55120000Y44890000D01*
X53080000Y36570000D02*
X55120000Y38610000D01*
X40410000Y36570000D02*
X53080000Y36570000D01*
%TO.N,Net-(Q1-Pad3)*%
X15832000Y58590000D02*
X15100000Y58590000D01*
X17272000Y57150000D02*
X15832000Y58590000D01*
X17272000Y54864000D02*
X17272000Y57150000D01*
X29740000Y55090000D02*
X29740000Y56640000D01*
X29290000Y54640000D02*
X29740000Y55090000D01*
X27070000Y54640000D02*
X29290000Y54640000D01*
%TO.N,Net-(Q1-Pad2)*%
X13746000Y57404000D02*
X13830000Y57320000D01*
X6604000Y57404000D02*
X13746000Y57404000D01*
X5310000Y56110000D02*
X6604000Y57404000D01*
X5310000Y53594000D02*
X5310000Y56110000D01*
X24700000Y57405000D02*
X24700000Y59030000D01*
X24700000Y59030000D02*
X24699993Y59030007D01*
%TO.N,Net-(Q1-Pad1)*%
X16325000Y62355000D02*
X19620000Y62355000D01*
X12560000Y58590000D02*
X16325000Y62355000D01*
X20890000Y57405000D02*
X19620000Y57405000D01*
X19620000Y62355000D02*
X18319998Y62355000D01*
X19620000Y57405000D02*
X19620000Y61054998D01*
X19620000Y62355000D02*
X19620000Y61054998D01*
X22160000Y62355000D02*
X22160000Y61165000D01*
X23430000Y57405000D02*
X23430000Y59895000D01*
X23430000Y59895000D02*
X22160000Y61165000D01*
%TO.N,Net-(R12-Pad2)*%
X24010000Y51428000D02*
X25048000Y50390000D01*
X24010000Y54660000D02*
X24010000Y51428000D01*
X27070000Y50380000D02*
X27080000Y50390000D01*
X27070000Y44480000D02*
X27070000Y50380000D01*
X27080000Y50390000D02*
X33620000Y50390000D01*
X25048000Y50390000D02*
X27080000Y50390000D01*
%TO.N,Net-(R8-Pad1)*%
X24010000Y46890000D02*
X24010000Y44500000D01*
X19650000Y51250000D02*
X24010000Y46890000D01*
%TO.N,Net-(R9-Pad1)*%
X19354000Y64820000D02*
X20460000Y64820000D01*
X17780000Y63246000D02*
X19354000Y64820000D01*
X11218000Y60240000D02*
X14224000Y63246000D01*
X14224000Y63246000D02*
X17780000Y63246000D01*
X5440000Y60240000D02*
X11218000Y60240000D01*
%TO.N,Net-(R10-Pad2)*%
X41838000Y61650000D02*
X40080000Y59892000D01*
X40080000Y59892000D02*
X40080000Y56580000D01*
X42720000Y61650000D02*
X41838000Y61650000D01*
%TO.N,Net-(R17-Pad2)*%
X40720000Y65570038D02*
X40720000Y67370000D01*
X43869999Y62420039D02*
X40720000Y65570038D01*
X43869999Y60870001D02*
X43869999Y62420039D01*
X45120000Y59620000D02*
X43869999Y60870001D01*
X15955000Y69775000D02*
X19450000Y69775000D01*
X14160000Y67980000D02*
X15955000Y69775000D01*
X38905000Y67370000D02*
X40720000Y67370000D01*
X35425000Y70850000D02*
X38905000Y67370000D01*
X33700000Y70850000D02*
X35425000Y70850000D01*
%TO.N,Net-(RV2-Pad1)*%
X19650000Y46170000D02*
X19650000Y48710000D01*
X25970000Y57405000D02*
X25970000Y55920000D01*
X25575000Y55525000D02*
X25575000Y51775000D01*
X25970000Y55920000D02*
X25575000Y55525000D01*
%TO.N,Net-(RV4-Pad3)*%
X50800000Y67310000D02*
X48514000Y65024000D01*
%TO.N,Net-(Q2-Pad1)*%
X2450000Y53274000D02*
X2770000Y53594000D01*
X2450000Y48090000D02*
X2450000Y53274000D01*
%TO.N,Net-(C15-Pad2)*%
X32680000Y63720000D02*
X32660000Y63740000D01*
X35120000Y63720000D02*
X32680000Y63720000D01*
X32660000Y63880000D02*
X29740000Y66800000D01*
X32660000Y63740000D02*
X32660000Y63880000D01*
X26644000Y60706000D02*
X29626000Y60706000D01*
X25970000Y61380000D02*
X26644000Y60706000D01*
X29626000Y60706000D02*
X32660000Y63740000D01*
X25970000Y62355000D02*
X25970000Y61380000D01*
X37640000Y61650000D02*
X40180000Y64190000D01*
X35570000Y63720000D02*
X37640000Y61650000D01*
X35120000Y63720000D02*
X35570000Y63720000D01*
X37640000Y57169998D02*
X37592000Y57121998D01*
X37640000Y61650000D02*
X37640000Y57169998D01*
X37592000Y57121998D02*
X37592000Y55372000D01*
X37592000Y55372000D02*
X38608000Y54356000D01*
X38608000Y54356000D02*
X41656000Y54356000D01*
X42770000Y55470000D02*
X42770000Y56710000D01*
X41656000Y54356000D02*
X42770000Y55470000D01*
X27350000Y66800000D02*
X29740000Y66800000D01*
X20460000Y73690000D02*
X27350000Y66800000D01*
X20460000Y74980000D02*
X20460000Y73690000D01*
%TO.N,Net-(C15-Pad1)*%
X42010000Y44490000D02*
X40080000Y46420000D01*
X42770000Y44490000D02*
X42010000Y44490000D01*
X40080000Y50598000D02*
X40080000Y46420000D01*
X38288000Y52390000D02*
X40080000Y50598000D01*
X33620000Y52390000D02*
X38288000Y52390000D01*
X32004000Y54006000D02*
X33620000Y52390000D01*
X32004000Y60584000D02*
X32004000Y54006000D01*
X32660000Y61240000D02*
X32004000Y60584000D01*
X32680000Y61220000D02*
X32660000Y61240000D01*
X35120000Y61220000D02*
X32680000Y61220000D01*
%TD*%
D32*
%TO.N,GND*%
X3213845Y71669300D02*
X3221752Y71662758D01*
X3342746Y71564078D01*
X3398270Y71527188D01*
X3453198Y71489578D01*
X3462222Y71484698D01*
X3462230Y71484694D01*
X3600082Y71411397D01*
X3661712Y71385995D01*
X3722904Y71359768D01*
X3732699Y71356735D01*
X3732705Y71356733D01*
X3732711Y71356732D01*
X3882176Y71311606D01*
X3947554Y71298661D01*
X4012683Y71284817D01*
X4022889Y71283744D01*
X4178276Y71268508D01*
X4178277Y71268508D01*
X4213895Y71265000D01*
X10498288Y71265000D01*
X10490273Y71261680D01*
X10255241Y71104637D01*
X10055363Y70904759D01*
X9898320Y70669727D01*
X9790147Y70408574D01*
X9735000Y70131335D01*
X9735000Y69927385D01*
X9684637Y70002759D01*
X9484759Y70202637D01*
X9249727Y70359680D01*
X8988574Y70467853D01*
X8711335Y70523000D01*
X8428665Y70523000D01*
X8151426Y70467853D01*
X7890273Y70359680D01*
X7655241Y70202637D01*
X7455363Y70002759D01*
X7435479Y69973000D01*
X6924521Y69973000D01*
X6904637Y70002759D01*
X6704759Y70202637D01*
X6469727Y70359680D01*
X6208574Y70467853D01*
X5931335Y70523000D01*
X5648665Y70523000D01*
X5371426Y70467853D01*
X5110273Y70359680D01*
X4875241Y70202637D01*
X4675363Y70002759D01*
X4518320Y69767727D01*
X4410147Y69506574D01*
X4355000Y69229335D01*
X4355000Y68946665D01*
X4410147Y68669426D01*
X4518320Y68408273D01*
X4675363Y68173241D01*
X4873961Y67974643D01*
X4865518Y67973812D01*
X4745820Y67937502D01*
X4635506Y67878537D01*
X4538815Y67799185D01*
X4459463Y67702494D01*
X4400498Y67592180D01*
X4364188Y67472482D01*
X4351928Y67348000D01*
X4351928Y65748000D01*
X4364188Y65623518D01*
X4400498Y65503820D01*
X4459463Y65393506D01*
X4538815Y65296815D01*
X4545754Y65291121D01*
X4498686Y65177490D01*
X4472062Y65043640D01*
X3574951Y64146529D01*
X3541184Y64118817D01*
X3513471Y64085049D01*
X3513468Y64085046D01*
X3430590Y63984059D01*
X3348412Y63830313D01*
X3297805Y63663490D01*
X3280719Y63490000D01*
X3285001Y63446521D01*
X3285000Y62120452D01*
X3217348Y62019203D01*
X3136312Y61823566D01*
X3095000Y61615878D01*
X3095000Y61404122D01*
X3117129Y61292871D01*
X3005878Y61315000D01*
X2794122Y61315000D01*
X2586434Y61273688D01*
X2390797Y61192652D01*
X2214728Y61075007D01*
X2064993Y60925272D01*
X1947348Y60749203D01*
X1866312Y60553566D01*
X1825000Y60345878D01*
X1825000Y60134122D01*
X1866312Y59926434D01*
X1947348Y59730797D01*
X2064993Y59554728D01*
X2196975Y59422746D01*
X2196975Y59236097D01*
X2238287Y59028409D01*
X2319323Y58832772D01*
X2436968Y58656703D01*
X2586703Y58506968D01*
X2762772Y58389323D01*
X2958409Y58308287D01*
X3166097Y58266975D01*
X3352746Y58266975D01*
X3484728Y58134993D01*
X3660797Y58017348D01*
X3856434Y57936312D01*
X4064122Y57895000D01*
X4275878Y57895000D01*
X4483566Y57936312D01*
X4679203Y58017348D01*
X4855272Y58134993D01*
X5005007Y58284728D01*
X5122652Y58460797D01*
X5203688Y58656434D01*
X5245000Y58864122D01*
X5245000Y59075878D01*
X5222871Y59187129D01*
X5334122Y59165000D01*
X5545878Y59165000D01*
X5753566Y59206312D01*
X5949203Y59287348D01*
X6050452Y59355000D01*
X11174531Y59355000D01*
X11218000Y59350719D01*
X11261469Y59355000D01*
X11261477Y59355000D01*
X11391490Y59367805D01*
X11403725Y59371516D01*
X11328167Y59279449D01*
X11213489Y59064901D01*
X11142870Y58832102D01*
X11119025Y58590000D01*
X11142870Y58347898D01*
X11160737Y58289000D01*
X6647465Y58289000D01*
X6603999Y58293281D01*
X6560533Y58289000D01*
X6560523Y58289000D01*
X6430510Y58276195D01*
X6263687Y58225589D01*
X6109941Y58143411D01*
X6109939Y58143410D01*
X6109940Y58143410D01*
X6008953Y58060532D01*
X6008951Y58060530D01*
X5975183Y58032817D01*
X5947470Y57999049D01*
X4714951Y56766529D01*
X4681184Y56738817D01*
X4653471Y56705049D01*
X4653468Y56705046D01*
X4570590Y56604059D01*
X4488412Y56450313D01*
X4437805Y56283490D01*
X4420719Y56110000D01*
X4425001Y56066521D01*
X4425000Y54455554D01*
X4350713Y54381267D01*
X4215557Y54178992D01*
X4139105Y53994420D01*
X4116511Y54068901D01*
X4001833Y54283449D01*
X3847502Y54471502D01*
X3659449Y54625833D01*
X3444901Y54740511D01*
X3212102Y54811130D01*
X3030665Y54829000D01*
X2509335Y54829000D01*
X2327898Y54811130D01*
X2095099Y54740511D01*
X1880551Y54625833D01*
X1692498Y54471502D01*
X1538167Y54283449D01*
X1423489Y54068901D01*
X1352870Y53836102D01*
X1329025Y53594000D01*
X1352870Y53351898D01*
X1423489Y53119099D01*
X1538167Y52904551D01*
X1565001Y52871854D01*
X1565000Y49224521D01*
X1535241Y49204637D01*
X1335363Y49004759D01*
X1178320Y48769727D01*
X1070147Y48508574D01*
X1015000Y48231335D01*
X1015000Y47948665D01*
X1070147Y47671426D01*
X1178320Y47410273D01*
X1335363Y47175241D01*
X1535241Y46975363D01*
X1770273Y46818320D01*
X2031426Y46710147D01*
X2308665Y46655000D01*
X2591335Y46655000D01*
X2868574Y46710147D01*
X3129727Y46818320D01*
X3364759Y46975363D01*
X3564637Y47175241D01*
X3721680Y47410273D01*
X3829853Y47671426D01*
X3885000Y47948665D01*
X3885000Y48231335D01*
X3829853Y48508574D01*
X3721680Y48769727D01*
X3564637Y49004759D01*
X3364759Y49204637D01*
X3335000Y49224521D01*
X3335000Y51309744D01*
X3455008Y51229557D01*
X3679764Y51136460D01*
X3918363Y51089000D01*
X4161637Y51089000D01*
X4400236Y51136460D01*
X4624992Y51229557D01*
X4827267Y51364713D01*
X4901554Y51439000D01*
X6181901Y51439000D01*
X6225370Y51434719D01*
X6268839Y51439000D01*
X6268847Y51439000D01*
X6398860Y51451805D01*
X6565683Y51502411D01*
X6719429Y51584589D01*
X6854187Y51695183D01*
X6881904Y51728956D01*
X9170685Y54017736D01*
X9851928Y53336493D01*
X9851928Y52150000D01*
X9864188Y52025518D01*
X9900498Y51905820D01*
X9959463Y51795506D01*
X10038815Y51698815D01*
X10135506Y51619463D01*
X10245820Y51560498D01*
X10365518Y51524188D01*
X10490000Y51511928D01*
X10505001Y51511928D01*
X10505001Y50883479D01*
X10500719Y50840000D01*
X10517805Y50666510D01*
X10568412Y50499687D01*
X10650590Y50345941D01*
X10733468Y50244954D01*
X10733471Y50244951D01*
X10761184Y50211183D01*
X10794952Y50183470D01*
X11281466Y49696956D01*
X11309183Y49663183D01*
X11443941Y49552589D01*
X11597687Y49470411D01*
X11764510Y49419805D01*
X11894523Y49407000D01*
X11894533Y49407000D01*
X11937999Y49402719D01*
X11981466Y49407000D01*
X16641000Y49407000D01*
X16641000Y48958396D01*
X16594759Y49004637D01*
X16359727Y49161680D01*
X16098574Y49269853D01*
X15821335Y49325000D01*
X15538665Y49325000D01*
X15261426Y49269853D01*
X15000273Y49161680D01*
X14765241Y49004637D01*
X14565363Y48804759D01*
X14408320Y48569727D01*
X14300147Y48308574D01*
X14245000Y48031335D01*
X14245000Y47748665D01*
X14251983Y47713561D01*
X12413422Y45875000D01*
X6684521Y45875000D01*
X6664637Y45904759D01*
X6464759Y46104637D01*
X6229727Y46261680D01*
X5968574Y46369853D01*
X5691335Y46425000D01*
X5408665Y46425000D01*
X5131426Y46369853D01*
X4870273Y46261680D01*
X4635241Y46104637D01*
X4435363Y45904759D01*
X4278320Y45669727D01*
X4170147Y45408574D01*
X4115000Y45131335D01*
X4115000Y44848665D01*
X4170147Y44571426D01*
X4278320Y44310273D01*
X4435363Y44075241D01*
X4635241Y43875363D01*
X4870273Y43718320D01*
X5131426Y43610147D01*
X5408665Y43555000D01*
X5691335Y43555000D01*
X5968574Y43610147D01*
X6229727Y43718320D01*
X6464759Y43875363D01*
X6664637Y44075241D01*
X6684521Y44105000D01*
X12736531Y44105000D01*
X12780000Y44100719D01*
X12823469Y44105000D01*
X12823477Y44105000D01*
X12953490Y44117805D01*
X13120313Y44168411D01*
X13274059Y44250589D01*
X13408817Y44361183D01*
X13436534Y44394956D01*
X14300349Y45258771D01*
X14275000Y45131335D01*
X14275000Y44848665D01*
X14330147Y44571426D01*
X14438320Y44310273D01*
X14595363Y44075241D01*
X14795241Y43875363D01*
X15030273Y43718320D01*
X15291426Y43610147D01*
X15568665Y43555000D01*
X15851335Y43555000D01*
X16128574Y43610147D01*
X16389727Y43718320D01*
X16624759Y43875363D01*
X16824637Y44075241D01*
X16844877Y44105532D01*
X16969490Y44117805D01*
X17136313Y44168411D01*
X17290059Y44250589D01*
X17424817Y44361183D01*
X17452534Y44394956D01*
X18121049Y45063470D01*
X18154817Y45091183D01*
X18187770Y45131335D01*
X18265411Y45225941D01*
X18283108Y45259050D01*
X18347589Y45379687D01*
X18398195Y45546510D01*
X18411000Y45676523D01*
X18411000Y45676531D01*
X18413647Y45703403D01*
X18479522Y45544366D01*
X18624067Y45328039D01*
X18808039Y45144067D01*
X19024366Y44999522D01*
X19264737Y44899957D01*
X19519913Y44849200D01*
X19780087Y44849200D01*
X20035263Y44899957D01*
X20275634Y44999522D01*
X20491961Y45144067D01*
X20675933Y45328039D01*
X20820478Y45544366D01*
X20920043Y45784737D01*
X20970800Y46039913D01*
X20970800Y46300087D01*
X20920043Y46555263D01*
X20820478Y46795634D01*
X20675933Y47011961D01*
X20535000Y47152894D01*
X20535000Y47727106D01*
X20675933Y47868039D01*
X20820478Y48084366D01*
X20920043Y48324737D01*
X20970800Y48579913D01*
X20970800Y48677622D01*
X23125000Y46523421D01*
X23125001Y45634522D01*
X23095241Y45614637D01*
X22895363Y45414759D01*
X22738320Y45179727D01*
X22630147Y44918574D01*
X22575000Y44641335D01*
X22575000Y44358665D01*
X22630147Y44081426D01*
X22738320Y43820273D01*
X22895363Y43585241D01*
X23095241Y43385363D01*
X23330273Y43228320D01*
X23591426Y43120147D01*
X23868665Y43065000D01*
X24151335Y43065000D01*
X24428574Y43120147D01*
X24689727Y43228320D01*
X24924759Y43385363D01*
X25124637Y43585241D01*
X25281680Y43820273D01*
X25389853Y44081426D01*
X25445000Y44358665D01*
X25445000Y44641335D01*
X25389853Y44918574D01*
X25281680Y45179727D01*
X25124637Y45414759D01*
X24924759Y45614637D01*
X24895000Y45634521D01*
X24895000Y46846535D01*
X24899281Y46890001D01*
X24895000Y46933467D01*
X24895000Y46933477D01*
X24882195Y47063490D01*
X24831589Y47230313D01*
X24749411Y47384059D01*
X24703466Y47440043D01*
X24666532Y47485047D01*
X24666530Y47485049D01*
X24638817Y47518817D01*
X24605050Y47546528D01*
X21963863Y50187715D01*
X22078061Y50165000D01*
X22281939Y50165000D01*
X22481898Y50204774D01*
X22670256Y50282795D01*
X22839774Y50396063D01*
X22983937Y50540226D01*
X23097205Y50709744D01*
X23175226Y50898102D01*
X23206285Y51054248D01*
X23270590Y50933941D01*
X23353468Y50832954D01*
X23353471Y50832951D01*
X23381184Y50799183D01*
X23414951Y50771471D01*
X24391470Y49794951D01*
X24419183Y49761183D01*
X24452951Y49733470D01*
X24452953Y49733468D01*
X24553941Y49650589D01*
X24707686Y49568411D01*
X24874510Y49517805D01*
X25004523Y49505000D01*
X25004531Y49505000D01*
X25048000Y49500719D01*
X25091469Y49505000D01*
X26185001Y49505000D01*
X26185000Y45614521D01*
X26155241Y45594637D01*
X25955363Y45394759D01*
X25798320Y45159727D01*
X25690147Y44898574D01*
X25635000Y44621335D01*
X25635000Y44338665D01*
X25690147Y44061426D01*
X25798320Y43800273D01*
X25955363Y43565241D01*
X26155241Y43365363D01*
X26376991Y43217195D01*
X26132020Y43318665D01*
X25746523Y43395345D01*
X25353475Y43395345D01*
X24967978Y43318665D01*
X24604849Y43168252D01*
X24278040Y42949886D01*
X24000113Y42671959D01*
X23781747Y42345150D01*
X23631334Y41982021D01*
X23554654Y41596524D01*
X23554654Y41203476D01*
X23631334Y40817979D01*
X23781747Y40454850D01*
X24000113Y40128041D01*
X24278040Y39850114D01*
X24604849Y39631748D01*
X24967978Y39481335D01*
X25353475Y39404655D01*
X25746523Y39404655D01*
X26132020Y39481335D01*
X26495149Y39631748D01*
X26821958Y39850114D01*
X27099885Y40128041D01*
X27318251Y40454850D01*
X27468664Y40817979D01*
X27545344Y41203476D01*
X27545344Y41596524D01*
X28954654Y41596524D01*
X28954654Y41203476D01*
X29031334Y40817979D01*
X29181747Y40454850D01*
X29400113Y40128041D01*
X29678040Y39850114D01*
X30004849Y39631748D01*
X30367978Y39481335D01*
X30753475Y39404655D01*
X31146523Y39404655D01*
X31532020Y39481335D01*
X31895149Y39631748D01*
X32221958Y39850114D01*
X32499885Y40128041D01*
X32718251Y40454850D01*
X32868664Y40817979D01*
X32945344Y41203476D01*
X32945344Y41596524D01*
X32868664Y41982021D01*
X32718251Y42345150D01*
X32499885Y42671959D01*
X32221958Y42949886D01*
X31895149Y43168252D01*
X31532020Y43318665D01*
X31146523Y43395345D01*
X30753475Y43395345D01*
X30367978Y43318665D01*
X30004849Y43168252D01*
X29678040Y42949886D01*
X29400113Y42671959D01*
X29181747Y42345150D01*
X29031334Y41982021D01*
X28954654Y41596524D01*
X27545344Y41596524D01*
X27468664Y41982021D01*
X27318251Y42345150D01*
X27099885Y42671959D01*
X26821958Y42949886D01*
X26508431Y43159378D01*
X26651426Y43100147D01*
X26928665Y43045000D01*
X27211335Y43045000D01*
X27488574Y43100147D01*
X27749727Y43208320D01*
X27984759Y43365363D01*
X28184637Y43565241D01*
X28284244Y43714314D01*
X32592500Y43714314D01*
X32592500Y43265686D01*
X32680023Y42825678D01*
X32851706Y42411199D01*
X33100950Y42038178D01*
X33418178Y41720950D01*
X33791199Y41471706D01*
X34205678Y41300023D01*
X34354654Y41270390D01*
X34354654Y41203476D01*
X34431334Y40817979D01*
X34581747Y40454850D01*
X34800113Y40128041D01*
X35078040Y39850114D01*
X35404849Y39631748D01*
X35767978Y39481335D01*
X36153475Y39404655D01*
X36546523Y39404655D01*
X36932020Y39481335D01*
X37295149Y39631748D01*
X37621958Y39850114D01*
X37899885Y40128041D01*
X38118251Y40454850D01*
X38268664Y40817979D01*
X38345344Y41203476D01*
X38345344Y41596524D01*
X38268664Y41982021D01*
X38118251Y42345150D01*
X37899885Y42671959D01*
X37621958Y42949886D01*
X37295149Y43168252D01*
X37140834Y43232172D01*
X37147500Y43265686D01*
X37147500Y43714314D01*
X37059977Y44154322D01*
X36888294Y44568801D01*
X36639050Y44941822D01*
X36321822Y45259050D01*
X35948801Y45508294D01*
X35534322Y45679977D01*
X35094314Y45767500D01*
X34645686Y45767500D01*
X34205678Y45679977D01*
X33791199Y45508294D01*
X33418178Y45259050D01*
X33100950Y44941822D01*
X32851706Y44568801D01*
X32680023Y44154322D01*
X32592500Y43714314D01*
X28284244Y43714314D01*
X28341680Y43800273D01*
X28449853Y44061426D01*
X28505000Y44338665D01*
X28505000Y44621335D01*
X28449853Y44898574D01*
X28341680Y45159727D01*
X28184637Y45394759D01*
X27984759Y45594637D01*
X27955000Y45614521D01*
X27955000Y49505000D01*
X32758446Y49505000D01*
X32832733Y49430713D01*
X32893664Y49390000D01*
X32832733Y49349287D01*
X32660713Y49177267D01*
X32525557Y48974992D01*
X32432460Y48750236D01*
X32385000Y48511637D01*
X32385000Y48268363D01*
X32432460Y48029764D01*
X32525557Y47805008D01*
X32660713Y47602733D01*
X32832733Y47430713D01*
X33035008Y47295557D01*
X33259764Y47202460D01*
X33498363Y47155000D01*
X33741637Y47155000D01*
X33980236Y47202460D01*
X34204992Y47295557D01*
X34407267Y47430713D01*
X34579287Y47602733D01*
X34714443Y47805008D01*
X34807540Y48029764D01*
X34855000Y48268363D01*
X34855000Y48511637D01*
X34807540Y48750236D01*
X34714443Y48974992D01*
X34579287Y49177267D01*
X34407267Y49349287D01*
X34346336Y49390000D01*
X34407267Y49430713D01*
X34579287Y49602733D01*
X34714443Y49805008D01*
X34807540Y50029764D01*
X34855000Y50268363D01*
X34855000Y50511637D01*
X34807540Y50750236D01*
X34714443Y50974992D01*
X34579287Y51177267D01*
X34407267Y51349287D01*
X34346336Y51390000D01*
X34407267Y51430713D01*
X34481554Y51505000D01*
X37921422Y51505000D01*
X39195000Y50231421D01*
X39195001Y47554522D01*
X39165241Y47534637D01*
X38965363Y47334759D01*
X38808320Y47099727D01*
X38700147Y46838574D01*
X38645000Y46561335D01*
X38645000Y46278665D01*
X38700147Y46001426D01*
X38808320Y45740273D01*
X38965363Y45505241D01*
X39165241Y45305363D01*
X39400273Y45148320D01*
X39661426Y45040147D01*
X39938665Y44985000D01*
X40221335Y44985000D01*
X40256439Y44991983D01*
X41353470Y43894951D01*
X41381183Y43861183D01*
X41414951Y43833470D01*
X41414953Y43833468D01*
X41443216Y43810273D01*
X41515941Y43750589D01*
X41550565Y43732082D01*
X41655363Y43575241D01*
X41835259Y43395345D01*
X41553476Y43395345D01*
X41167979Y43318665D01*
X40804850Y43168252D01*
X40478041Y42949886D01*
X40200114Y42671959D01*
X39981748Y42345150D01*
X39831335Y41982021D01*
X39754655Y41596524D01*
X39754655Y41203476D01*
X39831335Y40817979D01*
X39981748Y40454850D01*
X40200114Y40128041D01*
X40478041Y39850114D01*
X40804850Y39631748D01*
X41167979Y39481335D01*
X41536298Y39408072D01*
X38459999Y39408072D01*
X38286745Y39391008D01*
X38120149Y39340472D01*
X37966613Y39258405D01*
X37832038Y39147962D01*
X37721595Y39013387D01*
X37639528Y38859851D01*
X37588992Y38693255D01*
X37571928Y38520001D01*
X37571928Y34619999D01*
X37588992Y34446745D01*
X37639528Y34280149D01*
X37721595Y34126613D01*
X37832038Y33992038D01*
X37966613Y33881595D01*
X38120149Y33799528D01*
X38286745Y33748992D01*
X38459999Y33731928D01*
X42360001Y33731928D01*
X42533255Y33748992D01*
X42699851Y33799528D01*
X42853387Y33881595D01*
X42987962Y33992038D01*
X43098405Y34126613D01*
X43180472Y34280149D01*
X43231008Y34446745D01*
X43248072Y34619999D01*
X43248072Y35685000D01*
X53036531Y35685000D01*
X53080000Y35680719D01*
X53123469Y35685000D01*
X53123477Y35685000D01*
X53253490Y35697805D01*
X53420313Y35748411D01*
X53574059Y35830589D01*
X53708817Y35941183D01*
X53736534Y35974956D01*
X55715050Y37953471D01*
X55748817Y37981183D01*
X55765001Y38000903D01*
X55765000Y1285955D01*
X55751733Y1150652D01*
X55722882Y1055091D01*
X55676019Y966955D01*
X55612927Y889597D01*
X55536013Y825967D01*
X55448206Y778491D01*
X55352842Y748971D01*
X55219925Y735000D01*
X1285944Y735000D01*
X1150652Y748265D01*
X1055091Y777117D01*
X966954Y823981D01*
X889596Y887073D01*
X825967Y963987D01*
X778491Y1051792D01*
X748971Y1147158D01*
X735000Y1280075D01*
X735000Y31796523D01*
X1954655Y31796523D01*
X1954655Y31403475D01*
X2031335Y31017978D01*
X2181748Y30654849D01*
X2400114Y30328040D01*
X2678041Y30050113D01*
X3004850Y29831747D01*
X3367979Y29681334D01*
X3753476Y29604654D01*
X4146524Y29604654D01*
X4532021Y29681334D01*
X4895150Y29831747D01*
X5221959Y30050113D01*
X5499886Y30328040D01*
X5718252Y30654849D01*
X5868665Y31017978D01*
X5945345Y31403475D01*
X5945345Y31796523D01*
X7354655Y31796523D01*
X7354655Y31403475D01*
X7431335Y31017978D01*
X7581748Y30654849D01*
X7800114Y30328040D01*
X8078041Y30050113D01*
X8404850Y29831747D01*
X8767979Y29681334D01*
X9153476Y29604654D01*
X9546524Y29604654D01*
X9932021Y29681334D01*
X10295150Y29831747D01*
X10621959Y30050113D01*
X10899886Y30328040D01*
X11118252Y30654849D01*
X11268665Y31017978D01*
X11345345Y31403475D01*
X11345345Y31796523D01*
X12754655Y31796523D01*
X12754655Y31403475D01*
X12831335Y31017978D01*
X12981748Y30654849D01*
X13200114Y30328040D01*
X13478041Y30050113D01*
X13804850Y29831747D01*
X14167979Y29681334D01*
X14553476Y29604654D01*
X14946524Y29604654D01*
X15332021Y29681334D01*
X15695150Y29831747D01*
X16021959Y30050113D01*
X16299886Y30328040D01*
X16518252Y30654849D01*
X16668665Y31017978D01*
X16745345Y31403475D01*
X16745345Y31796523D01*
X18154656Y31796523D01*
X18154656Y31403475D01*
X18231336Y31017979D01*
X18381749Y30654849D01*
X18600115Y30328041D01*
X18878042Y30050114D01*
X19204850Y29831748D01*
X19567980Y29681335D01*
X19953476Y29604655D01*
X20346524Y29604655D01*
X20732020Y29681335D01*
X21095150Y29831748D01*
X21421958Y30050114D01*
X21699885Y30328041D01*
X21918251Y30654849D01*
X22068664Y31017979D01*
X22145344Y31403475D01*
X22145344Y31796523D01*
X23554654Y31796523D01*
X23554654Y31403475D01*
X23631334Y31017978D01*
X23781747Y30654849D01*
X24000113Y30328040D01*
X24278040Y30050113D01*
X24604849Y29831747D01*
X24967978Y29681334D01*
X25353475Y29604654D01*
X25746523Y29604654D01*
X26132020Y29681334D01*
X26495149Y29831747D01*
X26821958Y30050113D01*
X27099885Y30328040D01*
X27318251Y30654849D01*
X27468664Y31017978D01*
X27545344Y31403475D01*
X27545344Y31796523D01*
X28954654Y31796523D01*
X28954654Y31403475D01*
X29031334Y31017978D01*
X29181747Y30654849D01*
X29400113Y30328040D01*
X29678040Y30050113D01*
X30004849Y29831747D01*
X30367978Y29681334D01*
X30753475Y29604654D01*
X31146523Y29604654D01*
X31532020Y29681334D01*
X31895149Y29831747D01*
X32221958Y30050113D01*
X32499885Y30328040D01*
X32718251Y30654849D01*
X32868664Y31017978D01*
X32945344Y31403475D01*
X32945344Y31796523D01*
X34354654Y31796523D01*
X34354654Y31403475D01*
X34431334Y31017978D01*
X34581747Y30654849D01*
X34800113Y30328040D01*
X35078040Y30050113D01*
X35404849Y29831747D01*
X35767978Y29681334D01*
X36153475Y29604654D01*
X36546523Y29604654D01*
X36932020Y29681334D01*
X37295149Y29831747D01*
X37621958Y30050113D01*
X37899885Y30328040D01*
X38118251Y30654849D01*
X38268664Y31017978D01*
X38345344Y31403475D01*
X38345344Y31796523D01*
X39754655Y31796523D01*
X39754655Y31403475D01*
X39831335Y31017978D01*
X39981748Y30654849D01*
X40200114Y30328040D01*
X40478041Y30050113D01*
X40804850Y29831747D01*
X41167979Y29681334D01*
X41553476Y29604654D01*
X41946524Y29604654D01*
X42332021Y29681334D01*
X42695150Y29831747D01*
X43021959Y30050113D01*
X43299886Y30328040D01*
X43518252Y30654849D01*
X43668665Y31017978D01*
X43745345Y31403475D01*
X43745345Y31796523D01*
X45154655Y31796523D01*
X45154655Y31403475D01*
X45231335Y31017978D01*
X45381748Y30654849D01*
X45600114Y30328040D01*
X45878041Y30050113D01*
X46204850Y29831747D01*
X46567979Y29681334D01*
X46953476Y29604654D01*
X47346524Y29604654D01*
X47732021Y29681334D01*
X48095150Y29831747D01*
X48421959Y30050113D01*
X48699886Y30328040D01*
X48918252Y30654849D01*
X49068665Y31017978D01*
X49145345Y31403475D01*
X49145345Y31796523D01*
X50554655Y31796523D01*
X50554655Y31403475D01*
X50631335Y31017978D01*
X50781748Y30654849D01*
X51000114Y30328040D01*
X51278041Y30050113D01*
X51604850Y29831747D01*
X51967979Y29681334D01*
X52353476Y29604654D01*
X52746524Y29604654D01*
X53132021Y29681334D01*
X53495150Y29831747D01*
X53821959Y30050113D01*
X54099886Y30328040D01*
X54318252Y30654849D01*
X54468665Y31017978D01*
X54545345Y31403475D01*
X54545345Y31796523D01*
X54468665Y32182020D01*
X54318252Y32545149D01*
X54099886Y32871958D01*
X53821959Y33149885D01*
X53495150Y33368251D01*
X53132021Y33518664D01*
X52746524Y33595344D01*
X52353476Y33595344D01*
X51967979Y33518664D01*
X51604850Y33368251D01*
X51278041Y33149885D01*
X51000114Y32871958D01*
X50781748Y32545149D01*
X50631335Y32182020D01*
X50554655Y31796523D01*
X49145345Y31796523D01*
X49068665Y32182020D01*
X48918252Y32545149D01*
X48699886Y32871958D01*
X48421959Y33149885D01*
X48095150Y33368251D01*
X47732021Y33518664D01*
X47346524Y33595344D01*
X46953476Y33595344D01*
X46567979Y33518664D01*
X46204850Y33368251D01*
X45878041Y33149885D01*
X45600114Y32871958D01*
X45381748Y32545149D01*
X45231335Y32182020D01*
X45154655Y31796523D01*
X43745345Y31796523D01*
X43668665Y32182020D01*
X43518252Y32545149D01*
X43299886Y32871958D01*
X43021959Y33149885D01*
X42695150Y33368251D01*
X42332021Y33518664D01*
X41946524Y33595344D01*
X41553476Y33595344D01*
X41167979Y33518664D01*
X40804850Y33368251D01*
X40478041Y33149885D01*
X40200114Y32871958D01*
X39981748Y32545149D01*
X39831335Y32182020D01*
X39754655Y31796523D01*
X38345344Y31796523D01*
X38268664Y32182020D01*
X38118251Y32545149D01*
X37899885Y32871958D01*
X37621958Y33149885D01*
X37295149Y33368251D01*
X36932020Y33518664D01*
X36546523Y33595344D01*
X36153475Y33595344D01*
X35767978Y33518664D01*
X35404849Y33368251D01*
X35078040Y33149885D01*
X34800113Y32871958D01*
X34581747Y32545149D01*
X34431334Y32182020D01*
X34354654Y31796523D01*
X32945344Y31796523D01*
X32868664Y32182020D01*
X32718251Y32545149D01*
X32499885Y32871958D01*
X32221958Y33149885D01*
X31895149Y33368251D01*
X31532020Y33518664D01*
X31146523Y33595344D01*
X30753475Y33595344D01*
X30367978Y33518664D01*
X30004849Y33368251D01*
X29678040Y33149885D01*
X29400113Y32871958D01*
X29181747Y32545149D01*
X29031334Y32182020D01*
X28954654Y31796523D01*
X27545344Y31796523D01*
X27468664Y32182020D01*
X27318251Y32545149D01*
X27099885Y32871958D01*
X26821958Y33149885D01*
X26495149Y33368251D01*
X26132020Y33518664D01*
X25746523Y33595344D01*
X25353475Y33595344D01*
X24967978Y33518664D01*
X24604849Y33368251D01*
X24278040Y33149885D01*
X24000113Y32871958D01*
X23781747Y32545149D01*
X23631334Y32182020D01*
X23554654Y31796523D01*
X22145344Y31796523D01*
X22068664Y32182019D01*
X21918251Y32545149D01*
X21699885Y32871957D01*
X21421958Y33149884D01*
X21095150Y33368250D01*
X20732020Y33518663D01*
X20346524Y33595343D01*
X19953476Y33595343D01*
X19567980Y33518663D01*
X19204850Y33368250D01*
X18878042Y33149884D01*
X18600115Y32871957D01*
X18381749Y32545149D01*
X18231336Y32182019D01*
X18154656Y31796523D01*
X16745345Y31796523D01*
X16668665Y32182020D01*
X16518252Y32545149D01*
X16299886Y32871958D01*
X16021959Y33149885D01*
X15695150Y33368251D01*
X15332021Y33518664D01*
X14946524Y33595344D01*
X14553476Y33595344D01*
X14167979Y33518664D01*
X13804850Y33368251D01*
X13478041Y33149885D01*
X13200114Y32871958D01*
X12981748Y32545149D01*
X12831335Y32182020D01*
X12754655Y31796523D01*
X11345345Y31796523D01*
X11268665Y32182020D01*
X11118252Y32545149D01*
X10899886Y32871958D01*
X10621959Y33149885D01*
X10295150Y33368251D01*
X9932021Y33518664D01*
X9546524Y33595344D01*
X9153476Y33595344D01*
X8767979Y33518664D01*
X8404850Y33368251D01*
X8078041Y33149885D01*
X7800114Y32871958D01*
X7581748Y32545149D01*
X7431335Y32182020D01*
X7354655Y31796523D01*
X5945345Y31796523D01*
X5868665Y32182020D01*
X5718252Y32545149D01*
X5499886Y32871958D01*
X5221959Y33149885D01*
X4895150Y33368251D01*
X4532021Y33518664D01*
X4146524Y33595344D01*
X3753476Y33595344D01*
X3367979Y33518664D01*
X3004850Y33368251D01*
X2678041Y33149885D01*
X2400114Y32871958D01*
X2181748Y32545149D01*
X2031335Y32182020D01*
X1954655Y31796523D01*
X735000Y31796523D01*
X735000Y36721028D01*
X19755859Y36721028D01*
X19755859Y36278970D01*
X19842100Y35845407D01*
X20011268Y35437000D01*
X20256862Y35069443D01*
X20569444Y34756861D01*
X20937001Y34511267D01*
X21345408Y34342099D01*
X21778971Y34255858D01*
X22221029Y34255858D01*
X22654592Y34342099D01*
X23062999Y34511267D01*
X23430556Y34756861D01*
X23743138Y35069443D01*
X23988732Y35437000D01*
X24157900Y35845407D01*
X24244141Y36278970D01*
X24244141Y36721028D01*
X24157900Y37154591D01*
X23988732Y37562998D01*
X23743138Y37930555D01*
X23430556Y38243137D01*
X23062999Y38488731D01*
X22654592Y38657899D01*
X22221029Y38744140D01*
X21778971Y38744140D01*
X21345408Y38657899D01*
X20937001Y38488731D01*
X20569444Y38243137D01*
X20256862Y37930555D01*
X20011268Y37562998D01*
X19842100Y37154591D01*
X19755859Y36721028D01*
X735000Y36721028D01*
X735000Y41596524D01*
X1954655Y41596524D01*
X1954655Y41203476D01*
X2031335Y40817979D01*
X2181748Y40454850D01*
X2400114Y40128041D01*
X2678041Y39850114D01*
X3004850Y39631748D01*
X3367979Y39481335D01*
X3753476Y39404655D01*
X4146524Y39404655D01*
X4532021Y39481335D01*
X4895150Y39631748D01*
X5221959Y39850114D01*
X5499886Y40128041D01*
X5718252Y40454850D01*
X5868665Y40817979D01*
X5945345Y41203476D01*
X5945345Y41596524D01*
X7354655Y41596524D01*
X7354655Y41203476D01*
X7431335Y40817979D01*
X7581748Y40454850D01*
X7800114Y40128041D01*
X8078041Y39850114D01*
X8404850Y39631748D01*
X8767979Y39481335D01*
X9153476Y39404655D01*
X9546524Y39404655D01*
X9932021Y39481335D01*
X10295150Y39631748D01*
X10621959Y39850114D01*
X10899886Y40128041D01*
X11118252Y40454850D01*
X11268665Y40817979D01*
X11345345Y41203476D01*
X11345345Y41596524D01*
X12754655Y41596524D01*
X12754655Y41203476D01*
X12831335Y40817979D01*
X12981748Y40454850D01*
X13200114Y40128041D01*
X13478041Y39850114D01*
X13804850Y39631748D01*
X14167979Y39481335D01*
X14553476Y39404655D01*
X14946524Y39404655D01*
X15332021Y39481335D01*
X15695150Y39631748D01*
X16021959Y39850114D01*
X16299886Y40128041D01*
X16518252Y40454850D01*
X16668665Y40817979D01*
X16745345Y41203476D01*
X16745345Y41596524D01*
X18154656Y41596524D01*
X18154656Y41203476D01*
X18231336Y40817980D01*
X18381749Y40454850D01*
X18600115Y40128042D01*
X18878042Y39850115D01*
X19204850Y39631749D01*
X19567980Y39481336D01*
X19953476Y39404656D01*
X20346524Y39404656D01*
X20732020Y39481336D01*
X21095150Y39631749D01*
X21421958Y39850115D01*
X21699885Y40128042D01*
X21918251Y40454850D01*
X22068664Y40817980D01*
X22145344Y41203476D01*
X22145344Y41596524D01*
X22068664Y41982020D01*
X21918251Y42345150D01*
X21699885Y42671958D01*
X21421958Y42949885D01*
X21095150Y43168251D01*
X20732020Y43318664D01*
X20346524Y43395344D01*
X19953476Y43395344D01*
X19567980Y43318664D01*
X19204850Y43168251D01*
X18878042Y42949885D01*
X18600115Y42671958D01*
X18381749Y42345150D01*
X18231336Y41982020D01*
X18154656Y41596524D01*
X16745345Y41596524D01*
X16668665Y41982021D01*
X16518252Y42345150D01*
X16299886Y42671959D01*
X16021959Y42949886D01*
X15695150Y43168252D01*
X15332021Y43318665D01*
X14946524Y43395345D01*
X14553476Y43395345D01*
X14167979Y43318665D01*
X13804850Y43168252D01*
X13478041Y42949886D01*
X13200114Y42671959D01*
X12981748Y42345150D01*
X12831335Y41982021D01*
X12754655Y41596524D01*
X11345345Y41596524D01*
X11268665Y41982021D01*
X11118252Y42345150D01*
X10899886Y42671959D01*
X10621959Y42949886D01*
X10295150Y43168252D01*
X9932021Y43318665D01*
X9546524Y43395345D01*
X9153476Y43395345D01*
X8767979Y43318665D01*
X8404850Y43168252D01*
X8078041Y42949886D01*
X7800114Y42671959D01*
X7581748Y42345150D01*
X7431335Y41982021D01*
X7354655Y41596524D01*
X5945345Y41596524D01*
X5868665Y41982021D01*
X5718252Y42345150D01*
X5499886Y42671959D01*
X5221959Y42949886D01*
X4895150Y43168252D01*
X4532021Y43318665D01*
X4146524Y43395345D01*
X3753476Y43395345D01*
X3367979Y43318665D01*
X3004850Y43168252D01*
X2678041Y42949886D01*
X2400114Y42671959D01*
X2181748Y42345150D01*
X2031335Y41982021D01*
X1954655Y41596524D01*
X735000Y41596524D01*
X735000Y70131335D01*
X1575000Y70131335D01*
X1575000Y69848665D01*
X1630147Y69571426D01*
X1738320Y69310273D01*
X1895363Y69075241D01*
X2095241Y68875363D01*
X2330273Y68718320D01*
X2591426Y68610147D01*
X2868665Y68555000D01*
X3151335Y68555000D01*
X3428574Y68610147D01*
X3689727Y68718320D01*
X3924759Y68875363D01*
X4124637Y69075241D01*
X4281680Y69310273D01*
X4389853Y69571426D01*
X4445000Y69848665D01*
X4445000Y70131335D01*
X4389853Y70408574D01*
X4281680Y70669727D01*
X4124637Y70904759D01*
X3924759Y71104637D01*
X3689727Y71261680D01*
X3428574Y71369853D01*
X3151335Y71425000D01*
X2868665Y71425000D01*
X2591426Y71369853D01*
X2330273Y71261680D01*
X2095241Y71104637D01*
X1895363Y70904759D01*
X1738320Y70669727D01*
X1630147Y70408574D01*
X1575000Y70131335D01*
X735000Y70131335D01*
X735000Y71277351D01*
X767029Y71280707D01*
X832324Y71294088D01*
X897733Y71306544D01*
X907558Y71309507D01*
X1014770Y71342657D01*
X1076192Y71368453D01*
X1137957Y71393384D01*
X1147020Y71398199D01*
X1245752Y71451541D01*
X1301012Y71488788D01*
X1356752Y71525237D01*
X1364707Y71531720D01*
X1451197Y71603224D01*
X1498183Y71650509D01*
X1545762Y71697071D01*
X1552306Y71704976D01*
X1558453Y71712508D01*
X3170698Y71713361D01*
X3213845Y71669300D01*
%TA.AperFunction,Conductor*%
D33*
G36*
X3213845Y71669300D02*
G01*
X3221752Y71662758D01*
X3342746Y71564078D01*
X3398270Y71527188D01*
X3453198Y71489578D01*
X3462222Y71484698D01*
X3462230Y71484694D01*
X3600082Y71411397D01*
X3661712Y71385995D01*
X3722904Y71359768D01*
X3732699Y71356735D01*
X3732705Y71356733D01*
X3732711Y71356732D01*
X3882176Y71311606D01*
X3947554Y71298661D01*
X4012683Y71284817D01*
X4022889Y71283744D01*
X4178276Y71268508D01*
X4178277Y71268508D01*
X4213895Y71265000D01*
X10498288Y71265000D01*
X10490273Y71261680D01*
X10255241Y71104637D01*
X10055363Y70904759D01*
X9898320Y70669727D01*
X9790147Y70408574D01*
X9735000Y70131335D01*
X9735000Y69927385D01*
X9684637Y70002759D01*
X9484759Y70202637D01*
X9249727Y70359680D01*
X8988574Y70467853D01*
X8711335Y70523000D01*
X8428665Y70523000D01*
X8151426Y70467853D01*
X7890273Y70359680D01*
X7655241Y70202637D01*
X7455363Y70002759D01*
X7435479Y69973000D01*
X6924521Y69973000D01*
X6904637Y70002759D01*
X6704759Y70202637D01*
X6469727Y70359680D01*
X6208574Y70467853D01*
X5931335Y70523000D01*
X5648665Y70523000D01*
X5371426Y70467853D01*
X5110273Y70359680D01*
X4875241Y70202637D01*
X4675363Y70002759D01*
X4518320Y69767727D01*
X4410147Y69506574D01*
X4355000Y69229335D01*
X4355000Y68946665D01*
X4410147Y68669426D01*
X4518320Y68408273D01*
X4675363Y68173241D01*
X4873961Y67974643D01*
X4865518Y67973812D01*
X4745820Y67937502D01*
X4635506Y67878537D01*
X4538815Y67799185D01*
X4459463Y67702494D01*
X4400498Y67592180D01*
X4364188Y67472482D01*
X4351928Y67348000D01*
X4351928Y65748000D01*
X4364188Y65623518D01*
X4400498Y65503820D01*
X4459463Y65393506D01*
X4538815Y65296815D01*
X4545754Y65291121D01*
X4498686Y65177490D01*
X4472062Y65043640D01*
X3574951Y64146529D01*
X3541184Y64118817D01*
X3513471Y64085049D01*
X3513468Y64085046D01*
X3430590Y63984059D01*
X3348412Y63830313D01*
X3297805Y63663490D01*
X3280719Y63490000D01*
X3285001Y63446521D01*
X3285000Y62120452D01*
X3217348Y62019203D01*
X3136312Y61823566D01*
X3095000Y61615878D01*
X3095000Y61404122D01*
X3117129Y61292871D01*
X3005878Y61315000D01*
X2794122Y61315000D01*
X2586434Y61273688D01*
X2390797Y61192652D01*
X2214728Y61075007D01*
X2064993Y60925272D01*
X1947348Y60749203D01*
X1866312Y60553566D01*
X1825000Y60345878D01*
X1825000Y60134122D01*
X1866312Y59926434D01*
X1947348Y59730797D01*
X2064993Y59554728D01*
X2196975Y59422746D01*
X2196975Y59236097D01*
X2238287Y59028409D01*
X2319323Y58832772D01*
X2436968Y58656703D01*
X2586703Y58506968D01*
X2762772Y58389323D01*
X2958409Y58308287D01*
X3166097Y58266975D01*
X3352746Y58266975D01*
X3484728Y58134993D01*
X3660797Y58017348D01*
X3856434Y57936312D01*
X4064122Y57895000D01*
X4275878Y57895000D01*
X4483566Y57936312D01*
X4679203Y58017348D01*
X4855272Y58134993D01*
X5005007Y58284728D01*
X5122652Y58460797D01*
X5203688Y58656434D01*
X5245000Y58864122D01*
X5245000Y59075878D01*
X5222871Y59187129D01*
X5334122Y59165000D01*
X5545878Y59165000D01*
X5753566Y59206312D01*
X5949203Y59287348D01*
X6050452Y59355000D01*
X11174531Y59355000D01*
X11218000Y59350719D01*
X11261469Y59355000D01*
X11261477Y59355000D01*
X11391490Y59367805D01*
X11403725Y59371516D01*
X11328167Y59279449D01*
X11213489Y59064901D01*
X11142870Y58832102D01*
X11119025Y58590000D01*
X11142870Y58347898D01*
X11160737Y58289000D01*
X6647465Y58289000D01*
X6603999Y58293281D01*
X6560533Y58289000D01*
X6560523Y58289000D01*
X6430510Y58276195D01*
X6263687Y58225589D01*
X6109941Y58143411D01*
X6109939Y58143410D01*
X6109940Y58143410D01*
X6008953Y58060532D01*
X6008951Y58060530D01*
X5975183Y58032817D01*
X5947470Y57999049D01*
X4714951Y56766529D01*
X4681184Y56738817D01*
X4653471Y56705049D01*
X4653468Y56705046D01*
X4570590Y56604059D01*
X4488412Y56450313D01*
X4437805Y56283490D01*
X4420719Y56110000D01*
X4425001Y56066521D01*
X4425000Y54455554D01*
X4350713Y54381267D01*
X4215557Y54178992D01*
X4139105Y53994420D01*
X4116511Y54068901D01*
X4001833Y54283449D01*
X3847502Y54471502D01*
X3659449Y54625833D01*
X3444901Y54740511D01*
X3212102Y54811130D01*
X3030665Y54829000D01*
X2509335Y54829000D01*
X2327898Y54811130D01*
X2095099Y54740511D01*
X1880551Y54625833D01*
X1692498Y54471502D01*
X1538167Y54283449D01*
X1423489Y54068901D01*
X1352870Y53836102D01*
X1329025Y53594000D01*
X1352870Y53351898D01*
X1423489Y53119099D01*
X1538167Y52904551D01*
X1565001Y52871854D01*
X1565000Y49224521D01*
X1535241Y49204637D01*
X1335363Y49004759D01*
X1178320Y48769727D01*
X1070147Y48508574D01*
X1015000Y48231335D01*
X1015000Y47948665D01*
X1070147Y47671426D01*
X1178320Y47410273D01*
X1335363Y47175241D01*
X1535241Y46975363D01*
X1770273Y46818320D01*
X2031426Y46710147D01*
X2308665Y46655000D01*
X2591335Y46655000D01*
X2868574Y46710147D01*
X3129727Y46818320D01*
X3364759Y46975363D01*
X3564637Y47175241D01*
X3721680Y47410273D01*
X3829853Y47671426D01*
X3885000Y47948665D01*
X3885000Y48231335D01*
X3829853Y48508574D01*
X3721680Y48769727D01*
X3564637Y49004759D01*
X3364759Y49204637D01*
X3335000Y49224521D01*
X3335000Y51309744D01*
X3455008Y51229557D01*
X3679764Y51136460D01*
X3918363Y51089000D01*
X4161637Y51089000D01*
X4400236Y51136460D01*
X4624992Y51229557D01*
X4827267Y51364713D01*
X4901554Y51439000D01*
X6181901Y51439000D01*
X6225370Y51434719D01*
X6268839Y51439000D01*
X6268847Y51439000D01*
X6398860Y51451805D01*
X6565683Y51502411D01*
X6719429Y51584589D01*
X6854187Y51695183D01*
X6881904Y51728956D01*
X9170685Y54017736D01*
X9851928Y53336493D01*
X9851928Y52150000D01*
X9864188Y52025518D01*
X9900498Y51905820D01*
X9959463Y51795506D01*
X10038815Y51698815D01*
X10135506Y51619463D01*
X10245820Y51560498D01*
X10365518Y51524188D01*
X10490000Y51511928D01*
X10505001Y51511928D01*
X10505001Y50883479D01*
X10500719Y50840000D01*
X10517805Y50666510D01*
X10568412Y50499687D01*
X10650590Y50345941D01*
X10733468Y50244954D01*
X10733471Y50244951D01*
X10761184Y50211183D01*
X10794952Y50183470D01*
X11281466Y49696956D01*
X11309183Y49663183D01*
X11443941Y49552589D01*
X11597687Y49470411D01*
X11764510Y49419805D01*
X11894523Y49407000D01*
X11894533Y49407000D01*
X11937999Y49402719D01*
X11981466Y49407000D01*
X16641000Y49407000D01*
X16641000Y48958396D01*
X16594759Y49004637D01*
X16359727Y49161680D01*
X16098574Y49269853D01*
X15821335Y49325000D01*
X15538665Y49325000D01*
X15261426Y49269853D01*
X15000273Y49161680D01*
X14765241Y49004637D01*
X14565363Y48804759D01*
X14408320Y48569727D01*
X14300147Y48308574D01*
X14245000Y48031335D01*
X14245000Y47748665D01*
X14251983Y47713561D01*
X12413422Y45875000D01*
X6684521Y45875000D01*
X6664637Y45904759D01*
X6464759Y46104637D01*
X6229727Y46261680D01*
X5968574Y46369853D01*
X5691335Y46425000D01*
X5408665Y46425000D01*
X5131426Y46369853D01*
X4870273Y46261680D01*
X4635241Y46104637D01*
X4435363Y45904759D01*
X4278320Y45669727D01*
X4170147Y45408574D01*
X4115000Y45131335D01*
X4115000Y44848665D01*
X4170147Y44571426D01*
X4278320Y44310273D01*
X4435363Y44075241D01*
X4635241Y43875363D01*
X4870273Y43718320D01*
X5131426Y43610147D01*
X5408665Y43555000D01*
X5691335Y43555000D01*
X5968574Y43610147D01*
X6229727Y43718320D01*
X6464759Y43875363D01*
X6664637Y44075241D01*
X6684521Y44105000D01*
X12736531Y44105000D01*
X12780000Y44100719D01*
X12823469Y44105000D01*
X12823477Y44105000D01*
X12953490Y44117805D01*
X13120313Y44168411D01*
X13274059Y44250589D01*
X13408817Y44361183D01*
X13436534Y44394956D01*
X14300349Y45258771D01*
X14275000Y45131335D01*
X14275000Y44848665D01*
X14330147Y44571426D01*
X14438320Y44310273D01*
X14595363Y44075241D01*
X14795241Y43875363D01*
X15030273Y43718320D01*
X15291426Y43610147D01*
X15568665Y43555000D01*
X15851335Y43555000D01*
X16128574Y43610147D01*
X16389727Y43718320D01*
X16624759Y43875363D01*
X16824637Y44075241D01*
X16844877Y44105532D01*
X16969490Y44117805D01*
X17136313Y44168411D01*
X17290059Y44250589D01*
X17424817Y44361183D01*
X17452534Y44394956D01*
X18121049Y45063470D01*
X18154817Y45091183D01*
X18187770Y45131335D01*
X18265411Y45225941D01*
X18283108Y45259050D01*
X18347589Y45379687D01*
X18398195Y45546510D01*
X18411000Y45676523D01*
X18411000Y45676531D01*
X18413647Y45703403D01*
X18479522Y45544366D01*
X18624067Y45328039D01*
X18808039Y45144067D01*
X19024366Y44999522D01*
X19264737Y44899957D01*
X19519913Y44849200D01*
X19780087Y44849200D01*
X20035263Y44899957D01*
X20275634Y44999522D01*
X20491961Y45144067D01*
X20675933Y45328039D01*
X20820478Y45544366D01*
X20920043Y45784737D01*
X20970800Y46039913D01*
X20970800Y46300087D01*
X20920043Y46555263D01*
X20820478Y46795634D01*
X20675933Y47011961D01*
X20535000Y47152894D01*
X20535000Y47727106D01*
X20675933Y47868039D01*
X20820478Y48084366D01*
X20920043Y48324737D01*
X20970800Y48579913D01*
X20970800Y48677622D01*
X23125000Y46523421D01*
X23125001Y45634522D01*
X23095241Y45614637D01*
X22895363Y45414759D01*
X22738320Y45179727D01*
X22630147Y44918574D01*
X22575000Y44641335D01*
X22575000Y44358665D01*
X22630147Y44081426D01*
X22738320Y43820273D01*
X22895363Y43585241D01*
X23095241Y43385363D01*
X23330273Y43228320D01*
X23591426Y43120147D01*
X23868665Y43065000D01*
X24151335Y43065000D01*
X24428574Y43120147D01*
X24689727Y43228320D01*
X24924759Y43385363D01*
X25124637Y43585241D01*
X25281680Y43820273D01*
X25389853Y44081426D01*
X25445000Y44358665D01*
X25445000Y44641335D01*
X25389853Y44918574D01*
X25281680Y45179727D01*
X25124637Y45414759D01*
X24924759Y45614637D01*
X24895000Y45634521D01*
X24895000Y46846535D01*
X24899281Y46890001D01*
X24895000Y46933467D01*
X24895000Y46933477D01*
X24882195Y47063490D01*
X24831589Y47230313D01*
X24749411Y47384059D01*
X24703466Y47440043D01*
X24666532Y47485047D01*
X24666530Y47485049D01*
X24638817Y47518817D01*
X24605050Y47546528D01*
X21963863Y50187715D01*
X22078061Y50165000D01*
X22281939Y50165000D01*
X22481898Y50204774D01*
X22670256Y50282795D01*
X22839774Y50396063D01*
X22983937Y50540226D01*
X23097205Y50709744D01*
X23175226Y50898102D01*
X23206285Y51054248D01*
X23270590Y50933941D01*
X23353468Y50832954D01*
X23353471Y50832951D01*
X23381184Y50799183D01*
X23414951Y50771471D01*
X24391470Y49794951D01*
X24419183Y49761183D01*
X24452951Y49733470D01*
X24452953Y49733468D01*
X24553941Y49650589D01*
X24707686Y49568411D01*
X24874510Y49517805D01*
X25004523Y49505000D01*
X25004531Y49505000D01*
X25048000Y49500719D01*
X25091469Y49505000D01*
X26185001Y49505000D01*
X26185000Y45614521D01*
X26155241Y45594637D01*
X25955363Y45394759D01*
X25798320Y45159727D01*
X25690147Y44898574D01*
X25635000Y44621335D01*
X25635000Y44338665D01*
X25690147Y44061426D01*
X25798320Y43800273D01*
X25955363Y43565241D01*
X26155241Y43365363D01*
X26376991Y43217195D01*
X26132020Y43318665D01*
X25746523Y43395345D01*
X25353475Y43395345D01*
X24967978Y43318665D01*
X24604849Y43168252D01*
X24278040Y42949886D01*
X24000113Y42671959D01*
X23781747Y42345150D01*
X23631334Y41982021D01*
X23554654Y41596524D01*
X23554654Y41203476D01*
X23631334Y40817979D01*
X23781747Y40454850D01*
X24000113Y40128041D01*
X24278040Y39850114D01*
X24604849Y39631748D01*
X24967978Y39481335D01*
X25353475Y39404655D01*
X25746523Y39404655D01*
X26132020Y39481335D01*
X26495149Y39631748D01*
X26821958Y39850114D01*
X27099885Y40128041D01*
X27318251Y40454850D01*
X27468664Y40817979D01*
X27545344Y41203476D01*
X27545344Y41596524D01*
X28954654Y41596524D01*
X28954654Y41203476D01*
X29031334Y40817979D01*
X29181747Y40454850D01*
X29400113Y40128041D01*
X29678040Y39850114D01*
X30004849Y39631748D01*
X30367978Y39481335D01*
X30753475Y39404655D01*
X31146523Y39404655D01*
X31532020Y39481335D01*
X31895149Y39631748D01*
X32221958Y39850114D01*
X32499885Y40128041D01*
X32718251Y40454850D01*
X32868664Y40817979D01*
X32945344Y41203476D01*
X32945344Y41596524D01*
X32868664Y41982021D01*
X32718251Y42345150D01*
X32499885Y42671959D01*
X32221958Y42949886D01*
X31895149Y43168252D01*
X31532020Y43318665D01*
X31146523Y43395345D01*
X30753475Y43395345D01*
X30367978Y43318665D01*
X30004849Y43168252D01*
X29678040Y42949886D01*
X29400113Y42671959D01*
X29181747Y42345150D01*
X29031334Y41982021D01*
X28954654Y41596524D01*
X27545344Y41596524D01*
X27468664Y41982021D01*
X27318251Y42345150D01*
X27099885Y42671959D01*
X26821958Y42949886D01*
X26508431Y43159378D01*
X26651426Y43100147D01*
X26928665Y43045000D01*
X27211335Y43045000D01*
X27488574Y43100147D01*
X27749727Y43208320D01*
X27984759Y43365363D01*
X28184637Y43565241D01*
X28284244Y43714314D01*
X32592500Y43714314D01*
X32592500Y43265686D01*
X32680023Y42825678D01*
X32851706Y42411199D01*
X33100950Y42038178D01*
X33418178Y41720950D01*
X33791199Y41471706D01*
X34205678Y41300023D01*
X34354654Y41270390D01*
X34354654Y41203476D01*
X34431334Y40817979D01*
X34581747Y40454850D01*
X34800113Y40128041D01*
X35078040Y39850114D01*
X35404849Y39631748D01*
X35767978Y39481335D01*
X36153475Y39404655D01*
X36546523Y39404655D01*
X36932020Y39481335D01*
X37295149Y39631748D01*
X37621958Y39850114D01*
X37899885Y40128041D01*
X38118251Y40454850D01*
X38268664Y40817979D01*
X38345344Y41203476D01*
X38345344Y41596524D01*
X38268664Y41982021D01*
X38118251Y42345150D01*
X37899885Y42671959D01*
X37621958Y42949886D01*
X37295149Y43168252D01*
X37140834Y43232172D01*
X37147500Y43265686D01*
X37147500Y43714314D01*
X37059977Y44154322D01*
X36888294Y44568801D01*
X36639050Y44941822D01*
X36321822Y45259050D01*
X35948801Y45508294D01*
X35534322Y45679977D01*
X35094314Y45767500D01*
X34645686Y45767500D01*
X34205678Y45679977D01*
X33791199Y45508294D01*
X33418178Y45259050D01*
X33100950Y44941822D01*
X32851706Y44568801D01*
X32680023Y44154322D01*
X32592500Y43714314D01*
X28284244Y43714314D01*
X28341680Y43800273D01*
X28449853Y44061426D01*
X28505000Y44338665D01*
X28505000Y44621335D01*
X28449853Y44898574D01*
X28341680Y45159727D01*
X28184637Y45394759D01*
X27984759Y45594637D01*
X27955000Y45614521D01*
X27955000Y49505000D01*
X32758446Y49505000D01*
X32832733Y49430713D01*
X32893664Y49390000D01*
X32832733Y49349287D01*
X32660713Y49177267D01*
X32525557Y48974992D01*
X32432460Y48750236D01*
X32385000Y48511637D01*
X32385000Y48268363D01*
X32432460Y48029764D01*
X32525557Y47805008D01*
X32660713Y47602733D01*
X32832733Y47430713D01*
X33035008Y47295557D01*
X33259764Y47202460D01*
X33498363Y47155000D01*
X33741637Y47155000D01*
X33980236Y47202460D01*
X34204992Y47295557D01*
X34407267Y47430713D01*
X34579287Y47602733D01*
X34714443Y47805008D01*
X34807540Y48029764D01*
X34855000Y48268363D01*
X34855000Y48511637D01*
X34807540Y48750236D01*
X34714443Y48974992D01*
X34579287Y49177267D01*
X34407267Y49349287D01*
X34346336Y49390000D01*
X34407267Y49430713D01*
X34579287Y49602733D01*
X34714443Y49805008D01*
X34807540Y50029764D01*
X34855000Y50268363D01*
X34855000Y50511637D01*
X34807540Y50750236D01*
X34714443Y50974992D01*
X34579287Y51177267D01*
X34407267Y51349287D01*
X34346336Y51390000D01*
X34407267Y51430713D01*
X34481554Y51505000D01*
X37921422Y51505000D01*
X39195000Y50231421D01*
X39195001Y47554522D01*
X39165241Y47534637D01*
X38965363Y47334759D01*
X38808320Y47099727D01*
X38700147Y46838574D01*
X38645000Y46561335D01*
X38645000Y46278665D01*
X38700147Y46001426D01*
X38808320Y45740273D01*
X38965363Y45505241D01*
X39165241Y45305363D01*
X39400273Y45148320D01*
X39661426Y45040147D01*
X39938665Y44985000D01*
X40221335Y44985000D01*
X40256439Y44991983D01*
X41353470Y43894951D01*
X41381183Y43861183D01*
X41414951Y43833470D01*
X41414953Y43833468D01*
X41443216Y43810273D01*
X41515941Y43750589D01*
X41550565Y43732082D01*
X41655363Y43575241D01*
X41835259Y43395345D01*
X41553476Y43395345D01*
X41167979Y43318665D01*
X40804850Y43168252D01*
X40478041Y42949886D01*
X40200114Y42671959D01*
X39981748Y42345150D01*
X39831335Y41982021D01*
X39754655Y41596524D01*
X39754655Y41203476D01*
X39831335Y40817979D01*
X39981748Y40454850D01*
X40200114Y40128041D01*
X40478041Y39850114D01*
X40804850Y39631748D01*
X41167979Y39481335D01*
X41536298Y39408072D01*
X38459999Y39408072D01*
X38286745Y39391008D01*
X38120149Y39340472D01*
X37966613Y39258405D01*
X37832038Y39147962D01*
X37721595Y39013387D01*
X37639528Y38859851D01*
X37588992Y38693255D01*
X37571928Y38520001D01*
X37571928Y34619999D01*
X37588992Y34446745D01*
X37639528Y34280149D01*
X37721595Y34126613D01*
X37832038Y33992038D01*
X37966613Y33881595D01*
X38120149Y33799528D01*
X38286745Y33748992D01*
X38459999Y33731928D01*
X42360001Y33731928D01*
X42533255Y33748992D01*
X42699851Y33799528D01*
X42853387Y33881595D01*
X42987962Y33992038D01*
X43098405Y34126613D01*
X43180472Y34280149D01*
X43231008Y34446745D01*
X43248072Y34619999D01*
X43248072Y35685000D01*
X53036531Y35685000D01*
X53080000Y35680719D01*
X53123469Y35685000D01*
X53123477Y35685000D01*
X53253490Y35697805D01*
X53420313Y35748411D01*
X53574059Y35830589D01*
X53708817Y35941183D01*
X53736534Y35974956D01*
X55715050Y37953471D01*
X55748817Y37981183D01*
X55765001Y38000903D01*
X55765000Y1285955D01*
X55751733Y1150652D01*
X55722882Y1055091D01*
X55676019Y966955D01*
X55612927Y889597D01*
X55536013Y825967D01*
X55448206Y778491D01*
X55352842Y748971D01*
X55219925Y735000D01*
X1285944Y735000D01*
X1150652Y748265D01*
X1055091Y777117D01*
X966954Y823981D01*
X889596Y887073D01*
X825967Y963987D01*
X778491Y1051792D01*
X748971Y1147158D01*
X735000Y1280075D01*
X735000Y31796523D01*
X1954655Y31796523D01*
X1954655Y31403475D01*
X2031335Y31017978D01*
X2181748Y30654849D01*
X2400114Y30328040D01*
X2678041Y30050113D01*
X3004850Y29831747D01*
X3367979Y29681334D01*
X3753476Y29604654D01*
X4146524Y29604654D01*
X4532021Y29681334D01*
X4895150Y29831747D01*
X5221959Y30050113D01*
X5499886Y30328040D01*
X5718252Y30654849D01*
X5868665Y31017978D01*
X5945345Y31403475D01*
X5945345Y31796523D01*
X7354655Y31796523D01*
X7354655Y31403475D01*
X7431335Y31017978D01*
X7581748Y30654849D01*
X7800114Y30328040D01*
X8078041Y30050113D01*
X8404850Y29831747D01*
X8767979Y29681334D01*
X9153476Y29604654D01*
X9546524Y29604654D01*
X9932021Y29681334D01*
X10295150Y29831747D01*
X10621959Y30050113D01*
X10899886Y30328040D01*
X11118252Y30654849D01*
X11268665Y31017978D01*
X11345345Y31403475D01*
X11345345Y31796523D01*
X12754655Y31796523D01*
X12754655Y31403475D01*
X12831335Y31017978D01*
X12981748Y30654849D01*
X13200114Y30328040D01*
X13478041Y30050113D01*
X13804850Y29831747D01*
X14167979Y29681334D01*
X14553476Y29604654D01*
X14946524Y29604654D01*
X15332021Y29681334D01*
X15695150Y29831747D01*
X16021959Y30050113D01*
X16299886Y30328040D01*
X16518252Y30654849D01*
X16668665Y31017978D01*
X16745345Y31403475D01*
X16745345Y31796523D01*
X18154656Y31796523D01*
X18154656Y31403475D01*
X18231336Y31017979D01*
X18381749Y30654849D01*
X18600115Y30328041D01*
X18878042Y30050114D01*
X19204850Y29831748D01*
X19567980Y29681335D01*
X19953476Y29604655D01*
X20346524Y29604655D01*
X20732020Y29681335D01*
X21095150Y29831748D01*
X21421958Y30050114D01*
X21699885Y30328041D01*
X21918251Y30654849D01*
X22068664Y31017979D01*
X22145344Y31403475D01*
X22145344Y31796523D01*
X23554654Y31796523D01*
X23554654Y31403475D01*
X23631334Y31017978D01*
X23781747Y30654849D01*
X24000113Y30328040D01*
X24278040Y30050113D01*
X24604849Y29831747D01*
X24967978Y29681334D01*
X25353475Y29604654D01*
X25746523Y29604654D01*
X26132020Y29681334D01*
X26495149Y29831747D01*
X26821958Y30050113D01*
X27099885Y30328040D01*
X27318251Y30654849D01*
X27468664Y31017978D01*
X27545344Y31403475D01*
X27545344Y31796523D01*
X28954654Y31796523D01*
X28954654Y31403475D01*
X29031334Y31017978D01*
X29181747Y30654849D01*
X29400113Y30328040D01*
X29678040Y30050113D01*
X30004849Y29831747D01*
X30367978Y29681334D01*
X30753475Y29604654D01*
X31146523Y29604654D01*
X31532020Y29681334D01*
X31895149Y29831747D01*
X32221958Y30050113D01*
X32499885Y30328040D01*
X32718251Y30654849D01*
X32868664Y31017978D01*
X32945344Y31403475D01*
X32945344Y31796523D01*
X34354654Y31796523D01*
X34354654Y31403475D01*
X34431334Y31017978D01*
X34581747Y30654849D01*
X34800113Y30328040D01*
X35078040Y30050113D01*
X35404849Y29831747D01*
X35767978Y29681334D01*
X36153475Y29604654D01*
X36546523Y29604654D01*
X36932020Y29681334D01*
X37295149Y29831747D01*
X37621958Y30050113D01*
X37899885Y30328040D01*
X38118251Y30654849D01*
X38268664Y31017978D01*
X38345344Y31403475D01*
X38345344Y31796523D01*
X39754655Y31796523D01*
X39754655Y31403475D01*
X39831335Y31017978D01*
X39981748Y30654849D01*
X40200114Y30328040D01*
X40478041Y30050113D01*
X40804850Y29831747D01*
X41167979Y29681334D01*
X41553476Y29604654D01*
X41946524Y29604654D01*
X42332021Y29681334D01*
X42695150Y29831747D01*
X43021959Y30050113D01*
X43299886Y30328040D01*
X43518252Y30654849D01*
X43668665Y31017978D01*
X43745345Y31403475D01*
X43745345Y31796523D01*
X45154655Y31796523D01*
X45154655Y31403475D01*
X45231335Y31017978D01*
X45381748Y30654849D01*
X45600114Y30328040D01*
X45878041Y30050113D01*
X46204850Y29831747D01*
X46567979Y29681334D01*
X46953476Y29604654D01*
X47346524Y29604654D01*
X47732021Y29681334D01*
X48095150Y29831747D01*
X48421959Y30050113D01*
X48699886Y30328040D01*
X48918252Y30654849D01*
X49068665Y31017978D01*
X49145345Y31403475D01*
X49145345Y31796523D01*
X50554655Y31796523D01*
X50554655Y31403475D01*
X50631335Y31017978D01*
X50781748Y30654849D01*
X51000114Y30328040D01*
X51278041Y30050113D01*
X51604850Y29831747D01*
X51967979Y29681334D01*
X52353476Y29604654D01*
X52746524Y29604654D01*
X53132021Y29681334D01*
X53495150Y29831747D01*
X53821959Y30050113D01*
X54099886Y30328040D01*
X54318252Y30654849D01*
X54468665Y31017978D01*
X54545345Y31403475D01*
X54545345Y31796523D01*
X54468665Y32182020D01*
X54318252Y32545149D01*
X54099886Y32871958D01*
X53821959Y33149885D01*
X53495150Y33368251D01*
X53132021Y33518664D01*
X52746524Y33595344D01*
X52353476Y33595344D01*
X51967979Y33518664D01*
X51604850Y33368251D01*
X51278041Y33149885D01*
X51000114Y32871958D01*
X50781748Y32545149D01*
X50631335Y32182020D01*
X50554655Y31796523D01*
X49145345Y31796523D01*
X49068665Y32182020D01*
X48918252Y32545149D01*
X48699886Y32871958D01*
X48421959Y33149885D01*
X48095150Y33368251D01*
X47732021Y33518664D01*
X47346524Y33595344D01*
X46953476Y33595344D01*
X46567979Y33518664D01*
X46204850Y33368251D01*
X45878041Y33149885D01*
X45600114Y32871958D01*
X45381748Y32545149D01*
X45231335Y32182020D01*
X45154655Y31796523D01*
X43745345Y31796523D01*
X43668665Y32182020D01*
X43518252Y32545149D01*
X43299886Y32871958D01*
X43021959Y33149885D01*
X42695150Y33368251D01*
X42332021Y33518664D01*
X41946524Y33595344D01*
X41553476Y33595344D01*
X41167979Y33518664D01*
X40804850Y33368251D01*
X40478041Y33149885D01*
X40200114Y32871958D01*
X39981748Y32545149D01*
X39831335Y32182020D01*
X39754655Y31796523D01*
X38345344Y31796523D01*
X38268664Y32182020D01*
X38118251Y32545149D01*
X37899885Y32871958D01*
X37621958Y33149885D01*
X37295149Y33368251D01*
X36932020Y33518664D01*
X36546523Y33595344D01*
X36153475Y33595344D01*
X35767978Y33518664D01*
X35404849Y33368251D01*
X35078040Y33149885D01*
X34800113Y32871958D01*
X34581747Y32545149D01*
X34431334Y32182020D01*
X34354654Y31796523D01*
X32945344Y31796523D01*
X32868664Y32182020D01*
X32718251Y32545149D01*
X32499885Y32871958D01*
X32221958Y33149885D01*
X31895149Y33368251D01*
X31532020Y33518664D01*
X31146523Y33595344D01*
X30753475Y33595344D01*
X30367978Y33518664D01*
X30004849Y33368251D01*
X29678040Y33149885D01*
X29400113Y32871958D01*
X29181747Y32545149D01*
X29031334Y32182020D01*
X28954654Y31796523D01*
X27545344Y31796523D01*
X27468664Y32182020D01*
X27318251Y32545149D01*
X27099885Y32871958D01*
X26821958Y33149885D01*
X26495149Y33368251D01*
X26132020Y33518664D01*
X25746523Y33595344D01*
X25353475Y33595344D01*
X24967978Y33518664D01*
X24604849Y33368251D01*
X24278040Y33149885D01*
X24000113Y32871958D01*
X23781747Y32545149D01*
X23631334Y32182020D01*
X23554654Y31796523D01*
X22145344Y31796523D01*
X22068664Y32182019D01*
X21918251Y32545149D01*
X21699885Y32871957D01*
X21421958Y33149884D01*
X21095150Y33368250D01*
X20732020Y33518663D01*
X20346524Y33595343D01*
X19953476Y33595343D01*
X19567980Y33518663D01*
X19204850Y33368250D01*
X18878042Y33149884D01*
X18600115Y32871957D01*
X18381749Y32545149D01*
X18231336Y32182019D01*
X18154656Y31796523D01*
X16745345Y31796523D01*
X16668665Y32182020D01*
X16518252Y32545149D01*
X16299886Y32871958D01*
X16021959Y33149885D01*
X15695150Y33368251D01*
X15332021Y33518664D01*
X14946524Y33595344D01*
X14553476Y33595344D01*
X14167979Y33518664D01*
X13804850Y33368251D01*
X13478041Y33149885D01*
X13200114Y32871958D01*
X12981748Y32545149D01*
X12831335Y32182020D01*
X12754655Y31796523D01*
X11345345Y31796523D01*
X11268665Y32182020D01*
X11118252Y32545149D01*
X10899886Y32871958D01*
X10621959Y33149885D01*
X10295150Y33368251D01*
X9932021Y33518664D01*
X9546524Y33595344D01*
X9153476Y33595344D01*
X8767979Y33518664D01*
X8404850Y33368251D01*
X8078041Y33149885D01*
X7800114Y32871958D01*
X7581748Y32545149D01*
X7431335Y32182020D01*
X7354655Y31796523D01*
X5945345Y31796523D01*
X5868665Y32182020D01*
X5718252Y32545149D01*
X5499886Y32871958D01*
X5221959Y33149885D01*
X4895150Y33368251D01*
X4532021Y33518664D01*
X4146524Y33595344D01*
X3753476Y33595344D01*
X3367979Y33518664D01*
X3004850Y33368251D01*
X2678041Y33149885D01*
X2400114Y32871958D01*
X2181748Y32545149D01*
X2031335Y32182020D01*
X1954655Y31796523D01*
X735000Y31796523D01*
X735000Y36721028D01*
X19755859Y36721028D01*
X19755859Y36278970D01*
X19842100Y35845407D01*
X20011268Y35437000D01*
X20256862Y35069443D01*
X20569444Y34756861D01*
X20937001Y34511267D01*
X21345408Y34342099D01*
X21778971Y34255858D01*
X22221029Y34255858D01*
X22654592Y34342099D01*
X23062999Y34511267D01*
X23430556Y34756861D01*
X23743138Y35069443D01*
X23988732Y35437000D01*
X24157900Y35845407D01*
X24244141Y36278970D01*
X24244141Y36721028D01*
X24157900Y37154591D01*
X23988732Y37562998D01*
X23743138Y37930555D01*
X23430556Y38243137D01*
X23062999Y38488731D01*
X22654592Y38657899D01*
X22221029Y38744140D01*
X21778971Y38744140D01*
X21345408Y38657899D01*
X20937001Y38488731D01*
X20569444Y38243137D01*
X20256862Y37930555D01*
X20011268Y37562998D01*
X19842100Y37154591D01*
X19755859Y36721028D01*
X735000Y36721028D01*
X735000Y41596524D01*
X1954655Y41596524D01*
X1954655Y41203476D01*
X2031335Y40817979D01*
X2181748Y40454850D01*
X2400114Y40128041D01*
X2678041Y39850114D01*
X3004850Y39631748D01*
X3367979Y39481335D01*
X3753476Y39404655D01*
X4146524Y39404655D01*
X4532021Y39481335D01*
X4895150Y39631748D01*
X5221959Y39850114D01*
X5499886Y40128041D01*
X5718252Y40454850D01*
X5868665Y40817979D01*
X5945345Y41203476D01*
X5945345Y41596524D01*
X7354655Y41596524D01*
X7354655Y41203476D01*
X7431335Y40817979D01*
X7581748Y40454850D01*
X7800114Y40128041D01*
X8078041Y39850114D01*
X8404850Y39631748D01*
X8767979Y39481335D01*
X9153476Y39404655D01*
X9546524Y39404655D01*
X9932021Y39481335D01*
X10295150Y39631748D01*
X10621959Y39850114D01*
X10899886Y40128041D01*
X11118252Y40454850D01*
X11268665Y40817979D01*
X11345345Y41203476D01*
X11345345Y41596524D01*
X12754655Y41596524D01*
X12754655Y41203476D01*
X12831335Y40817979D01*
X12981748Y40454850D01*
X13200114Y40128041D01*
X13478041Y39850114D01*
X13804850Y39631748D01*
X14167979Y39481335D01*
X14553476Y39404655D01*
X14946524Y39404655D01*
X15332021Y39481335D01*
X15695150Y39631748D01*
X16021959Y39850114D01*
X16299886Y40128041D01*
X16518252Y40454850D01*
X16668665Y40817979D01*
X16745345Y41203476D01*
X16745345Y41596524D01*
X18154656Y41596524D01*
X18154656Y41203476D01*
X18231336Y40817980D01*
X18381749Y40454850D01*
X18600115Y40128042D01*
X18878042Y39850115D01*
X19204850Y39631749D01*
X19567980Y39481336D01*
X19953476Y39404656D01*
X20346524Y39404656D01*
X20732020Y39481336D01*
X21095150Y39631749D01*
X21421958Y39850115D01*
X21699885Y40128042D01*
X21918251Y40454850D01*
X22068664Y40817980D01*
X22145344Y41203476D01*
X22145344Y41596524D01*
X22068664Y41982020D01*
X21918251Y42345150D01*
X21699885Y42671958D01*
X21421958Y42949885D01*
X21095150Y43168251D01*
X20732020Y43318664D01*
X20346524Y43395344D01*
X19953476Y43395344D01*
X19567980Y43318664D01*
X19204850Y43168251D01*
X18878042Y42949885D01*
X18600115Y42671958D01*
X18381749Y42345150D01*
X18231336Y41982020D01*
X18154656Y41596524D01*
X16745345Y41596524D01*
X16668665Y41982021D01*
X16518252Y42345150D01*
X16299886Y42671959D01*
X16021959Y42949886D01*
X15695150Y43168252D01*
X15332021Y43318665D01*
X14946524Y43395345D01*
X14553476Y43395345D01*
X14167979Y43318665D01*
X13804850Y43168252D01*
X13478041Y42949886D01*
X13200114Y42671959D01*
X12981748Y42345150D01*
X12831335Y41982021D01*
X12754655Y41596524D01*
X11345345Y41596524D01*
X11268665Y41982021D01*
X11118252Y42345150D01*
X10899886Y42671959D01*
X10621959Y42949886D01*
X10295150Y43168252D01*
X9932021Y43318665D01*
X9546524Y43395345D01*
X9153476Y43395345D01*
X8767979Y43318665D01*
X8404850Y43168252D01*
X8078041Y42949886D01*
X7800114Y42671959D01*
X7581748Y42345150D01*
X7431335Y41982021D01*
X7354655Y41596524D01*
X5945345Y41596524D01*
X5868665Y41982021D01*
X5718252Y42345150D01*
X5499886Y42671959D01*
X5221959Y42949886D01*
X4895150Y43168252D01*
X4532021Y43318665D01*
X4146524Y43395345D01*
X3753476Y43395345D01*
X3367979Y43318665D01*
X3004850Y43168252D01*
X2678041Y42949886D01*
X2400114Y42671959D01*
X2181748Y42345150D01*
X2031335Y41982021D01*
X1954655Y41596524D01*
X735000Y41596524D01*
X735000Y70131335D01*
X1575000Y70131335D01*
X1575000Y69848665D01*
X1630147Y69571426D01*
X1738320Y69310273D01*
X1895363Y69075241D01*
X2095241Y68875363D01*
X2330273Y68718320D01*
X2591426Y68610147D01*
X2868665Y68555000D01*
X3151335Y68555000D01*
X3428574Y68610147D01*
X3689727Y68718320D01*
X3924759Y68875363D01*
X4124637Y69075241D01*
X4281680Y69310273D01*
X4389853Y69571426D01*
X4445000Y69848665D01*
X4445000Y70131335D01*
X4389853Y70408574D01*
X4281680Y70669727D01*
X4124637Y70904759D01*
X3924759Y71104637D01*
X3689727Y71261680D01*
X3428574Y71369853D01*
X3151335Y71425000D01*
X2868665Y71425000D01*
X2591426Y71369853D01*
X2330273Y71261680D01*
X2095241Y71104637D01*
X1895363Y70904759D01*
X1738320Y70669727D01*
X1630147Y70408574D01*
X1575000Y70131335D01*
X735000Y70131335D01*
X735000Y71277351D01*
X767029Y71280707D01*
X832324Y71294088D01*
X897733Y71306544D01*
X907558Y71309507D01*
X1014770Y71342657D01*
X1076192Y71368453D01*
X1137957Y71393384D01*
X1147020Y71398199D01*
X1245752Y71451541D01*
X1301012Y71488788D01*
X1356752Y71525237D01*
X1364707Y71531720D01*
X1451197Y71603224D01*
X1498183Y71650509D01*
X1545762Y71697071D01*
X1552306Y71704976D01*
X1558453Y71712508D01*
X3170698Y71713361D01*
X3213845Y71669300D01*
G37*
%TD.AperFunction*%
D32*
X44005363Y56165241D02*
X44205241Y55965363D01*
X44235000Y55945479D01*
X44235001Y51951479D01*
X44230719Y51908000D01*
X44247805Y51734510D01*
X44298412Y51567687D01*
X44380590Y51413941D01*
X44463468Y51312954D01*
X44463471Y51312951D01*
X44491184Y51279183D01*
X44524951Y51251471D01*
X45551471Y50224950D01*
X45579184Y50191182D01*
X45612952Y50163469D01*
X45612954Y50163467D01*
X45689571Y50100589D01*
X45713942Y50080588D01*
X45867688Y49998410D01*
X46034511Y49947804D01*
X46164524Y49934999D01*
X46164532Y49934999D01*
X46208001Y49930718D01*
X46251470Y49934999D01*
X51316530Y49934999D01*
X51359999Y49930718D01*
X51403468Y49934999D01*
X51403476Y49934999D01*
X51533489Y49947804D01*
X51700312Y49998410D01*
X51854058Y50080588D01*
X51988816Y50191182D01*
X52016533Y50224955D01*
X52433561Y50641983D01*
X52468665Y50635000D01*
X52751335Y50635000D01*
X53028574Y50690147D01*
X53289727Y50798320D01*
X53524759Y50955363D01*
X53724637Y51155241D01*
X53850392Y51343447D01*
X53856939Y51327641D01*
X54003038Y51108987D01*
X54155000Y50957025D01*
X54155001Y48904397D01*
X54085363Y48834759D01*
X53928320Y48599727D01*
X53820147Y48338574D01*
X53765000Y48061335D01*
X53765000Y47778665D01*
X53820147Y47501426D01*
X53928320Y47240273D01*
X54085363Y47005241D01*
X54235001Y46855603D01*
X54235000Y46024522D01*
X54205241Y46004637D01*
X54005363Y45804759D01*
X53848320Y45569727D01*
X53740147Y45308574D01*
X53685000Y45031335D01*
X53685000Y44748665D01*
X53740147Y44471426D01*
X53848320Y44210273D01*
X54005363Y43975241D01*
X54205241Y43775363D01*
X54235001Y43755478D01*
X54235001Y42469745D01*
X54099886Y42671959D01*
X53821959Y42949886D01*
X53495150Y43168252D01*
X53132021Y43318665D01*
X52746524Y43395345D01*
X52353476Y43395345D01*
X51967979Y43318665D01*
X51604850Y43168252D01*
X51278041Y42949886D01*
X51000114Y42671959D01*
X50781748Y42345150D01*
X50631335Y41982021D01*
X50554655Y41596524D01*
X50554655Y41203476D01*
X50631335Y40817979D01*
X50781748Y40454850D01*
X51000114Y40128041D01*
X51278041Y39850114D01*
X51604850Y39631748D01*
X51967979Y39481335D01*
X52353476Y39404655D01*
X52746524Y39404655D01*
X53132021Y39481335D01*
X53495150Y39631748D01*
X53821959Y39850114D01*
X54099886Y40128041D01*
X54235000Y40330255D01*
X54235000Y38976579D01*
X52713422Y37455000D01*
X43248072Y37455000D01*
X43248072Y38520001D01*
X43231008Y38693255D01*
X43180472Y38859851D01*
X43098405Y39013387D01*
X42987962Y39147962D01*
X42853387Y39258405D01*
X42699851Y39340472D01*
X42533255Y39391008D01*
X42360001Y39408072D01*
X41963702Y39408072D01*
X42332021Y39481335D01*
X42695150Y39631748D01*
X43021959Y39850114D01*
X43299886Y40128041D01*
X43518252Y40454850D01*
X43668665Y40817979D01*
X43745345Y41203476D01*
X43745345Y41596524D01*
X45154655Y41596524D01*
X45154655Y41203476D01*
X45231335Y40817979D01*
X45381748Y40454850D01*
X45600114Y40128041D01*
X45878041Y39850114D01*
X46204850Y39631748D01*
X46567979Y39481335D01*
X46953476Y39404655D01*
X47346524Y39404655D01*
X47732021Y39481335D01*
X48095150Y39631748D01*
X48421959Y39850114D01*
X48699886Y40128041D01*
X48918252Y40454850D01*
X49068665Y40817979D01*
X49145345Y41203476D01*
X49145345Y41596524D01*
X49068665Y41982021D01*
X48918252Y42345150D01*
X48699886Y42671959D01*
X48421959Y42949886D01*
X48095150Y43168252D01*
X47732021Y43318665D01*
X47346524Y43395345D01*
X46953476Y43395345D01*
X46567979Y43318665D01*
X46204850Y43168252D01*
X45878041Y42949886D01*
X45600114Y42671959D01*
X45381748Y42345150D01*
X45231335Y41982021D01*
X45154655Y41596524D01*
X43745345Y41596524D01*
X43668665Y41982021D01*
X43518252Y42345150D01*
X43299886Y42671959D01*
X43021959Y42949886D01*
X42864644Y43055000D01*
X42911335Y43055000D01*
X43188574Y43110147D01*
X43449727Y43218320D01*
X43684759Y43375363D01*
X43884637Y43575241D01*
X44041680Y43810273D01*
X44149853Y44071426D01*
X44205000Y44348665D01*
X44205000Y44631335D01*
X44149853Y44908574D01*
X44041680Y45169727D01*
X43884637Y45404759D01*
X43684759Y45604637D01*
X43482173Y45740000D01*
X43684759Y45875363D01*
X43884637Y46075241D01*
X44041680Y46310273D01*
X44149853Y46571426D01*
X44188040Y46763402D01*
X44360273Y46648320D01*
X44621426Y46540147D01*
X44898665Y46485000D01*
X45181335Y46485000D01*
X45458574Y46540147D01*
X45719727Y46648320D01*
X45954759Y46805363D01*
X46154637Y47005241D01*
X46174521Y47035000D01*
X47391616Y47035000D01*
X47450102Y47010774D01*
X47650061Y46971000D01*
X47853939Y46971000D01*
X48053898Y47010774D01*
X48242256Y47088795D01*
X48411774Y47202063D01*
X48555937Y47346226D01*
X48669205Y47515744D01*
X48747226Y47704102D01*
X48787000Y47904061D01*
X48787000Y48107939D01*
X48747226Y48307898D01*
X48669205Y48496256D01*
X48555937Y48665774D01*
X48411774Y48809937D01*
X48242256Y48923205D01*
X48053898Y49001226D01*
X47853939Y49041000D01*
X47650061Y49041000D01*
X47450102Y49001226D01*
X47261744Y48923205D01*
X47092226Y48809937D01*
X47087289Y48805000D01*
X46174521Y48805000D01*
X46154637Y48834759D01*
X45954759Y49034637D01*
X45719727Y49191680D01*
X45458574Y49299853D01*
X45181335Y49355000D01*
X44898665Y49355000D01*
X44621426Y49299853D01*
X44360273Y49191680D01*
X44125241Y49034637D01*
X44105000Y49014396D01*
X44105000Y49221486D01*
X44053696Y49479405D01*
X43953061Y49722359D01*
X43806962Y49941013D01*
X43621013Y50126962D01*
X43402359Y50273061D01*
X43159405Y50373696D01*
X42901486Y50425000D01*
X42638514Y50425000D01*
X42380595Y50373696D01*
X42137641Y50273061D01*
X41918987Y50126962D01*
X41733038Y49941013D01*
X41586939Y49722359D01*
X41486304Y49479405D01*
X41435000Y49221486D01*
X41435000Y48958514D01*
X41486304Y48700595D01*
X41586939Y48457641D01*
X41733038Y48238987D01*
X41862523Y48109502D01*
X41855241Y48104637D01*
X41655363Y47904759D01*
X41498320Y47669727D01*
X41390147Y47408574D01*
X41335000Y47131335D01*
X41335000Y47124690D01*
X41194637Y47334759D01*
X40994759Y47534637D01*
X40965000Y47554521D01*
X40965000Y50554531D01*
X40969281Y50598000D01*
X40965000Y50641469D01*
X40965000Y50641477D01*
X40952195Y50771490D01*
X40901589Y50938313D01*
X40819411Y51092059D01*
X40814485Y51098061D01*
X40736532Y51193047D01*
X40736530Y51193049D01*
X40708817Y51226817D01*
X40675050Y51254529D01*
X38944534Y52985044D01*
X38916817Y53018817D01*
X38782059Y53129411D01*
X38628313Y53211589D01*
X38461490Y53262195D01*
X38331477Y53275000D01*
X38331469Y53275000D01*
X38288000Y53279281D01*
X38244531Y53275000D01*
X34481554Y53275000D01*
X34407267Y53349287D01*
X34204992Y53484443D01*
X33980236Y53577540D01*
X33741637Y53625000D01*
X33636579Y53625000D01*
X32889000Y54372578D01*
X32889000Y56155384D01*
X33100950Y55838178D01*
X33418178Y55520950D01*
X33791199Y55271706D01*
X34205678Y55100023D01*
X34645686Y55012500D01*
X35094314Y55012500D01*
X35534322Y55100023D01*
X35948801Y55271706D01*
X36321822Y55520950D01*
X36639050Y55838178D01*
X36707001Y55939874D01*
X36707001Y55415479D01*
X36702719Y55372000D01*
X36719805Y55198510D01*
X36770412Y55031687D01*
X36852590Y54877941D01*
X36935468Y54776954D01*
X36935471Y54776951D01*
X36963184Y54743183D01*
X36996951Y54715471D01*
X37951470Y53760951D01*
X37979183Y53727183D01*
X38012951Y53699470D01*
X38012953Y53699468D01*
X38048142Y53670589D01*
X38113941Y53616589D01*
X38267687Y53534411D01*
X38364641Y53505000D01*
X38434509Y53483805D01*
X38449306Y53482348D01*
X38564523Y53471000D01*
X38564531Y53471000D01*
X38608000Y53466719D01*
X38651469Y53471000D01*
X41612531Y53471000D01*
X41656000Y53466719D01*
X41699469Y53471000D01*
X41699477Y53471000D01*
X41829490Y53483805D01*
X41996313Y53534411D01*
X42150059Y53616589D01*
X42284817Y53727183D01*
X42312534Y53760956D01*
X43365050Y54813471D01*
X43398817Y54841183D01*
X43429193Y54878195D01*
X43509411Y54975941D01*
X43528952Y55012500D01*
X43591589Y55129687D01*
X43642195Y55296510D01*
X43655000Y55426523D01*
X43655000Y55426531D01*
X43659281Y55470000D01*
X43655000Y55513469D01*
X43655000Y55707025D01*
X43806962Y55858987D01*
X43953061Y56077641D01*
X43995476Y56180039D01*
X44005363Y56165241D01*
%TA.AperFunction,Conductor*%
D33*
G36*
X44005363Y56165241D02*
G01*
X44205241Y55965363D01*
X44235000Y55945479D01*
X44235001Y51951479D01*
X44230719Y51908000D01*
X44247805Y51734510D01*
X44298412Y51567687D01*
X44380590Y51413941D01*
X44463468Y51312954D01*
X44463471Y51312951D01*
X44491184Y51279183D01*
X44524951Y51251471D01*
X45551471Y50224950D01*
X45579184Y50191182D01*
X45612952Y50163469D01*
X45612954Y50163467D01*
X45689571Y50100589D01*
X45713942Y50080588D01*
X45867688Y49998410D01*
X46034511Y49947804D01*
X46164524Y49934999D01*
X46164532Y49934999D01*
X46208001Y49930718D01*
X46251470Y49934999D01*
X51316530Y49934999D01*
X51359999Y49930718D01*
X51403468Y49934999D01*
X51403476Y49934999D01*
X51533489Y49947804D01*
X51700312Y49998410D01*
X51854058Y50080588D01*
X51988816Y50191182D01*
X52016533Y50224955D01*
X52433561Y50641983D01*
X52468665Y50635000D01*
X52751335Y50635000D01*
X53028574Y50690147D01*
X53289727Y50798320D01*
X53524759Y50955363D01*
X53724637Y51155241D01*
X53850392Y51343447D01*
X53856939Y51327641D01*
X54003038Y51108987D01*
X54155000Y50957025D01*
X54155001Y48904397D01*
X54085363Y48834759D01*
X53928320Y48599727D01*
X53820147Y48338574D01*
X53765000Y48061335D01*
X53765000Y47778665D01*
X53820147Y47501426D01*
X53928320Y47240273D01*
X54085363Y47005241D01*
X54235001Y46855603D01*
X54235000Y46024522D01*
X54205241Y46004637D01*
X54005363Y45804759D01*
X53848320Y45569727D01*
X53740147Y45308574D01*
X53685000Y45031335D01*
X53685000Y44748665D01*
X53740147Y44471426D01*
X53848320Y44210273D01*
X54005363Y43975241D01*
X54205241Y43775363D01*
X54235001Y43755478D01*
X54235001Y42469745D01*
X54099886Y42671959D01*
X53821959Y42949886D01*
X53495150Y43168252D01*
X53132021Y43318665D01*
X52746524Y43395345D01*
X52353476Y43395345D01*
X51967979Y43318665D01*
X51604850Y43168252D01*
X51278041Y42949886D01*
X51000114Y42671959D01*
X50781748Y42345150D01*
X50631335Y41982021D01*
X50554655Y41596524D01*
X50554655Y41203476D01*
X50631335Y40817979D01*
X50781748Y40454850D01*
X51000114Y40128041D01*
X51278041Y39850114D01*
X51604850Y39631748D01*
X51967979Y39481335D01*
X52353476Y39404655D01*
X52746524Y39404655D01*
X53132021Y39481335D01*
X53495150Y39631748D01*
X53821959Y39850114D01*
X54099886Y40128041D01*
X54235000Y40330255D01*
X54235000Y38976579D01*
X52713422Y37455000D01*
X43248072Y37455000D01*
X43248072Y38520001D01*
X43231008Y38693255D01*
X43180472Y38859851D01*
X43098405Y39013387D01*
X42987962Y39147962D01*
X42853387Y39258405D01*
X42699851Y39340472D01*
X42533255Y39391008D01*
X42360001Y39408072D01*
X41963702Y39408072D01*
X42332021Y39481335D01*
X42695150Y39631748D01*
X43021959Y39850114D01*
X43299886Y40128041D01*
X43518252Y40454850D01*
X43668665Y40817979D01*
X43745345Y41203476D01*
X43745345Y41596524D01*
X45154655Y41596524D01*
X45154655Y41203476D01*
X45231335Y40817979D01*
X45381748Y40454850D01*
X45600114Y40128041D01*
X45878041Y39850114D01*
X46204850Y39631748D01*
X46567979Y39481335D01*
X46953476Y39404655D01*
X47346524Y39404655D01*
X47732021Y39481335D01*
X48095150Y39631748D01*
X48421959Y39850114D01*
X48699886Y40128041D01*
X48918252Y40454850D01*
X49068665Y40817979D01*
X49145345Y41203476D01*
X49145345Y41596524D01*
X49068665Y41982021D01*
X48918252Y42345150D01*
X48699886Y42671959D01*
X48421959Y42949886D01*
X48095150Y43168252D01*
X47732021Y43318665D01*
X47346524Y43395345D01*
X46953476Y43395345D01*
X46567979Y43318665D01*
X46204850Y43168252D01*
X45878041Y42949886D01*
X45600114Y42671959D01*
X45381748Y42345150D01*
X45231335Y41982021D01*
X45154655Y41596524D01*
X43745345Y41596524D01*
X43668665Y41982021D01*
X43518252Y42345150D01*
X43299886Y42671959D01*
X43021959Y42949886D01*
X42864644Y43055000D01*
X42911335Y43055000D01*
X43188574Y43110147D01*
X43449727Y43218320D01*
X43684759Y43375363D01*
X43884637Y43575241D01*
X44041680Y43810273D01*
X44149853Y44071426D01*
X44205000Y44348665D01*
X44205000Y44631335D01*
X44149853Y44908574D01*
X44041680Y45169727D01*
X43884637Y45404759D01*
X43684759Y45604637D01*
X43482173Y45740000D01*
X43684759Y45875363D01*
X43884637Y46075241D01*
X44041680Y46310273D01*
X44149853Y46571426D01*
X44188040Y46763402D01*
X44360273Y46648320D01*
X44621426Y46540147D01*
X44898665Y46485000D01*
X45181335Y46485000D01*
X45458574Y46540147D01*
X45719727Y46648320D01*
X45954759Y46805363D01*
X46154637Y47005241D01*
X46174521Y47035000D01*
X47391616Y47035000D01*
X47450102Y47010774D01*
X47650061Y46971000D01*
X47853939Y46971000D01*
X48053898Y47010774D01*
X48242256Y47088795D01*
X48411774Y47202063D01*
X48555937Y47346226D01*
X48669205Y47515744D01*
X48747226Y47704102D01*
X48787000Y47904061D01*
X48787000Y48107939D01*
X48747226Y48307898D01*
X48669205Y48496256D01*
X48555937Y48665774D01*
X48411774Y48809937D01*
X48242256Y48923205D01*
X48053898Y49001226D01*
X47853939Y49041000D01*
X47650061Y49041000D01*
X47450102Y49001226D01*
X47261744Y48923205D01*
X47092226Y48809937D01*
X47087289Y48805000D01*
X46174521Y48805000D01*
X46154637Y48834759D01*
X45954759Y49034637D01*
X45719727Y49191680D01*
X45458574Y49299853D01*
X45181335Y49355000D01*
X44898665Y49355000D01*
X44621426Y49299853D01*
X44360273Y49191680D01*
X44125241Y49034637D01*
X44105000Y49014396D01*
X44105000Y49221486D01*
X44053696Y49479405D01*
X43953061Y49722359D01*
X43806962Y49941013D01*
X43621013Y50126962D01*
X43402359Y50273061D01*
X43159405Y50373696D01*
X42901486Y50425000D01*
X42638514Y50425000D01*
X42380595Y50373696D01*
X42137641Y50273061D01*
X41918987Y50126962D01*
X41733038Y49941013D01*
X41586939Y49722359D01*
X41486304Y49479405D01*
X41435000Y49221486D01*
X41435000Y48958514D01*
X41486304Y48700595D01*
X41586939Y48457641D01*
X41733038Y48238987D01*
X41862523Y48109502D01*
X41855241Y48104637D01*
X41655363Y47904759D01*
X41498320Y47669727D01*
X41390147Y47408574D01*
X41335000Y47131335D01*
X41335000Y47124690D01*
X41194637Y47334759D01*
X40994759Y47534637D01*
X40965000Y47554521D01*
X40965000Y50554531D01*
X40969281Y50598000D01*
X40965000Y50641469D01*
X40965000Y50641477D01*
X40952195Y50771490D01*
X40901589Y50938313D01*
X40819411Y51092059D01*
X40814485Y51098061D01*
X40736532Y51193047D01*
X40736530Y51193049D01*
X40708817Y51226817D01*
X40675050Y51254529D01*
X38944534Y52985044D01*
X38916817Y53018817D01*
X38782059Y53129411D01*
X38628313Y53211589D01*
X38461490Y53262195D01*
X38331477Y53275000D01*
X38331469Y53275000D01*
X38288000Y53279281D01*
X38244531Y53275000D01*
X34481554Y53275000D01*
X34407267Y53349287D01*
X34204992Y53484443D01*
X33980236Y53577540D01*
X33741637Y53625000D01*
X33636579Y53625000D01*
X32889000Y54372578D01*
X32889000Y56155384D01*
X33100950Y55838178D01*
X33418178Y55520950D01*
X33791199Y55271706D01*
X34205678Y55100023D01*
X34645686Y55012500D01*
X35094314Y55012500D01*
X35534322Y55100023D01*
X35948801Y55271706D01*
X36321822Y55520950D01*
X36639050Y55838178D01*
X36707001Y55939874D01*
X36707001Y55415479D01*
X36702719Y55372000D01*
X36719805Y55198510D01*
X36770412Y55031687D01*
X36852590Y54877941D01*
X36935468Y54776954D01*
X36935471Y54776951D01*
X36963184Y54743183D01*
X36996951Y54715471D01*
X37951470Y53760951D01*
X37979183Y53727183D01*
X38012951Y53699470D01*
X38012953Y53699468D01*
X38048142Y53670589D01*
X38113941Y53616589D01*
X38267687Y53534411D01*
X38364641Y53505000D01*
X38434509Y53483805D01*
X38449306Y53482348D01*
X38564523Y53471000D01*
X38564531Y53471000D01*
X38608000Y53466719D01*
X38651469Y53471000D01*
X41612531Y53471000D01*
X41656000Y53466719D01*
X41699469Y53471000D01*
X41699477Y53471000D01*
X41829490Y53483805D01*
X41996313Y53534411D01*
X42150059Y53616589D01*
X42284817Y53727183D01*
X42312534Y53760956D01*
X43365050Y54813471D01*
X43398817Y54841183D01*
X43429193Y54878195D01*
X43509411Y54975941D01*
X43528952Y55012500D01*
X43591589Y55129687D01*
X43642195Y55296510D01*
X43655000Y55426523D01*
X43655000Y55426531D01*
X43659281Y55470000D01*
X43655000Y55513469D01*
X43655000Y55707025D01*
X43806962Y55858987D01*
X43953061Y56077641D01*
X43995476Y56180039D01*
X44005363Y56165241D01*
G37*
%TD.AperFunction*%
D32*
X17829742Y61437795D02*
X18018100Y61359774D01*
X18218059Y61320000D01*
X18421937Y61320000D01*
X18621896Y61359774D01*
X18695684Y61390338D01*
X18697071Y61376255D01*
X18735001Y61251215D01*
X18735001Y61098475D01*
X18735000Y58508784D01*
X18697071Y58383745D01*
X18681928Y58230000D01*
X18681928Y56580000D01*
X18697071Y56426255D01*
X18741916Y56278418D01*
X18814742Y56142171D01*
X18912749Y56022749D01*
X19032171Y55924742D01*
X19168418Y55851916D01*
X19316255Y55807071D01*
X19470000Y55791928D01*
X19770000Y55791928D01*
X19923745Y55807071D01*
X20071582Y55851916D01*
X20207829Y55924742D01*
X20255000Y55963454D01*
X20302171Y55924742D01*
X20438418Y55851916D01*
X20586255Y55807071D01*
X20740000Y55791928D01*
X21040000Y55791928D01*
X21193745Y55807071D01*
X21275000Y55831719D01*
X21275001Y51708523D01*
X21262795Y51690256D01*
X21184774Y51501898D01*
X21145000Y51301939D01*
X21145000Y51098061D01*
X21167715Y50983863D01*
X20970800Y51180778D01*
X20970800Y51380087D01*
X20920043Y51635263D01*
X20820478Y51875634D01*
X20675933Y52091961D01*
X20491961Y52275933D01*
X20275634Y52420478D01*
X20035263Y52520043D01*
X19780087Y52570800D01*
X19519913Y52570800D01*
X19264737Y52520043D01*
X19024366Y52420478D01*
X18808039Y52275933D01*
X18624067Y52091961D01*
X18479522Y51875634D01*
X18379957Y51635263D01*
X18329200Y51380087D01*
X18329200Y51119913D01*
X18379957Y50864737D01*
X18479522Y50624366D01*
X18624067Y50408039D01*
X18808039Y50224067D01*
X19024366Y50079522D01*
X19264633Y49980000D01*
X19024366Y49880478D01*
X18808039Y49735933D01*
X18624067Y49551961D01*
X18479522Y49335634D01*
X18411000Y49170207D01*
X18411000Y49740535D01*
X18415281Y49784001D01*
X18411000Y49827467D01*
X18411000Y49827477D01*
X18398195Y49957490D01*
X18347589Y50124313D01*
X18265411Y50278059D01*
X18154817Y50412817D01*
X18121045Y50440533D01*
X17674532Y50887046D01*
X17646817Y50920817D01*
X17512059Y51031411D01*
X17358313Y51113589D01*
X17191490Y51164195D01*
X17061477Y51177000D01*
X17061469Y51177000D01*
X17018000Y51181281D01*
X16974531Y51177000D01*
X12304578Y51177000D01*
X12275000Y51206578D01*
X12275000Y51511928D01*
X12290000Y51511928D01*
X12414482Y51524188D01*
X12534180Y51560498D01*
X12644494Y51619463D01*
X12741185Y51698815D01*
X12820537Y51795506D01*
X12879502Y51905820D01*
X12915812Y52025518D01*
X12928072Y52150000D01*
X12928072Y53950000D01*
X12915812Y54074482D01*
X12879502Y54194180D01*
X12820537Y54304494D01*
X12741185Y54401185D01*
X12644494Y54480537D01*
X12534180Y54539502D01*
X12414482Y54575812D01*
X12290000Y54588072D01*
X11103507Y54588072D01*
X10134083Y55557495D01*
X10139853Y55571426D01*
X10195000Y55848665D01*
X10195000Y56131335D01*
X10139853Y56408574D01*
X10094113Y56519000D01*
X12884446Y56519000D01*
X13042733Y56360713D01*
X13245008Y56225557D01*
X13469764Y56132460D01*
X13708363Y56085000D01*
X13951637Y56085000D01*
X14190236Y56132460D01*
X14414992Y56225557D01*
X14617267Y56360713D01*
X14789287Y56532733D01*
X14924443Y56735008D01*
X15017540Y56959764D01*
X15065000Y57198363D01*
X15065000Y57355000D01*
X15221637Y57355000D01*
X15460236Y57402460D01*
X15677831Y57492591D01*
X16387001Y56783420D01*
X16387000Y55402455D01*
X16354795Y55354256D01*
X16276774Y55165898D01*
X16237000Y54965939D01*
X16237000Y54762061D01*
X16276774Y54562102D01*
X16354795Y54373744D01*
X16468063Y54204226D01*
X16612226Y54060063D01*
X16781744Y53946795D01*
X16970102Y53868774D01*
X17170061Y53829000D01*
X17373939Y53829000D01*
X17573898Y53868774D01*
X17762256Y53946795D01*
X17931774Y54060063D01*
X18075937Y54204226D01*
X18189205Y54373744D01*
X18267226Y54562102D01*
X18307000Y54762061D01*
X18307000Y54965939D01*
X18267226Y55165898D01*
X18189205Y55354256D01*
X18157000Y55402454D01*
X18157000Y57106531D01*
X18161281Y57150000D01*
X18157000Y57193469D01*
X18157000Y57193477D01*
X18144195Y57323490D01*
X18120239Y57402460D01*
X18093589Y57490314D01*
X18011411Y57644059D01*
X17928532Y57745047D01*
X17928530Y57745049D01*
X17900817Y57778817D01*
X17867049Y57806530D01*
X16488532Y59185046D01*
X16460817Y59218817D01*
X16326059Y59329411D01*
X16172313Y59411589D01*
X16005490Y59462195D01*
X15970958Y59465596D01*
X15887267Y59549287D01*
X15684992Y59684443D01*
X15460236Y59777540D01*
X15221637Y59825000D01*
X15046578Y59825000D01*
X16691579Y61470000D01*
X17781544Y61470000D01*
X17829742Y61437795D01*
%TA.AperFunction,Conductor*%
D33*
G36*
X17829742Y61437795D02*
G01*
X18018100Y61359774D01*
X18218059Y61320000D01*
X18421937Y61320000D01*
X18621896Y61359774D01*
X18695684Y61390338D01*
X18697071Y61376255D01*
X18735001Y61251215D01*
X18735001Y61098475D01*
X18735000Y58508784D01*
X18697071Y58383745D01*
X18681928Y58230000D01*
X18681928Y56580000D01*
X18697071Y56426255D01*
X18741916Y56278418D01*
X18814742Y56142171D01*
X18912749Y56022749D01*
X19032171Y55924742D01*
X19168418Y55851916D01*
X19316255Y55807071D01*
X19470000Y55791928D01*
X19770000Y55791928D01*
X19923745Y55807071D01*
X20071582Y55851916D01*
X20207829Y55924742D01*
X20255000Y55963454D01*
X20302171Y55924742D01*
X20438418Y55851916D01*
X20586255Y55807071D01*
X20740000Y55791928D01*
X21040000Y55791928D01*
X21193745Y55807071D01*
X21275000Y55831719D01*
X21275001Y51708523D01*
X21262795Y51690256D01*
X21184774Y51501898D01*
X21145000Y51301939D01*
X21145000Y51098061D01*
X21167715Y50983863D01*
X20970800Y51180778D01*
X20970800Y51380087D01*
X20920043Y51635263D01*
X20820478Y51875634D01*
X20675933Y52091961D01*
X20491961Y52275933D01*
X20275634Y52420478D01*
X20035263Y52520043D01*
X19780087Y52570800D01*
X19519913Y52570800D01*
X19264737Y52520043D01*
X19024366Y52420478D01*
X18808039Y52275933D01*
X18624067Y52091961D01*
X18479522Y51875634D01*
X18379957Y51635263D01*
X18329200Y51380087D01*
X18329200Y51119913D01*
X18379957Y50864737D01*
X18479522Y50624366D01*
X18624067Y50408039D01*
X18808039Y50224067D01*
X19024366Y50079522D01*
X19264633Y49980000D01*
X19024366Y49880478D01*
X18808039Y49735933D01*
X18624067Y49551961D01*
X18479522Y49335634D01*
X18411000Y49170207D01*
X18411000Y49740535D01*
X18415281Y49784001D01*
X18411000Y49827467D01*
X18411000Y49827477D01*
X18398195Y49957490D01*
X18347589Y50124313D01*
X18265411Y50278059D01*
X18154817Y50412817D01*
X18121045Y50440533D01*
X17674532Y50887046D01*
X17646817Y50920817D01*
X17512059Y51031411D01*
X17358313Y51113589D01*
X17191490Y51164195D01*
X17061477Y51177000D01*
X17061469Y51177000D01*
X17018000Y51181281D01*
X16974531Y51177000D01*
X12304578Y51177000D01*
X12275000Y51206578D01*
X12275000Y51511928D01*
X12290000Y51511928D01*
X12414482Y51524188D01*
X12534180Y51560498D01*
X12644494Y51619463D01*
X12741185Y51698815D01*
X12820537Y51795506D01*
X12879502Y51905820D01*
X12915812Y52025518D01*
X12928072Y52150000D01*
X12928072Y53950000D01*
X12915812Y54074482D01*
X12879502Y54194180D01*
X12820537Y54304494D01*
X12741185Y54401185D01*
X12644494Y54480537D01*
X12534180Y54539502D01*
X12414482Y54575812D01*
X12290000Y54588072D01*
X11103507Y54588072D01*
X10134083Y55557495D01*
X10139853Y55571426D01*
X10195000Y55848665D01*
X10195000Y56131335D01*
X10139853Y56408574D01*
X10094113Y56519000D01*
X12884446Y56519000D01*
X13042733Y56360713D01*
X13245008Y56225557D01*
X13469764Y56132460D01*
X13708363Y56085000D01*
X13951637Y56085000D01*
X14190236Y56132460D01*
X14414992Y56225557D01*
X14617267Y56360713D01*
X14789287Y56532733D01*
X14924443Y56735008D01*
X15017540Y56959764D01*
X15065000Y57198363D01*
X15065000Y57355000D01*
X15221637Y57355000D01*
X15460236Y57402460D01*
X15677831Y57492591D01*
X16387001Y56783420D01*
X16387000Y55402455D01*
X16354795Y55354256D01*
X16276774Y55165898D01*
X16237000Y54965939D01*
X16237000Y54762061D01*
X16276774Y54562102D01*
X16354795Y54373744D01*
X16468063Y54204226D01*
X16612226Y54060063D01*
X16781744Y53946795D01*
X16970102Y53868774D01*
X17170061Y53829000D01*
X17373939Y53829000D01*
X17573898Y53868774D01*
X17762256Y53946795D01*
X17931774Y54060063D01*
X18075937Y54204226D01*
X18189205Y54373744D01*
X18267226Y54562102D01*
X18307000Y54762061D01*
X18307000Y54965939D01*
X18267226Y55165898D01*
X18189205Y55354256D01*
X18157000Y55402454D01*
X18157000Y57106531D01*
X18161281Y57150000D01*
X18157000Y57193469D01*
X18157000Y57193477D01*
X18144195Y57323490D01*
X18120239Y57402460D01*
X18093589Y57490314D01*
X18011411Y57644059D01*
X17928532Y57745047D01*
X17928530Y57745049D01*
X17900817Y57778817D01*
X17867049Y57806530D01*
X16488532Y59185046D01*
X16460817Y59218817D01*
X16326059Y59329411D01*
X16172313Y59411589D01*
X16005490Y59462195D01*
X15970958Y59465596D01*
X15887267Y59549287D01*
X15684992Y59684443D01*
X15460236Y59777540D01*
X15221637Y59825000D01*
X15046578Y59825000D01*
X16691579Y61470000D01*
X17781544Y61470000D01*
X17829742Y61437795D01*
G37*
%TD.AperFunction*%
D32*
X54953509Y71698488D02*
X55000815Y71651511D01*
X55047386Y71603954D01*
X55055293Y71597412D01*
X55142258Y71526485D01*
X55197780Y71489597D01*
X55252714Y71451983D01*
X55261741Y71447101D01*
X55360826Y71394417D01*
X55422461Y71369013D01*
X55483644Y71342790D01*
X55493445Y71339756D01*
X55493449Y71339754D01*
X55493453Y71339753D01*
X55600877Y71307320D01*
X55666255Y71294375D01*
X55731384Y71280531D01*
X55741590Y71279458D01*
X55765001Y71277163D01*
X55765001Y65382633D01*
X55578574Y65459853D01*
X55301335Y65515000D01*
X55018665Y65515000D01*
X54741426Y65459853D01*
X54480273Y65351680D01*
X54245241Y65194637D01*
X54128037Y65077433D01*
X54119853Y65118574D01*
X54011680Y65379727D01*
X53854637Y65614759D01*
X53654759Y65814637D01*
X53419727Y65971680D01*
X53158574Y66079853D01*
X52881335Y66135000D01*
X52598665Y66135000D01*
X52321426Y66079853D01*
X52060273Y65971680D01*
X51825241Y65814637D01*
X51625363Y65614759D01*
X51468320Y65379727D01*
X51360147Y65118574D01*
X51305000Y64841335D01*
X51305000Y64558665D01*
X51360147Y64281426D01*
X51468320Y64020273D01*
X51625363Y63785241D01*
X51825241Y63585363D01*
X52057759Y63430000D01*
X51825241Y63274637D01*
X51625363Y63074759D01*
X51468320Y62839727D01*
X51360147Y62578574D01*
X51305000Y62301335D01*
X51305000Y62018665D01*
X51360147Y61741426D01*
X51468320Y61480273D01*
X51625363Y61245241D01*
X51825241Y61045363D01*
X52057759Y60890000D01*
X51825241Y60734637D01*
X51625363Y60534759D01*
X51605479Y60505000D01*
X51535469Y60505000D01*
X51492000Y60509281D01*
X51448531Y60505000D01*
X51448523Y60505000D01*
X51318510Y60492195D01*
X51151687Y60441589D01*
X51047795Y60386058D01*
X50997941Y60359411D01*
X50896953Y60276532D01*
X50896951Y60276530D01*
X50863183Y60248817D01*
X50835470Y60215049D01*
X49544951Y58924529D01*
X49511184Y58896817D01*
X49483471Y58863049D01*
X49483468Y58863046D01*
X49400590Y58762059D01*
X49318412Y58608313D01*
X49267805Y58441490D01*
X49250719Y58268000D01*
X49255001Y58224521D01*
X49255000Y55544521D01*
X49225241Y55524637D01*
X49025363Y55324759D01*
X48890000Y55122173D01*
X48754637Y55324759D01*
X48554759Y55524637D01*
X48319727Y55681680D01*
X48058574Y55789853D01*
X47781335Y55845000D01*
X47498665Y55845000D01*
X47221426Y55789853D01*
X46960273Y55681680D01*
X46725241Y55524637D01*
X46525363Y55324759D01*
X46368320Y55089727D01*
X46260147Y54828574D01*
X46205000Y54551335D01*
X46205000Y54268665D01*
X46260147Y53991426D01*
X46368320Y53730273D01*
X46525363Y53495241D01*
X46725241Y53295363D01*
X46960273Y53138320D01*
X47221426Y53030147D01*
X47498665Y52975000D01*
X47781335Y52975000D01*
X48058574Y53030147D01*
X48319727Y53138320D01*
X48554759Y53295363D01*
X48754637Y53495241D01*
X48890000Y53697827D01*
X49025363Y53495241D01*
X49225241Y53295363D01*
X49460273Y53138320D01*
X49721426Y53030147D01*
X49998665Y52975000D01*
X50281335Y52975000D01*
X50558574Y53030147D01*
X50819727Y53138320D01*
X51054759Y53295363D01*
X51254637Y53495241D01*
X51411680Y53730273D01*
X51519853Y53991426D01*
X51575000Y54268665D01*
X51575000Y54551335D01*
X51519853Y54828574D01*
X51411680Y55089727D01*
X51254637Y55324759D01*
X51054759Y55524637D01*
X51025000Y55544521D01*
X51025000Y57901422D01*
X51727091Y58603513D01*
X51825241Y58505363D01*
X52057759Y58350000D01*
X51825241Y58194637D01*
X51625363Y57994759D01*
X51468320Y57759727D01*
X51360147Y57498574D01*
X51305000Y57221335D01*
X51305000Y56938665D01*
X51360147Y56661426D01*
X51468320Y56400273D01*
X51625363Y56165241D01*
X51825241Y55965363D01*
X52060273Y55808320D01*
X52321426Y55700147D01*
X52598665Y55645000D01*
X52881335Y55645000D01*
X53158574Y55700147D01*
X53419727Y55808320D01*
X53654759Y55965363D01*
X53854637Y56165241D01*
X54011680Y56400273D01*
X54119853Y56661426D01*
X54175000Y56938665D01*
X54175000Y57221335D01*
X54119853Y57498574D01*
X54011680Y57759727D01*
X53854637Y57994759D01*
X53654759Y58194637D01*
X53422241Y58350000D01*
X53654759Y58505363D01*
X53854637Y58705241D01*
X53874521Y58735000D01*
X53999020Y58735000D01*
X54003038Y58728987D01*
X54188987Y58543038D01*
X54407641Y58396939D01*
X54650595Y58296304D01*
X54908514Y58245000D01*
X55171486Y58245000D01*
X55429405Y58296304D01*
X55672359Y58396939D01*
X55765001Y58458840D01*
X55765001Y53081160D01*
X55672359Y53143061D01*
X55429405Y53243696D01*
X55171486Y53295000D01*
X54908514Y53295000D01*
X54650595Y53243696D01*
X54407641Y53143061D01*
X54188987Y52996962D01*
X54003038Y52811013D01*
X53912451Y52675439D01*
X53881680Y52749727D01*
X53724637Y52984759D01*
X53524759Y53184637D01*
X53289727Y53341680D01*
X53028574Y53449853D01*
X52751335Y53505000D01*
X52468665Y53505000D01*
X52191426Y53449853D01*
X51930273Y53341680D01*
X51695241Y53184637D01*
X51495363Y52984759D01*
X51338320Y52749727D01*
X51230147Y52488574D01*
X51175000Y52211335D01*
X51175000Y51928665D01*
X51181983Y51893561D01*
X50993421Y51704999D01*
X46574580Y51704999D01*
X46005000Y52274578D01*
X46005000Y55945479D01*
X46034759Y55965363D01*
X46234637Y56165241D01*
X46391680Y56400273D01*
X46499853Y56661426D01*
X46555000Y56938665D01*
X46555000Y57221335D01*
X46499853Y57498574D01*
X46391680Y57759727D01*
X46234637Y57994759D01*
X46034759Y58194637D01*
X45802241Y58350000D01*
X46034759Y58505363D01*
X46234637Y58705241D01*
X46391680Y58940273D01*
X46499853Y59201426D01*
X46555000Y59478665D01*
X46555000Y59761335D01*
X46499853Y60038574D01*
X46391680Y60299727D01*
X46234637Y60534759D01*
X46034759Y60734637D01*
X45802241Y60890000D01*
X46034759Y61045363D01*
X46234637Y61245241D01*
X46258258Y61280592D01*
X46331490Y61287805D01*
X46498313Y61338411D01*
X46652059Y61420589D01*
X46786817Y61531183D01*
X46814534Y61564956D01*
X47585050Y62335471D01*
X47618817Y62363183D01*
X47646955Y62397468D01*
X47729411Y62497941D01*
X47811589Y62651686D01*
X47862195Y62818510D01*
X47865080Y62847806D01*
X47875000Y62948523D01*
X47875000Y62948531D01*
X47879281Y62992000D01*
X47875000Y63035469D01*
X47875000Y64206182D01*
X48023744Y64106795D01*
X48212102Y64028774D01*
X48412061Y63989000D01*
X48615939Y63989000D01*
X48815898Y64028774D01*
X49004256Y64106795D01*
X49173774Y64220063D01*
X49317937Y64364226D01*
X49431205Y64533744D01*
X49509226Y64722102D01*
X49520535Y64778957D01*
X51045044Y66303465D01*
X51101898Y66314774D01*
X51290256Y66392795D01*
X51459774Y66506063D01*
X51603937Y66650226D01*
X51717205Y66819744D01*
X51795226Y67008102D01*
X51835000Y67208061D01*
X51835000Y67411939D01*
X51795226Y67611898D01*
X51717205Y67800256D01*
X51603937Y67969774D01*
X51518711Y68055000D01*
X51601637Y68055000D01*
X51840236Y68102460D01*
X52064992Y68195557D01*
X52267267Y68330713D01*
X52439287Y68502733D01*
X52574443Y68705008D01*
X52667540Y68929764D01*
X52715000Y69168363D01*
X52715000Y69411637D01*
X52667540Y69650236D01*
X52574443Y69874992D01*
X52439287Y70077267D01*
X52267267Y70249287D01*
X52064992Y70384443D01*
X51840236Y70477540D01*
X51601637Y70525000D01*
X51358363Y70525000D01*
X51119764Y70477540D01*
X50895008Y70384443D01*
X50692733Y70249287D01*
X50520713Y70077267D01*
X50385557Y69874992D01*
X50292460Y69650236D01*
X50245000Y69411637D01*
X50245000Y69168363D01*
X50292460Y68929764D01*
X50385557Y68705008D01*
X50520713Y68502733D01*
X50681700Y68341746D01*
X50498102Y68305226D01*
X50309744Y68227205D01*
X50140226Y68113937D01*
X49996063Y67969774D01*
X49882795Y67800256D01*
X49804774Y67611898D01*
X49793465Y67555044D01*
X48268957Y66030535D01*
X48212102Y66019226D01*
X48023744Y65941205D01*
X47875000Y65841818D01*
X47875000Y66250531D01*
X47879281Y66294000D01*
X47875000Y66337469D01*
X47875000Y66337477D01*
X47862195Y66467490D01*
X47837772Y66548000D01*
X47811589Y66634314D01*
X47729411Y66788059D01*
X47706529Y66815940D01*
X47618817Y66922817D01*
X47585044Y66950534D01*
X47097164Y67438414D01*
X47069447Y67472187D01*
X46934689Y67582781D01*
X46780943Y67664959D01*
X46614120Y67715565D01*
X46484107Y67728370D01*
X46484099Y67728370D01*
X46440630Y67732651D01*
X46397161Y67728370D01*
X44054579Y67728370D01*
X42371312Y69411637D01*
X45165000Y69411637D01*
X45165000Y69168363D01*
X45212460Y68929764D01*
X45305557Y68705008D01*
X45440713Y68502733D01*
X45612733Y68330713D01*
X45815008Y68195557D01*
X46039764Y68102460D01*
X46278363Y68055000D01*
X46521637Y68055000D01*
X46760236Y68102460D01*
X46984992Y68195557D01*
X47187267Y68330713D01*
X47359287Y68502733D01*
X47494443Y68705008D01*
X47587540Y68929764D01*
X47635000Y69168363D01*
X47635000Y69411637D01*
X47705000Y69411637D01*
X47705000Y69168363D01*
X47752460Y68929764D01*
X47845557Y68705008D01*
X47980713Y68502733D01*
X48152733Y68330713D01*
X48355008Y68195557D01*
X48579764Y68102460D01*
X48818363Y68055000D01*
X49061637Y68055000D01*
X49300236Y68102460D01*
X49524992Y68195557D01*
X49727267Y68330713D01*
X49899287Y68502733D01*
X50034443Y68705008D01*
X50127540Y68929764D01*
X50175000Y69168363D01*
X50175000Y69411637D01*
X50127540Y69650236D01*
X50034443Y69874992D01*
X49899287Y70077267D01*
X49727267Y70249287D01*
X49524992Y70384443D01*
X49300236Y70477540D01*
X49061637Y70525000D01*
X48818363Y70525000D01*
X48579764Y70477540D01*
X48355008Y70384443D01*
X48152733Y70249287D01*
X47980713Y70077267D01*
X47845557Y69874992D01*
X47752460Y69650236D01*
X47705000Y69411637D01*
X47635000Y69411637D01*
X47587540Y69650236D01*
X47494443Y69874992D01*
X47359287Y70077267D01*
X47187267Y70249287D01*
X46984992Y70384443D01*
X46760236Y70477540D01*
X46521637Y70525000D01*
X46278363Y70525000D01*
X46039764Y70477540D01*
X45815008Y70384443D01*
X45612733Y70249287D01*
X45440713Y70077267D01*
X45305557Y69874992D01*
X45212460Y69650236D01*
X45165000Y69411637D01*
X42371312Y69411637D01*
X40437904Y71345044D01*
X40410187Y71378817D01*
X40275429Y71489411D01*
X40121683Y71571589D01*
X39954860Y71622195D01*
X39824847Y71635000D01*
X39824839Y71635000D01*
X39781681Y71639250D01*
X39764637Y71664759D01*
X39696708Y71732688D01*
X40950665Y71733352D01*
X40967254Y71716878D01*
X41013845Y71669300D01*
X41021752Y71662758D01*
X41142746Y71564078D01*
X41198270Y71527188D01*
X41253198Y71489578D01*
X41262222Y71484698D01*
X41262230Y71484694D01*
X41400082Y71411397D01*
X41461712Y71385995D01*
X41522904Y71359768D01*
X41532699Y71356735D01*
X41532705Y71356733D01*
X41532711Y71356732D01*
X41682176Y71311606D01*
X41747554Y71298661D01*
X41812683Y71284817D01*
X41822889Y71283744D01*
X41978276Y71268508D01*
X41978277Y71268508D01*
X42013895Y71265000D01*
X52286105Y71265000D01*
X52322515Y71268586D01*
X52332894Y71268586D01*
X52343100Y71269659D01*
X52498259Y71287063D01*
X52563407Y71300910D01*
X52628767Y71313852D01*
X52638571Y71316887D01*
X52787395Y71364097D01*
X52848630Y71390342D01*
X52910214Y71415725D01*
X52919237Y71420604D01*
X52919242Y71420606D01*
X52919246Y71420609D01*
X53056061Y71495823D01*
X53111062Y71533482D01*
X53166516Y71570326D01*
X53174424Y71576867D01*
X53294028Y71677227D01*
X53340651Y71724838D01*
X53355835Y71739916D01*
X54918552Y71740743D01*
X54953509Y71698488D01*
%TA.AperFunction,Conductor*%
D33*
G36*
X54953509Y71698488D02*
G01*
X55000815Y71651511D01*
X55047386Y71603954D01*
X55055293Y71597412D01*
X55142258Y71526485D01*
X55197780Y71489597D01*
X55252714Y71451983D01*
X55261741Y71447101D01*
X55360826Y71394417D01*
X55422461Y71369013D01*
X55483644Y71342790D01*
X55493445Y71339756D01*
X55493449Y71339754D01*
X55493453Y71339753D01*
X55600877Y71307320D01*
X55666255Y71294375D01*
X55731384Y71280531D01*
X55741590Y71279458D01*
X55765001Y71277163D01*
X55765001Y65382633D01*
X55578574Y65459853D01*
X55301335Y65515000D01*
X55018665Y65515000D01*
X54741426Y65459853D01*
X54480273Y65351680D01*
X54245241Y65194637D01*
X54128037Y65077433D01*
X54119853Y65118574D01*
X54011680Y65379727D01*
X53854637Y65614759D01*
X53654759Y65814637D01*
X53419727Y65971680D01*
X53158574Y66079853D01*
X52881335Y66135000D01*
X52598665Y66135000D01*
X52321426Y66079853D01*
X52060273Y65971680D01*
X51825241Y65814637D01*
X51625363Y65614759D01*
X51468320Y65379727D01*
X51360147Y65118574D01*
X51305000Y64841335D01*
X51305000Y64558665D01*
X51360147Y64281426D01*
X51468320Y64020273D01*
X51625363Y63785241D01*
X51825241Y63585363D01*
X52057759Y63430000D01*
X51825241Y63274637D01*
X51625363Y63074759D01*
X51468320Y62839727D01*
X51360147Y62578574D01*
X51305000Y62301335D01*
X51305000Y62018665D01*
X51360147Y61741426D01*
X51468320Y61480273D01*
X51625363Y61245241D01*
X51825241Y61045363D01*
X52057759Y60890000D01*
X51825241Y60734637D01*
X51625363Y60534759D01*
X51605479Y60505000D01*
X51535469Y60505000D01*
X51492000Y60509281D01*
X51448531Y60505000D01*
X51448523Y60505000D01*
X51318510Y60492195D01*
X51151687Y60441589D01*
X51047795Y60386058D01*
X50997941Y60359411D01*
X50896953Y60276532D01*
X50896951Y60276530D01*
X50863183Y60248817D01*
X50835470Y60215049D01*
X49544951Y58924529D01*
X49511184Y58896817D01*
X49483471Y58863049D01*
X49483468Y58863046D01*
X49400590Y58762059D01*
X49318412Y58608313D01*
X49267805Y58441490D01*
X49250719Y58268000D01*
X49255001Y58224521D01*
X49255000Y55544521D01*
X49225241Y55524637D01*
X49025363Y55324759D01*
X48890000Y55122173D01*
X48754637Y55324759D01*
X48554759Y55524637D01*
X48319727Y55681680D01*
X48058574Y55789853D01*
X47781335Y55845000D01*
X47498665Y55845000D01*
X47221426Y55789853D01*
X46960273Y55681680D01*
X46725241Y55524637D01*
X46525363Y55324759D01*
X46368320Y55089727D01*
X46260147Y54828574D01*
X46205000Y54551335D01*
X46205000Y54268665D01*
X46260147Y53991426D01*
X46368320Y53730273D01*
X46525363Y53495241D01*
X46725241Y53295363D01*
X46960273Y53138320D01*
X47221426Y53030147D01*
X47498665Y52975000D01*
X47781335Y52975000D01*
X48058574Y53030147D01*
X48319727Y53138320D01*
X48554759Y53295363D01*
X48754637Y53495241D01*
X48890000Y53697827D01*
X49025363Y53495241D01*
X49225241Y53295363D01*
X49460273Y53138320D01*
X49721426Y53030147D01*
X49998665Y52975000D01*
X50281335Y52975000D01*
X50558574Y53030147D01*
X50819727Y53138320D01*
X51054759Y53295363D01*
X51254637Y53495241D01*
X51411680Y53730273D01*
X51519853Y53991426D01*
X51575000Y54268665D01*
X51575000Y54551335D01*
X51519853Y54828574D01*
X51411680Y55089727D01*
X51254637Y55324759D01*
X51054759Y55524637D01*
X51025000Y55544521D01*
X51025000Y57901422D01*
X51727091Y58603513D01*
X51825241Y58505363D01*
X52057759Y58350000D01*
X51825241Y58194637D01*
X51625363Y57994759D01*
X51468320Y57759727D01*
X51360147Y57498574D01*
X51305000Y57221335D01*
X51305000Y56938665D01*
X51360147Y56661426D01*
X51468320Y56400273D01*
X51625363Y56165241D01*
X51825241Y55965363D01*
X52060273Y55808320D01*
X52321426Y55700147D01*
X52598665Y55645000D01*
X52881335Y55645000D01*
X53158574Y55700147D01*
X53419727Y55808320D01*
X53654759Y55965363D01*
X53854637Y56165241D01*
X54011680Y56400273D01*
X54119853Y56661426D01*
X54175000Y56938665D01*
X54175000Y57221335D01*
X54119853Y57498574D01*
X54011680Y57759727D01*
X53854637Y57994759D01*
X53654759Y58194637D01*
X53422241Y58350000D01*
X53654759Y58505363D01*
X53854637Y58705241D01*
X53874521Y58735000D01*
X53999020Y58735000D01*
X54003038Y58728987D01*
X54188987Y58543038D01*
X54407641Y58396939D01*
X54650595Y58296304D01*
X54908514Y58245000D01*
X55171486Y58245000D01*
X55429405Y58296304D01*
X55672359Y58396939D01*
X55765001Y58458840D01*
X55765001Y53081160D01*
X55672359Y53143061D01*
X55429405Y53243696D01*
X55171486Y53295000D01*
X54908514Y53295000D01*
X54650595Y53243696D01*
X54407641Y53143061D01*
X54188987Y52996962D01*
X54003038Y52811013D01*
X53912451Y52675439D01*
X53881680Y52749727D01*
X53724637Y52984759D01*
X53524759Y53184637D01*
X53289727Y53341680D01*
X53028574Y53449853D01*
X52751335Y53505000D01*
X52468665Y53505000D01*
X52191426Y53449853D01*
X51930273Y53341680D01*
X51695241Y53184637D01*
X51495363Y52984759D01*
X51338320Y52749727D01*
X51230147Y52488574D01*
X51175000Y52211335D01*
X51175000Y51928665D01*
X51181983Y51893561D01*
X50993421Y51704999D01*
X46574580Y51704999D01*
X46005000Y52274578D01*
X46005000Y55945479D01*
X46034759Y55965363D01*
X46234637Y56165241D01*
X46391680Y56400273D01*
X46499853Y56661426D01*
X46555000Y56938665D01*
X46555000Y57221335D01*
X46499853Y57498574D01*
X46391680Y57759727D01*
X46234637Y57994759D01*
X46034759Y58194637D01*
X45802241Y58350000D01*
X46034759Y58505363D01*
X46234637Y58705241D01*
X46391680Y58940273D01*
X46499853Y59201426D01*
X46555000Y59478665D01*
X46555000Y59761335D01*
X46499853Y60038574D01*
X46391680Y60299727D01*
X46234637Y60534759D01*
X46034759Y60734637D01*
X45802241Y60890000D01*
X46034759Y61045363D01*
X46234637Y61245241D01*
X46258258Y61280592D01*
X46331490Y61287805D01*
X46498313Y61338411D01*
X46652059Y61420589D01*
X46786817Y61531183D01*
X46814534Y61564956D01*
X47585050Y62335471D01*
X47618817Y62363183D01*
X47646955Y62397468D01*
X47729411Y62497941D01*
X47811589Y62651686D01*
X47862195Y62818510D01*
X47865080Y62847806D01*
X47875000Y62948523D01*
X47875000Y62948531D01*
X47879281Y62992000D01*
X47875000Y63035469D01*
X47875000Y64206182D01*
X48023744Y64106795D01*
X48212102Y64028774D01*
X48412061Y63989000D01*
X48615939Y63989000D01*
X48815898Y64028774D01*
X49004256Y64106795D01*
X49173774Y64220063D01*
X49317937Y64364226D01*
X49431205Y64533744D01*
X49509226Y64722102D01*
X49520535Y64778957D01*
X51045044Y66303465D01*
X51101898Y66314774D01*
X51290256Y66392795D01*
X51459774Y66506063D01*
X51603937Y66650226D01*
X51717205Y66819744D01*
X51795226Y67008102D01*
X51835000Y67208061D01*
X51835000Y67411939D01*
X51795226Y67611898D01*
X51717205Y67800256D01*
X51603937Y67969774D01*
X51518711Y68055000D01*
X51601637Y68055000D01*
X51840236Y68102460D01*
X52064992Y68195557D01*
X52267267Y68330713D01*
X52439287Y68502733D01*
X52574443Y68705008D01*
X52667540Y68929764D01*
X52715000Y69168363D01*
X52715000Y69411637D01*
X52667540Y69650236D01*
X52574443Y69874992D01*
X52439287Y70077267D01*
X52267267Y70249287D01*
X52064992Y70384443D01*
X51840236Y70477540D01*
X51601637Y70525000D01*
X51358363Y70525000D01*
X51119764Y70477540D01*
X50895008Y70384443D01*
X50692733Y70249287D01*
X50520713Y70077267D01*
X50385557Y69874992D01*
X50292460Y69650236D01*
X50245000Y69411637D01*
X50245000Y69168363D01*
X50292460Y68929764D01*
X50385557Y68705008D01*
X50520713Y68502733D01*
X50681700Y68341746D01*
X50498102Y68305226D01*
X50309744Y68227205D01*
X50140226Y68113937D01*
X49996063Y67969774D01*
X49882795Y67800256D01*
X49804774Y67611898D01*
X49793465Y67555044D01*
X48268957Y66030535D01*
X48212102Y66019226D01*
X48023744Y65941205D01*
X47875000Y65841818D01*
X47875000Y66250531D01*
X47879281Y66294000D01*
X47875000Y66337469D01*
X47875000Y66337477D01*
X47862195Y66467490D01*
X47837772Y66548000D01*
X47811589Y66634314D01*
X47729411Y66788059D01*
X47706529Y66815940D01*
X47618817Y66922817D01*
X47585044Y66950534D01*
X47097164Y67438414D01*
X47069447Y67472187D01*
X46934689Y67582781D01*
X46780943Y67664959D01*
X46614120Y67715565D01*
X46484107Y67728370D01*
X46484099Y67728370D01*
X46440630Y67732651D01*
X46397161Y67728370D01*
X44054579Y67728370D01*
X42371312Y69411637D01*
X45165000Y69411637D01*
X45165000Y69168363D01*
X45212460Y68929764D01*
X45305557Y68705008D01*
X45440713Y68502733D01*
X45612733Y68330713D01*
X45815008Y68195557D01*
X46039764Y68102460D01*
X46278363Y68055000D01*
X46521637Y68055000D01*
X46760236Y68102460D01*
X46984992Y68195557D01*
X47187267Y68330713D01*
X47359287Y68502733D01*
X47494443Y68705008D01*
X47587540Y68929764D01*
X47635000Y69168363D01*
X47635000Y69411637D01*
X47705000Y69411637D01*
X47705000Y69168363D01*
X47752460Y68929764D01*
X47845557Y68705008D01*
X47980713Y68502733D01*
X48152733Y68330713D01*
X48355008Y68195557D01*
X48579764Y68102460D01*
X48818363Y68055000D01*
X49061637Y68055000D01*
X49300236Y68102460D01*
X49524992Y68195557D01*
X49727267Y68330713D01*
X49899287Y68502733D01*
X50034443Y68705008D01*
X50127540Y68929764D01*
X50175000Y69168363D01*
X50175000Y69411637D01*
X50127540Y69650236D01*
X50034443Y69874992D01*
X49899287Y70077267D01*
X49727267Y70249287D01*
X49524992Y70384443D01*
X49300236Y70477540D01*
X49061637Y70525000D01*
X48818363Y70525000D01*
X48579764Y70477540D01*
X48355008Y70384443D01*
X48152733Y70249287D01*
X47980713Y70077267D01*
X47845557Y69874992D01*
X47752460Y69650236D01*
X47705000Y69411637D01*
X47635000Y69411637D01*
X47587540Y69650236D01*
X47494443Y69874992D01*
X47359287Y70077267D01*
X47187267Y70249287D01*
X46984992Y70384443D01*
X46760236Y70477540D01*
X46521637Y70525000D01*
X46278363Y70525000D01*
X46039764Y70477540D01*
X45815008Y70384443D01*
X45612733Y70249287D01*
X45440713Y70077267D01*
X45305557Y69874992D01*
X45212460Y69650236D01*
X45165000Y69411637D01*
X42371312Y69411637D01*
X40437904Y71345044D01*
X40410187Y71378817D01*
X40275429Y71489411D01*
X40121683Y71571589D01*
X39954860Y71622195D01*
X39824847Y71635000D01*
X39824839Y71635000D01*
X39781681Y71639250D01*
X39764637Y71664759D01*
X39696708Y71732688D01*
X40950665Y71733352D01*
X40967254Y71716878D01*
X41013845Y71669300D01*
X41021752Y71662758D01*
X41142746Y71564078D01*
X41198270Y71527188D01*
X41253198Y71489578D01*
X41262222Y71484698D01*
X41262230Y71484694D01*
X41400082Y71411397D01*
X41461712Y71385995D01*
X41522904Y71359768D01*
X41532699Y71356735D01*
X41532705Y71356733D01*
X41532711Y71356732D01*
X41682176Y71311606D01*
X41747554Y71298661D01*
X41812683Y71284817D01*
X41822889Y71283744D01*
X41978276Y71268508D01*
X41978277Y71268508D01*
X42013895Y71265000D01*
X52286105Y71265000D01*
X52322515Y71268586D01*
X52332894Y71268586D01*
X52343100Y71269659D01*
X52498259Y71287063D01*
X52563407Y71300910D01*
X52628767Y71313852D01*
X52638571Y71316887D01*
X52787395Y71364097D01*
X52848630Y71390342D01*
X52910214Y71415725D01*
X52919237Y71420604D01*
X52919242Y71420606D01*
X52919246Y71420609D01*
X53056061Y71495823D01*
X53111062Y71533482D01*
X53166516Y71570326D01*
X53174424Y71576867D01*
X53294028Y71677227D01*
X53340651Y71724838D01*
X53355835Y71739916D01*
X54918552Y71740743D01*
X54953509Y71698488D01*
G37*
%TD.AperFunction*%
D32*
X12725000Y67838665D02*
X12780147Y67561426D01*
X12888320Y67300273D01*
X13045363Y67065241D01*
X13245241Y66865363D01*
X13477759Y66710000D01*
X13245241Y66554637D01*
X13045363Y66354759D01*
X12888320Y66119727D01*
X12780147Y65858574D01*
X12725000Y65581335D01*
X12725000Y65298665D01*
X12731983Y65263561D01*
X9491447Y62023025D01*
X5678477Y62023025D01*
X5577228Y62090677D01*
X5381591Y62171713D01*
X5173903Y62213025D01*
X5055000Y62213025D01*
X5055000Y63123422D01*
X5380596Y63449018D01*
X5434510Y63426686D01*
X5704408Y63373000D01*
X5979592Y63373000D01*
X6249490Y63426686D01*
X6503727Y63531995D01*
X6732535Y63684880D01*
X6927120Y63879465D01*
X7080005Y64108273D01*
X7185314Y64362510D01*
X7239000Y64632408D01*
X7292686Y64362510D01*
X7397995Y64108273D01*
X7550880Y63879465D01*
X7745465Y63684880D01*
X7974273Y63531995D01*
X8228510Y63426686D01*
X8498408Y63373000D01*
X8773592Y63373000D01*
X9043490Y63426686D01*
X9297727Y63531995D01*
X9526535Y63684880D01*
X9721120Y63879465D01*
X9874005Y64108273D01*
X9979314Y64362510D01*
X10033000Y64632408D01*
X10033000Y64907592D01*
X9979314Y65177490D01*
X9893426Y65384841D01*
X9900537Y65393506D01*
X9959502Y65503820D01*
X9995812Y65623518D01*
X10008072Y65748000D01*
X10008072Y67348000D01*
X9997761Y67452697D01*
X10116523Y67441000D01*
X10116531Y67441000D01*
X10160000Y67436719D01*
X10203469Y67441000D01*
X11894531Y67441000D01*
X11938000Y67436719D01*
X11981469Y67441000D01*
X11981477Y67441000D01*
X12111490Y67453805D01*
X12278313Y67504411D01*
X12432059Y67586589D01*
X12566817Y67697183D01*
X12594534Y67730956D01*
X12725000Y67861422D01*
X12725000Y67838665D01*
%TA.AperFunction,Conductor*%
D33*
G36*
X12725000Y67838665D02*
G01*
X12780147Y67561426D01*
X12888320Y67300273D01*
X13045363Y67065241D01*
X13245241Y66865363D01*
X13477759Y66710000D01*
X13245241Y66554637D01*
X13045363Y66354759D01*
X12888320Y66119727D01*
X12780147Y65858574D01*
X12725000Y65581335D01*
X12725000Y65298665D01*
X12731983Y65263561D01*
X9491447Y62023025D01*
X5678477Y62023025D01*
X5577228Y62090677D01*
X5381591Y62171713D01*
X5173903Y62213025D01*
X5055000Y62213025D01*
X5055000Y63123422D01*
X5380596Y63449018D01*
X5434510Y63426686D01*
X5704408Y63373000D01*
X5979592Y63373000D01*
X6249490Y63426686D01*
X6503727Y63531995D01*
X6732535Y63684880D01*
X6927120Y63879465D01*
X7080005Y64108273D01*
X7185314Y64362510D01*
X7239000Y64632408D01*
X7292686Y64362510D01*
X7397995Y64108273D01*
X7550880Y63879465D01*
X7745465Y63684880D01*
X7974273Y63531995D01*
X8228510Y63426686D01*
X8498408Y63373000D01*
X8773592Y63373000D01*
X9043490Y63426686D01*
X9297727Y63531995D01*
X9526535Y63684880D01*
X9721120Y63879465D01*
X9874005Y64108273D01*
X9979314Y64362510D01*
X10033000Y64632408D01*
X10033000Y64907592D01*
X9979314Y65177490D01*
X9893426Y65384841D01*
X9900537Y65393506D01*
X9959502Y65503820D01*
X9995812Y65623518D01*
X10008072Y65748000D01*
X10008072Y67348000D01*
X9997761Y67452697D01*
X10116523Y67441000D01*
X10116531Y67441000D01*
X10160000Y67436719D01*
X10203469Y67441000D01*
X11894531Y67441000D01*
X11938000Y67436719D01*
X11981469Y67441000D01*
X11981477Y67441000D01*
X12111490Y67453805D01*
X12278313Y67504411D01*
X12432059Y67586589D01*
X12566817Y67697183D01*
X12594534Y67730956D01*
X12725000Y67861422D01*
X12725000Y67838665D01*
G37*
%TD.AperFunction*%
D32*
X33040226Y71653937D02*
X32896063Y71509774D01*
X32782795Y71340256D01*
X32704774Y71151898D01*
X32665000Y70951939D01*
X32665000Y70748061D01*
X32704774Y70548102D01*
X32782795Y70359744D01*
X32896063Y70190226D01*
X33040226Y70046063D01*
X33209744Y69932795D01*
X33398102Y69854774D01*
X33598061Y69815000D01*
X33801939Y69815000D01*
X34001898Y69854774D01*
X34190256Y69932795D01*
X34238454Y69965000D01*
X35058422Y69965000D01*
X35736208Y69287213D01*
X35639727Y69351680D01*
X35378574Y69459853D01*
X35101335Y69515000D01*
X34818665Y69515000D01*
X34541426Y69459853D01*
X34280273Y69351680D01*
X34045241Y69194637D01*
X33845363Y68994759D01*
X33688320Y68759727D01*
X33580147Y68498574D01*
X33525000Y68221335D01*
X33525000Y67938665D01*
X33580147Y67661426D01*
X33688320Y67400273D01*
X33845363Y67165241D01*
X34045241Y66965363D01*
X34280273Y66808320D01*
X34541426Y66700147D01*
X34818665Y66645000D01*
X35101335Y66645000D01*
X35378574Y66700147D01*
X35639727Y66808320D01*
X35874759Y66965363D01*
X36074637Y67165241D01*
X36231680Y67400273D01*
X36339853Y67661426D01*
X36395000Y67938665D01*
X36395000Y68221335D01*
X36339853Y68498574D01*
X36231680Y68759727D01*
X36167214Y68856208D01*
X38248470Y66774951D01*
X38276183Y66741183D01*
X38309951Y66713470D01*
X38309953Y66713468D01*
X38363064Y66669881D01*
X38410941Y66630589D01*
X38564687Y66548411D01*
X38731510Y66497805D01*
X38861523Y66485000D01*
X38861533Y66485000D01*
X38904999Y66480719D01*
X38948465Y66485000D01*
X39717025Y66485000D01*
X39835000Y66367025D01*
X39835000Y65613507D01*
X39830719Y65570038D01*
X39835000Y65526569D01*
X39835000Y65526562D01*
X39844340Y65431727D01*
X39847805Y65396548D01*
X39861416Y65351680D01*
X39863315Y65345419D01*
X39831431Y65339077D01*
X39613955Y65248995D01*
X39418232Y65118217D01*
X39251783Y64951768D01*
X39121005Y64756045D01*
X39030923Y64538569D01*
X38985000Y64307697D01*
X38985000Y64246579D01*
X37640000Y62901578D01*
X36523901Y64017677D01*
X36499853Y64138574D01*
X36391680Y64399727D01*
X36234637Y64634759D01*
X36034759Y64834637D01*
X35799727Y64991680D01*
X35538574Y65099853D01*
X35261335Y65155000D01*
X34978665Y65155000D01*
X34701426Y65099853D01*
X34440273Y64991680D01*
X34205241Y64834637D01*
X34005363Y64634759D01*
X33985479Y64605000D01*
X33807885Y64605000D01*
X33774637Y64654759D01*
X33574759Y64854637D01*
X33339727Y65011680D01*
X33078574Y65119853D01*
X32801335Y65175000D01*
X32616579Y65175000D01*
X31168017Y66623561D01*
X31175000Y66658665D01*
X31175000Y66941335D01*
X31119853Y67218574D01*
X31011680Y67479727D01*
X30854637Y67714759D01*
X30654759Y67914637D01*
X30419727Y68071680D01*
X30158574Y68179853D01*
X29881335Y68235000D01*
X29598665Y68235000D01*
X29321426Y68179853D01*
X29060273Y68071680D01*
X28825241Y67914637D01*
X28625363Y67714759D01*
X28605479Y67685000D01*
X27716579Y67685000D01*
X23677366Y71724212D01*
X33152904Y71729226D01*
X33040226Y71653937D01*
%TA.AperFunction,Conductor*%
D33*
G36*
X33040226Y71653937D02*
G01*
X32896063Y71509774D01*
X32782795Y71340256D01*
X32704774Y71151898D01*
X32665000Y70951939D01*
X32665000Y70748061D01*
X32704774Y70548102D01*
X32782795Y70359744D01*
X32896063Y70190226D01*
X33040226Y70046063D01*
X33209744Y69932795D01*
X33398102Y69854774D01*
X33598061Y69815000D01*
X33801939Y69815000D01*
X34001898Y69854774D01*
X34190256Y69932795D01*
X34238454Y69965000D01*
X35058422Y69965000D01*
X35736208Y69287213D01*
X35639727Y69351680D01*
X35378574Y69459853D01*
X35101335Y69515000D01*
X34818665Y69515000D01*
X34541426Y69459853D01*
X34280273Y69351680D01*
X34045241Y69194637D01*
X33845363Y68994759D01*
X33688320Y68759727D01*
X33580147Y68498574D01*
X33525000Y68221335D01*
X33525000Y67938665D01*
X33580147Y67661426D01*
X33688320Y67400273D01*
X33845363Y67165241D01*
X34045241Y66965363D01*
X34280273Y66808320D01*
X34541426Y66700147D01*
X34818665Y66645000D01*
X35101335Y66645000D01*
X35378574Y66700147D01*
X35639727Y66808320D01*
X35874759Y66965363D01*
X36074637Y67165241D01*
X36231680Y67400273D01*
X36339853Y67661426D01*
X36395000Y67938665D01*
X36395000Y68221335D01*
X36339853Y68498574D01*
X36231680Y68759727D01*
X36167214Y68856208D01*
X38248470Y66774951D01*
X38276183Y66741183D01*
X38309951Y66713470D01*
X38309953Y66713468D01*
X38363064Y66669881D01*
X38410941Y66630589D01*
X38564687Y66548411D01*
X38731510Y66497805D01*
X38861523Y66485000D01*
X38861533Y66485000D01*
X38904999Y66480719D01*
X38948465Y66485000D01*
X39717025Y66485000D01*
X39835000Y66367025D01*
X39835000Y65613507D01*
X39830719Y65570038D01*
X39835000Y65526569D01*
X39835000Y65526562D01*
X39844340Y65431727D01*
X39847805Y65396548D01*
X39861416Y65351680D01*
X39863315Y65345419D01*
X39831431Y65339077D01*
X39613955Y65248995D01*
X39418232Y65118217D01*
X39251783Y64951768D01*
X39121005Y64756045D01*
X39030923Y64538569D01*
X38985000Y64307697D01*
X38985000Y64246579D01*
X37640000Y62901578D01*
X36523901Y64017677D01*
X36499853Y64138574D01*
X36391680Y64399727D01*
X36234637Y64634759D01*
X36034759Y64834637D01*
X35799727Y64991680D01*
X35538574Y65099853D01*
X35261335Y65155000D01*
X34978665Y65155000D01*
X34701426Y65099853D01*
X34440273Y64991680D01*
X34205241Y64834637D01*
X34005363Y64634759D01*
X33985479Y64605000D01*
X33807885Y64605000D01*
X33774637Y64654759D01*
X33574759Y64854637D01*
X33339727Y65011680D01*
X33078574Y65119853D01*
X32801335Y65175000D01*
X32616579Y65175000D01*
X31168017Y66623561D01*
X31175000Y66658665D01*
X31175000Y66941335D01*
X31119853Y67218574D01*
X31011680Y67479727D01*
X30854637Y67714759D01*
X30654759Y67914637D01*
X30419727Y68071680D01*
X30158574Y68179853D01*
X29881335Y68235000D01*
X29598665Y68235000D01*
X29321426Y68179853D01*
X29060273Y68071680D01*
X28825241Y67914637D01*
X28625363Y67714759D01*
X28605479Y67685000D01*
X27716579Y67685000D01*
X23677366Y71724212D01*
X33152904Y71729226D01*
X33040226Y71653937D01*
G37*
%TD.AperFunction*%
%TD*%
M02*
