%TF.GenerationSoftware,KiCad,Pcbnew,(5.1.9)-1*%
%TF.CreationDate,2021-05-27T19:58:41+02:00*%
%TF.ProjectId,DifferentialProbe,44696666-6572-4656-9e74-69616c50726f,rev?*%
%TF.SameCoordinates,Original*%
%TF.FileFunction,Copper,L2,Bot*%
%TF.FilePolarity,Positive*%
%FSLAX46Y46*%
G04 Gerber Fmt 4.6, Leading zero omitted, Abs format (unit mm)*
G04 Created by KiCad (PCBNEW (5.1.9)-1) date 2021-05-27 19:58:41*
%MOMM*%
%LPD*%
G01*
G04 APERTURE LIST*
%TA.AperFunction,ComponentPad*%
%ADD10C,1.524000*%
%TD*%
%TA.AperFunction,ComponentPad*%
%ADD11C,1.200000*%
%TD*%
%TA.AperFunction,ComponentPad*%
%ADD12C,1.371600*%
%TD*%
%TA.AperFunction,ComponentPad*%
%ADD13C,1.600000*%
%TD*%
%TA.AperFunction,ComponentPad*%
%ADD14O,1.600000X1.600000*%
%TD*%
%TA.AperFunction,ComponentPad*%
%ADD15R,1.600000X1.600000*%
%TD*%
%TA.AperFunction,ComponentPad*%
%ADD16C,0.880000*%
%TD*%
%TA.AperFunction,ComponentPad*%
%ADD17C,3.285000*%
%TD*%
%TA.AperFunction,ComponentPad*%
%ADD18C,1.120000*%
%TD*%
%TA.AperFunction,ComponentPad*%
%ADD19O,1.400000X1.400000*%
%TD*%
%TA.AperFunction,ComponentPad*%
%ADD20C,1.400000*%
%TD*%
%TA.AperFunction,ComponentPad*%
%ADD21O,1.200000X1.200000*%
%TD*%
%TA.AperFunction,ComponentPad*%
%ADD22O,1.600000X1.200000*%
%TD*%
%TA.AperFunction,ComponentPad*%
%ADD23C,1.800000*%
%TD*%
%TA.AperFunction,ComponentPad*%
%ADD24R,1.800000X1.800000*%
%TD*%
%TA.AperFunction,ComponentPad*%
%ADD25R,1.270000X1.270000*%
%TD*%
%TA.AperFunction,ComponentPad*%
%ADD26C,1.270000*%
%TD*%
%TA.AperFunction,ViaPad*%
%ADD27C,0.800000*%
%TD*%
%TA.AperFunction,Conductor*%
%ADD28C,0.500000*%
%TD*%
%TA.AperFunction,Conductor*%
%ADD29C,1.000000*%
%TD*%
%TA.AperFunction,Conductor*%
%ADD30C,0.254000*%
%TD*%
%TA.AperFunction,Conductor*%
%ADD31C,0.100000*%
%TD*%
G04 APERTURE END LIST*
D10*
%TO.P,J8,1*%
%TO.N,+9V*%
X55110000Y62718000D03*
%TD*%
%TO.P,J7,1*%
%TO.N,+9V*%
X27780000Y75010000D03*
%TD*%
%TO.P,J6,1*%
%TO.N,Net-(C11-Pad1)*%
X5842000Y64770000D03*
%TD*%
%TO.P,J5,1*%
%TO.N,Net-(C10-Pad1)*%
X8636000Y64770000D03*
%TD*%
%TO.P,J4,1*%
%TO.N,Net-(C11-Pad1)*%
X19304000Y79248000D03*
%TD*%
%TO.P,J3,1*%
%TO.N,Net-(C10-Pad1)*%
X37338000Y79502000D03*
%TD*%
D11*
%TO.P,RV4,1*%
%TO.N,Net-(RV4-Pad1)*%
X46400000Y69290000D03*
%TO.P,RV4,2*%
%TO.N,-9V*%
X48940000Y69290000D03*
%TO.P,RV4,3*%
%TO.N,Net-(RV4-Pad3)*%
X51480000Y69290000D03*
%TD*%
D12*
%TO.P,RV2,1*%
%TO.N,Net-(RV2-Pad1)*%
X19650000Y46170000D03*
%TO.P,RV2,2*%
X19650000Y48710000D03*
%TO.P,RV2,3*%
%TO.N,Net-(R8-Pad1)*%
X19650000Y51250000D03*
%TD*%
D13*
%TO.P,C25,2*%
%TO.N,GND*%
X55160000Y69080000D03*
%TO.P,C25,1*%
%TO.N,+9V*%
X55160000Y64080000D03*
%TD*%
%TO.P,C15,2*%
%TO.N,Net-(C15-Pad2)*%
X35120000Y63720000D03*
%TO.P,C15,1*%
%TO.N,Net-(C15-Pad1)*%
X35120000Y61220000D03*
%TD*%
%TO.P,R1,2*%
%TO.N,Net-(R1-Pad2)*%
%TA.AperFunction,ComponentPad*%
G36*
G01*
X47406673Y88982954D02*
X47406673Y88982954D01*
G75*
G02*
X47603134Y87868771I-458861J-655322D01*
G01*
X47603134Y87868771D01*
G75*
G02*
X46488951Y87672310I-655322J458861D01*
G01*
X46488951Y87672310D01*
G75*
G02*
X46292490Y88786493I458861J655322D01*
G01*
X46292490Y88786493D01*
G75*
G02*
X47406673Y88982954I655322J-458861D01*
G01*
G37*
%TD.AperFunction*%
%TO.P,R1,1*%
%TO.N,Net-(C1-Pad2)*%
X52110000Y95700000D03*
%TD*%
D14*
%TO.P,U3,8*%
%TO.N,Net-(U3-Pad8)*%
X52740000Y64700000D03*
%TO.P,U3,4*%
%TO.N,-9V*%
X45120000Y57080000D03*
%TO.P,U3,7*%
%TO.N,+9V*%
X52740000Y62160000D03*
%TO.P,U3,3*%
%TO.N,Net-(R17-Pad2)*%
X45120000Y59620000D03*
%TO.P,U3,6*%
%TO.N,Net-(C23-Pad2)*%
X52740000Y59620000D03*
%TO.P,U3,2*%
%TO.N,Net-(C22-Pad2)*%
X45120000Y62160000D03*
%TO.P,U3,5*%
%TO.N,Net-(RV4-Pad1)*%
X52740000Y57080000D03*
D15*
%TO.P,U3,1*%
%TO.N,Net-(RV4-Pad3)*%
X45120000Y64700000D03*
%TD*%
D16*
%TO.P,U1,3*%
%TO.N,Net-(C10-Pad1)*%
X4170000Y58970000D03*
%TO.P,U1,2*%
%TO.N,Net-(R14-Pad2)*%
X3271975Y59341975D03*
%TO.P,U1,1*%
%TO.N,Net-(RV2-Pad1)*%
X2900000Y60240000D03*
%TO.P,U1,7*%
%TO.N,Net-(C11-Pad1)*%
X4170000Y61510000D03*
%TO.P,U1,6*%
%TO.N,Net-(R16-Pad2)*%
X5068025Y61138025D03*
%TO.P,U1,5*%
%TO.N,Net-(R9-Pad1)*%
X5440000Y60240000D03*
%TD*%
D11*
%TO.P,SW1,1*%
%TO.N,Net-(SW1-Pad1)*%
X33620000Y48390000D03*
%TO.P,SW1,2*%
%TO.N,Net-(R12-Pad2)*%
X33620000Y50390000D03*
%TO.P,SW1,3*%
%TO.N,Net-(C15-Pad1)*%
X33620000Y52390000D03*
D17*
%TO.P,SW1,MH1*%
%TO.N,N/C*%
X34870000Y43490000D03*
%TO.P,SW1,MH2*%
X34870000Y57290000D03*
%TD*%
D18*
%TO.P,RV3,1*%
%TO.N,Net-(C15-Pad2)*%
X37640000Y61650000D03*
%TO.P,RV3,2*%
X40180000Y64190000D03*
%TO.P,RV3,3*%
%TO.N,Net-(R10-Pad2)*%
X42720000Y61650000D03*
%TD*%
D14*
%TO.P,R22,2*%
%TO.N,Net-(C22-Pad2)*%
X38650000Y70750000D03*
D13*
%TO.P,R22,1*%
%TO.N,GND*%
X28490000Y70750000D03*
%TD*%
D14*
%TO.P,R21,2*%
%TO.N,Net-(C39-Pad1)*%
X55200000Y47920000D03*
D13*
%TO.P,R21,1*%
%TO.N,Net-(C22-Pad2)*%
X45040000Y47920000D03*
%TD*%
D19*
%TO.P,R20,2*%
%TO.N,Net-(R17-Pad2)*%
X40720000Y67370000D03*
D20*
%TO.P,R20,1*%
%TO.N,Net-(C22-Pad1)*%
X40720000Y74990000D03*
%TD*%
D14*
%TO.P,R19,2*%
%TO.N,Net-(C20-Pad2)*%
X15710000Y44990000D03*
D13*
%TO.P,R19,1*%
%TO.N,-9V*%
X5550000Y44990000D03*
%TD*%
D14*
%TO.P,R18,2*%
%TO.N,GND*%
X2450000Y45550000D03*
D13*
%TO.P,R18,1*%
%TO.N,Net-(Q2-Pad1)*%
X2450000Y48090000D03*
%TD*%
D14*
%TO.P,R17,2*%
%TO.N,Net-(R17-Pad2)*%
X14160000Y67980000D03*
D13*
%TO.P,R17,1*%
%TO.N,Net-(R16-Pad2)*%
X14160000Y65440000D03*
%TD*%
D14*
%TO.P,R16,2*%
%TO.N,Net-(R16-Pad2)*%
X17290000Y64980000D03*
D13*
%TO.P,R16,1*%
%TO.N,+9V*%
X17290000Y67520000D03*
%TD*%
D14*
%TO.P,R15,2*%
%TO.N,Net-(C22-Pad2)*%
X23500000Y75010000D03*
D13*
%TO.P,R15,1*%
%TO.N,Net-(R14-Pad2)*%
X23500000Y64850000D03*
%TD*%
D14*
%TO.P,R13,2*%
%TO.N,Net-(C15-Pad2)*%
X29740000Y66800000D03*
D13*
%TO.P,R13,1*%
%TO.N,Net-(Q1-Pad3)*%
X29740000Y56640000D03*
%TD*%
D14*
%TO.P,R12,2*%
%TO.N,Net-(R12-Pad2)*%
X27070000Y44480000D03*
D13*
%TO.P,R12,1*%
%TO.N,Net-(Q1-Pad3)*%
X27070000Y54640000D03*
%TD*%
D19*
%TO.P,R11,2*%
%TO.N,Net-(C15-Pad2)*%
X42770000Y56710000D03*
D20*
%TO.P,R11,1*%
%TO.N,Net-(C18-Pad2)*%
X42770000Y49090000D03*
%TD*%
D14*
%TO.P,R10,2*%
%TO.N,Net-(R10-Pad2)*%
X40080000Y56580000D03*
D13*
%TO.P,R10,1*%
%TO.N,Net-(C15-Pad1)*%
X40080000Y46420000D03*
%TD*%
D14*
%TO.P,R9,2*%
%TO.N,Net-(C15-Pad2)*%
X20460000Y74980000D03*
D13*
%TO.P,R9,1*%
%TO.N,Net-(R9-Pad1)*%
X20460000Y64820000D03*
%TD*%
D14*
%TO.P,R8,2*%
%TO.N,Net-(R12-Pad2)*%
X24010000Y54660000D03*
D13*
%TO.P,R8,1*%
%TO.N,Net-(R8-Pad1)*%
X24010000Y44500000D03*
%TD*%
D19*
%TO.P,R7,2*%
%TO.N,Net-(C23-Pad2)*%
X55040000Y59580000D03*
D20*
%TO.P,R7,1*%
%TO.N,Net-(C39-Pad1)*%
X55040000Y51960000D03*
%TD*%
D21*
%TO.P,Q2,3*%
%TO.N,Net-(Q1-Pad2)*%
X5310000Y53594000D03*
%TO.P,Q2,2*%
%TO.N,Net-(C20-Pad2)*%
X4040000Y52324000D03*
D22*
%TO.P,Q2,1*%
%TO.N,Net-(Q2-Pad1)*%
X2770000Y53594000D03*
%TD*%
D21*
%TO.P,Q1,3*%
%TO.N,Net-(Q1-Pad3)*%
X15100000Y58590000D03*
%TO.P,Q1,2*%
%TO.N,Net-(Q1-Pad2)*%
X13830000Y57320000D03*
D22*
%TO.P,Q1,1*%
%TO.N,Net-(Q1-Pad1)*%
X12560000Y58590000D03*
%TD*%
%TO.P,J2,1*%
%TO.N,GND*%
%TA.AperFunction,ComponentPad*%
G36*
G01*
X25370000Y34619999D02*
X25370000Y38520001D01*
G75*
G02*
X25619999Y38770000I249999J0D01*
G01*
X29520001Y38770000D01*
G75*
G02*
X29770000Y38520001I0J-249999D01*
G01*
X29770000Y34619999D01*
G75*
G02*
X29520001Y34370000I-249999J0D01*
G01*
X25619999Y34370000D01*
G75*
G02*
X25370000Y34619999I0J249999D01*
G01*
G37*
%TD.AperFunction*%
%TD*%
%TO.P,J1,1*%
%TO.N,Net-(C39-Pad1)*%
%TA.AperFunction,ComponentPad*%
G36*
G01*
X38210000Y34619999D02*
X38210000Y38520001D01*
G75*
G02*
X38459999Y38770000I249999J0D01*
G01*
X42360001Y38770000D01*
G75*
G02*
X42610000Y38520001I0J-249999D01*
G01*
X42610000Y34619999D01*
G75*
G02*
X42360001Y34370000I-249999J0D01*
G01*
X38459999Y34370000D01*
G75*
G02*
X38210000Y34619999I0J249999D01*
G01*
G37*
%TD.AperFunction*%
%TD*%
D23*
%TO.P,D3,2*%
%TO.N,GND*%
X13930000Y53050000D03*
D24*
%TO.P,D3,1*%
%TO.N,Net-(C20-Pad2)*%
X11390000Y53050000D03*
%TD*%
D13*
%TO.P,C39,2*%
%TO.N,GND*%
X50120000Y44890000D03*
%TO.P,C39,1*%
%TO.N,Net-(C39-Pad1)*%
X55120000Y44890000D03*
%TD*%
%TO.P,C26,2*%
%TO.N,GND*%
X47610000Y52070000D03*
%TO.P,C26,1*%
%TO.N,-9V*%
X52610000Y52070000D03*
%TD*%
%TO.P,C24,2*%
%TO.N,Net-(C22-Pad2)*%
X34960000Y68080000D03*
%TO.P,C24,1*%
%TO.N,GND*%
X32460000Y68080000D03*
%TD*%
%TO.P,C23,2*%
%TO.N,Net-(C23-Pad2)*%
X50140000Y54410000D03*
%TO.P,C23,1*%
%TO.N,Net-(C22-Pad2)*%
X47640000Y54410000D03*
%TD*%
%TO.P,C22,2*%
%TO.N,Net-(C22-Pad2)*%
X32740000Y74990000D03*
%TO.P,C22,1*%
%TO.N,Net-(C22-Pad1)*%
X35240000Y74990000D03*
%TD*%
%TO.P,C21,2*%
%TO.N,-9V*%
X15680000Y47890000D03*
%TO.P,C21,1*%
%TO.N,GND*%
X10680000Y47890000D03*
%TD*%
%TO.P,C20,2*%
%TO.N,Net-(C20-Pad2)*%
X8760000Y55990000D03*
%TO.P,C20,1*%
%TO.N,GND*%
X8760000Y50990000D03*
%TD*%
%TO.P,C18,2*%
%TO.N,Net-(C18-Pad2)*%
X42770000Y46990000D03*
%TO.P,C18,1*%
%TO.N,Net-(C15-Pad1)*%
X42770000Y44490000D03*
%TD*%
%TO.P,C17,2*%
%TO.N,Net-(C15-Pad2)*%
X32660000Y63740000D03*
%TO.P,C17,1*%
%TO.N,Net-(C15-Pad1)*%
X32660000Y61240000D03*
%TD*%
D14*
%TO.P,R14,2*%
%TO.N,Net-(R14-Pad2)*%
X26430000Y64840000D03*
D13*
%TO.P,R14,1*%
%TO.N,+9V*%
X26430000Y75000000D03*
%TD*%
D14*
%TO.P,D2,2*%
%TO.N,-9V*%
X5790000Y69088000D03*
D15*
%TO.P,D2,1*%
%TO.N,Net-(C11-Pad1)*%
X5790000Y66548000D03*
%TD*%
D14*
%TO.P,D1,2*%
%TO.N,-9V*%
X8570000Y69088000D03*
D15*
%TO.P,D1,1*%
%TO.N,Net-(C10-Pad1)*%
X8570000Y66548000D03*
%TD*%
D13*
%TO.P,C16,2*%
%TO.N,-9V*%
X3010000Y69990000D03*
%TO.P,C16,1*%
%TO.N,GND*%
X3010000Y64990000D03*
%TD*%
%TO.P,C19,2*%
%TO.N,GND*%
X11170000Y64990000D03*
%TO.P,C19,1*%
%TO.N,+9V*%
X11170000Y69990000D03*
%TD*%
D25*
%TO.P,RV1,1*%
%TO.N,Net-(R5-Pad2)*%
X29630000Y85550000D03*
D26*
%TO.P,RV1,2*%
%TO.N,GND*%
X27090000Y88090000D03*
%TO.P,RV1,3*%
%TO.N,Net-(R6-Pad1)*%
X29630000Y90630000D03*
%TD*%
D13*
%TO.P,C13,2*%
%TO.N,GND*%
X24120000Y85820000D03*
%TO.P,C13,1*%
%TO.N,Net-(C11-Pad1)*%
X21620000Y85820000D03*
%TD*%
%TO.P,C12,2*%
%TO.N,GND*%
X24120000Y87920000D03*
%TO.P,C12,1*%
%TO.N,Net-(C11-Pad1)*%
X21620000Y87920000D03*
%TD*%
%TO.P,C11,2*%
%TO.N,GND*%
X24120000Y90050000D03*
%TO.P,C11,1*%
%TO.N,Net-(C11-Pad1)*%
X21620000Y90050000D03*
%TD*%
%TO.P,C9,2*%
%TO.N,Net-(C10-Pad1)*%
X35110000Y85830000D03*
%TO.P,C9,1*%
%TO.N,GND*%
X32610000Y85830000D03*
%TD*%
%TO.P,C8,2*%
%TO.N,Net-(C10-Pad1)*%
X35110000Y87940000D03*
%TO.P,C8,1*%
%TO.N,GND*%
X32610000Y87940000D03*
%TD*%
%TO.P,C7,2*%
%TO.N,Net-(C10-Pad1)*%
X35110000Y90040000D03*
%TO.P,C7,1*%
%TO.N,GND*%
X32610000Y90040000D03*
%TD*%
%TO.P,R4b1,2*%
%TO.N,Net-(R4a1-Pad1)*%
%TA.AperFunction,ComponentPad*%
G36*
G01*
X16062873Y88047127D02*
X16062873Y88047127D01*
G75*
G02*
X15072923Y88047127I-494975J494975D01*
G01*
X15072923Y88047127D01*
G75*
G02*
X15072923Y89037077I494975J494975D01*
G01*
X15072923Y89037077D01*
G75*
G02*
X16062873Y89037077I494975J-494975D01*
G01*
X16062873Y89037077D01*
G75*
G02*
X16062873Y88047127I-494975J-494975D01*
G01*
G37*
%TD.AperFunction*%
D20*
%TO.P,R4b1,1*%
%TO.N,Net-(C11-Pad1)*%
X19160000Y84950000D03*
%TD*%
%TO.P,R4a1,2*%
%TO.N,Net-(R3-Pad2)*%
%TA.AperFunction,ComponentPad*%
G36*
G01*
X11404146Y85731952D02*
X11404146Y85731952D01*
G75*
G02*
X10985775Y84834753I-657785J-239414D01*
G01*
X10985775Y84834753D01*
G75*
G02*
X10088576Y85253124I-239414J657785D01*
G01*
X10088576Y85253124D01*
G75*
G02*
X10506947Y86150323I657785J239414D01*
G01*
X10506947Y86150323D01*
G75*
G02*
X11404146Y85731952I239414J-657785D01*
G01*
G37*
%TD.AperFunction*%
%TO.P,R4a1,1*%
%TO.N,Net-(R4a1-Pad1)*%
X15520000Y87230000D03*
%TD*%
D19*
%TO.P,R6,2*%
%TO.N,Net-(C11-Pad1)*%
X21580000Y92160000D03*
D20*
%TO.P,R6,1*%
%TO.N,Net-(R6-Pad1)*%
X24120000Y92160000D03*
%TD*%
D19*
%TO.P,R5,2*%
%TO.N,Net-(R5-Pad2)*%
X32510000Y92170000D03*
D20*
%TO.P,R5,1*%
%TO.N,Net-(C10-Pad1)*%
X35050000Y92170000D03*
%TD*%
%TO.P,R3,2*%
%TO.N,Net-(R3-Pad2)*%
%TA.AperFunction,ComponentPad*%
G36*
G01*
X9163327Y88602954D02*
X9163327Y88602954D01*
G75*
G02*
X10277510Y88406493I458861J-655322D01*
G01*
X10277510Y88406493D01*
G75*
G02*
X10081049Y87292310I-655322J-458861D01*
G01*
X10081049Y87292310D01*
G75*
G02*
X8966866Y87488771I-458861J655322D01*
G01*
X8966866Y87488771D01*
G75*
G02*
X9163327Y88602954I655322J458861D01*
G01*
G37*
%TD.AperFunction*%
D13*
%TO.P,R3,1*%
%TO.N,Net-(C4-Pad2)*%
X4460000Y95320000D03*
%TD*%
%TO.P,C6,2*%
%TO.N,Net-(C5-Pad1)*%
X9483942Y79817639D03*
%TO.P,C6,1*%
%TO.N,Net-(C11-Pad1)*%
X16870000Y81120000D03*
%TD*%
%TO.P,C5,2*%
%TO.N,Net-(C4-Pad1)*%
X3166699Y84163301D03*
%TO.P,C5,1*%
%TO.N,Net-(C5-Pad1)*%
X8470000Y78860000D03*
%TD*%
%TO.P,C4,2*%
%TO.N,Net-(C4-Pad2)*%
X4460000Y93850000D03*
%TO.P,C4,1*%
%TO.N,Net-(C4-Pad1)*%
X4460000Y86350000D03*
%TD*%
%TO.P,C3,2*%
%TO.N,Net-(C2-Pad1)*%
X46836058Y79647639D03*
%TO.P,C3,1*%
%TO.N,Net-(C10-Pad1)*%
X39450000Y80950000D03*
%TD*%
%TO.P,C2,2*%
%TO.N,Net-(C1-Pad1)*%
X53333301Y84163301D03*
%TO.P,C2,1*%
%TO.N,Net-(C2-Pad1)*%
X48030000Y78860000D03*
%TD*%
%TO.P,R2b1,2*%
%TO.N,Net-(R2a1-Pad1)*%
%TA.AperFunction,ComponentPad*%
G36*
G01*
X40947127Y87957127D02*
X40947127Y87957127D01*
G75*
G02*
X40947127Y88947077I494975J494975D01*
G01*
X40947127Y88947077D01*
G75*
G02*
X41937077Y88947077I494975J-494975D01*
G01*
X41937077Y88947077D01*
G75*
G02*
X41937077Y87957127I-494975J-494975D01*
G01*
X41937077Y87957127D01*
G75*
G02*
X40947127Y87957127I-494975J494975D01*
G01*
G37*
%TD.AperFunction*%
D20*
%TO.P,R2b1,1*%
%TO.N,Net-(C10-Pad1)*%
X37850000Y84860000D03*
%TD*%
%TO.P,R2a1,2*%
%TO.N,Net-(R1-Pad2)*%
%TA.AperFunction,ComponentPad*%
G36*
G01*
X45545854Y85781952D02*
X45545854Y85781952D01*
G75*
G02*
X46443053Y86200323I657785J-239414D01*
G01*
X46443053Y86200323D01*
G75*
G02*
X46861424Y85303124I-239414J-657785D01*
G01*
X46861424Y85303124D01*
G75*
G02*
X45964225Y84884753I-657785J239414D01*
G01*
X45964225Y84884753D01*
G75*
G02*
X45545854Y85781952I239414J657785D01*
G01*
G37*
%TD.AperFunction*%
%TO.P,R2a1,1*%
%TO.N,Net-(R2a1-Pad1)*%
X41430000Y87280000D03*
%TD*%
D13*
%TO.P,C1,2*%
%TO.N,Net-(C1-Pad2)*%
X52110000Y94280000D03*
%TO.P,C1,1*%
%TO.N,Net-(C1-Pad1)*%
X52110000Y86780000D03*
%TD*%
D27*
%TO.N,GND*%
X6930000Y62890000D03*
X48750000Y57650000D03*
X880000Y56190000D03*
X32040000Y81575003D03*
X24825000Y81550000D03*
%TO.N,-9V*%
X22180000Y51200000D03*
X21215000Y60065000D03*
%TO.N,Net-(R16-Pad2)*%
X24302000Y66548000D03*
%TO.N,Net-(C22-Pad2)*%
X47752000Y48006000D03*
%TO.N,Net-(Q1-Pad3)*%
X17272000Y54864000D03*
%TO.N,Net-(Q1-Pad2)*%
X24699993Y59030007D03*
%TO.N,Net-(Q1-Pad1)*%
X18319998Y62355000D03*
X22160000Y61165000D03*
%TO.N,Net-(R17-Pad2)*%
X19450000Y69775000D03*
X33700000Y70850000D03*
%TO.N,Net-(RV2-Pad1)*%
X25575000Y51775000D03*
%TO.N,Net-(RV4-Pad3)*%
X50800000Y67310000D03*
X48514000Y65024000D03*
%TD*%
D28*
%TO.N,Net-(R5-Pad2)*%
X31030000Y90690000D02*
X32510000Y92170000D01*
X31030000Y86950000D02*
X31030000Y90690000D01*
X29630000Y85550000D02*
X31030000Y86950000D01*
%TO.N,Net-(R6-Pad1)*%
X28100000Y92160000D02*
X29630000Y90630000D01*
X24120000Y92160000D02*
X28100000Y92160000D01*
%TO.N,Net-(C10-Pad1)*%
X8570000Y64704000D02*
X8636000Y64770000D01*
X7395000Y58970000D02*
X8570000Y60145000D01*
X8570000Y60145000D02*
X8570000Y64704000D01*
X4170000Y58970000D02*
X7395000Y58970000D01*
%TO.N,GND*%
X5110000Y62890000D02*
X6930000Y62890000D01*
X3010000Y64990000D02*
X5110000Y62890000D01*
X50120000Y49560000D02*
X47610000Y52070000D01*
X50120000Y44890000D02*
X50120000Y49560000D01*
X51940000Y55420000D02*
X51940000Y53590000D01*
X50420000Y52070000D02*
X47610000Y52070000D01*
X49710000Y57650000D02*
X51940000Y55420000D01*
X51940000Y53590000D02*
X50420000Y52070000D01*
X48750000Y57650000D02*
X49710000Y57650000D01*
X27570000Y36570000D02*
X25060000Y39080000D01*
X10680000Y42899999D02*
X10680000Y47890000D01*
X14499999Y39080000D02*
X10680000Y42899999D01*
X25060000Y39080000D02*
X14499999Y39080000D01*
X13930000Y48900000D02*
X12920000Y47890000D01*
X12920000Y47890000D02*
X10680000Y47890000D01*
X13930000Y53050000D02*
X13930000Y48900000D01*
X880000Y52480000D02*
X880000Y56190000D01*
X8760000Y50990000D02*
X2370000Y50990000D01*
X2370000Y50990000D02*
X880000Y52480000D01*
X47528498Y39220010D02*
X50120000Y41811512D01*
X50120000Y41811512D02*
X50120000Y44890000D01*
X30220010Y39220010D02*
X47528498Y39220010D01*
X27570000Y36570000D02*
X30220010Y39220010D01*
D29*
X24120000Y90050000D02*
X24120000Y87920000D01*
X24120000Y87920000D02*
X24120000Y85820000D01*
X24820000Y85820000D02*
X27090000Y88090000D01*
X24120000Y85820000D02*
X24820000Y85820000D01*
X32610000Y90040000D02*
X32610000Y87940000D01*
X32610000Y87940000D02*
X32610000Y85830000D01*
X24120000Y83890000D02*
X24120000Y85820000D01*
X24690000Y83320000D02*
X24120000Y83890000D01*
X31680000Y83320000D02*
X24690000Y83320000D01*
X32610000Y84250000D02*
X31680000Y83320000D01*
X32610000Y85830000D02*
X32610000Y84250000D01*
X31680000Y83320000D02*
X32040000Y82960000D01*
X32040000Y82960000D02*
X32040000Y81575003D01*
X24850000Y81575000D02*
X24825000Y81550000D01*
X24850000Y83160000D02*
X24850000Y81575000D01*
X24690000Y83320000D02*
X24850000Y83160000D01*
D28*
%TO.N,+9V*%
X17290000Y72290000D02*
X17290000Y67520000D01*
X24455000Y73025000D02*
X18025000Y73025000D01*
X18025000Y73025000D02*
X17290000Y72290000D01*
X26430000Y75000000D02*
X24455000Y73025000D01*
X17290000Y71125000D02*
X17290000Y67520000D01*
X12305000Y71125000D02*
X17290000Y71125000D01*
X11170000Y69990000D02*
X12305000Y71125000D01*
%TO.N,-9V*%
X3010000Y69990000D02*
X3330000Y69990000D01*
X13360000Y45570000D02*
X15680000Y47890000D01*
X14260000Y43330000D02*
X13360000Y44230000D01*
X21460000Y43330000D02*
X14260000Y43330000D01*
X22180000Y44050000D02*
X21460000Y43330000D01*
X13360000Y44230000D02*
X13360000Y45570000D01*
X22180000Y51200000D02*
X22180000Y44050000D01*
X42610001Y59589999D02*
X45120000Y57080000D01*
X40994001Y59589999D02*
X42610001Y59589999D01*
X48940000Y70186000D02*
X48940000Y69290000D01*
X48260000Y70866000D02*
X48940000Y70186000D01*
X44704000Y70866000D02*
X48260000Y70866000D01*
X42418000Y68580000D02*
X44704000Y70866000D01*
X42418000Y63754000D02*
X42418000Y68580000D01*
X41190001Y59785999D02*
X41190001Y62526001D01*
X41190001Y62526001D02*
X42418000Y63754000D01*
X40994001Y59589999D02*
X41190001Y59785999D01*
X4888000Y69990000D02*
X5790000Y69088000D01*
X3010000Y69990000D02*
X4888000Y69990000D01*
X25985000Y60065000D02*
X21215000Y60065000D01*
X26460001Y59589999D02*
X25985000Y60065000D01*
X40994001Y59589999D02*
X26460001Y59589999D01*
%TO.N,Net-(R14-Pad2)*%
X26420000Y64850000D02*
X26430000Y64840000D01*
X23500000Y64850000D02*
X26420000Y64850000D01*
X23500000Y63900000D02*
X23500000Y64850000D01*
X22846000Y63246000D02*
X23500000Y63900000D01*
X14224000Y63246000D02*
X22846000Y63246000D01*
X8890000Y57912000D02*
X14224000Y63246000D01*
X3113000Y57912000D02*
X8890000Y57912000D01*
X2850000Y58175000D02*
X3113000Y57912000D01*
X2850000Y58920000D02*
X2850000Y58175000D01*
X3271975Y59341975D02*
X2850000Y58920000D01*
%TO.N,Net-(R16-Pad2)*%
X18089999Y65779999D02*
X17290000Y64980000D01*
X18858000Y66548000D02*
X18089999Y65779999D01*
X24302000Y66548000D02*
X18858000Y66548000D01*
X14620000Y64980000D02*
X17290000Y64980000D01*
X14160000Y65440000D02*
X14620000Y64980000D01*
%TO.N,Net-(C22-Pad2)*%
X36980000Y70750000D02*
X38650000Y70750000D01*
X32740000Y74990000D02*
X36980000Y70750000D01*
X36980000Y70100000D02*
X36980000Y70750000D01*
X34960000Y68080000D02*
X36980000Y70100000D01*
X45212000Y53340000D02*
X46282000Y54410000D01*
X45212000Y51816000D02*
X45212000Y53340000D01*
X47752000Y49276000D02*
X45212000Y51816000D01*
X46282000Y54410000D02*
X47640000Y54410000D01*
X47752000Y48006000D02*
X47752000Y49276000D01*
%TO.N,Net-(Q1-Pad3)*%
X17272000Y56597000D02*
X17272000Y54864000D01*
X17775000Y57100000D02*
X17272000Y56597000D01*
X26700000Y57100000D02*
X17775000Y57100000D01*
X27070000Y56730000D02*
X26700000Y57100000D01*
X27070000Y54640000D02*
X27070000Y56730000D01*
%TO.N,Net-(Q1-Pad2)*%
X18030007Y59030007D02*
X24699993Y59030007D01*
X16320000Y57320000D02*
X18030007Y59030007D01*
X13830000Y57320000D02*
X16320000Y57320000D01*
%TO.N,Net-(Q1-Pad1)*%
X18319998Y62355000D02*
X19509998Y61165000D01*
X19509998Y61165000D02*
X22160000Y61165000D01*
%TO.N,Net-(R17-Pad2)*%
X32325000Y70850000D02*
X33700000Y70850000D01*
X30350000Y68875000D02*
X32325000Y70850000D01*
X26700000Y68875000D02*
X30350000Y68875000D01*
X25800000Y69775000D02*
X26700000Y68875000D01*
X19450000Y69775000D02*
X25800000Y69775000D01*
%TO.N,Net-(RV2-Pad1)*%
X25225000Y53025000D02*
X16956000Y53025000D01*
X25575000Y52675000D02*
X25225000Y53025000D01*
X25575000Y51775000D02*
X25575000Y52675000D01*
X17775000Y50585000D02*
X19650000Y48710000D01*
X17775000Y52050000D02*
X17775000Y50585000D01*
X15180999Y54644001D02*
X17775000Y52050000D01*
X7305999Y54644001D02*
X15180999Y54644001D01*
X6050000Y55900000D02*
X7305999Y54644001D01*
X3250000Y55900000D02*
X6050000Y55900000D01*
X1900000Y57250000D02*
X3250000Y55900000D01*
X1900000Y59775000D02*
X1900000Y57250000D01*
X2365000Y60240000D02*
X1900000Y59775000D01*
X2900000Y60240000D02*
X2365000Y60240000D01*
%TO.N,Net-(RV4-Pad1)*%
X50546000Y65144000D02*
X46400000Y69290000D01*
X50546000Y59274000D02*
X50546000Y65144000D01*
X52740000Y57080000D02*
X50546000Y59274000D01*
%TO.N,Net-(RV4-Pad3)*%
X51480000Y67990000D02*
X50800000Y67310000D01*
X51480000Y69290000D02*
X51480000Y67990000D01*
X45190000Y64770000D02*
X45120000Y64700000D01*
X48260000Y64770000D02*
X45190000Y64770000D01*
X48514000Y65024000D02*
X48260000Y64770000D01*
%TD*%
D30*
%TO.N,GND*%
X3166921Y71717208D02*
X3167254Y71716878D01*
X3213845Y71669300D01*
X3221752Y71662758D01*
X3342746Y71564078D01*
X3398270Y71527188D01*
X3453198Y71489578D01*
X3462222Y71484698D01*
X3462230Y71484694D01*
X3600082Y71411397D01*
X3661712Y71385995D01*
X3722904Y71359768D01*
X3732699Y71356735D01*
X3732705Y71356733D01*
X3732711Y71356732D01*
X3882176Y71311606D01*
X3947554Y71298661D01*
X4012683Y71284817D01*
X4022889Y71283744D01*
X4178276Y71268508D01*
X4178277Y71268508D01*
X4213895Y71265000D01*
X10498288Y71265000D01*
X10490273Y71261680D01*
X10255241Y71104637D01*
X10055363Y70904759D01*
X9898320Y70669727D01*
X9790147Y70408574D01*
X9735000Y70131335D01*
X9735000Y69927385D01*
X9684637Y70002759D01*
X9484759Y70202637D01*
X9249727Y70359680D01*
X8988574Y70467853D01*
X8711335Y70523000D01*
X8428665Y70523000D01*
X8151426Y70467853D01*
X7890273Y70359680D01*
X7655241Y70202637D01*
X7455363Y70002759D01*
X7298320Y69767727D01*
X7190147Y69506574D01*
X7180000Y69455562D01*
X7169853Y69506574D01*
X7061680Y69767727D01*
X6904637Y70002759D01*
X6704759Y70202637D01*
X6469727Y70359680D01*
X6208574Y70467853D01*
X5931335Y70523000D01*
X5648665Y70523000D01*
X5613561Y70516017D01*
X5544532Y70585046D01*
X5516817Y70618817D01*
X5382059Y70729411D01*
X5228313Y70811589D01*
X5061490Y70862195D01*
X4931477Y70875000D01*
X4931469Y70875000D01*
X4888000Y70879281D01*
X4844531Y70875000D01*
X4144521Y70875000D01*
X4124637Y70904759D01*
X3924759Y71104637D01*
X3689727Y71261680D01*
X3428574Y71369853D01*
X3151335Y71425000D01*
X2868665Y71425000D01*
X2591426Y71369853D01*
X2330273Y71261680D01*
X2095241Y71104637D01*
X1895363Y70904759D01*
X1738320Y70669727D01*
X1630147Y70408574D01*
X1575000Y70131335D01*
X1575000Y69848665D01*
X1630147Y69571426D01*
X1738320Y69310273D01*
X1895363Y69075241D01*
X2095241Y68875363D01*
X2330273Y68718320D01*
X2591426Y68610147D01*
X2868665Y68555000D01*
X3151335Y68555000D01*
X3428574Y68610147D01*
X3689727Y68718320D01*
X3924759Y68875363D01*
X4124637Y69075241D01*
X4144521Y69105000D01*
X4355000Y69105000D01*
X4355000Y68946665D01*
X4410147Y68669426D01*
X4518320Y68408273D01*
X4675363Y68173241D01*
X4873961Y67974643D01*
X4865518Y67973812D01*
X4745820Y67937502D01*
X4635506Y67878537D01*
X4538815Y67799185D01*
X4459463Y67702494D01*
X4400498Y67592180D01*
X4364188Y67472482D01*
X4351928Y67348000D01*
X4351928Y65748000D01*
X4364188Y65623518D01*
X4400498Y65503820D01*
X4459463Y65393506D01*
X4538815Y65296815D01*
X4545754Y65291121D01*
X4498686Y65177490D01*
X4445000Y64907592D01*
X4445000Y64632408D01*
X4498686Y64362510D01*
X4603995Y64108273D01*
X4756880Y63879465D01*
X4951465Y63684880D01*
X5180273Y63531995D01*
X5434510Y63426686D01*
X5704408Y63373000D01*
X5979592Y63373000D01*
X6249490Y63426686D01*
X6503727Y63531995D01*
X6732535Y63684880D01*
X6927120Y63879465D01*
X7080005Y64108273D01*
X7185314Y64362510D01*
X7239000Y64632408D01*
X7292686Y64362510D01*
X7397995Y64108273D01*
X7550880Y63879465D01*
X7685001Y63745344D01*
X7685000Y60511579D01*
X7028422Y59855000D01*
X6444099Y59855000D01*
X6473688Y59926434D01*
X6515000Y60134122D01*
X6515000Y60345878D01*
X6473688Y60553566D01*
X6392652Y60749203D01*
X6275007Y60925272D01*
X6143025Y61057254D01*
X6143025Y61243903D01*
X6101713Y61451591D01*
X6020677Y61647228D01*
X5903032Y61823297D01*
X5753297Y61973032D01*
X5577228Y62090677D01*
X5381591Y62171713D01*
X5173903Y62213025D01*
X4987254Y62213025D01*
X4855272Y62345007D01*
X4679203Y62462652D01*
X4483566Y62543688D01*
X4275878Y62585000D01*
X4064122Y62585000D01*
X3856434Y62543688D01*
X3660797Y62462652D01*
X3484728Y62345007D01*
X3334993Y62195272D01*
X3217348Y62019203D01*
X3136312Y61823566D01*
X3095000Y61615878D01*
X3095000Y61404122D01*
X3117129Y61292871D01*
X3005878Y61315000D01*
X2794122Y61315000D01*
X2586434Y61273688D01*
X2390797Y61192652D01*
X2284020Y61121306D01*
X2191510Y61112195D01*
X2024687Y61061589D01*
X1870941Y60979411D01*
X1736183Y60868817D01*
X1708466Y60835044D01*
X1304956Y60431534D01*
X1271183Y60403817D01*
X1160589Y60269058D01*
X1078411Y60115312D01*
X1047499Y60013410D01*
X1034571Y59970792D01*
X1027805Y59948489D01*
X1015000Y59818476D01*
X1015000Y59818469D01*
X1010719Y59775000D01*
X1015000Y59731531D01*
X1015001Y57293479D01*
X1010719Y57250000D01*
X1027805Y57076510D01*
X1078412Y56909687D01*
X1160590Y56755941D01*
X1243468Y56654954D01*
X1243471Y56654951D01*
X1271184Y56621183D01*
X1304951Y56593471D01*
X2593470Y55304951D01*
X2621183Y55271183D01*
X2654951Y55243470D01*
X2654953Y55243468D01*
X2707740Y55200147D01*
X2755941Y55160589D01*
X2909687Y55078411D01*
X3076510Y55027805D01*
X3206523Y55015000D01*
X3206533Y55015000D01*
X3249999Y55010719D01*
X3293465Y55015000D01*
X5683422Y55015000D01*
X6649469Y54048952D01*
X6677182Y54015184D01*
X6710950Y53987471D01*
X6710952Y53987469D01*
X6798109Y53915941D01*
X6811940Y53904590D01*
X6965686Y53822412D01*
X7132509Y53771806D01*
X7262522Y53759001D01*
X7262530Y53759001D01*
X7305999Y53754720D01*
X7349468Y53759001D01*
X9851928Y53759001D01*
X9851928Y52150000D01*
X9864188Y52025518D01*
X9900498Y51905820D01*
X9959463Y51795506D01*
X10038815Y51698815D01*
X10135506Y51619463D01*
X10245820Y51560498D01*
X10365518Y51524188D01*
X10490000Y51511928D01*
X12290000Y51511928D01*
X12414482Y51524188D01*
X12534180Y51560498D01*
X12644494Y51619463D01*
X12741185Y51698815D01*
X12820537Y51795506D01*
X12879502Y51905820D01*
X12915812Y52025518D01*
X12928072Y52150000D01*
X12928072Y53759001D01*
X14814421Y53759001D01*
X16890000Y51683421D01*
X16890001Y50628479D01*
X16885719Y50585000D01*
X16902805Y50411510D01*
X16953412Y50244687D01*
X17035590Y50090941D01*
X17118468Y49989954D01*
X17118471Y49989951D01*
X17146184Y49956183D01*
X17179951Y49928471D01*
X18329200Y48779221D01*
X18329200Y48579913D01*
X18379957Y48324737D01*
X18479522Y48084366D01*
X18624067Y47868039D01*
X18808039Y47684067D01*
X19024366Y47539522D01*
X19264633Y47440000D01*
X19024366Y47340478D01*
X18808039Y47195933D01*
X18624067Y47011961D01*
X18479522Y46795634D01*
X18379957Y46555263D01*
X18329200Y46300087D01*
X18329200Y46039913D01*
X18379957Y45784737D01*
X18479522Y45544366D01*
X18624067Y45328039D01*
X18808039Y45144067D01*
X19024366Y44999522D01*
X19264737Y44899957D01*
X19519913Y44849200D01*
X19780087Y44849200D01*
X20035263Y44899957D01*
X20275634Y44999522D01*
X20491961Y45144067D01*
X20675933Y45328039D01*
X20820478Y45544366D01*
X20920043Y45784737D01*
X20970800Y46039913D01*
X20970800Y46300087D01*
X20920043Y46555263D01*
X20820478Y46795634D01*
X20675933Y47011961D01*
X20491961Y47195933D01*
X20275634Y47340478D01*
X20035367Y47440000D01*
X20275634Y47539522D01*
X20491961Y47684067D01*
X20675933Y47868039D01*
X20820478Y48084366D01*
X20920043Y48324737D01*
X20970800Y48579913D01*
X20970800Y48840087D01*
X20920043Y49095263D01*
X20820478Y49335634D01*
X20675933Y49551961D01*
X20491961Y49735933D01*
X20275634Y49880478D01*
X20035367Y49980000D01*
X20275634Y50079522D01*
X20491961Y50224067D01*
X20675933Y50408039D01*
X20820478Y50624366D01*
X20920043Y50864737D01*
X20970800Y51119913D01*
X20970800Y51380087D01*
X20920043Y51635263D01*
X20820478Y51875634D01*
X20675933Y52091961D01*
X20627894Y52140000D01*
X21744776Y52140000D01*
X21689744Y52117205D01*
X21520226Y52003937D01*
X21376063Y51859774D01*
X21262795Y51690256D01*
X21184774Y51501898D01*
X21145000Y51301939D01*
X21145000Y51098061D01*
X21184774Y50898102D01*
X21262795Y50709744D01*
X21295000Y50661546D01*
X21295001Y44416580D01*
X21093422Y44215000D01*
X16918021Y44215000D01*
X16981680Y44310273D01*
X17089853Y44571426D01*
X17145000Y44848665D01*
X17145000Y45131335D01*
X17089853Y45408574D01*
X16981680Y45669727D01*
X16824637Y45904759D01*
X16624759Y46104637D01*
X16389727Y46261680D01*
X16128574Y46369853D01*
X15851335Y46425000D01*
X15568665Y46425000D01*
X15441230Y46399651D01*
X15503561Y46461983D01*
X15538665Y46455000D01*
X15821335Y46455000D01*
X16098574Y46510147D01*
X16359727Y46618320D01*
X16594759Y46775363D01*
X16794637Y46975241D01*
X16951680Y47210273D01*
X17059853Y47471426D01*
X17115000Y47748665D01*
X17115000Y48031335D01*
X17059853Y48308574D01*
X16951680Y48569727D01*
X16794637Y48804759D01*
X16594759Y49004637D01*
X16359727Y49161680D01*
X16098574Y49269853D01*
X15821335Y49325000D01*
X15538665Y49325000D01*
X15261426Y49269853D01*
X15000273Y49161680D01*
X14765241Y49004637D01*
X14565363Y48804759D01*
X14408320Y48569727D01*
X14300147Y48308574D01*
X14245000Y48031335D01*
X14245000Y47748665D01*
X14251983Y47713561D01*
X12764951Y46226529D01*
X12731184Y46198817D01*
X12703471Y46165049D01*
X12703468Y46165046D01*
X12620590Y46064059D01*
X12538412Y45910313D01*
X12487805Y45743490D01*
X12470719Y45570000D01*
X12475001Y45526522D01*
X12475000Y44273470D01*
X12470719Y44230000D01*
X12475000Y44186531D01*
X12475000Y44186524D01*
X12487805Y44056511D01*
X12538411Y43889688D01*
X12620589Y43735942D01*
X12731183Y43601183D01*
X12764956Y43573466D01*
X13433288Y42905133D01*
X13200114Y42671959D01*
X12981748Y42345150D01*
X12831335Y41982021D01*
X12754655Y41596524D01*
X12754655Y41203476D01*
X12831335Y40817979D01*
X12981748Y40454850D01*
X13200114Y40128041D01*
X13478041Y39850114D01*
X13804850Y39631748D01*
X14167979Y39481335D01*
X14553476Y39404655D01*
X14946524Y39404655D01*
X15332021Y39481335D01*
X15695150Y39631748D01*
X16021959Y39850114D01*
X16299886Y40128041D01*
X16518252Y40454850D01*
X16668665Y40817979D01*
X16745345Y41203476D01*
X16745345Y41596524D01*
X16668665Y41982021D01*
X16518252Y42345150D01*
X16451535Y42445000D01*
X18448467Y42445000D01*
X18381749Y42345150D01*
X18231336Y41982020D01*
X18154656Y41596524D01*
X18154656Y41203476D01*
X18231336Y40817980D01*
X18381749Y40454850D01*
X18600115Y40128042D01*
X18878042Y39850115D01*
X19204850Y39631749D01*
X19567980Y39481336D01*
X19953476Y39404656D01*
X20346524Y39404656D01*
X20732020Y39481336D01*
X21095150Y39631749D01*
X21421958Y39850115D01*
X21699885Y40128042D01*
X21918251Y40454850D01*
X22068664Y40817980D01*
X22145344Y41203476D01*
X22145344Y41596524D01*
X23554654Y41596524D01*
X23554654Y41203476D01*
X23631334Y40817979D01*
X23781747Y40454850D01*
X24000113Y40128041D01*
X24278040Y39850114D01*
X24604849Y39631748D01*
X24967978Y39481335D01*
X25353475Y39404655D01*
X25746523Y39404655D01*
X26132020Y39481335D01*
X26495149Y39631748D01*
X26821958Y39850114D01*
X27099885Y40128041D01*
X27318251Y40454850D01*
X27468664Y40817979D01*
X27545344Y41203476D01*
X27545344Y41596524D01*
X28954654Y41596524D01*
X28954654Y41203476D01*
X29031334Y40817979D01*
X29181747Y40454850D01*
X29400113Y40128041D01*
X29678040Y39850114D01*
X30004849Y39631748D01*
X30367978Y39481335D01*
X30753475Y39404655D01*
X31146523Y39404655D01*
X31532020Y39481335D01*
X31895149Y39631748D01*
X32221958Y39850114D01*
X32499885Y40128041D01*
X32718251Y40454850D01*
X32868664Y40817979D01*
X32945344Y41203476D01*
X32945344Y41596524D01*
X32868664Y41982021D01*
X32718251Y42345150D01*
X32499885Y42671959D01*
X32221958Y42949886D01*
X31895149Y43168252D01*
X31532020Y43318665D01*
X31146523Y43395345D01*
X30753475Y43395345D01*
X30367978Y43318665D01*
X30004849Y43168252D01*
X29678040Y42949886D01*
X29400113Y42671959D01*
X29181747Y42345150D01*
X29031334Y41982021D01*
X28954654Y41596524D01*
X27545344Y41596524D01*
X27468664Y41982021D01*
X27318251Y42345150D01*
X27099885Y42671959D01*
X26821958Y42949886D01*
X26508431Y43159378D01*
X26651426Y43100147D01*
X26928665Y43045000D01*
X27211335Y43045000D01*
X27488574Y43100147D01*
X27749727Y43208320D01*
X27984759Y43365363D01*
X28184637Y43565241D01*
X28284244Y43714314D01*
X32592500Y43714314D01*
X32592500Y43265686D01*
X32680023Y42825678D01*
X32851706Y42411199D01*
X33100950Y42038178D01*
X33418178Y41720950D01*
X33791199Y41471706D01*
X34205678Y41300023D01*
X34354654Y41270390D01*
X34354654Y41203476D01*
X34431334Y40817979D01*
X34581747Y40454850D01*
X34800113Y40128041D01*
X35078040Y39850114D01*
X35404849Y39631748D01*
X35767978Y39481335D01*
X36153475Y39404655D01*
X36546523Y39404655D01*
X36932020Y39481335D01*
X37295149Y39631748D01*
X37621958Y39850114D01*
X37899885Y40128041D01*
X38118251Y40454850D01*
X38268664Y40817979D01*
X38345344Y41203476D01*
X38345344Y41596524D01*
X38268664Y41982021D01*
X38118251Y42345150D01*
X37899885Y42671959D01*
X37621958Y42949886D01*
X37295149Y43168252D01*
X37140834Y43232172D01*
X37147500Y43265686D01*
X37147500Y43714314D01*
X37059977Y44154322D01*
X36888294Y44568801D01*
X36639050Y44941822D01*
X36321822Y45259050D01*
X35948801Y45508294D01*
X35534322Y45679977D01*
X35094314Y45767500D01*
X34645686Y45767500D01*
X34205678Y45679977D01*
X33791199Y45508294D01*
X33418178Y45259050D01*
X33100950Y44941822D01*
X32851706Y44568801D01*
X32680023Y44154322D01*
X32592500Y43714314D01*
X28284244Y43714314D01*
X28341680Y43800273D01*
X28449853Y44061426D01*
X28505000Y44338665D01*
X28505000Y44621335D01*
X28449853Y44898574D01*
X28341680Y45159727D01*
X28184637Y45394759D01*
X27984759Y45594637D01*
X27749727Y45751680D01*
X27488574Y45859853D01*
X27211335Y45915000D01*
X26928665Y45915000D01*
X26651426Y45859853D01*
X26390273Y45751680D01*
X26155241Y45594637D01*
X25955363Y45394759D01*
X25798320Y45159727D01*
X25690147Y44898574D01*
X25635000Y44621335D01*
X25635000Y44338665D01*
X25690147Y44061426D01*
X25798320Y43800273D01*
X25955363Y43565241D01*
X26155241Y43365363D01*
X26376991Y43217195D01*
X26132020Y43318665D01*
X25746523Y43395345D01*
X25353475Y43395345D01*
X24967978Y43318665D01*
X24604849Y43168252D01*
X24278040Y42949886D01*
X24000113Y42671959D01*
X23781747Y42345150D01*
X23631334Y41982021D01*
X23554654Y41596524D01*
X22145344Y41596524D01*
X22068664Y41982020D01*
X21918251Y42345150D01*
X21806834Y42511897D01*
X21954059Y42590589D01*
X22088817Y42701183D01*
X22116534Y42734956D01*
X22775049Y43393470D01*
X22808817Y43421183D01*
X22836571Y43455000D01*
X22919411Y43555941D01*
X22921240Y43559364D01*
X23095241Y43385363D01*
X23330273Y43228320D01*
X23591426Y43120147D01*
X23868665Y43065000D01*
X24151335Y43065000D01*
X24428574Y43120147D01*
X24689727Y43228320D01*
X24924759Y43385363D01*
X25124637Y43585241D01*
X25281680Y43820273D01*
X25389853Y44081426D01*
X25445000Y44358665D01*
X25445000Y44641335D01*
X25389853Y44918574D01*
X25281680Y45179727D01*
X25124637Y45414759D01*
X24924759Y45614637D01*
X24689727Y45771680D01*
X24428574Y45879853D01*
X24151335Y45935000D01*
X23868665Y45935000D01*
X23591426Y45879853D01*
X23330273Y45771680D01*
X23095241Y45614637D01*
X23065000Y45584396D01*
X23065000Y50661546D01*
X23097205Y50709744D01*
X23175226Y50898102D01*
X23215000Y51098061D01*
X23215000Y51301939D01*
X23175226Y51501898D01*
X23097205Y51690256D01*
X22983937Y51859774D01*
X22839774Y52003937D01*
X22670256Y52117205D01*
X22615224Y52140000D01*
X24605912Y52140000D01*
X24579774Y52076898D01*
X24540000Y51876939D01*
X24540000Y51673061D01*
X24579774Y51473102D01*
X24657795Y51284744D01*
X24771063Y51115226D01*
X24915226Y50971063D01*
X25084744Y50857795D01*
X25273102Y50779774D01*
X25473061Y50740000D01*
X25676939Y50740000D01*
X25876898Y50779774D01*
X26065256Y50857795D01*
X26234774Y50971063D01*
X26378937Y51115226D01*
X26492205Y51284744D01*
X26570226Y51473102D01*
X26610000Y51673061D01*
X26610000Y51876939D01*
X26570226Y52076898D01*
X26492205Y52265256D01*
X26460000Y52313454D01*
X26460000Y52511637D01*
X32385000Y52511637D01*
X32385000Y52268363D01*
X32432460Y52029764D01*
X32525557Y51805008D01*
X32660713Y51602733D01*
X32832733Y51430713D01*
X32893664Y51390000D01*
X32832733Y51349287D01*
X32660713Y51177267D01*
X32525557Y50974992D01*
X32432460Y50750236D01*
X32385000Y50511637D01*
X32385000Y50268363D01*
X32432460Y50029764D01*
X32525557Y49805008D01*
X32660713Y49602733D01*
X32832733Y49430713D01*
X32893664Y49390000D01*
X32832733Y49349287D01*
X32660713Y49177267D01*
X32525557Y48974992D01*
X32432460Y48750236D01*
X32385000Y48511637D01*
X32385000Y48268363D01*
X32432460Y48029764D01*
X32525557Y47805008D01*
X32660713Y47602733D01*
X32832733Y47430713D01*
X33035008Y47295557D01*
X33259764Y47202460D01*
X33498363Y47155000D01*
X33741637Y47155000D01*
X33980236Y47202460D01*
X34204992Y47295557D01*
X34407267Y47430713D01*
X34579287Y47602733D01*
X34714443Y47805008D01*
X34807540Y48029764D01*
X34855000Y48268363D01*
X34855000Y48511637D01*
X34807540Y48750236D01*
X34714443Y48974992D01*
X34579287Y49177267D01*
X34407267Y49349287D01*
X34346336Y49390000D01*
X34407267Y49430713D01*
X34579287Y49602733D01*
X34714443Y49805008D01*
X34807540Y50029764D01*
X34855000Y50268363D01*
X34855000Y50511637D01*
X34807540Y50750236D01*
X34714443Y50974992D01*
X34579287Y51177267D01*
X34407267Y51349287D01*
X34346336Y51390000D01*
X34407267Y51430713D01*
X34579287Y51602733D01*
X34714443Y51805008D01*
X34807540Y52029764D01*
X34855000Y52268363D01*
X34855000Y52511637D01*
X34807540Y52750236D01*
X34714443Y52974992D01*
X34579287Y53177267D01*
X34416554Y53340000D01*
X44322719Y53340000D01*
X44327001Y53296521D01*
X44327000Y51859470D01*
X44322719Y51816000D01*
X44327000Y51772531D01*
X44327000Y51772524D01*
X44333189Y51709687D01*
X44339805Y51642510D01*
X44351872Y51602733D01*
X44390411Y51475688D01*
X44472589Y51321942D01*
X44583183Y51187183D01*
X44616956Y51159466D01*
X46867001Y48909420D01*
X46867000Y48544455D01*
X46834795Y48496256D01*
X46756774Y48307898D01*
X46717000Y48107939D01*
X46717000Y47904061D01*
X46756774Y47704102D01*
X46834795Y47515744D01*
X46948063Y47346226D01*
X47092226Y47202063D01*
X47261744Y47088795D01*
X47450102Y47010774D01*
X47650061Y46971000D01*
X47853939Y46971000D01*
X48053898Y47010774D01*
X48242256Y47088795D01*
X48411774Y47202063D01*
X48555937Y47346226D01*
X48669205Y47515744D01*
X48747226Y47704102D01*
X48787000Y47904061D01*
X48787000Y48107939D01*
X48747226Y48307898D01*
X48669205Y48496256D01*
X48637000Y48544454D01*
X48637000Y49232535D01*
X48641281Y49276001D01*
X48637000Y49319467D01*
X48637000Y49319477D01*
X48624195Y49449490D01*
X48573589Y49616313D01*
X48491411Y49770059D01*
X48380817Y49904817D01*
X48347049Y49932530D01*
X46097000Y52182578D01*
X46097000Y52973422D01*
X46572091Y53448513D01*
X46725241Y53295363D01*
X46960273Y53138320D01*
X47221426Y53030147D01*
X47498665Y52975000D01*
X47781335Y52975000D01*
X48058574Y53030147D01*
X48319727Y53138320D01*
X48554759Y53295363D01*
X48754637Y53495241D01*
X48890000Y53697827D01*
X49025363Y53495241D01*
X49225241Y53295363D01*
X49460273Y53138320D01*
X49721426Y53030147D01*
X49998665Y52975000D01*
X50281335Y52975000D01*
X50558574Y53030147D01*
X50819727Y53138320D01*
X51054759Y53295363D01*
X51254637Y53495241D01*
X51411680Y53730273D01*
X51519853Y53991426D01*
X51575000Y54268665D01*
X51575000Y54551335D01*
X51519853Y54828574D01*
X51411680Y55089727D01*
X51254637Y55324759D01*
X51054759Y55524637D01*
X50819727Y55681680D01*
X50558574Y55789853D01*
X50281335Y55845000D01*
X49998665Y55845000D01*
X49721426Y55789853D01*
X49460273Y55681680D01*
X49225241Y55524637D01*
X49025363Y55324759D01*
X48890000Y55122173D01*
X48754637Y55324759D01*
X48554759Y55524637D01*
X48319727Y55681680D01*
X48058574Y55789853D01*
X47781335Y55845000D01*
X47498665Y55845000D01*
X47221426Y55789853D01*
X46960273Y55681680D01*
X46725241Y55524637D01*
X46525363Y55324759D01*
X46505479Y55295000D01*
X46325469Y55295000D01*
X46282000Y55299281D01*
X46238531Y55295000D01*
X46238523Y55295000D01*
X46108510Y55282195D01*
X45941686Y55231589D01*
X45787941Y55149411D01*
X45686953Y55066532D01*
X45686951Y55066530D01*
X45653183Y55038817D01*
X45625470Y55005049D01*
X44616951Y53996529D01*
X44583184Y53968817D01*
X44555471Y53935049D01*
X44555468Y53935046D01*
X44472590Y53834059D01*
X44390412Y53680313D01*
X44339805Y53513490D01*
X44322719Y53340000D01*
X34416554Y53340000D01*
X34407267Y53349287D01*
X34204992Y53484443D01*
X33980236Y53577540D01*
X33741637Y53625000D01*
X33498363Y53625000D01*
X33259764Y53577540D01*
X33035008Y53484443D01*
X32832733Y53349287D01*
X32660713Y53177267D01*
X32525557Y52974992D01*
X32432460Y52750236D01*
X32385000Y52511637D01*
X26460000Y52511637D01*
X26460000Y52631531D01*
X26464281Y52675000D01*
X26460000Y52718469D01*
X26460000Y52718477D01*
X26447195Y52848490D01*
X26396589Y53015313D01*
X26314411Y53169059D01*
X26203817Y53303817D01*
X26170044Y53331534D01*
X25881534Y53620044D01*
X25853817Y53653817D01*
X25719059Y53764411D01*
X25565313Y53846589D01*
X25398490Y53897195D01*
X25268477Y53910000D01*
X25268469Y53910000D01*
X25236809Y53913118D01*
X25281680Y53980273D01*
X25389853Y54241426D01*
X25445000Y54518665D01*
X25445000Y54801335D01*
X25389853Y55078574D01*
X25281680Y55339727D01*
X25124637Y55574759D01*
X24924759Y55774637D01*
X24689727Y55931680D01*
X24428574Y56039853D01*
X24151335Y56095000D01*
X23868665Y56095000D01*
X23591426Y56039853D01*
X23330273Y55931680D01*
X23095241Y55774637D01*
X22895363Y55574759D01*
X22738320Y55339727D01*
X22630147Y55078574D01*
X22575000Y54801335D01*
X22575000Y54518665D01*
X22630147Y54241426D01*
X22738320Y53980273D01*
X22785275Y53910000D01*
X17673426Y53910000D01*
X17762256Y53946795D01*
X17931774Y54060063D01*
X18075937Y54204226D01*
X18189205Y54373744D01*
X18267226Y54562102D01*
X18307000Y54762061D01*
X18307000Y54965939D01*
X18267226Y55165898D01*
X18189205Y55354256D01*
X18157000Y55402454D01*
X18157000Y56215000D01*
X26185001Y56215000D01*
X26185001Y55774522D01*
X26155241Y55754637D01*
X25955363Y55554759D01*
X25798320Y55319727D01*
X25690147Y55058574D01*
X25635000Y54781335D01*
X25635000Y54498665D01*
X25690147Y54221426D01*
X25798320Y53960273D01*
X25955363Y53725241D01*
X26155241Y53525363D01*
X26390273Y53368320D01*
X26651426Y53260147D01*
X26928665Y53205000D01*
X27211335Y53205000D01*
X27488574Y53260147D01*
X27749727Y53368320D01*
X27984759Y53525363D01*
X28184637Y53725241D01*
X28341680Y53960273D01*
X28449853Y54221426D01*
X28505000Y54498665D01*
X28505000Y54781335D01*
X28449853Y55058574D01*
X28341680Y55319727D01*
X28184637Y55554759D01*
X27984759Y55754637D01*
X27955000Y55774521D01*
X27955000Y56686534D01*
X27959281Y56730001D01*
X27955000Y56773467D01*
X27955000Y56773477D01*
X27954227Y56781335D01*
X28305000Y56781335D01*
X28305000Y56498665D01*
X28360147Y56221426D01*
X28468320Y55960273D01*
X28625363Y55725241D01*
X28825241Y55525363D01*
X29060273Y55368320D01*
X29321426Y55260147D01*
X29598665Y55205000D01*
X29881335Y55205000D01*
X30158574Y55260147D01*
X30419727Y55368320D01*
X30654759Y55525363D01*
X30854637Y55725241D01*
X31011680Y55960273D01*
X31119853Y56221426D01*
X31175000Y56498665D01*
X31175000Y56781335D01*
X31119853Y57058574D01*
X31011680Y57319727D01*
X30854637Y57554759D01*
X30654759Y57754637D01*
X30419727Y57911680D01*
X30158574Y58019853D01*
X29881335Y58075000D01*
X29598665Y58075000D01*
X29321426Y58019853D01*
X29060273Y57911680D01*
X28825241Y57754637D01*
X28625363Y57554759D01*
X28468320Y57319727D01*
X28360147Y57058574D01*
X28305000Y56781335D01*
X27954227Y56781335D01*
X27942195Y56903490D01*
X27891589Y57070313D01*
X27809411Y57224059D01*
X27698817Y57358817D01*
X27665044Y57386534D01*
X27356534Y57695044D01*
X27328817Y57728817D01*
X27194059Y57839411D01*
X27040313Y57921589D01*
X26873490Y57972195D01*
X26743477Y57985000D01*
X26743469Y57985000D01*
X26700000Y57989281D01*
X26656531Y57985000D01*
X18236579Y57985000D01*
X18396586Y58145007D01*
X24161539Y58145007D01*
X24209737Y58112802D01*
X24398095Y58034781D01*
X24598054Y57995007D01*
X24801932Y57995007D01*
X25001891Y58034781D01*
X25190249Y58112802D01*
X25359767Y58226070D01*
X25503930Y58370233D01*
X25617198Y58539751D01*
X25695219Y58728109D01*
X25734993Y58928068D01*
X25734993Y59063429D01*
X25803467Y58994955D01*
X25831184Y58961182D01*
X25965942Y58850588D01*
X26119688Y58768410D01*
X26286511Y58717804D01*
X26416524Y58704999D01*
X26416532Y58704999D01*
X26460001Y58700718D01*
X26503470Y58704999D01*
X33076346Y58704999D01*
X32851706Y58368801D01*
X32680023Y57954322D01*
X32592500Y57514314D01*
X32592500Y57065686D01*
X32680023Y56625678D01*
X32851706Y56211199D01*
X33100950Y55838178D01*
X33418178Y55520950D01*
X33791199Y55271706D01*
X34205678Y55100023D01*
X34645686Y55012500D01*
X35094314Y55012500D01*
X35534322Y55100023D01*
X35948801Y55271706D01*
X36321822Y55520950D01*
X36639050Y55838178D01*
X36888294Y56211199D01*
X37059977Y56625678D01*
X37147500Y57065686D01*
X37147500Y57514314D01*
X37059977Y57954322D01*
X36888294Y58368801D01*
X36663654Y58704999D01*
X40950532Y58704999D01*
X40994001Y58700718D01*
X41037470Y58704999D01*
X42243423Y58704999D01*
X42903902Y58044519D01*
X42901486Y58045000D01*
X42638514Y58045000D01*
X42380595Y57993696D01*
X42137641Y57893061D01*
X41918987Y57746962D01*
X41733038Y57561013D01*
X41586939Y57342359D01*
X41486304Y57099405D01*
X41463050Y56982501D01*
X41459853Y56998574D01*
X41351680Y57259727D01*
X41194637Y57494759D01*
X40994759Y57694637D01*
X40759727Y57851680D01*
X40498574Y57959853D01*
X40221335Y58015000D01*
X39938665Y58015000D01*
X39661426Y57959853D01*
X39400273Y57851680D01*
X39165241Y57694637D01*
X38965363Y57494759D01*
X38808320Y57259727D01*
X38700147Y56998574D01*
X38645000Y56721335D01*
X38645000Y56438665D01*
X38700147Y56161426D01*
X38808320Y55900273D01*
X38965363Y55665241D01*
X39165241Y55465363D01*
X39400273Y55308320D01*
X39661426Y55200147D01*
X39938665Y55145000D01*
X40221335Y55145000D01*
X40498574Y55200147D01*
X40759727Y55308320D01*
X40994759Y55465363D01*
X41194637Y55665241D01*
X41351680Y55900273D01*
X41459853Y56161426D01*
X41489824Y56312097D01*
X41586939Y56077641D01*
X41733038Y55858987D01*
X41918987Y55673038D01*
X42137641Y55526939D01*
X42380595Y55426304D01*
X42638514Y55375000D01*
X42901486Y55375000D01*
X43159405Y55426304D01*
X43402359Y55526939D01*
X43621013Y55673038D01*
X43806962Y55858987D01*
X43953061Y56077641D01*
X43995476Y56180039D01*
X44005363Y56165241D01*
X44205241Y55965363D01*
X44440273Y55808320D01*
X44701426Y55700147D01*
X44978665Y55645000D01*
X45261335Y55645000D01*
X45538574Y55700147D01*
X45799727Y55808320D01*
X46034759Y55965363D01*
X46234637Y56165241D01*
X46391680Y56400273D01*
X46499853Y56661426D01*
X46555000Y56938665D01*
X46555000Y57221335D01*
X46499853Y57498574D01*
X46391680Y57759727D01*
X46234637Y57994759D01*
X46034759Y58194637D01*
X45802241Y58350000D01*
X46034759Y58505363D01*
X46234637Y58705241D01*
X46391680Y58940273D01*
X46499853Y59201426D01*
X46555000Y59478665D01*
X46555000Y59761335D01*
X46499853Y60038574D01*
X46391680Y60299727D01*
X46234637Y60534759D01*
X46034759Y60734637D01*
X45802241Y60890000D01*
X46034759Y61045363D01*
X46234637Y61245241D01*
X46391680Y61480273D01*
X46499853Y61741426D01*
X46555000Y62018665D01*
X46555000Y62301335D01*
X46499853Y62578574D01*
X46391680Y62839727D01*
X46234637Y63074759D01*
X46036039Y63273357D01*
X46044482Y63274188D01*
X46164180Y63310498D01*
X46274494Y63369463D01*
X46371185Y63448815D01*
X46450537Y63545506D01*
X46509502Y63655820D01*
X46545812Y63775518D01*
X46556595Y63885000D01*
X48216531Y63885000D01*
X48260000Y63880719D01*
X48303469Y63885000D01*
X48303477Y63885000D01*
X48433490Y63897805D01*
X48600313Y63948411D01*
X48711998Y64008107D01*
X48815898Y64028774D01*
X49004256Y64106795D01*
X49173774Y64220063D01*
X49317937Y64364226D01*
X49431205Y64533744D01*
X49509226Y64722102D01*
X49543585Y64894836D01*
X49661001Y64777420D01*
X49661000Y59317469D01*
X49656719Y59274000D01*
X49661000Y59230531D01*
X49661000Y59230524D01*
X49669148Y59147795D01*
X49673805Y59100510D01*
X49675935Y59093490D01*
X49724411Y58933688D01*
X49806589Y58779942D01*
X49917183Y58645183D01*
X49950956Y58617466D01*
X51311983Y57256439D01*
X51305000Y57221335D01*
X51305000Y56938665D01*
X51360147Y56661426D01*
X51468320Y56400273D01*
X51625363Y56165241D01*
X51825241Y55965363D01*
X52060273Y55808320D01*
X52321426Y55700147D01*
X52598665Y55645000D01*
X52881335Y55645000D01*
X53158574Y55700147D01*
X53419727Y55808320D01*
X53654759Y55965363D01*
X53854637Y56165241D01*
X54011680Y56400273D01*
X54119853Y56661426D01*
X54175000Y56938665D01*
X54175000Y57221335D01*
X54119853Y57498574D01*
X54011680Y57759727D01*
X53854637Y57994759D01*
X53654759Y58194637D01*
X53422241Y58350000D01*
X53654759Y58505363D01*
X53854637Y58705241D01*
X53936771Y58828163D01*
X54003038Y58728987D01*
X54188987Y58543038D01*
X54407641Y58396939D01*
X54650595Y58296304D01*
X54908514Y58245000D01*
X55171486Y58245000D01*
X55429405Y58296304D01*
X55672359Y58396939D01*
X55765001Y58458840D01*
X55765001Y53081160D01*
X55672359Y53143061D01*
X55429405Y53243696D01*
X55171486Y53295000D01*
X54908514Y53295000D01*
X54650595Y53243696D01*
X54407641Y53143061D01*
X54188987Y52996962D01*
X54003038Y52811013D01*
X53912451Y52675439D01*
X53881680Y52749727D01*
X53724637Y52984759D01*
X53524759Y53184637D01*
X53289727Y53341680D01*
X53028574Y53449853D01*
X52751335Y53505000D01*
X52468665Y53505000D01*
X52191426Y53449853D01*
X51930273Y53341680D01*
X51695241Y53184637D01*
X51495363Y52984759D01*
X51338320Y52749727D01*
X51230147Y52488574D01*
X51175000Y52211335D01*
X51175000Y51928665D01*
X51230147Y51651426D01*
X51338320Y51390273D01*
X51495363Y51155241D01*
X51695241Y50955363D01*
X51930273Y50798320D01*
X52191426Y50690147D01*
X52468665Y50635000D01*
X52751335Y50635000D01*
X53028574Y50690147D01*
X53289727Y50798320D01*
X53524759Y50955363D01*
X53724637Y51155241D01*
X53850392Y51343447D01*
X53856939Y51327641D01*
X54003038Y51108987D01*
X54188987Y50923038D01*
X54407641Y50776939D01*
X54650595Y50676304D01*
X54908514Y50625000D01*
X55171486Y50625000D01*
X55429405Y50676304D01*
X55672359Y50776939D01*
X55765001Y50838840D01*
X55765001Y49239201D01*
X55618574Y49299853D01*
X55341335Y49355000D01*
X55058665Y49355000D01*
X54781426Y49299853D01*
X54520273Y49191680D01*
X54285241Y49034637D01*
X54085363Y48834759D01*
X53928320Y48599727D01*
X53820147Y48338574D01*
X53765000Y48061335D01*
X53765000Y47778665D01*
X53820147Y47501426D01*
X53928320Y47240273D01*
X54085363Y47005241D01*
X54285241Y46805363D01*
X54520273Y46648320D01*
X54781426Y46540147D01*
X55058665Y46485000D01*
X55341335Y46485000D01*
X55618574Y46540147D01*
X55765001Y46600799D01*
X55765001Y46176064D01*
X55538574Y46269853D01*
X55261335Y46325000D01*
X54978665Y46325000D01*
X54701426Y46269853D01*
X54440273Y46161680D01*
X54205241Y46004637D01*
X54005363Y45804759D01*
X53848320Y45569727D01*
X53740147Y45308574D01*
X53685000Y45031335D01*
X53685000Y44748665D01*
X53740147Y44471426D01*
X53848320Y44210273D01*
X54005363Y43975241D01*
X54205241Y43775363D01*
X54440273Y43618320D01*
X54701426Y43510147D01*
X54978665Y43455000D01*
X55261335Y43455000D01*
X55538574Y43510147D01*
X55765001Y43603936D01*
X55765000Y1285955D01*
X55751733Y1150652D01*
X55722882Y1055091D01*
X55676019Y966955D01*
X55612927Y889597D01*
X55536013Y825967D01*
X55448206Y778491D01*
X55352842Y748971D01*
X55219925Y735000D01*
X1285944Y735000D01*
X1150652Y748265D01*
X1055091Y777117D01*
X966954Y823981D01*
X889596Y887073D01*
X825967Y963987D01*
X778491Y1051792D01*
X748971Y1147158D01*
X735000Y1280075D01*
X735000Y31796523D01*
X1954655Y31796523D01*
X1954655Y31403475D01*
X2031335Y31017978D01*
X2181748Y30654849D01*
X2400114Y30328040D01*
X2678041Y30050113D01*
X3004850Y29831747D01*
X3367979Y29681334D01*
X3753476Y29604654D01*
X4146524Y29604654D01*
X4532021Y29681334D01*
X4895150Y29831747D01*
X5221959Y30050113D01*
X5499886Y30328040D01*
X5718252Y30654849D01*
X5868665Y31017978D01*
X5945345Y31403475D01*
X5945345Y31796523D01*
X7354655Y31796523D01*
X7354655Y31403475D01*
X7431335Y31017978D01*
X7581748Y30654849D01*
X7800114Y30328040D01*
X8078041Y30050113D01*
X8404850Y29831747D01*
X8767979Y29681334D01*
X9153476Y29604654D01*
X9546524Y29604654D01*
X9932021Y29681334D01*
X10295150Y29831747D01*
X10621959Y30050113D01*
X10899886Y30328040D01*
X11118252Y30654849D01*
X11268665Y31017978D01*
X11345345Y31403475D01*
X11345345Y31796523D01*
X12754655Y31796523D01*
X12754655Y31403475D01*
X12831335Y31017978D01*
X12981748Y30654849D01*
X13200114Y30328040D01*
X13478041Y30050113D01*
X13804850Y29831747D01*
X14167979Y29681334D01*
X14553476Y29604654D01*
X14946524Y29604654D01*
X15332021Y29681334D01*
X15695150Y29831747D01*
X16021959Y30050113D01*
X16299886Y30328040D01*
X16518252Y30654849D01*
X16668665Y31017978D01*
X16745345Y31403475D01*
X16745345Y31796523D01*
X18154656Y31796523D01*
X18154656Y31403475D01*
X18231336Y31017979D01*
X18381749Y30654849D01*
X18600115Y30328041D01*
X18878042Y30050114D01*
X19204850Y29831748D01*
X19567980Y29681335D01*
X19953476Y29604655D01*
X20346524Y29604655D01*
X20732020Y29681335D01*
X21095150Y29831748D01*
X21421958Y30050114D01*
X21699885Y30328041D01*
X21918251Y30654849D01*
X22068664Y31017979D01*
X22145344Y31403475D01*
X22145344Y31796523D01*
X23554654Y31796523D01*
X23554654Y31403475D01*
X23631334Y31017978D01*
X23781747Y30654849D01*
X24000113Y30328040D01*
X24278040Y30050113D01*
X24604849Y29831747D01*
X24967978Y29681334D01*
X25353475Y29604654D01*
X25746523Y29604654D01*
X26132020Y29681334D01*
X26495149Y29831747D01*
X26821958Y30050113D01*
X27099885Y30328040D01*
X27318251Y30654849D01*
X27468664Y31017978D01*
X27545344Y31403475D01*
X27545344Y31796523D01*
X28954654Y31796523D01*
X28954654Y31403475D01*
X29031334Y31017978D01*
X29181747Y30654849D01*
X29400113Y30328040D01*
X29678040Y30050113D01*
X30004849Y29831747D01*
X30367978Y29681334D01*
X30753475Y29604654D01*
X31146523Y29604654D01*
X31532020Y29681334D01*
X31895149Y29831747D01*
X32221958Y30050113D01*
X32499885Y30328040D01*
X32718251Y30654849D01*
X32868664Y31017978D01*
X32945344Y31403475D01*
X32945344Y31796523D01*
X34354654Y31796523D01*
X34354654Y31403475D01*
X34431334Y31017978D01*
X34581747Y30654849D01*
X34800113Y30328040D01*
X35078040Y30050113D01*
X35404849Y29831747D01*
X35767978Y29681334D01*
X36153475Y29604654D01*
X36546523Y29604654D01*
X36932020Y29681334D01*
X37295149Y29831747D01*
X37621958Y30050113D01*
X37899885Y30328040D01*
X38118251Y30654849D01*
X38268664Y31017978D01*
X38345344Y31403475D01*
X38345344Y31796523D01*
X39754655Y31796523D01*
X39754655Y31403475D01*
X39831335Y31017978D01*
X39981748Y30654849D01*
X40200114Y30328040D01*
X40478041Y30050113D01*
X40804850Y29831747D01*
X41167979Y29681334D01*
X41553476Y29604654D01*
X41946524Y29604654D01*
X42332021Y29681334D01*
X42695150Y29831747D01*
X43021959Y30050113D01*
X43299886Y30328040D01*
X43518252Y30654849D01*
X43668665Y31017978D01*
X43745345Y31403475D01*
X43745345Y31796523D01*
X45154655Y31796523D01*
X45154655Y31403475D01*
X45231335Y31017978D01*
X45381748Y30654849D01*
X45600114Y30328040D01*
X45878041Y30050113D01*
X46204850Y29831747D01*
X46567979Y29681334D01*
X46953476Y29604654D01*
X47346524Y29604654D01*
X47732021Y29681334D01*
X48095150Y29831747D01*
X48421959Y30050113D01*
X48699886Y30328040D01*
X48918252Y30654849D01*
X49068665Y31017978D01*
X49145345Y31403475D01*
X49145345Y31796523D01*
X50554655Y31796523D01*
X50554655Y31403475D01*
X50631335Y31017978D01*
X50781748Y30654849D01*
X51000114Y30328040D01*
X51278041Y30050113D01*
X51604850Y29831747D01*
X51967979Y29681334D01*
X52353476Y29604654D01*
X52746524Y29604654D01*
X53132021Y29681334D01*
X53495150Y29831747D01*
X53821959Y30050113D01*
X54099886Y30328040D01*
X54318252Y30654849D01*
X54468665Y31017978D01*
X54545345Y31403475D01*
X54545345Y31796523D01*
X54468665Y32182020D01*
X54318252Y32545149D01*
X54099886Y32871958D01*
X53821959Y33149885D01*
X53495150Y33368251D01*
X53132021Y33518664D01*
X52746524Y33595344D01*
X52353476Y33595344D01*
X51967979Y33518664D01*
X51604850Y33368251D01*
X51278041Y33149885D01*
X51000114Y32871958D01*
X50781748Y32545149D01*
X50631335Y32182020D01*
X50554655Y31796523D01*
X49145345Y31796523D01*
X49068665Y32182020D01*
X48918252Y32545149D01*
X48699886Y32871958D01*
X48421959Y33149885D01*
X48095150Y33368251D01*
X47732021Y33518664D01*
X47346524Y33595344D01*
X46953476Y33595344D01*
X46567979Y33518664D01*
X46204850Y33368251D01*
X45878041Y33149885D01*
X45600114Y32871958D01*
X45381748Y32545149D01*
X45231335Y32182020D01*
X45154655Y31796523D01*
X43745345Y31796523D01*
X43668665Y32182020D01*
X43518252Y32545149D01*
X43299886Y32871958D01*
X43021959Y33149885D01*
X42695150Y33368251D01*
X42332021Y33518664D01*
X41946524Y33595344D01*
X41553476Y33595344D01*
X41167979Y33518664D01*
X40804850Y33368251D01*
X40478041Y33149885D01*
X40200114Y32871958D01*
X39981748Y32545149D01*
X39831335Y32182020D01*
X39754655Y31796523D01*
X38345344Y31796523D01*
X38268664Y32182020D01*
X38118251Y32545149D01*
X37899885Y32871958D01*
X37621958Y33149885D01*
X37295149Y33368251D01*
X36932020Y33518664D01*
X36546523Y33595344D01*
X36153475Y33595344D01*
X35767978Y33518664D01*
X35404849Y33368251D01*
X35078040Y33149885D01*
X34800113Y32871958D01*
X34581747Y32545149D01*
X34431334Y32182020D01*
X34354654Y31796523D01*
X32945344Y31796523D01*
X32868664Y32182020D01*
X32718251Y32545149D01*
X32499885Y32871958D01*
X32221958Y33149885D01*
X31895149Y33368251D01*
X31532020Y33518664D01*
X31146523Y33595344D01*
X30753475Y33595344D01*
X30367978Y33518664D01*
X30004849Y33368251D01*
X29678040Y33149885D01*
X29400113Y32871958D01*
X29181747Y32545149D01*
X29031334Y32182020D01*
X28954654Y31796523D01*
X27545344Y31796523D01*
X27468664Y32182020D01*
X27318251Y32545149D01*
X27099885Y32871958D01*
X26821958Y33149885D01*
X26495149Y33368251D01*
X26132020Y33518664D01*
X25746523Y33595344D01*
X25353475Y33595344D01*
X24967978Y33518664D01*
X24604849Y33368251D01*
X24278040Y33149885D01*
X24000113Y32871958D01*
X23781747Y32545149D01*
X23631334Y32182020D01*
X23554654Y31796523D01*
X22145344Y31796523D01*
X22068664Y32182019D01*
X21918251Y32545149D01*
X21699885Y32871957D01*
X21421958Y33149884D01*
X21095150Y33368250D01*
X20732020Y33518663D01*
X20346524Y33595343D01*
X19953476Y33595343D01*
X19567980Y33518663D01*
X19204850Y33368250D01*
X18878042Y33149884D01*
X18600115Y32871957D01*
X18381749Y32545149D01*
X18231336Y32182019D01*
X18154656Y31796523D01*
X16745345Y31796523D01*
X16668665Y32182020D01*
X16518252Y32545149D01*
X16299886Y32871958D01*
X16021959Y33149885D01*
X15695150Y33368251D01*
X15332021Y33518664D01*
X14946524Y33595344D01*
X14553476Y33595344D01*
X14167979Y33518664D01*
X13804850Y33368251D01*
X13478041Y33149885D01*
X13200114Y32871958D01*
X12981748Y32545149D01*
X12831335Y32182020D01*
X12754655Y31796523D01*
X11345345Y31796523D01*
X11268665Y32182020D01*
X11118252Y32545149D01*
X10899886Y32871958D01*
X10621959Y33149885D01*
X10295150Y33368251D01*
X9932021Y33518664D01*
X9546524Y33595344D01*
X9153476Y33595344D01*
X8767979Y33518664D01*
X8404850Y33368251D01*
X8078041Y33149885D01*
X7800114Y32871958D01*
X7581748Y32545149D01*
X7431335Y32182020D01*
X7354655Y31796523D01*
X5945345Y31796523D01*
X5868665Y32182020D01*
X5718252Y32545149D01*
X5499886Y32871958D01*
X5221959Y33149885D01*
X4895150Y33368251D01*
X4532021Y33518664D01*
X4146524Y33595344D01*
X3753476Y33595344D01*
X3367979Y33518664D01*
X3004850Y33368251D01*
X2678041Y33149885D01*
X2400114Y32871958D01*
X2181748Y32545149D01*
X2031335Y32182020D01*
X1954655Y31796523D01*
X735000Y31796523D01*
X735000Y36721028D01*
X19755859Y36721028D01*
X19755859Y36278970D01*
X19842100Y35845407D01*
X20011268Y35437000D01*
X20256862Y35069443D01*
X20569444Y34756861D01*
X20937001Y34511267D01*
X21345408Y34342099D01*
X21778971Y34255858D01*
X22221029Y34255858D01*
X22654592Y34342099D01*
X23062999Y34511267D01*
X23430556Y34756861D01*
X23743138Y35069443D01*
X23988732Y35437000D01*
X24157900Y35845407D01*
X24244141Y36278970D01*
X24244141Y36721028D01*
X24157900Y37154591D01*
X23988732Y37562998D01*
X23743138Y37930555D01*
X23430556Y38243137D01*
X23062999Y38488731D01*
X22987507Y38520001D01*
X37571928Y38520001D01*
X37571928Y34619999D01*
X37588992Y34446745D01*
X37639528Y34280149D01*
X37721595Y34126613D01*
X37832038Y33992038D01*
X37966613Y33881595D01*
X38120149Y33799528D01*
X38286745Y33748992D01*
X38459999Y33731928D01*
X42360001Y33731928D01*
X42533255Y33748992D01*
X42699851Y33799528D01*
X42853387Y33881595D01*
X42987962Y33992038D01*
X43098405Y34126613D01*
X43180472Y34280149D01*
X43231008Y34446745D01*
X43248072Y34619999D01*
X43248072Y38520001D01*
X43231008Y38693255D01*
X43180472Y38859851D01*
X43098405Y39013387D01*
X42987962Y39147962D01*
X42853387Y39258405D01*
X42699851Y39340472D01*
X42533255Y39391008D01*
X42360001Y39408072D01*
X41963702Y39408072D01*
X42332021Y39481335D01*
X42695150Y39631748D01*
X43021959Y39850114D01*
X43299886Y40128041D01*
X43518252Y40454850D01*
X43668665Y40817979D01*
X43745345Y41203476D01*
X43745345Y41596524D01*
X45154655Y41596524D01*
X45154655Y41203476D01*
X45231335Y40817979D01*
X45381748Y40454850D01*
X45600114Y40128041D01*
X45878041Y39850114D01*
X46204850Y39631748D01*
X46567979Y39481335D01*
X46953476Y39404655D01*
X47346524Y39404655D01*
X47732021Y39481335D01*
X48095150Y39631748D01*
X48421959Y39850114D01*
X48699886Y40128041D01*
X48918252Y40454850D01*
X49068665Y40817979D01*
X49145345Y41203476D01*
X49145345Y41596524D01*
X50554655Y41596524D01*
X50554655Y41203476D01*
X50631335Y40817979D01*
X50781748Y40454850D01*
X51000114Y40128041D01*
X51278041Y39850114D01*
X51604850Y39631748D01*
X51967979Y39481335D01*
X52353476Y39404655D01*
X52746524Y39404655D01*
X53132021Y39481335D01*
X53495150Y39631748D01*
X53821959Y39850114D01*
X54099886Y40128041D01*
X54318252Y40454850D01*
X54468665Y40817979D01*
X54545345Y41203476D01*
X54545345Y41596524D01*
X54468665Y41982021D01*
X54318252Y42345150D01*
X54099886Y42671959D01*
X53821959Y42949886D01*
X53495150Y43168252D01*
X53132021Y43318665D01*
X52746524Y43395345D01*
X52353476Y43395345D01*
X51967979Y43318665D01*
X51604850Y43168252D01*
X51278041Y42949886D01*
X51000114Y42671959D01*
X50781748Y42345150D01*
X50631335Y41982021D01*
X50554655Y41596524D01*
X49145345Y41596524D01*
X49068665Y41982021D01*
X48918252Y42345150D01*
X48699886Y42671959D01*
X48421959Y42949886D01*
X48095150Y43168252D01*
X47732021Y43318665D01*
X47346524Y43395345D01*
X46953476Y43395345D01*
X46567979Y43318665D01*
X46204850Y43168252D01*
X45878041Y42949886D01*
X45600114Y42671959D01*
X45381748Y42345150D01*
X45231335Y41982021D01*
X45154655Y41596524D01*
X43745345Y41596524D01*
X43668665Y41982021D01*
X43518252Y42345150D01*
X43299886Y42671959D01*
X43021959Y42949886D01*
X42864644Y43055000D01*
X42911335Y43055000D01*
X43188574Y43110147D01*
X43449727Y43218320D01*
X43684759Y43375363D01*
X43884637Y43575241D01*
X44041680Y43810273D01*
X44149853Y44071426D01*
X44205000Y44348665D01*
X44205000Y44631335D01*
X44149853Y44908574D01*
X44041680Y45169727D01*
X43884637Y45404759D01*
X43684759Y45604637D01*
X43482173Y45740000D01*
X43684759Y45875363D01*
X43884637Y46075241D01*
X44041680Y46310273D01*
X44149853Y46571426D01*
X44188040Y46763402D01*
X44360273Y46648320D01*
X44621426Y46540147D01*
X44898665Y46485000D01*
X45181335Y46485000D01*
X45458574Y46540147D01*
X45719727Y46648320D01*
X45954759Y46805363D01*
X46154637Y47005241D01*
X46311680Y47240273D01*
X46419853Y47501426D01*
X46475000Y47778665D01*
X46475000Y48061335D01*
X46419853Y48338574D01*
X46311680Y48599727D01*
X46154637Y48834759D01*
X45954759Y49034637D01*
X45719727Y49191680D01*
X45458574Y49299853D01*
X45181335Y49355000D01*
X44898665Y49355000D01*
X44621426Y49299853D01*
X44360273Y49191680D01*
X44125241Y49034637D01*
X44105000Y49014396D01*
X44105000Y49221486D01*
X44053696Y49479405D01*
X43953061Y49722359D01*
X43806962Y49941013D01*
X43621013Y50126962D01*
X43402359Y50273061D01*
X43159405Y50373696D01*
X42901486Y50425000D01*
X42638514Y50425000D01*
X42380595Y50373696D01*
X42137641Y50273061D01*
X41918987Y50126962D01*
X41733038Y49941013D01*
X41586939Y49722359D01*
X41486304Y49479405D01*
X41435000Y49221486D01*
X41435000Y48958514D01*
X41486304Y48700595D01*
X41586939Y48457641D01*
X41733038Y48238987D01*
X41862523Y48109502D01*
X41855241Y48104637D01*
X41655363Y47904759D01*
X41498320Y47669727D01*
X41390147Y47408574D01*
X41335000Y47131335D01*
X41335000Y47124690D01*
X41194637Y47334759D01*
X40994759Y47534637D01*
X40759727Y47691680D01*
X40498574Y47799853D01*
X40221335Y47855000D01*
X39938665Y47855000D01*
X39661426Y47799853D01*
X39400273Y47691680D01*
X39165241Y47534637D01*
X38965363Y47334759D01*
X38808320Y47099727D01*
X38700147Y46838574D01*
X38645000Y46561335D01*
X38645000Y46278665D01*
X38700147Y46001426D01*
X38808320Y45740273D01*
X38965363Y45505241D01*
X39165241Y45305363D01*
X39400273Y45148320D01*
X39661426Y45040147D01*
X39938665Y44985000D01*
X40221335Y44985000D01*
X40498574Y45040147D01*
X40759727Y45148320D01*
X40994759Y45305363D01*
X41194637Y45505241D01*
X41351680Y45740273D01*
X41459853Y46001426D01*
X41515000Y46278665D01*
X41515000Y46285310D01*
X41655363Y46075241D01*
X41855241Y45875363D01*
X42057827Y45740000D01*
X41855241Y45604637D01*
X41655363Y45404759D01*
X41498320Y45169727D01*
X41390147Y44908574D01*
X41335000Y44631335D01*
X41335000Y44348665D01*
X41390147Y44071426D01*
X41498320Y43810273D01*
X41655363Y43575241D01*
X41835259Y43395345D01*
X41553476Y43395345D01*
X41167979Y43318665D01*
X40804850Y43168252D01*
X40478041Y42949886D01*
X40200114Y42671959D01*
X39981748Y42345150D01*
X39831335Y41982021D01*
X39754655Y41596524D01*
X39754655Y41203476D01*
X39831335Y40817979D01*
X39981748Y40454850D01*
X40200114Y40128041D01*
X40478041Y39850114D01*
X40804850Y39631748D01*
X41167979Y39481335D01*
X41536298Y39408072D01*
X38459999Y39408072D01*
X38286745Y39391008D01*
X38120149Y39340472D01*
X37966613Y39258405D01*
X37832038Y39147962D01*
X37721595Y39013387D01*
X37639528Y38859851D01*
X37588992Y38693255D01*
X37571928Y38520001D01*
X22987507Y38520001D01*
X22654592Y38657899D01*
X22221029Y38744140D01*
X21778971Y38744140D01*
X21345408Y38657899D01*
X20937001Y38488731D01*
X20569444Y38243137D01*
X20256862Y37930555D01*
X20011268Y37562998D01*
X19842100Y37154591D01*
X19755859Y36721028D01*
X735000Y36721028D01*
X735000Y41596524D01*
X1954655Y41596524D01*
X1954655Y41203476D01*
X2031335Y40817979D01*
X2181748Y40454850D01*
X2400114Y40128041D01*
X2678041Y39850114D01*
X3004850Y39631748D01*
X3367979Y39481335D01*
X3753476Y39404655D01*
X4146524Y39404655D01*
X4532021Y39481335D01*
X4895150Y39631748D01*
X5221959Y39850114D01*
X5499886Y40128041D01*
X5718252Y40454850D01*
X5868665Y40817979D01*
X5945345Y41203476D01*
X5945345Y41596524D01*
X7354655Y41596524D01*
X7354655Y41203476D01*
X7431335Y40817979D01*
X7581748Y40454850D01*
X7800114Y40128041D01*
X8078041Y39850114D01*
X8404850Y39631748D01*
X8767979Y39481335D01*
X9153476Y39404655D01*
X9546524Y39404655D01*
X9932021Y39481335D01*
X10295150Y39631748D01*
X10621959Y39850114D01*
X10899886Y40128041D01*
X11118252Y40454850D01*
X11268665Y40817979D01*
X11345345Y41203476D01*
X11345345Y41596524D01*
X11268665Y41982021D01*
X11118252Y42345150D01*
X10899886Y42671959D01*
X10621959Y42949886D01*
X10295150Y43168252D01*
X9932021Y43318665D01*
X9546524Y43395345D01*
X9153476Y43395345D01*
X8767979Y43318665D01*
X8404850Y43168252D01*
X8078041Y42949886D01*
X7800114Y42671959D01*
X7581748Y42345150D01*
X7431335Y41982021D01*
X7354655Y41596524D01*
X5945345Y41596524D01*
X5868665Y41982021D01*
X5718252Y42345150D01*
X5499886Y42671959D01*
X5221959Y42949886D01*
X4895150Y43168252D01*
X4532021Y43318665D01*
X4146524Y43395345D01*
X3753476Y43395345D01*
X3367979Y43318665D01*
X3004850Y43168252D01*
X2678041Y42949886D01*
X2400114Y42671959D01*
X2181748Y42345150D01*
X2031335Y41982021D01*
X1954655Y41596524D01*
X735000Y41596524D01*
X735000Y45131335D01*
X4115000Y45131335D01*
X4115000Y44848665D01*
X4170147Y44571426D01*
X4278320Y44310273D01*
X4435363Y44075241D01*
X4635241Y43875363D01*
X4870273Y43718320D01*
X5131426Y43610147D01*
X5408665Y43555000D01*
X5691335Y43555000D01*
X5968574Y43610147D01*
X6229727Y43718320D01*
X6464759Y43875363D01*
X6664637Y44075241D01*
X6821680Y44310273D01*
X6929853Y44571426D01*
X6985000Y44848665D01*
X6985000Y45131335D01*
X6929853Y45408574D01*
X6821680Y45669727D01*
X6664637Y45904759D01*
X6464759Y46104637D01*
X6229727Y46261680D01*
X5968574Y46369853D01*
X5691335Y46425000D01*
X5408665Y46425000D01*
X5131426Y46369853D01*
X4870273Y46261680D01*
X4635241Y46104637D01*
X4435363Y45904759D01*
X4278320Y45669727D01*
X4170147Y45408574D01*
X4115000Y45131335D01*
X735000Y45131335D01*
X735000Y48231335D01*
X1015000Y48231335D01*
X1015000Y47948665D01*
X1070147Y47671426D01*
X1178320Y47410273D01*
X1335363Y47175241D01*
X1535241Y46975363D01*
X1770273Y46818320D01*
X2031426Y46710147D01*
X2308665Y46655000D01*
X2591335Y46655000D01*
X2868574Y46710147D01*
X3129727Y46818320D01*
X3364759Y46975363D01*
X3564637Y47175241D01*
X3721680Y47410273D01*
X3829853Y47671426D01*
X3885000Y47948665D01*
X3885000Y48231335D01*
X3829853Y48508574D01*
X3721680Y48769727D01*
X3564637Y49004759D01*
X3364759Y49204637D01*
X3129727Y49361680D01*
X2868574Y49469853D01*
X2591335Y49525000D01*
X2308665Y49525000D01*
X2031426Y49469853D01*
X1770273Y49361680D01*
X1535241Y49204637D01*
X1335363Y49004759D01*
X1178320Y48769727D01*
X1070147Y48508574D01*
X1015000Y48231335D01*
X735000Y48231335D01*
X735000Y53594000D01*
X1329025Y53594000D01*
X1352870Y53351898D01*
X1423489Y53119099D01*
X1538167Y52904551D01*
X1692498Y52716498D01*
X1880551Y52562167D01*
X2095099Y52447489D01*
X2327898Y52376870D01*
X2509335Y52359000D01*
X2805000Y52359000D01*
X2805000Y52202363D01*
X2852460Y51963764D01*
X2945557Y51739008D01*
X3080713Y51536733D01*
X3252733Y51364713D01*
X3455008Y51229557D01*
X3679764Y51136460D01*
X3918363Y51089000D01*
X4161637Y51089000D01*
X4400236Y51136460D01*
X4624992Y51229557D01*
X4827267Y51364713D01*
X4999287Y51536733D01*
X5134443Y51739008D01*
X5227540Y51963764D01*
X5275000Y52202363D01*
X5275000Y52359000D01*
X5431637Y52359000D01*
X5670236Y52406460D01*
X5894992Y52499557D01*
X6097267Y52634713D01*
X6269287Y52806733D01*
X6404443Y53009008D01*
X6497540Y53233764D01*
X6545000Y53472363D01*
X6545000Y53715637D01*
X6497540Y53954236D01*
X6404443Y54178992D01*
X6269287Y54381267D01*
X6097267Y54553287D01*
X5894992Y54688443D01*
X5670236Y54781540D01*
X5431637Y54829000D01*
X5188363Y54829000D01*
X4949764Y54781540D01*
X4725008Y54688443D01*
X4522733Y54553287D01*
X4350713Y54381267D01*
X4215557Y54178992D01*
X4139105Y53994420D01*
X4116511Y54068901D01*
X4001833Y54283449D01*
X3847502Y54471502D01*
X3659449Y54625833D01*
X3444901Y54740511D01*
X3212102Y54811130D01*
X3030665Y54829000D01*
X2509335Y54829000D01*
X2327898Y54811130D01*
X2095099Y54740511D01*
X1880551Y54625833D01*
X1692498Y54471502D01*
X1538167Y54283449D01*
X1423489Y54068901D01*
X1352870Y53836102D01*
X1329025Y53594000D01*
X735000Y53594000D01*
X735000Y71277351D01*
X767029Y71280707D01*
X832324Y71294088D01*
X897733Y71306544D01*
X907558Y71309507D01*
X1014770Y71342657D01*
X1076192Y71368453D01*
X1137957Y71393384D01*
X1147020Y71398199D01*
X1245752Y71451541D01*
X1301012Y71488788D01*
X1356752Y71525237D01*
X1364707Y71531720D01*
X1451197Y71603224D01*
X1498183Y71650509D01*
X1545762Y71697071D01*
X1552306Y71704976D01*
X1564418Y71719817D01*
X3166921Y71717208D01*
%TA.AperFunction,Conductor*%
D31*
G36*
X3166921Y71717208D02*
G01*
X3167254Y71716878D01*
X3213845Y71669300D01*
X3221752Y71662758D01*
X3342746Y71564078D01*
X3398270Y71527188D01*
X3453198Y71489578D01*
X3462222Y71484698D01*
X3462230Y71484694D01*
X3600082Y71411397D01*
X3661712Y71385995D01*
X3722904Y71359768D01*
X3732699Y71356735D01*
X3732705Y71356733D01*
X3732711Y71356732D01*
X3882176Y71311606D01*
X3947554Y71298661D01*
X4012683Y71284817D01*
X4022889Y71283744D01*
X4178276Y71268508D01*
X4178277Y71268508D01*
X4213895Y71265000D01*
X10498288Y71265000D01*
X10490273Y71261680D01*
X10255241Y71104637D01*
X10055363Y70904759D01*
X9898320Y70669727D01*
X9790147Y70408574D01*
X9735000Y70131335D01*
X9735000Y69927385D01*
X9684637Y70002759D01*
X9484759Y70202637D01*
X9249727Y70359680D01*
X8988574Y70467853D01*
X8711335Y70523000D01*
X8428665Y70523000D01*
X8151426Y70467853D01*
X7890273Y70359680D01*
X7655241Y70202637D01*
X7455363Y70002759D01*
X7298320Y69767727D01*
X7190147Y69506574D01*
X7180000Y69455562D01*
X7169853Y69506574D01*
X7061680Y69767727D01*
X6904637Y70002759D01*
X6704759Y70202637D01*
X6469727Y70359680D01*
X6208574Y70467853D01*
X5931335Y70523000D01*
X5648665Y70523000D01*
X5613561Y70516017D01*
X5544532Y70585046D01*
X5516817Y70618817D01*
X5382059Y70729411D01*
X5228313Y70811589D01*
X5061490Y70862195D01*
X4931477Y70875000D01*
X4931469Y70875000D01*
X4888000Y70879281D01*
X4844531Y70875000D01*
X4144521Y70875000D01*
X4124637Y70904759D01*
X3924759Y71104637D01*
X3689727Y71261680D01*
X3428574Y71369853D01*
X3151335Y71425000D01*
X2868665Y71425000D01*
X2591426Y71369853D01*
X2330273Y71261680D01*
X2095241Y71104637D01*
X1895363Y70904759D01*
X1738320Y70669727D01*
X1630147Y70408574D01*
X1575000Y70131335D01*
X1575000Y69848665D01*
X1630147Y69571426D01*
X1738320Y69310273D01*
X1895363Y69075241D01*
X2095241Y68875363D01*
X2330273Y68718320D01*
X2591426Y68610147D01*
X2868665Y68555000D01*
X3151335Y68555000D01*
X3428574Y68610147D01*
X3689727Y68718320D01*
X3924759Y68875363D01*
X4124637Y69075241D01*
X4144521Y69105000D01*
X4355000Y69105000D01*
X4355000Y68946665D01*
X4410147Y68669426D01*
X4518320Y68408273D01*
X4675363Y68173241D01*
X4873961Y67974643D01*
X4865518Y67973812D01*
X4745820Y67937502D01*
X4635506Y67878537D01*
X4538815Y67799185D01*
X4459463Y67702494D01*
X4400498Y67592180D01*
X4364188Y67472482D01*
X4351928Y67348000D01*
X4351928Y65748000D01*
X4364188Y65623518D01*
X4400498Y65503820D01*
X4459463Y65393506D01*
X4538815Y65296815D01*
X4545754Y65291121D01*
X4498686Y65177490D01*
X4445000Y64907592D01*
X4445000Y64632408D01*
X4498686Y64362510D01*
X4603995Y64108273D01*
X4756880Y63879465D01*
X4951465Y63684880D01*
X5180273Y63531995D01*
X5434510Y63426686D01*
X5704408Y63373000D01*
X5979592Y63373000D01*
X6249490Y63426686D01*
X6503727Y63531995D01*
X6732535Y63684880D01*
X6927120Y63879465D01*
X7080005Y64108273D01*
X7185314Y64362510D01*
X7239000Y64632408D01*
X7292686Y64362510D01*
X7397995Y64108273D01*
X7550880Y63879465D01*
X7685001Y63745344D01*
X7685000Y60511579D01*
X7028422Y59855000D01*
X6444099Y59855000D01*
X6473688Y59926434D01*
X6515000Y60134122D01*
X6515000Y60345878D01*
X6473688Y60553566D01*
X6392652Y60749203D01*
X6275007Y60925272D01*
X6143025Y61057254D01*
X6143025Y61243903D01*
X6101713Y61451591D01*
X6020677Y61647228D01*
X5903032Y61823297D01*
X5753297Y61973032D01*
X5577228Y62090677D01*
X5381591Y62171713D01*
X5173903Y62213025D01*
X4987254Y62213025D01*
X4855272Y62345007D01*
X4679203Y62462652D01*
X4483566Y62543688D01*
X4275878Y62585000D01*
X4064122Y62585000D01*
X3856434Y62543688D01*
X3660797Y62462652D01*
X3484728Y62345007D01*
X3334993Y62195272D01*
X3217348Y62019203D01*
X3136312Y61823566D01*
X3095000Y61615878D01*
X3095000Y61404122D01*
X3117129Y61292871D01*
X3005878Y61315000D01*
X2794122Y61315000D01*
X2586434Y61273688D01*
X2390797Y61192652D01*
X2284020Y61121306D01*
X2191510Y61112195D01*
X2024687Y61061589D01*
X1870941Y60979411D01*
X1736183Y60868817D01*
X1708466Y60835044D01*
X1304956Y60431534D01*
X1271183Y60403817D01*
X1160589Y60269058D01*
X1078411Y60115312D01*
X1047499Y60013410D01*
X1034571Y59970792D01*
X1027805Y59948489D01*
X1015000Y59818476D01*
X1015000Y59818469D01*
X1010719Y59775000D01*
X1015000Y59731531D01*
X1015001Y57293479D01*
X1010719Y57250000D01*
X1027805Y57076510D01*
X1078412Y56909687D01*
X1160590Y56755941D01*
X1243468Y56654954D01*
X1243471Y56654951D01*
X1271184Y56621183D01*
X1304951Y56593471D01*
X2593470Y55304951D01*
X2621183Y55271183D01*
X2654951Y55243470D01*
X2654953Y55243468D01*
X2707740Y55200147D01*
X2755941Y55160589D01*
X2909687Y55078411D01*
X3076510Y55027805D01*
X3206523Y55015000D01*
X3206533Y55015000D01*
X3249999Y55010719D01*
X3293465Y55015000D01*
X5683422Y55015000D01*
X6649469Y54048952D01*
X6677182Y54015184D01*
X6710950Y53987471D01*
X6710952Y53987469D01*
X6798109Y53915941D01*
X6811940Y53904590D01*
X6965686Y53822412D01*
X7132509Y53771806D01*
X7262522Y53759001D01*
X7262530Y53759001D01*
X7305999Y53754720D01*
X7349468Y53759001D01*
X9851928Y53759001D01*
X9851928Y52150000D01*
X9864188Y52025518D01*
X9900498Y51905820D01*
X9959463Y51795506D01*
X10038815Y51698815D01*
X10135506Y51619463D01*
X10245820Y51560498D01*
X10365518Y51524188D01*
X10490000Y51511928D01*
X12290000Y51511928D01*
X12414482Y51524188D01*
X12534180Y51560498D01*
X12644494Y51619463D01*
X12741185Y51698815D01*
X12820537Y51795506D01*
X12879502Y51905820D01*
X12915812Y52025518D01*
X12928072Y52150000D01*
X12928072Y53759001D01*
X14814421Y53759001D01*
X16890000Y51683421D01*
X16890001Y50628479D01*
X16885719Y50585000D01*
X16902805Y50411510D01*
X16953412Y50244687D01*
X17035590Y50090941D01*
X17118468Y49989954D01*
X17118471Y49989951D01*
X17146184Y49956183D01*
X17179951Y49928471D01*
X18329200Y48779221D01*
X18329200Y48579913D01*
X18379957Y48324737D01*
X18479522Y48084366D01*
X18624067Y47868039D01*
X18808039Y47684067D01*
X19024366Y47539522D01*
X19264633Y47440000D01*
X19024366Y47340478D01*
X18808039Y47195933D01*
X18624067Y47011961D01*
X18479522Y46795634D01*
X18379957Y46555263D01*
X18329200Y46300087D01*
X18329200Y46039913D01*
X18379957Y45784737D01*
X18479522Y45544366D01*
X18624067Y45328039D01*
X18808039Y45144067D01*
X19024366Y44999522D01*
X19264737Y44899957D01*
X19519913Y44849200D01*
X19780087Y44849200D01*
X20035263Y44899957D01*
X20275634Y44999522D01*
X20491961Y45144067D01*
X20675933Y45328039D01*
X20820478Y45544366D01*
X20920043Y45784737D01*
X20970800Y46039913D01*
X20970800Y46300087D01*
X20920043Y46555263D01*
X20820478Y46795634D01*
X20675933Y47011961D01*
X20491961Y47195933D01*
X20275634Y47340478D01*
X20035367Y47440000D01*
X20275634Y47539522D01*
X20491961Y47684067D01*
X20675933Y47868039D01*
X20820478Y48084366D01*
X20920043Y48324737D01*
X20970800Y48579913D01*
X20970800Y48840087D01*
X20920043Y49095263D01*
X20820478Y49335634D01*
X20675933Y49551961D01*
X20491961Y49735933D01*
X20275634Y49880478D01*
X20035367Y49980000D01*
X20275634Y50079522D01*
X20491961Y50224067D01*
X20675933Y50408039D01*
X20820478Y50624366D01*
X20920043Y50864737D01*
X20970800Y51119913D01*
X20970800Y51380087D01*
X20920043Y51635263D01*
X20820478Y51875634D01*
X20675933Y52091961D01*
X20627894Y52140000D01*
X21744776Y52140000D01*
X21689744Y52117205D01*
X21520226Y52003937D01*
X21376063Y51859774D01*
X21262795Y51690256D01*
X21184774Y51501898D01*
X21145000Y51301939D01*
X21145000Y51098061D01*
X21184774Y50898102D01*
X21262795Y50709744D01*
X21295000Y50661546D01*
X21295001Y44416580D01*
X21093422Y44215000D01*
X16918021Y44215000D01*
X16981680Y44310273D01*
X17089853Y44571426D01*
X17145000Y44848665D01*
X17145000Y45131335D01*
X17089853Y45408574D01*
X16981680Y45669727D01*
X16824637Y45904759D01*
X16624759Y46104637D01*
X16389727Y46261680D01*
X16128574Y46369853D01*
X15851335Y46425000D01*
X15568665Y46425000D01*
X15441230Y46399651D01*
X15503561Y46461983D01*
X15538665Y46455000D01*
X15821335Y46455000D01*
X16098574Y46510147D01*
X16359727Y46618320D01*
X16594759Y46775363D01*
X16794637Y46975241D01*
X16951680Y47210273D01*
X17059853Y47471426D01*
X17115000Y47748665D01*
X17115000Y48031335D01*
X17059853Y48308574D01*
X16951680Y48569727D01*
X16794637Y48804759D01*
X16594759Y49004637D01*
X16359727Y49161680D01*
X16098574Y49269853D01*
X15821335Y49325000D01*
X15538665Y49325000D01*
X15261426Y49269853D01*
X15000273Y49161680D01*
X14765241Y49004637D01*
X14565363Y48804759D01*
X14408320Y48569727D01*
X14300147Y48308574D01*
X14245000Y48031335D01*
X14245000Y47748665D01*
X14251983Y47713561D01*
X12764951Y46226529D01*
X12731184Y46198817D01*
X12703471Y46165049D01*
X12703468Y46165046D01*
X12620590Y46064059D01*
X12538412Y45910313D01*
X12487805Y45743490D01*
X12470719Y45570000D01*
X12475001Y45526522D01*
X12475000Y44273470D01*
X12470719Y44230000D01*
X12475000Y44186531D01*
X12475000Y44186524D01*
X12487805Y44056511D01*
X12538411Y43889688D01*
X12620589Y43735942D01*
X12731183Y43601183D01*
X12764956Y43573466D01*
X13433288Y42905133D01*
X13200114Y42671959D01*
X12981748Y42345150D01*
X12831335Y41982021D01*
X12754655Y41596524D01*
X12754655Y41203476D01*
X12831335Y40817979D01*
X12981748Y40454850D01*
X13200114Y40128041D01*
X13478041Y39850114D01*
X13804850Y39631748D01*
X14167979Y39481335D01*
X14553476Y39404655D01*
X14946524Y39404655D01*
X15332021Y39481335D01*
X15695150Y39631748D01*
X16021959Y39850114D01*
X16299886Y40128041D01*
X16518252Y40454850D01*
X16668665Y40817979D01*
X16745345Y41203476D01*
X16745345Y41596524D01*
X16668665Y41982021D01*
X16518252Y42345150D01*
X16451535Y42445000D01*
X18448467Y42445000D01*
X18381749Y42345150D01*
X18231336Y41982020D01*
X18154656Y41596524D01*
X18154656Y41203476D01*
X18231336Y40817980D01*
X18381749Y40454850D01*
X18600115Y40128042D01*
X18878042Y39850115D01*
X19204850Y39631749D01*
X19567980Y39481336D01*
X19953476Y39404656D01*
X20346524Y39404656D01*
X20732020Y39481336D01*
X21095150Y39631749D01*
X21421958Y39850115D01*
X21699885Y40128042D01*
X21918251Y40454850D01*
X22068664Y40817980D01*
X22145344Y41203476D01*
X22145344Y41596524D01*
X23554654Y41596524D01*
X23554654Y41203476D01*
X23631334Y40817979D01*
X23781747Y40454850D01*
X24000113Y40128041D01*
X24278040Y39850114D01*
X24604849Y39631748D01*
X24967978Y39481335D01*
X25353475Y39404655D01*
X25746523Y39404655D01*
X26132020Y39481335D01*
X26495149Y39631748D01*
X26821958Y39850114D01*
X27099885Y40128041D01*
X27318251Y40454850D01*
X27468664Y40817979D01*
X27545344Y41203476D01*
X27545344Y41596524D01*
X28954654Y41596524D01*
X28954654Y41203476D01*
X29031334Y40817979D01*
X29181747Y40454850D01*
X29400113Y40128041D01*
X29678040Y39850114D01*
X30004849Y39631748D01*
X30367978Y39481335D01*
X30753475Y39404655D01*
X31146523Y39404655D01*
X31532020Y39481335D01*
X31895149Y39631748D01*
X32221958Y39850114D01*
X32499885Y40128041D01*
X32718251Y40454850D01*
X32868664Y40817979D01*
X32945344Y41203476D01*
X32945344Y41596524D01*
X32868664Y41982021D01*
X32718251Y42345150D01*
X32499885Y42671959D01*
X32221958Y42949886D01*
X31895149Y43168252D01*
X31532020Y43318665D01*
X31146523Y43395345D01*
X30753475Y43395345D01*
X30367978Y43318665D01*
X30004849Y43168252D01*
X29678040Y42949886D01*
X29400113Y42671959D01*
X29181747Y42345150D01*
X29031334Y41982021D01*
X28954654Y41596524D01*
X27545344Y41596524D01*
X27468664Y41982021D01*
X27318251Y42345150D01*
X27099885Y42671959D01*
X26821958Y42949886D01*
X26508431Y43159378D01*
X26651426Y43100147D01*
X26928665Y43045000D01*
X27211335Y43045000D01*
X27488574Y43100147D01*
X27749727Y43208320D01*
X27984759Y43365363D01*
X28184637Y43565241D01*
X28284244Y43714314D01*
X32592500Y43714314D01*
X32592500Y43265686D01*
X32680023Y42825678D01*
X32851706Y42411199D01*
X33100950Y42038178D01*
X33418178Y41720950D01*
X33791199Y41471706D01*
X34205678Y41300023D01*
X34354654Y41270390D01*
X34354654Y41203476D01*
X34431334Y40817979D01*
X34581747Y40454850D01*
X34800113Y40128041D01*
X35078040Y39850114D01*
X35404849Y39631748D01*
X35767978Y39481335D01*
X36153475Y39404655D01*
X36546523Y39404655D01*
X36932020Y39481335D01*
X37295149Y39631748D01*
X37621958Y39850114D01*
X37899885Y40128041D01*
X38118251Y40454850D01*
X38268664Y40817979D01*
X38345344Y41203476D01*
X38345344Y41596524D01*
X38268664Y41982021D01*
X38118251Y42345150D01*
X37899885Y42671959D01*
X37621958Y42949886D01*
X37295149Y43168252D01*
X37140834Y43232172D01*
X37147500Y43265686D01*
X37147500Y43714314D01*
X37059977Y44154322D01*
X36888294Y44568801D01*
X36639050Y44941822D01*
X36321822Y45259050D01*
X35948801Y45508294D01*
X35534322Y45679977D01*
X35094314Y45767500D01*
X34645686Y45767500D01*
X34205678Y45679977D01*
X33791199Y45508294D01*
X33418178Y45259050D01*
X33100950Y44941822D01*
X32851706Y44568801D01*
X32680023Y44154322D01*
X32592500Y43714314D01*
X28284244Y43714314D01*
X28341680Y43800273D01*
X28449853Y44061426D01*
X28505000Y44338665D01*
X28505000Y44621335D01*
X28449853Y44898574D01*
X28341680Y45159727D01*
X28184637Y45394759D01*
X27984759Y45594637D01*
X27749727Y45751680D01*
X27488574Y45859853D01*
X27211335Y45915000D01*
X26928665Y45915000D01*
X26651426Y45859853D01*
X26390273Y45751680D01*
X26155241Y45594637D01*
X25955363Y45394759D01*
X25798320Y45159727D01*
X25690147Y44898574D01*
X25635000Y44621335D01*
X25635000Y44338665D01*
X25690147Y44061426D01*
X25798320Y43800273D01*
X25955363Y43565241D01*
X26155241Y43365363D01*
X26376991Y43217195D01*
X26132020Y43318665D01*
X25746523Y43395345D01*
X25353475Y43395345D01*
X24967978Y43318665D01*
X24604849Y43168252D01*
X24278040Y42949886D01*
X24000113Y42671959D01*
X23781747Y42345150D01*
X23631334Y41982021D01*
X23554654Y41596524D01*
X22145344Y41596524D01*
X22068664Y41982020D01*
X21918251Y42345150D01*
X21806834Y42511897D01*
X21954059Y42590589D01*
X22088817Y42701183D01*
X22116534Y42734956D01*
X22775049Y43393470D01*
X22808817Y43421183D01*
X22836571Y43455000D01*
X22919411Y43555941D01*
X22921240Y43559364D01*
X23095241Y43385363D01*
X23330273Y43228320D01*
X23591426Y43120147D01*
X23868665Y43065000D01*
X24151335Y43065000D01*
X24428574Y43120147D01*
X24689727Y43228320D01*
X24924759Y43385363D01*
X25124637Y43585241D01*
X25281680Y43820273D01*
X25389853Y44081426D01*
X25445000Y44358665D01*
X25445000Y44641335D01*
X25389853Y44918574D01*
X25281680Y45179727D01*
X25124637Y45414759D01*
X24924759Y45614637D01*
X24689727Y45771680D01*
X24428574Y45879853D01*
X24151335Y45935000D01*
X23868665Y45935000D01*
X23591426Y45879853D01*
X23330273Y45771680D01*
X23095241Y45614637D01*
X23065000Y45584396D01*
X23065000Y50661546D01*
X23097205Y50709744D01*
X23175226Y50898102D01*
X23215000Y51098061D01*
X23215000Y51301939D01*
X23175226Y51501898D01*
X23097205Y51690256D01*
X22983937Y51859774D01*
X22839774Y52003937D01*
X22670256Y52117205D01*
X22615224Y52140000D01*
X24605912Y52140000D01*
X24579774Y52076898D01*
X24540000Y51876939D01*
X24540000Y51673061D01*
X24579774Y51473102D01*
X24657795Y51284744D01*
X24771063Y51115226D01*
X24915226Y50971063D01*
X25084744Y50857795D01*
X25273102Y50779774D01*
X25473061Y50740000D01*
X25676939Y50740000D01*
X25876898Y50779774D01*
X26065256Y50857795D01*
X26234774Y50971063D01*
X26378937Y51115226D01*
X26492205Y51284744D01*
X26570226Y51473102D01*
X26610000Y51673061D01*
X26610000Y51876939D01*
X26570226Y52076898D01*
X26492205Y52265256D01*
X26460000Y52313454D01*
X26460000Y52511637D01*
X32385000Y52511637D01*
X32385000Y52268363D01*
X32432460Y52029764D01*
X32525557Y51805008D01*
X32660713Y51602733D01*
X32832733Y51430713D01*
X32893664Y51390000D01*
X32832733Y51349287D01*
X32660713Y51177267D01*
X32525557Y50974992D01*
X32432460Y50750236D01*
X32385000Y50511637D01*
X32385000Y50268363D01*
X32432460Y50029764D01*
X32525557Y49805008D01*
X32660713Y49602733D01*
X32832733Y49430713D01*
X32893664Y49390000D01*
X32832733Y49349287D01*
X32660713Y49177267D01*
X32525557Y48974992D01*
X32432460Y48750236D01*
X32385000Y48511637D01*
X32385000Y48268363D01*
X32432460Y48029764D01*
X32525557Y47805008D01*
X32660713Y47602733D01*
X32832733Y47430713D01*
X33035008Y47295557D01*
X33259764Y47202460D01*
X33498363Y47155000D01*
X33741637Y47155000D01*
X33980236Y47202460D01*
X34204992Y47295557D01*
X34407267Y47430713D01*
X34579287Y47602733D01*
X34714443Y47805008D01*
X34807540Y48029764D01*
X34855000Y48268363D01*
X34855000Y48511637D01*
X34807540Y48750236D01*
X34714443Y48974992D01*
X34579287Y49177267D01*
X34407267Y49349287D01*
X34346336Y49390000D01*
X34407267Y49430713D01*
X34579287Y49602733D01*
X34714443Y49805008D01*
X34807540Y50029764D01*
X34855000Y50268363D01*
X34855000Y50511637D01*
X34807540Y50750236D01*
X34714443Y50974992D01*
X34579287Y51177267D01*
X34407267Y51349287D01*
X34346336Y51390000D01*
X34407267Y51430713D01*
X34579287Y51602733D01*
X34714443Y51805008D01*
X34807540Y52029764D01*
X34855000Y52268363D01*
X34855000Y52511637D01*
X34807540Y52750236D01*
X34714443Y52974992D01*
X34579287Y53177267D01*
X34416554Y53340000D01*
X44322719Y53340000D01*
X44327001Y53296521D01*
X44327000Y51859470D01*
X44322719Y51816000D01*
X44327000Y51772531D01*
X44327000Y51772524D01*
X44333189Y51709687D01*
X44339805Y51642510D01*
X44351872Y51602733D01*
X44390411Y51475688D01*
X44472589Y51321942D01*
X44583183Y51187183D01*
X44616956Y51159466D01*
X46867001Y48909420D01*
X46867000Y48544455D01*
X46834795Y48496256D01*
X46756774Y48307898D01*
X46717000Y48107939D01*
X46717000Y47904061D01*
X46756774Y47704102D01*
X46834795Y47515744D01*
X46948063Y47346226D01*
X47092226Y47202063D01*
X47261744Y47088795D01*
X47450102Y47010774D01*
X47650061Y46971000D01*
X47853939Y46971000D01*
X48053898Y47010774D01*
X48242256Y47088795D01*
X48411774Y47202063D01*
X48555937Y47346226D01*
X48669205Y47515744D01*
X48747226Y47704102D01*
X48787000Y47904061D01*
X48787000Y48107939D01*
X48747226Y48307898D01*
X48669205Y48496256D01*
X48637000Y48544454D01*
X48637000Y49232535D01*
X48641281Y49276001D01*
X48637000Y49319467D01*
X48637000Y49319477D01*
X48624195Y49449490D01*
X48573589Y49616313D01*
X48491411Y49770059D01*
X48380817Y49904817D01*
X48347049Y49932530D01*
X46097000Y52182578D01*
X46097000Y52973422D01*
X46572091Y53448513D01*
X46725241Y53295363D01*
X46960273Y53138320D01*
X47221426Y53030147D01*
X47498665Y52975000D01*
X47781335Y52975000D01*
X48058574Y53030147D01*
X48319727Y53138320D01*
X48554759Y53295363D01*
X48754637Y53495241D01*
X48890000Y53697827D01*
X49025363Y53495241D01*
X49225241Y53295363D01*
X49460273Y53138320D01*
X49721426Y53030147D01*
X49998665Y52975000D01*
X50281335Y52975000D01*
X50558574Y53030147D01*
X50819727Y53138320D01*
X51054759Y53295363D01*
X51254637Y53495241D01*
X51411680Y53730273D01*
X51519853Y53991426D01*
X51575000Y54268665D01*
X51575000Y54551335D01*
X51519853Y54828574D01*
X51411680Y55089727D01*
X51254637Y55324759D01*
X51054759Y55524637D01*
X50819727Y55681680D01*
X50558574Y55789853D01*
X50281335Y55845000D01*
X49998665Y55845000D01*
X49721426Y55789853D01*
X49460273Y55681680D01*
X49225241Y55524637D01*
X49025363Y55324759D01*
X48890000Y55122173D01*
X48754637Y55324759D01*
X48554759Y55524637D01*
X48319727Y55681680D01*
X48058574Y55789853D01*
X47781335Y55845000D01*
X47498665Y55845000D01*
X47221426Y55789853D01*
X46960273Y55681680D01*
X46725241Y55524637D01*
X46525363Y55324759D01*
X46505479Y55295000D01*
X46325469Y55295000D01*
X46282000Y55299281D01*
X46238531Y55295000D01*
X46238523Y55295000D01*
X46108510Y55282195D01*
X45941686Y55231589D01*
X45787941Y55149411D01*
X45686953Y55066532D01*
X45686951Y55066530D01*
X45653183Y55038817D01*
X45625470Y55005049D01*
X44616951Y53996529D01*
X44583184Y53968817D01*
X44555471Y53935049D01*
X44555468Y53935046D01*
X44472590Y53834059D01*
X44390412Y53680313D01*
X44339805Y53513490D01*
X44322719Y53340000D01*
X34416554Y53340000D01*
X34407267Y53349287D01*
X34204992Y53484443D01*
X33980236Y53577540D01*
X33741637Y53625000D01*
X33498363Y53625000D01*
X33259764Y53577540D01*
X33035008Y53484443D01*
X32832733Y53349287D01*
X32660713Y53177267D01*
X32525557Y52974992D01*
X32432460Y52750236D01*
X32385000Y52511637D01*
X26460000Y52511637D01*
X26460000Y52631531D01*
X26464281Y52675000D01*
X26460000Y52718469D01*
X26460000Y52718477D01*
X26447195Y52848490D01*
X26396589Y53015313D01*
X26314411Y53169059D01*
X26203817Y53303817D01*
X26170044Y53331534D01*
X25881534Y53620044D01*
X25853817Y53653817D01*
X25719059Y53764411D01*
X25565313Y53846589D01*
X25398490Y53897195D01*
X25268477Y53910000D01*
X25268469Y53910000D01*
X25236809Y53913118D01*
X25281680Y53980273D01*
X25389853Y54241426D01*
X25445000Y54518665D01*
X25445000Y54801335D01*
X25389853Y55078574D01*
X25281680Y55339727D01*
X25124637Y55574759D01*
X24924759Y55774637D01*
X24689727Y55931680D01*
X24428574Y56039853D01*
X24151335Y56095000D01*
X23868665Y56095000D01*
X23591426Y56039853D01*
X23330273Y55931680D01*
X23095241Y55774637D01*
X22895363Y55574759D01*
X22738320Y55339727D01*
X22630147Y55078574D01*
X22575000Y54801335D01*
X22575000Y54518665D01*
X22630147Y54241426D01*
X22738320Y53980273D01*
X22785275Y53910000D01*
X17673426Y53910000D01*
X17762256Y53946795D01*
X17931774Y54060063D01*
X18075937Y54204226D01*
X18189205Y54373744D01*
X18267226Y54562102D01*
X18307000Y54762061D01*
X18307000Y54965939D01*
X18267226Y55165898D01*
X18189205Y55354256D01*
X18157000Y55402454D01*
X18157000Y56215000D01*
X26185001Y56215000D01*
X26185001Y55774522D01*
X26155241Y55754637D01*
X25955363Y55554759D01*
X25798320Y55319727D01*
X25690147Y55058574D01*
X25635000Y54781335D01*
X25635000Y54498665D01*
X25690147Y54221426D01*
X25798320Y53960273D01*
X25955363Y53725241D01*
X26155241Y53525363D01*
X26390273Y53368320D01*
X26651426Y53260147D01*
X26928665Y53205000D01*
X27211335Y53205000D01*
X27488574Y53260147D01*
X27749727Y53368320D01*
X27984759Y53525363D01*
X28184637Y53725241D01*
X28341680Y53960273D01*
X28449853Y54221426D01*
X28505000Y54498665D01*
X28505000Y54781335D01*
X28449853Y55058574D01*
X28341680Y55319727D01*
X28184637Y55554759D01*
X27984759Y55754637D01*
X27955000Y55774521D01*
X27955000Y56686534D01*
X27959281Y56730001D01*
X27955000Y56773467D01*
X27955000Y56773477D01*
X27954227Y56781335D01*
X28305000Y56781335D01*
X28305000Y56498665D01*
X28360147Y56221426D01*
X28468320Y55960273D01*
X28625363Y55725241D01*
X28825241Y55525363D01*
X29060273Y55368320D01*
X29321426Y55260147D01*
X29598665Y55205000D01*
X29881335Y55205000D01*
X30158574Y55260147D01*
X30419727Y55368320D01*
X30654759Y55525363D01*
X30854637Y55725241D01*
X31011680Y55960273D01*
X31119853Y56221426D01*
X31175000Y56498665D01*
X31175000Y56781335D01*
X31119853Y57058574D01*
X31011680Y57319727D01*
X30854637Y57554759D01*
X30654759Y57754637D01*
X30419727Y57911680D01*
X30158574Y58019853D01*
X29881335Y58075000D01*
X29598665Y58075000D01*
X29321426Y58019853D01*
X29060273Y57911680D01*
X28825241Y57754637D01*
X28625363Y57554759D01*
X28468320Y57319727D01*
X28360147Y57058574D01*
X28305000Y56781335D01*
X27954227Y56781335D01*
X27942195Y56903490D01*
X27891589Y57070313D01*
X27809411Y57224059D01*
X27698817Y57358817D01*
X27665044Y57386534D01*
X27356534Y57695044D01*
X27328817Y57728817D01*
X27194059Y57839411D01*
X27040313Y57921589D01*
X26873490Y57972195D01*
X26743477Y57985000D01*
X26743469Y57985000D01*
X26700000Y57989281D01*
X26656531Y57985000D01*
X18236579Y57985000D01*
X18396586Y58145007D01*
X24161539Y58145007D01*
X24209737Y58112802D01*
X24398095Y58034781D01*
X24598054Y57995007D01*
X24801932Y57995007D01*
X25001891Y58034781D01*
X25190249Y58112802D01*
X25359767Y58226070D01*
X25503930Y58370233D01*
X25617198Y58539751D01*
X25695219Y58728109D01*
X25734993Y58928068D01*
X25734993Y59063429D01*
X25803467Y58994955D01*
X25831184Y58961182D01*
X25965942Y58850588D01*
X26119688Y58768410D01*
X26286511Y58717804D01*
X26416524Y58704999D01*
X26416532Y58704999D01*
X26460001Y58700718D01*
X26503470Y58704999D01*
X33076346Y58704999D01*
X32851706Y58368801D01*
X32680023Y57954322D01*
X32592500Y57514314D01*
X32592500Y57065686D01*
X32680023Y56625678D01*
X32851706Y56211199D01*
X33100950Y55838178D01*
X33418178Y55520950D01*
X33791199Y55271706D01*
X34205678Y55100023D01*
X34645686Y55012500D01*
X35094314Y55012500D01*
X35534322Y55100023D01*
X35948801Y55271706D01*
X36321822Y55520950D01*
X36639050Y55838178D01*
X36888294Y56211199D01*
X37059977Y56625678D01*
X37147500Y57065686D01*
X37147500Y57514314D01*
X37059977Y57954322D01*
X36888294Y58368801D01*
X36663654Y58704999D01*
X40950532Y58704999D01*
X40994001Y58700718D01*
X41037470Y58704999D01*
X42243423Y58704999D01*
X42903902Y58044519D01*
X42901486Y58045000D01*
X42638514Y58045000D01*
X42380595Y57993696D01*
X42137641Y57893061D01*
X41918987Y57746962D01*
X41733038Y57561013D01*
X41586939Y57342359D01*
X41486304Y57099405D01*
X41463050Y56982501D01*
X41459853Y56998574D01*
X41351680Y57259727D01*
X41194637Y57494759D01*
X40994759Y57694637D01*
X40759727Y57851680D01*
X40498574Y57959853D01*
X40221335Y58015000D01*
X39938665Y58015000D01*
X39661426Y57959853D01*
X39400273Y57851680D01*
X39165241Y57694637D01*
X38965363Y57494759D01*
X38808320Y57259727D01*
X38700147Y56998574D01*
X38645000Y56721335D01*
X38645000Y56438665D01*
X38700147Y56161426D01*
X38808320Y55900273D01*
X38965363Y55665241D01*
X39165241Y55465363D01*
X39400273Y55308320D01*
X39661426Y55200147D01*
X39938665Y55145000D01*
X40221335Y55145000D01*
X40498574Y55200147D01*
X40759727Y55308320D01*
X40994759Y55465363D01*
X41194637Y55665241D01*
X41351680Y55900273D01*
X41459853Y56161426D01*
X41489824Y56312097D01*
X41586939Y56077641D01*
X41733038Y55858987D01*
X41918987Y55673038D01*
X42137641Y55526939D01*
X42380595Y55426304D01*
X42638514Y55375000D01*
X42901486Y55375000D01*
X43159405Y55426304D01*
X43402359Y55526939D01*
X43621013Y55673038D01*
X43806962Y55858987D01*
X43953061Y56077641D01*
X43995476Y56180039D01*
X44005363Y56165241D01*
X44205241Y55965363D01*
X44440273Y55808320D01*
X44701426Y55700147D01*
X44978665Y55645000D01*
X45261335Y55645000D01*
X45538574Y55700147D01*
X45799727Y55808320D01*
X46034759Y55965363D01*
X46234637Y56165241D01*
X46391680Y56400273D01*
X46499853Y56661426D01*
X46555000Y56938665D01*
X46555000Y57221335D01*
X46499853Y57498574D01*
X46391680Y57759727D01*
X46234637Y57994759D01*
X46034759Y58194637D01*
X45802241Y58350000D01*
X46034759Y58505363D01*
X46234637Y58705241D01*
X46391680Y58940273D01*
X46499853Y59201426D01*
X46555000Y59478665D01*
X46555000Y59761335D01*
X46499853Y60038574D01*
X46391680Y60299727D01*
X46234637Y60534759D01*
X46034759Y60734637D01*
X45802241Y60890000D01*
X46034759Y61045363D01*
X46234637Y61245241D01*
X46391680Y61480273D01*
X46499853Y61741426D01*
X46555000Y62018665D01*
X46555000Y62301335D01*
X46499853Y62578574D01*
X46391680Y62839727D01*
X46234637Y63074759D01*
X46036039Y63273357D01*
X46044482Y63274188D01*
X46164180Y63310498D01*
X46274494Y63369463D01*
X46371185Y63448815D01*
X46450537Y63545506D01*
X46509502Y63655820D01*
X46545812Y63775518D01*
X46556595Y63885000D01*
X48216531Y63885000D01*
X48260000Y63880719D01*
X48303469Y63885000D01*
X48303477Y63885000D01*
X48433490Y63897805D01*
X48600313Y63948411D01*
X48711998Y64008107D01*
X48815898Y64028774D01*
X49004256Y64106795D01*
X49173774Y64220063D01*
X49317937Y64364226D01*
X49431205Y64533744D01*
X49509226Y64722102D01*
X49543585Y64894836D01*
X49661001Y64777420D01*
X49661000Y59317469D01*
X49656719Y59274000D01*
X49661000Y59230531D01*
X49661000Y59230524D01*
X49669148Y59147795D01*
X49673805Y59100510D01*
X49675935Y59093490D01*
X49724411Y58933688D01*
X49806589Y58779942D01*
X49917183Y58645183D01*
X49950956Y58617466D01*
X51311983Y57256439D01*
X51305000Y57221335D01*
X51305000Y56938665D01*
X51360147Y56661426D01*
X51468320Y56400273D01*
X51625363Y56165241D01*
X51825241Y55965363D01*
X52060273Y55808320D01*
X52321426Y55700147D01*
X52598665Y55645000D01*
X52881335Y55645000D01*
X53158574Y55700147D01*
X53419727Y55808320D01*
X53654759Y55965363D01*
X53854637Y56165241D01*
X54011680Y56400273D01*
X54119853Y56661426D01*
X54175000Y56938665D01*
X54175000Y57221335D01*
X54119853Y57498574D01*
X54011680Y57759727D01*
X53854637Y57994759D01*
X53654759Y58194637D01*
X53422241Y58350000D01*
X53654759Y58505363D01*
X53854637Y58705241D01*
X53936771Y58828163D01*
X54003038Y58728987D01*
X54188987Y58543038D01*
X54407641Y58396939D01*
X54650595Y58296304D01*
X54908514Y58245000D01*
X55171486Y58245000D01*
X55429405Y58296304D01*
X55672359Y58396939D01*
X55765001Y58458840D01*
X55765001Y53081160D01*
X55672359Y53143061D01*
X55429405Y53243696D01*
X55171486Y53295000D01*
X54908514Y53295000D01*
X54650595Y53243696D01*
X54407641Y53143061D01*
X54188987Y52996962D01*
X54003038Y52811013D01*
X53912451Y52675439D01*
X53881680Y52749727D01*
X53724637Y52984759D01*
X53524759Y53184637D01*
X53289727Y53341680D01*
X53028574Y53449853D01*
X52751335Y53505000D01*
X52468665Y53505000D01*
X52191426Y53449853D01*
X51930273Y53341680D01*
X51695241Y53184637D01*
X51495363Y52984759D01*
X51338320Y52749727D01*
X51230147Y52488574D01*
X51175000Y52211335D01*
X51175000Y51928665D01*
X51230147Y51651426D01*
X51338320Y51390273D01*
X51495363Y51155241D01*
X51695241Y50955363D01*
X51930273Y50798320D01*
X52191426Y50690147D01*
X52468665Y50635000D01*
X52751335Y50635000D01*
X53028574Y50690147D01*
X53289727Y50798320D01*
X53524759Y50955363D01*
X53724637Y51155241D01*
X53850392Y51343447D01*
X53856939Y51327641D01*
X54003038Y51108987D01*
X54188987Y50923038D01*
X54407641Y50776939D01*
X54650595Y50676304D01*
X54908514Y50625000D01*
X55171486Y50625000D01*
X55429405Y50676304D01*
X55672359Y50776939D01*
X55765001Y50838840D01*
X55765001Y49239201D01*
X55618574Y49299853D01*
X55341335Y49355000D01*
X55058665Y49355000D01*
X54781426Y49299853D01*
X54520273Y49191680D01*
X54285241Y49034637D01*
X54085363Y48834759D01*
X53928320Y48599727D01*
X53820147Y48338574D01*
X53765000Y48061335D01*
X53765000Y47778665D01*
X53820147Y47501426D01*
X53928320Y47240273D01*
X54085363Y47005241D01*
X54285241Y46805363D01*
X54520273Y46648320D01*
X54781426Y46540147D01*
X55058665Y46485000D01*
X55341335Y46485000D01*
X55618574Y46540147D01*
X55765001Y46600799D01*
X55765001Y46176064D01*
X55538574Y46269853D01*
X55261335Y46325000D01*
X54978665Y46325000D01*
X54701426Y46269853D01*
X54440273Y46161680D01*
X54205241Y46004637D01*
X54005363Y45804759D01*
X53848320Y45569727D01*
X53740147Y45308574D01*
X53685000Y45031335D01*
X53685000Y44748665D01*
X53740147Y44471426D01*
X53848320Y44210273D01*
X54005363Y43975241D01*
X54205241Y43775363D01*
X54440273Y43618320D01*
X54701426Y43510147D01*
X54978665Y43455000D01*
X55261335Y43455000D01*
X55538574Y43510147D01*
X55765001Y43603936D01*
X55765000Y1285955D01*
X55751733Y1150652D01*
X55722882Y1055091D01*
X55676019Y966955D01*
X55612927Y889597D01*
X55536013Y825967D01*
X55448206Y778491D01*
X55352842Y748971D01*
X55219925Y735000D01*
X1285944Y735000D01*
X1150652Y748265D01*
X1055091Y777117D01*
X966954Y823981D01*
X889596Y887073D01*
X825967Y963987D01*
X778491Y1051792D01*
X748971Y1147158D01*
X735000Y1280075D01*
X735000Y31796523D01*
X1954655Y31796523D01*
X1954655Y31403475D01*
X2031335Y31017978D01*
X2181748Y30654849D01*
X2400114Y30328040D01*
X2678041Y30050113D01*
X3004850Y29831747D01*
X3367979Y29681334D01*
X3753476Y29604654D01*
X4146524Y29604654D01*
X4532021Y29681334D01*
X4895150Y29831747D01*
X5221959Y30050113D01*
X5499886Y30328040D01*
X5718252Y30654849D01*
X5868665Y31017978D01*
X5945345Y31403475D01*
X5945345Y31796523D01*
X7354655Y31796523D01*
X7354655Y31403475D01*
X7431335Y31017978D01*
X7581748Y30654849D01*
X7800114Y30328040D01*
X8078041Y30050113D01*
X8404850Y29831747D01*
X8767979Y29681334D01*
X9153476Y29604654D01*
X9546524Y29604654D01*
X9932021Y29681334D01*
X10295150Y29831747D01*
X10621959Y30050113D01*
X10899886Y30328040D01*
X11118252Y30654849D01*
X11268665Y31017978D01*
X11345345Y31403475D01*
X11345345Y31796523D01*
X12754655Y31796523D01*
X12754655Y31403475D01*
X12831335Y31017978D01*
X12981748Y30654849D01*
X13200114Y30328040D01*
X13478041Y30050113D01*
X13804850Y29831747D01*
X14167979Y29681334D01*
X14553476Y29604654D01*
X14946524Y29604654D01*
X15332021Y29681334D01*
X15695150Y29831747D01*
X16021959Y30050113D01*
X16299886Y30328040D01*
X16518252Y30654849D01*
X16668665Y31017978D01*
X16745345Y31403475D01*
X16745345Y31796523D01*
X18154656Y31796523D01*
X18154656Y31403475D01*
X18231336Y31017979D01*
X18381749Y30654849D01*
X18600115Y30328041D01*
X18878042Y30050114D01*
X19204850Y29831748D01*
X19567980Y29681335D01*
X19953476Y29604655D01*
X20346524Y29604655D01*
X20732020Y29681335D01*
X21095150Y29831748D01*
X21421958Y30050114D01*
X21699885Y30328041D01*
X21918251Y30654849D01*
X22068664Y31017979D01*
X22145344Y31403475D01*
X22145344Y31796523D01*
X23554654Y31796523D01*
X23554654Y31403475D01*
X23631334Y31017978D01*
X23781747Y30654849D01*
X24000113Y30328040D01*
X24278040Y30050113D01*
X24604849Y29831747D01*
X24967978Y29681334D01*
X25353475Y29604654D01*
X25746523Y29604654D01*
X26132020Y29681334D01*
X26495149Y29831747D01*
X26821958Y30050113D01*
X27099885Y30328040D01*
X27318251Y30654849D01*
X27468664Y31017978D01*
X27545344Y31403475D01*
X27545344Y31796523D01*
X28954654Y31796523D01*
X28954654Y31403475D01*
X29031334Y31017978D01*
X29181747Y30654849D01*
X29400113Y30328040D01*
X29678040Y30050113D01*
X30004849Y29831747D01*
X30367978Y29681334D01*
X30753475Y29604654D01*
X31146523Y29604654D01*
X31532020Y29681334D01*
X31895149Y29831747D01*
X32221958Y30050113D01*
X32499885Y30328040D01*
X32718251Y30654849D01*
X32868664Y31017978D01*
X32945344Y31403475D01*
X32945344Y31796523D01*
X34354654Y31796523D01*
X34354654Y31403475D01*
X34431334Y31017978D01*
X34581747Y30654849D01*
X34800113Y30328040D01*
X35078040Y30050113D01*
X35404849Y29831747D01*
X35767978Y29681334D01*
X36153475Y29604654D01*
X36546523Y29604654D01*
X36932020Y29681334D01*
X37295149Y29831747D01*
X37621958Y30050113D01*
X37899885Y30328040D01*
X38118251Y30654849D01*
X38268664Y31017978D01*
X38345344Y31403475D01*
X38345344Y31796523D01*
X39754655Y31796523D01*
X39754655Y31403475D01*
X39831335Y31017978D01*
X39981748Y30654849D01*
X40200114Y30328040D01*
X40478041Y30050113D01*
X40804850Y29831747D01*
X41167979Y29681334D01*
X41553476Y29604654D01*
X41946524Y29604654D01*
X42332021Y29681334D01*
X42695150Y29831747D01*
X43021959Y30050113D01*
X43299886Y30328040D01*
X43518252Y30654849D01*
X43668665Y31017978D01*
X43745345Y31403475D01*
X43745345Y31796523D01*
X45154655Y31796523D01*
X45154655Y31403475D01*
X45231335Y31017978D01*
X45381748Y30654849D01*
X45600114Y30328040D01*
X45878041Y30050113D01*
X46204850Y29831747D01*
X46567979Y29681334D01*
X46953476Y29604654D01*
X47346524Y29604654D01*
X47732021Y29681334D01*
X48095150Y29831747D01*
X48421959Y30050113D01*
X48699886Y30328040D01*
X48918252Y30654849D01*
X49068665Y31017978D01*
X49145345Y31403475D01*
X49145345Y31796523D01*
X50554655Y31796523D01*
X50554655Y31403475D01*
X50631335Y31017978D01*
X50781748Y30654849D01*
X51000114Y30328040D01*
X51278041Y30050113D01*
X51604850Y29831747D01*
X51967979Y29681334D01*
X52353476Y29604654D01*
X52746524Y29604654D01*
X53132021Y29681334D01*
X53495150Y29831747D01*
X53821959Y30050113D01*
X54099886Y30328040D01*
X54318252Y30654849D01*
X54468665Y31017978D01*
X54545345Y31403475D01*
X54545345Y31796523D01*
X54468665Y32182020D01*
X54318252Y32545149D01*
X54099886Y32871958D01*
X53821959Y33149885D01*
X53495150Y33368251D01*
X53132021Y33518664D01*
X52746524Y33595344D01*
X52353476Y33595344D01*
X51967979Y33518664D01*
X51604850Y33368251D01*
X51278041Y33149885D01*
X51000114Y32871958D01*
X50781748Y32545149D01*
X50631335Y32182020D01*
X50554655Y31796523D01*
X49145345Y31796523D01*
X49068665Y32182020D01*
X48918252Y32545149D01*
X48699886Y32871958D01*
X48421959Y33149885D01*
X48095150Y33368251D01*
X47732021Y33518664D01*
X47346524Y33595344D01*
X46953476Y33595344D01*
X46567979Y33518664D01*
X46204850Y33368251D01*
X45878041Y33149885D01*
X45600114Y32871958D01*
X45381748Y32545149D01*
X45231335Y32182020D01*
X45154655Y31796523D01*
X43745345Y31796523D01*
X43668665Y32182020D01*
X43518252Y32545149D01*
X43299886Y32871958D01*
X43021959Y33149885D01*
X42695150Y33368251D01*
X42332021Y33518664D01*
X41946524Y33595344D01*
X41553476Y33595344D01*
X41167979Y33518664D01*
X40804850Y33368251D01*
X40478041Y33149885D01*
X40200114Y32871958D01*
X39981748Y32545149D01*
X39831335Y32182020D01*
X39754655Y31796523D01*
X38345344Y31796523D01*
X38268664Y32182020D01*
X38118251Y32545149D01*
X37899885Y32871958D01*
X37621958Y33149885D01*
X37295149Y33368251D01*
X36932020Y33518664D01*
X36546523Y33595344D01*
X36153475Y33595344D01*
X35767978Y33518664D01*
X35404849Y33368251D01*
X35078040Y33149885D01*
X34800113Y32871958D01*
X34581747Y32545149D01*
X34431334Y32182020D01*
X34354654Y31796523D01*
X32945344Y31796523D01*
X32868664Y32182020D01*
X32718251Y32545149D01*
X32499885Y32871958D01*
X32221958Y33149885D01*
X31895149Y33368251D01*
X31532020Y33518664D01*
X31146523Y33595344D01*
X30753475Y33595344D01*
X30367978Y33518664D01*
X30004849Y33368251D01*
X29678040Y33149885D01*
X29400113Y32871958D01*
X29181747Y32545149D01*
X29031334Y32182020D01*
X28954654Y31796523D01*
X27545344Y31796523D01*
X27468664Y32182020D01*
X27318251Y32545149D01*
X27099885Y32871958D01*
X26821958Y33149885D01*
X26495149Y33368251D01*
X26132020Y33518664D01*
X25746523Y33595344D01*
X25353475Y33595344D01*
X24967978Y33518664D01*
X24604849Y33368251D01*
X24278040Y33149885D01*
X24000113Y32871958D01*
X23781747Y32545149D01*
X23631334Y32182020D01*
X23554654Y31796523D01*
X22145344Y31796523D01*
X22068664Y32182019D01*
X21918251Y32545149D01*
X21699885Y32871957D01*
X21421958Y33149884D01*
X21095150Y33368250D01*
X20732020Y33518663D01*
X20346524Y33595343D01*
X19953476Y33595343D01*
X19567980Y33518663D01*
X19204850Y33368250D01*
X18878042Y33149884D01*
X18600115Y32871957D01*
X18381749Y32545149D01*
X18231336Y32182019D01*
X18154656Y31796523D01*
X16745345Y31796523D01*
X16668665Y32182020D01*
X16518252Y32545149D01*
X16299886Y32871958D01*
X16021959Y33149885D01*
X15695150Y33368251D01*
X15332021Y33518664D01*
X14946524Y33595344D01*
X14553476Y33595344D01*
X14167979Y33518664D01*
X13804850Y33368251D01*
X13478041Y33149885D01*
X13200114Y32871958D01*
X12981748Y32545149D01*
X12831335Y32182020D01*
X12754655Y31796523D01*
X11345345Y31796523D01*
X11268665Y32182020D01*
X11118252Y32545149D01*
X10899886Y32871958D01*
X10621959Y33149885D01*
X10295150Y33368251D01*
X9932021Y33518664D01*
X9546524Y33595344D01*
X9153476Y33595344D01*
X8767979Y33518664D01*
X8404850Y33368251D01*
X8078041Y33149885D01*
X7800114Y32871958D01*
X7581748Y32545149D01*
X7431335Y32182020D01*
X7354655Y31796523D01*
X5945345Y31796523D01*
X5868665Y32182020D01*
X5718252Y32545149D01*
X5499886Y32871958D01*
X5221959Y33149885D01*
X4895150Y33368251D01*
X4532021Y33518664D01*
X4146524Y33595344D01*
X3753476Y33595344D01*
X3367979Y33518664D01*
X3004850Y33368251D01*
X2678041Y33149885D01*
X2400114Y32871958D01*
X2181748Y32545149D01*
X2031335Y32182020D01*
X1954655Y31796523D01*
X735000Y31796523D01*
X735000Y36721028D01*
X19755859Y36721028D01*
X19755859Y36278970D01*
X19842100Y35845407D01*
X20011268Y35437000D01*
X20256862Y35069443D01*
X20569444Y34756861D01*
X20937001Y34511267D01*
X21345408Y34342099D01*
X21778971Y34255858D01*
X22221029Y34255858D01*
X22654592Y34342099D01*
X23062999Y34511267D01*
X23430556Y34756861D01*
X23743138Y35069443D01*
X23988732Y35437000D01*
X24157900Y35845407D01*
X24244141Y36278970D01*
X24244141Y36721028D01*
X24157900Y37154591D01*
X23988732Y37562998D01*
X23743138Y37930555D01*
X23430556Y38243137D01*
X23062999Y38488731D01*
X22987507Y38520001D01*
X37571928Y38520001D01*
X37571928Y34619999D01*
X37588992Y34446745D01*
X37639528Y34280149D01*
X37721595Y34126613D01*
X37832038Y33992038D01*
X37966613Y33881595D01*
X38120149Y33799528D01*
X38286745Y33748992D01*
X38459999Y33731928D01*
X42360001Y33731928D01*
X42533255Y33748992D01*
X42699851Y33799528D01*
X42853387Y33881595D01*
X42987962Y33992038D01*
X43098405Y34126613D01*
X43180472Y34280149D01*
X43231008Y34446745D01*
X43248072Y34619999D01*
X43248072Y38520001D01*
X43231008Y38693255D01*
X43180472Y38859851D01*
X43098405Y39013387D01*
X42987962Y39147962D01*
X42853387Y39258405D01*
X42699851Y39340472D01*
X42533255Y39391008D01*
X42360001Y39408072D01*
X41963702Y39408072D01*
X42332021Y39481335D01*
X42695150Y39631748D01*
X43021959Y39850114D01*
X43299886Y40128041D01*
X43518252Y40454850D01*
X43668665Y40817979D01*
X43745345Y41203476D01*
X43745345Y41596524D01*
X45154655Y41596524D01*
X45154655Y41203476D01*
X45231335Y40817979D01*
X45381748Y40454850D01*
X45600114Y40128041D01*
X45878041Y39850114D01*
X46204850Y39631748D01*
X46567979Y39481335D01*
X46953476Y39404655D01*
X47346524Y39404655D01*
X47732021Y39481335D01*
X48095150Y39631748D01*
X48421959Y39850114D01*
X48699886Y40128041D01*
X48918252Y40454850D01*
X49068665Y40817979D01*
X49145345Y41203476D01*
X49145345Y41596524D01*
X50554655Y41596524D01*
X50554655Y41203476D01*
X50631335Y40817979D01*
X50781748Y40454850D01*
X51000114Y40128041D01*
X51278041Y39850114D01*
X51604850Y39631748D01*
X51967979Y39481335D01*
X52353476Y39404655D01*
X52746524Y39404655D01*
X53132021Y39481335D01*
X53495150Y39631748D01*
X53821959Y39850114D01*
X54099886Y40128041D01*
X54318252Y40454850D01*
X54468665Y40817979D01*
X54545345Y41203476D01*
X54545345Y41596524D01*
X54468665Y41982021D01*
X54318252Y42345150D01*
X54099886Y42671959D01*
X53821959Y42949886D01*
X53495150Y43168252D01*
X53132021Y43318665D01*
X52746524Y43395345D01*
X52353476Y43395345D01*
X51967979Y43318665D01*
X51604850Y43168252D01*
X51278041Y42949886D01*
X51000114Y42671959D01*
X50781748Y42345150D01*
X50631335Y41982021D01*
X50554655Y41596524D01*
X49145345Y41596524D01*
X49068665Y41982021D01*
X48918252Y42345150D01*
X48699886Y42671959D01*
X48421959Y42949886D01*
X48095150Y43168252D01*
X47732021Y43318665D01*
X47346524Y43395345D01*
X46953476Y43395345D01*
X46567979Y43318665D01*
X46204850Y43168252D01*
X45878041Y42949886D01*
X45600114Y42671959D01*
X45381748Y42345150D01*
X45231335Y41982021D01*
X45154655Y41596524D01*
X43745345Y41596524D01*
X43668665Y41982021D01*
X43518252Y42345150D01*
X43299886Y42671959D01*
X43021959Y42949886D01*
X42864644Y43055000D01*
X42911335Y43055000D01*
X43188574Y43110147D01*
X43449727Y43218320D01*
X43684759Y43375363D01*
X43884637Y43575241D01*
X44041680Y43810273D01*
X44149853Y44071426D01*
X44205000Y44348665D01*
X44205000Y44631335D01*
X44149853Y44908574D01*
X44041680Y45169727D01*
X43884637Y45404759D01*
X43684759Y45604637D01*
X43482173Y45740000D01*
X43684759Y45875363D01*
X43884637Y46075241D01*
X44041680Y46310273D01*
X44149853Y46571426D01*
X44188040Y46763402D01*
X44360273Y46648320D01*
X44621426Y46540147D01*
X44898665Y46485000D01*
X45181335Y46485000D01*
X45458574Y46540147D01*
X45719727Y46648320D01*
X45954759Y46805363D01*
X46154637Y47005241D01*
X46311680Y47240273D01*
X46419853Y47501426D01*
X46475000Y47778665D01*
X46475000Y48061335D01*
X46419853Y48338574D01*
X46311680Y48599727D01*
X46154637Y48834759D01*
X45954759Y49034637D01*
X45719727Y49191680D01*
X45458574Y49299853D01*
X45181335Y49355000D01*
X44898665Y49355000D01*
X44621426Y49299853D01*
X44360273Y49191680D01*
X44125241Y49034637D01*
X44105000Y49014396D01*
X44105000Y49221486D01*
X44053696Y49479405D01*
X43953061Y49722359D01*
X43806962Y49941013D01*
X43621013Y50126962D01*
X43402359Y50273061D01*
X43159405Y50373696D01*
X42901486Y50425000D01*
X42638514Y50425000D01*
X42380595Y50373696D01*
X42137641Y50273061D01*
X41918987Y50126962D01*
X41733038Y49941013D01*
X41586939Y49722359D01*
X41486304Y49479405D01*
X41435000Y49221486D01*
X41435000Y48958514D01*
X41486304Y48700595D01*
X41586939Y48457641D01*
X41733038Y48238987D01*
X41862523Y48109502D01*
X41855241Y48104637D01*
X41655363Y47904759D01*
X41498320Y47669727D01*
X41390147Y47408574D01*
X41335000Y47131335D01*
X41335000Y47124690D01*
X41194637Y47334759D01*
X40994759Y47534637D01*
X40759727Y47691680D01*
X40498574Y47799853D01*
X40221335Y47855000D01*
X39938665Y47855000D01*
X39661426Y47799853D01*
X39400273Y47691680D01*
X39165241Y47534637D01*
X38965363Y47334759D01*
X38808320Y47099727D01*
X38700147Y46838574D01*
X38645000Y46561335D01*
X38645000Y46278665D01*
X38700147Y46001426D01*
X38808320Y45740273D01*
X38965363Y45505241D01*
X39165241Y45305363D01*
X39400273Y45148320D01*
X39661426Y45040147D01*
X39938665Y44985000D01*
X40221335Y44985000D01*
X40498574Y45040147D01*
X40759727Y45148320D01*
X40994759Y45305363D01*
X41194637Y45505241D01*
X41351680Y45740273D01*
X41459853Y46001426D01*
X41515000Y46278665D01*
X41515000Y46285310D01*
X41655363Y46075241D01*
X41855241Y45875363D01*
X42057827Y45740000D01*
X41855241Y45604637D01*
X41655363Y45404759D01*
X41498320Y45169727D01*
X41390147Y44908574D01*
X41335000Y44631335D01*
X41335000Y44348665D01*
X41390147Y44071426D01*
X41498320Y43810273D01*
X41655363Y43575241D01*
X41835259Y43395345D01*
X41553476Y43395345D01*
X41167979Y43318665D01*
X40804850Y43168252D01*
X40478041Y42949886D01*
X40200114Y42671959D01*
X39981748Y42345150D01*
X39831335Y41982021D01*
X39754655Y41596524D01*
X39754655Y41203476D01*
X39831335Y40817979D01*
X39981748Y40454850D01*
X40200114Y40128041D01*
X40478041Y39850114D01*
X40804850Y39631748D01*
X41167979Y39481335D01*
X41536298Y39408072D01*
X38459999Y39408072D01*
X38286745Y39391008D01*
X38120149Y39340472D01*
X37966613Y39258405D01*
X37832038Y39147962D01*
X37721595Y39013387D01*
X37639528Y38859851D01*
X37588992Y38693255D01*
X37571928Y38520001D01*
X22987507Y38520001D01*
X22654592Y38657899D01*
X22221029Y38744140D01*
X21778971Y38744140D01*
X21345408Y38657899D01*
X20937001Y38488731D01*
X20569444Y38243137D01*
X20256862Y37930555D01*
X20011268Y37562998D01*
X19842100Y37154591D01*
X19755859Y36721028D01*
X735000Y36721028D01*
X735000Y41596524D01*
X1954655Y41596524D01*
X1954655Y41203476D01*
X2031335Y40817979D01*
X2181748Y40454850D01*
X2400114Y40128041D01*
X2678041Y39850114D01*
X3004850Y39631748D01*
X3367979Y39481335D01*
X3753476Y39404655D01*
X4146524Y39404655D01*
X4532021Y39481335D01*
X4895150Y39631748D01*
X5221959Y39850114D01*
X5499886Y40128041D01*
X5718252Y40454850D01*
X5868665Y40817979D01*
X5945345Y41203476D01*
X5945345Y41596524D01*
X7354655Y41596524D01*
X7354655Y41203476D01*
X7431335Y40817979D01*
X7581748Y40454850D01*
X7800114Y40128041D01*
X8078041Y39850114D01*
X8404850Y39631748D01*
X8767979Y39481335D01*
X9153476Y39404655D01*
X9546524Y39404655D01*
X9932021Y39481335D01*
X10295150Y39631748D01*
X10621959Y39850114D01*
X10899886Y40128041D01*
X11118252Y40454850D01*
X11268665Y40817979D01*
X11345345Y41203476D01*
X11345345Y41596524D01*
X11268665Y41982021D01*
X11118252Y42345150D01*
X10899886Y42671959D01*
X10621959Y42949886D01*
X10295150Y43168252D01*
X9932021Y43318665D01*
X9546524Y43395345D01*
X9153476Y43395345D01*
X8767979Y43318665D01*
X8404850Y43168252D01*
X8078041Y42949886D01*
X7800114Y42671959D01*
X7581748Y42345150D01*
X7431335Y41982021D01*
X7354655Y41596524D01*
X5945345Y41596524D01*
X5868665Y41982021D01*
X5718252Y42345150D01*
X5499886Y42671959D01*
X5221959Y42949886D01*
X4895150Y43168252D01*
X4532021Y43318665D01*
X4146524Y43395345D01*
X3753476Y43395345D01*
X3367979Y43318665D01*
X3004850Y43168252D01*
X2678041Y42949886D01*
X2400114Y42671959D01*
X2181748Y42345150D01*
X2031335Y41982021D01*
X1954655Y41596524D01*
X735000Y41596524D01*
X735000Y45131335D01*
X4115000Y45131335D01*
X4115000Y44848665D01*
X4170147Y44571426D01*
X4278320Y44310273D01*
X4435363Y44075241D01*
X4635241Y43875363D01*
X4870273Y43718320D01*
X5131426Y43610147D01*
X5408665Y43555000D01*
X5691335Y43555000D01*
X5968574Y43610147D01*
X6229727Y43718320D01*
X6464759Y43875363D01*
X6664637Y44075241D01*
X6821680Y44310273D01*
X6929853Y44571426D01*
X6985000Y44848665D01*
X6985000Y45131335D01*
X6929853Y45408574D01*
X6821680Y45669727D01*
X6664637Y45904759D01*
X6464759Y46104637D01*
X6229727Y46261680D01*
X5968574Y46369853D01*
X5691335Y46425000D01*
X5408665Y46425000D01*
X5131426Y46369853D01*
X4870273Y46261680D01*
X4635241Y46104637D01*
X4435363Y45904759D01*
X4278320Y45669727D01*
X4170147Y45408574D01*
X4115000Y45131335D01*
X735000Y45131335D01*
X735000Y48231335D01*
X1015000Y48231335D01*
X1015000Y47948665D01*
X1070147Y47671426D01*
X1178320Y47410273D01*
X1335363Y47175241D01*
X1535241Y46975363D01*
X1770273Y46818320D01*
X2031426Y46710147D01*
X2308665Y46655000D01*
X2591335Y46655000D01*
X2868574Y46710147D01*
X3129727Y46818320D01*
X3364759Y46975363D01*
X3564637Y47175241D01*
X3721680Y47410273D01*
X3829853Y47671426D01*
X3885000Y47948665D01*
X3885000Y48231335D01*
X3829853Y48508574D01*
X3721680Y48769727D01*
X3564637Y49004759D01*
X3364759Y49204637D01*
X3129727Y49361680D01*
X2868574Y49469853D01*
X2591335Y49525000D01*
X2308665Y49525000D01*
X2031426Y49469853D01*
X1770273Y49361680D01*
X1535241Y49204637D01*
X1335363Y49004759D01*
X1178320Y48769727D01*
X1070147Y48508574D01*
X1015000Y48231335D01*
X735000Y48231335D01*
X735000Y53594000D01*
X1329025Y53594000D01*
X1352870Y53351898D01*
X1423489Y53119099D01*
X1538167Y52904551D01*
X1692498Y52716498D01*
X1880551Y52562167D01*
X2095099Y52447489D01*
X2327898Y52376870D01*
X2509335Y52359000D01*
X2805000Y52359000D01*
X2805000Y52202363D01*
X2852460Y51963764D01*
X2945557Y51739008D01*
X3080713Y51536733D01*
X3252733Y51364713D01*
X3455008Y51229557D01*
X3679764Y51136460D01*
X3918363Y51089000D01*
X4161637Y51089000D01*
X4400236Y51136460D01*
X4624992Y51229557D01*
X4827267Y51364713D01*
X4999287Y51536733D01*
X5134443Y51739008D01*
X5227540Y51963764D01*
X5275000Y52202363D01*
X5275000Y52359000D01*
X5431637Y52359000D01*
X5670236Y52406460D01*
X5894992Y52499557D01*
X6097267Y52634713D01*
X6269287Y52806733D01*
X6404443Y53009008D01*
X6497540Y53233764D01*
X6545000Y53472363D01*
X6545000Y53715637D01*
X6497540Y53954236D01*
X6404443Y54178992D01*
X6269287Y54381267D01*
X6097267Y54553287D01*
X5894992Y54688443D01*
X5670236Y54781540D01*
X5431637Y54829000D01*
X5188363Y54829000D01*
X4949764Y54781540D01*
X4725008Y54688443D01*
X4522733Y54553287D01*
X4350713Y54381267D01*
X4215557Y54178992D01*
X4139105Y53994420D01*
X4116511Y54068901D01*
X4001833Y54283449D01*
X3847502Y54471502D01*
X3659449Y54625833D01*
X3444901Y54740511D01*
X3212102Y54811130D01*
X3030665Y54829000D01*
X2509335Y54829000D01*
X2327898Y54811130D01*
X2095099Y54740511D01*
X1880551Y54625833D01*
X1692498Y54471502D01*
X1538167Y54283449D01*
X1423489Y54068901D01*
X1352870Y53836102D01*
X1329025Y53594000D01*
X735000Y53594000D01*
X735000Y71277351D01*
X767029Y71280707D01*
X832324Y71294088D01*
X897733Y71306544D01*
X907558Y71309507D01*
X1014770Y71342657D01*
X1076192Y71368453D01*
X1137957Y71393384D01*
X1147020Y71398199D01*
X1245752Y71451541D01*
X1301012Y71488788D01*
X1356752Y71525237D01*
X1364707Y71531720D01*
X1451197Y71603224D01*
X1498183Y71650509D01*
X1545762Y71697071D01*
X1552306Y71704976D01*
X1564418Y71719817D01*
X3166921Y71717208D01*
G37*
%TD.AperFunction*%
D30*
X16405001Y69319411D02*
X16405001Y68654522D01*
X16375241Y68634637D01*
X16175363Y68434759D01*
X16018320Y68199727D01*
X15910147Y67938574D01*
X15855000Y67661335D01*
X15855000Y67378665D01*
X15910147Y67101426D01*
X16018320Y66840273D01*
X16175363Y66605241D01*
X16375241Y66405363D01*
X16607759Y66250000D01*
X16375241Y66094637D01*
X16175363Y65894759D01*
X16155479Y65865000D01*
X15537191Y65865000D01*
X15431680Y66119727D01*
X15274637Y66354759D01*
X15074759Y66554637D01*
X14842241Y66710000D01*
X15074759Y66865363D01*
X15274637Y67065241D01*
X15431680Y67300273D01*
X15539853Y67561426D01*
X15595000Y67838665D01*
X15595000Y68121335D01*
X15539853Y68398574D01*
X15431680Y68659727D01*
X15274637Y68894759D01*
X15074759Y69094637D01*
X14839727Y69251680D01*
X14578574Y69359853D01*
X14301335Y69415000D01*
X14018665Y69415000D01*
X13741426Y69359853D01*
X13480273Y69251680D01*
X13245241Y69094637D01*
X13045363Y68894759D01*
X12888320Y68659727D01*
X12780147Y68398574D01*
X12725000Y68121335D01*
X12725000Y67838665D01*
X12780147Y67561426D01*
X12888320Y67300273D01*
X13045363Y67065241D01*
X13245241Y66865363D01*
X13477759Y66710000D01*
X13245241Y66554637D01*
X13045363Y66354759D01*
X12888320Y66119727D01*
X12780147Y65858574D01*
X12725000Y65581335D01*
X12725000Y65298665D01*
X12780147Y65021426D01*
X12888320Y64760273D01*
X13045363Y64525241D01*
X13245241Y64325363D01*
X13480273Y64168320D01*
X13741426Y64060147D01*
X13834957Y64041542D01*
X13729941Y63985411D01*
X13729939Y63985410D01*
X13729940Y63985410D01*
X13628953Y63902532D01*
X13628951Y63902530D01*
X13595183Y63874817D01*
X13567470Y63841049D01*
X8523422Y58797000D01*
X8473578Y58797000D01*
X9165050Y59488471D01*
X9198817Y59516183D01*
X9230451Y59554728D01*
X9259397Y59589999D01*
X9309411Y59650941D01*
X9391589Y59804687D01*
X9435212Y59948490D01*
X9442195Y59971509D01*
X9447486Y60025233D01*
X9455000Y60101523D01*
X9455000Y60101531D01*
X9459281Y60145000D01*
X9455000Y60188469D01*
X9455000Y63637082D01*
X9526535Y63684880D01*
X9721120Y63879465D01*
X9874005Y64108273D01*
X9979314Y64362510D01*
X10033000Y64632408D01*
X10033000Y64907592D01*
X9979314Y65177490D01*
X9893426Y65384841D01*
X9900537Y65393506D01*
X9959502Y65503820D01*
X9995812Y65623518D01*
X10008072Y65748000D01*
X10008072Y67348000D01*
X9995812Y67472482D01*
X9959502Y67592180D01*
X9900537Y67702494D01*
X9821185Y67799185D01*
X9724494Y67878537D01*
X9614180Y67937502D01*
X9494482Y67973812D01*
X9486039Y67974643D01*
X9684637Y68173241D01*
X9841680Y68408273D01*
X9949853Y68669426D01*
X10005000Y68946665D01*
X10005000Y69150615D01*
X10055363Y69075241D01*
X10255241Y68875363D01*
X10490273Y68718320D01*
X10751426Y68610147D01*
X11028665Y68555000D01*
X11311335Y68555000D01*
X11588574Y68610147D01*
X11849727Y68718320D01*
X12084759Y68875363D01*
X12284637Y69075241D01*
X12441680Y69310273D01*
X12549853Y69571426D01*
X12605000Y69848665D01*
X12605000Y70131335D01*
X12598017Y70166439D01*
X12671579Y70240000D01*
X16405000Y70240000D01*
X16405001Y69319411D01*
%TA.AperFunction,Conductor*%
D31*
G36*
X16405001Y69319411D02*
G01*
X16405001Y68654522D01*
X16375241Y68634637D01*
X16175363Y68434759D01*
X16018320Y68199727D01*
X15910147Y67938574D01*
X15855000Y67661335D01*
X15855000Y67378665D01*
X15910147Y67101426D01*
X16018320Y66840273D01*
X16175363Y66605241D01*
X16375241Y66405363D01*
X16607759Y66250000D01*
X16375241Y66094637D01*
X16175363Y65894759D01*
X16155479Y65865000D01*
X15537191Y65865000D01*
X15431680Y66119727D01*
X15274637Y66354759D01*
X15074759Y66554637D01*
X14842241Y66710000D01*
X15074759Y66865363D01*
X15274637Y67065241D01*
X15431680Y67300273D01*
X15539853Y67561426D01*
X15595000Y67838665D01*
X15595000Y68121335D01*
X15539853Y68398574D01*
X15431680Y68659727D01*
X15274637Y68894759D01*
X15074759Y69094637D01*
X14839727Y69251680D01*
X14578574Y69359853D01*
X14301335Y69415000D01*
X14018665Y69415000D01*
X13741426Y69359853D01*
X13480273Y69251680D01*
X13245241Y69094637D01*
X13045363Y68894759D01*
X12888320Y68659727D01*
X12780147Y68398574D01*
X12725000Y68121335D01*
X12725000Y67838665D01*
X12780147Y67561426D01*
X12888320Y67300273D01*
X13045363Y67065241D01*
X13245241Y66865363D01*
X13477759Y66710000D01*
X13245241Y66554637D01*
X13045363Y66354759D01*
X12888320Y66119727D01*
X12780147Y65858574D01*
X12725000Y65581335D01*
X12725000Y65298665D01*
X12780147Y65021426D01*
X12888320Y64760273D01*
X13045363Y64525241D01*
X13245241Y64325363D01*
X13480273Y64168320D01*
X13741426Y64060147D01*
X13834957Y64041542D01*
X13729941Y63985411D01*
X13729939Y63985410D01*
X13729940Y63985410D01*
X13628953Y63902532D01*
X13628951Y63902530D01*
X13595183Y63874817D01*
X13567470Y63841049D01*
X8523422Y58797000D01*
X8473578Y58797000D01*
X9165050Y59488471D01*
X9198817Y59516183D01*
X9230451Y59554728D01*
X9259397Y59589999D01*
X9309411Y59650941D01*
X9391589Y59804687D01*
X9435212Y59948490D01*
X9442195Y59971509D01*
X9447486Y60025233D01*
X9455000Y60101523D01*
X9455000Y60101531D01*
X9459281Y60145000D01*
X9455000Y60188469D01*
X9455000Y63637082D01*
X9526535Y63684880D01*
X9721120Y63879465D01*
X9874005Y64108273D01*
X9979314Y64362510D01*
X10033000Y64632408D01*
X10033000Y64907592D01*
X9979314Y65177490D01*
X9893426Y65384841D01*
X9900537Y65393506D01*
X9959502Y65503820D01*
X9995812Y65623518D01*
X10008072Y65748000D01*
X10008072Y67348000D01*
X9995812Y67472482D01*
X9959502Y67592180D01*
X9900537Y67702494D01*
X9821185Y67799185D01*
X9724494Y67878537D01*
X9614180Y67937502D01*
X9494482Y67973812D01*
X9486039Y67974643D01*
X9684637Y68173241D01*
X9841680Y68408273D01*
X9949853Y68669426D01*
X10005000Y68946665D01*
X10005000Y69150615D01*
X10055363Y69075241D01*
X10255241Y68875363D01*
X10490273Y68718320D01*
X10751426Y68610147D01*
X11028665Y68555000D01*
X11311335Y68555000D01*
X11588574Y68610147D01*
X11849727Y68718320D01*
X12084759Y68875363D01*
X12284637Y69075241D01*
X12441680Y69310273D01*
X12549853Y69571426D01*
X12605000Y69848665D01*
X12605000Y70131335D01*
X12598017Y70166439D01*
X12671579Y70240000D01*
X16405000Y70240000D01*
X16405001Y69319411D01*
G37*
%TD.AperFunction*%
D30*
X28360000Y90648421D02*
X28360000Y90504916D01*
X28408805Y90259555D01*
X28504541Y90028429D01*
X28643527Y89820422D01*
X28820422Y89643527D01*
X29028429Y89504541D01*
X29259555Y89408805D01*
X29504916Y89360000D01*
X29755084Y89360000D01*
X30000445Y89408805D01*
X30145001Y89468682D01*
X30145000Y87316579D01*
X29651494Y86823072D01*
X28995000Y86823072D01*
X28870518Y86810812D01*
X28750820Y86774502D01*
X28640506Y86715537D01*
X28543815Y86636185D01*
X28464463Y86539494D01*
X28405498Y86429180D01*
X28369188Y86309482D01*
X28356928Y86185000D01*
X28356928Y84915000D01*
X28369188Y84790518D01*
X28405498Y84670820D01*
X28464463Y84560506D01*
X28543815Y84463815D01*
X28640506Y84384463D01*
X28750820Y84325498D01*
X28870518Y84289188D01*
X28995000Y84276928D01*
X30265000Y84276928D01*
X30389482Y84289188D01*
X30509180Y84325498D01*
X30619494Y84384463D01*
X30716185Y84463815D01*
X30795537Y84560506D01*
X30854502Y84670820D01*
X30890812Y84790518D01*
X30903072Y84915000D01*
X30903072Y85571494D01*
X31625050Y86293471D01*
X31658817Y86321183D01*
X31718209Y86393551D01*
X31769410Y86455940D01*
X31769411Y86455941D01*
X31851589Y86609687D01*
X31901586Y86774502D01*
X31902195Y86776509D01*
X31906781Y86823072D01*
X31915000Y86906523D01*
X31915000Y86906531D01*
X31919281Y86950000D01*
X31915000Y86993469D01*
X31915000Y90323422D01*
X32426579Y90835000D01*
X32641486Y90835000D01*
X32899405Y90886304D01*
X33142359Y90986939D01*
X33361013Y91133038D01*
X33409782Y91181807D01*
X33416868Y76262864D01*
X33158574Y76369853D01*
X32881335Y76425000D01*
X32598665Y76425000D01*
X32321426Y76369853D01*
X32060273Y76261680D01*
X31825241Y76104637D01*
X31625363Y75904759D01*
X31468320Y75669727D01*
X31360147Y75408574D01*
X31305000Y75131335D01*
X31305000Y74848665D01*
X31360147Y74571426D01*
X31468320Y74310273D01*
X31625363Y74075241D01*
X31825241Y73875363D01*
X32060273Y73718320D01*
X32321426Y73610147D01*
X32598665Y73555000D01*
X32881335Y73555000D01*
X32916439Y73561983D01*
X33418389Y73060033D01*
X33418964Y71849376D01*
X33398102Y71845226D01*
X33209744Y71767205D01*
X33161546Y71735000D01*
X32368469Y71735000D01*
X32325000Y71739281D01*
X32281531Y71735000D01*
X32281523Y71735000D01*
X32151510Y71722195D01*
X31984687Y71671589D01*
X31857349Y71603526D01*
X31830941Y71589411D01*
X31729953Y71506532D01*
X31729951Y71506530D01*
X31696183Y71478817D01*
X31668470Y71445049D01*
X29983422Y69760000D01*
X27066579Y69760000D01*
X26456534Y70370044D01*
X26428817Y70403817D01*
X26294059Y70514411D01*
X26140313Y70596589D01*
X25973490Y70647195D01*
X25843477Y70660000D01*
X25843469Y70660000D01*
X25800000Y70664281D01*
X25756531Y70660000D01*
X19988454Y70660000D01*
X19940256Y70692205D01*
X19751898Y70770226D01*
X19551939Y70810000D01*
X19348061Y70810000D01*
X19148102Y70770226D01*
X18959744Y70692205D01*
X18790226Y70578937D01*
X18646063Y70434774D01*
X18532795Y70265256D01*
X18454774Y70076898D01*
X18415000Y69876939D01*
X18415000Y69673061D01*
X18454774Y69473102D01*
X18532795Y69284744D01*
X18646063Y69115226D01*
X18790226Y68971063D01*
X18959744Y68857795D01*
X19148102Y68779774D01*
X19348061Y68740000D01*
X19551939Y68740000D01*
X19751898Y68779774D01*
X19940256Y68857795D01*
X19988454Y68890000D01*
X25433422Y68890000D01*
X26043470Y68279951D01*
X26071183Y68246183D01*
X26104951Y68218470D01*
X26104953Y68218468D01*
X26160062Y68173241D01*
X26205941Y68135589D01*
X26359687Y68053411D01*
X26526510Y68002805D01*
X26656523Y67990000D01*
X26656533Y67990000D01*
X26699999Y67985719D01*
X26743465Y67990000D01*
X28938030Y67990000D01*
X28825241Y67914637D01*
X28625363Y67714759D01*
X28468320Y67479727D01*
X28360147Y67218574D01*
X28305000Y66941335D01*
X28305000Y66658665D01*
X28360147Y66381426D01*
X28468320Y66120273D01*
X28625363Y65885241D01*
X28825241Y65685363D01*
X29060273Y65528320D01*
X29321426Y65420147D01*
X29598665Y65365000D01*
X29881335Y65365000D01*
X30158574Y65420147D01*
X30419727Y65528320D01*
X30654759Y65685363D01*
X30854637Y65885241D01*
X31011680Y66120273D01*
X31119853Y66381426D01*
X31175000Y66658665D01*
X31175000Y66941335D01*
X31119853Y67218574D01*
X31011680Y67479727D01*
X30854637Y67714759D01*
X30654759Y67914637D01*
X30522894Y68002746D01*
X30523490Y68002805D01*
X30690313Y68053411D01*
X30844059Y68135589D01*
X30978817Y68246183D01*
X31006534Y68279956D01*
X32691579Y69965000D01*
X33161546Y69965000D01*
X33209744Y69932795D01*
X33398102Y69854774D01*
X33598061Y69815000D01*
X33801939Y69815000D01*
X34001898Y69854774D01*
X34190256Y69932795D01*
X34359774Y70046063D01*
X34503937Y70190226D01*
X34617205Y70359744D01*
X34695226Y70548102D01*
X34735000Y70748061D01*
X34735000Y70951939D01*
X34695226Y71151898D01*
X34617205Y71340256D01*
X34503937Y71509774D01*
X34359774Y71653937D01*
X34341044Y71666452D01*
X34812737Y71665684D01*
X36053421Y70425000D01*
X35136439Y69508017D01*
X35101335Y69515000D01*
X34818665Y69515000D01*
X34541426Y69459853D01*
X34280273Y69351680D01*
X34045241Y69194637D01*
X33845363Y68994759D01*
X33688320Y68759727D01*
X33580147Y68498574D01*
X33525000Y68221335D01*
X33525000Y67938665D01*
X33580147Y67661426D01*
X33688320Y67400273D01*
X33845363Y67165241D01*
X34045241Y66965363D01*
X34280273Y66808320D01*
X34541426Y66700147D01*
X34818665Y66645000D01*
X35101335Y66645000D01*
X35378574Y66700147D01*
X35639727Y66808320D01*
X35874759Y66965363D01*
X36074637Y67165241D01*
X36231680Y67400273D01*
X36339853Y67661426D01*
X36395000Y67938665D01*
X36395000Y68221335D01*
X36388017Y68256439D01*
X37575050Y69443471D01*
X37608817Y69471183D01*
X37719411Y69605941D01*
X37735173Y69635431D01*
X37735241Y69635363D01*
X37970273Y69478320D01*
X38231426Y69370147D01*
X38508665Y69315000D01*
X38791335Y69315000D01*
X39068574Y69370147D01*
X39329727Y69478320D01*
X39564759Y69635363D01*
X39764637Y69835241D01*
X39921680Y70070273D01*
X40029853Y70331426D01*
X40085000Y70608665D01*
X40085000Y70891335D01*
X40029853Y71168574D01*
X39921680Y71429727D01*
X39769411Y71657614D01*
X41030577Y71655560D01*
X41142746Y71564078D01*
X41198270Y71527188D01*
X41253198Y71489578D01*
X41262222Y71484698D01*
X41262230Y71484694D01*
X41400082Y71411397D01*
X41461712Y71385995D01*
X41522904Y71359768D01*
X41532699Y71356735D01*
X41532705Y71356733D01*
X41532711Y71356732D01*
X41682176Y71311606D01*
X41747554Y71298661D01*
X41812683Y71284817D01*
X41822889Y71283744D01*
X41978276Y71268508D01*
X41978277Y71268508D01*
X42013895Y71265000D01*
X43851421Y71265000D01*
X41822951Y69236529D01*
X41789184Y69208817D01*
X41761471Y69175049D01*
X41761468Y69175046D01*
X41678590Y69074059D01*
X41596412Y68920313D01*
X41545805Y68753490D01*
X41528719Y68580000D01*
X41533001Y68536521D01*
X41533001Y68432361D01*
X41352359Y68553061D01*
X41109405Y68653696D01*
X40851486Y68705000D01*
X40588514Y68705000D01*
X40330595Y68653696D01*
X40087641Y68553061D01*
X39868987Y68406962D01*
X39683038Y68221013D01*
X39536939Y68002359D01*
X39436304Y67759405D01*
X39385000Y67501486D01*
X39385000Y67238514D01*
X39436304Y66980595D01*
X39536939Y66737641D01*
X39683038Y66518987D01*
X39868987Y66333038D01*
X40087641Y66186939D01*
X40330595Y66086304D01*
X40588514Y66035000D01*
X40851486Y66035000D01*
X41109405Y66086304D01*
X41352359Y66186939D01*
X41533001Y66307639D01*
X41533000Y64120579D01*
X41347755Y63935334D01*
X41375000Y64072303D01*
X41375000Y64307697D01*
X41329077Y64538569D01*
X41238995Y64756045D01*
X41108217Y64951768D01*
X40941768Y65118217D01*
X40746045Y65248995D01*
X40528569Y65339077D01*
X40297697Y65385000D01*
X40062303Y65385000D01*
X39831431Y65339077D01*
X39613955Y65248995D01*
X39418232Y65118217D01*
X39251783Y64951768D01*
X39121005Y64756045D01*
X39030923Y64538569D01*
X38985000Y64307697D01*
X38985000Y64072303D01*
X39030923Y63841431D01*
X39121005Y63623955D01*
X39251783Y63428232D01*
X39418232Y63261783D01*
X39613955Y63131005D01*
X39831431Y63040923D01*
X40062303Y62995000D01*
X40297697Y62995000D01*
X40455840Y63026456D01*
X40450591Y63020060D01*
X40368413Y62866314D01*
X40317806Y62699491D01*
X40300720Y62526001D01*
X40305002Y62482522D01*
X40305001Y60474999D01*
X37858239Y60474999D01*
X37988569Y60500923D01*
X38206045Y60591005D01*
X38401768Y60721783D01*
X38568217Y60888232D01*
X38698995Y61083955D01*
X38789077Y61301431D01*
X38835000Y61532303D01*
X38835000Y61767697D01*
X38789077Y61998569D01*
X38698995Y62216045D01*
X38568217Y62411768D01*
X38401768Y62578217D01*
X38206045Y62708995D01*
X37988569Y62799077D01*
X37757697Y62845000D01*
X37522303Y62845000D01*
X37291431Y62799077D01*
X37073955Y62708995D01*
X36878232Y62578217D01*
X36711783Y62411768D01*
X36581005Y62216045D01*
X36490923Y61998569D01*
X36445444Y61769929D01*
X36391680Y61899727D01*
X36234637Y62134759D01*
X36034759Y62334637D01*
X35832173Y62470000D01*
X36034759Y62605363D01*
X36234637Y62805241D01*
X36391680Y63040273D01*
X36499853Y63301426D01*
X36555000Y63578665D01*
X36555000Y63861335D01*
X36499853Y64138574D01*
X36391680Y64399727D01*
X36234637Y64634759D01*
X36034759Y64834637D01*
X35799727Y64991680D01*
X35538574Y65099853D01*
X35261335Y65155000D01*
X34978665Y65155000D01*
X34701426Y65099853D01*
X34440273Y64991680D01*
X34205241Y64834637D01*
X34005363Y64634759D01*
X33896682Y64472106D01*
X33774637Y64654759D01*
X33574759Y64854637D01*
X33339727Y65011680D01*
X33078574Y65119853D01*
X32801335Y65175000D01*
X32518665Y65175000D01*
X32241426Y65119853D01*
X31980273Y65011680D01*
X31745241Y64854637D01*
X31545363Y64654759D01*
X31388320Y64419727D01*
X31280147Y64158574D01*
X31225000Y63881335D01*
X31225000Y63598665D01*
X31280147Y63321426D01*
X31388320Y63060273D01*
X31545363Y62825241D01*
X31745241Y62625363D01*
X31947827Y62490000D01*
X31745241Y62354637D01*
X31545363Y62154759D01*
X31388320Y61919727D01*
X31280147Y61658574D01*
X31225000Y61381335D01*
X31225000Y61098665D01*
X31280147Y60821426D01*
X31388320Y60560273D01*
X31445298Y60474999D01*
X26826579Y60474999D01*
X26641534Y60660044D01*
X26613817Y60693817D01*
X26479059Y60804411D01*
X26325313Y60886589D01*
X26158490Y60937195D01*
X26028477Y60950000D01*
X26028469Y60950000D01*
X25985000Y60954281D01*
X25941531Y60950000D01*
X23172511Y60950000D01*
X23195000Y61063061D01*
X23195000Y61266939D01*
X23155226Y61466898D01*
X23077205Y61655256D01*
X22963937Y61824774D01*
X22819774Y61968937D01*
X22650256Y62082205D01*
X22461898Y62160226D01*
X22261939Y62200000D01*
X22058061Y62200000D01*
X21858102Y62160226D01*
X21669744Y62082205D01*
X21621546Y62050000D01*
X19876577Y62050000D01*
X19565577Y62361000D01*
X22802531Y62361000D01*
X22846000Y62356719D01*
X22889469Y62361000D01*
X22889477Y62361000D01*
X23019490Y62373805D01*
X23186313Y62424411D01*
X23340059Y62506589D01*
X23474817Y62617183D01*
X23502534Y62650956D01*
X24095050Y63243471D01*
X24128817Y63271183D01*
X24161083Y63310498D01*
X24239411Y63405941D01*
X24321589Y63559686D01*
X24364743Y63701943D01*
X24414759Y63735363D01*
X24614637Y63935241D01*
X24634521Y63965000D01*
X25288797Y63965000D01*
X25315363Y63925241D01*
X25515241Y63725363D01*
X25750273Y63568320D01*
X26011426Y63460147D01*
X26288665Y63405000D01*
X26571335Y63405000D01*
X26848574Y63460147D01*
X27109727Y63568320D01*
X27344759Y63725363D01*
X27544637Y63925241D01*
X27701680Y64160273D01*
X27809853Y64421426D01*
X27865000Y64698665D01*
X27865000Y64981335D01*
X27809853Y65258574D01*
X27701680Y65519727D01*
X27544637Y65754759D01*
X27344759Y65954637D01*
X27109727Y66111680D01*
X26848574Y66219853D01*
X26571335Y66275000D01*
X26288665Y66275000D01*
X26011426Y66219853D01*
X25750273Y66111680D01*
X25515241Y65954637D01*
X25315363Y65754759D01*
X25302160Y65735000D01*
X24948210Y65735000D01*
X24961774Y65744063D01*
X25105937Y65888226D01*
X25219205Y66057744D01*
X25297226Y66246102D01*
X25337000Y66446061D01*
X25337000Y66649939D01*
X25297226Y66849898D01*
X25219205Y67038256D01*
X25105937Y67207774D01*
X24961774Y67351937D01*
X24792256Y67465205D01*
X24603898Y67543226D01*
X24403939Y67583000D01*
X24200061Y67583000D01*
X24000102Y67543226D01*
X23811744Y67465205D01*
X23763546Y67433000D01*
X18901465Y67433000D01*
X18857999Y67437281D01*
X18814533Y67433000D01*
X18814523Y67433000D01*
X18725000Y67424183D01*
X18725000Y67661335D01*
X18669853Y67938574D01*
X18561680Y68199727D01*
X18404637Y68434759D01*
X18204759Y68634637D01*
X18175000Y68654521D01*
X18175000Y71081523D01*
X18179282Y71125000D01*
X18175000Y71168477D01*
X18175000Y71692773D01*
X23248696Y71684512D01*
X23273477Y71686912D01*
X23297313Y71694100D01*
X23319288Y71705801D01*
X23338559Y71721563D01*
X23354385Y71740783D01*
X23366156Y71762720D01*
X23373422Y71786533D01*
X23375903Y71811217D01*
X23376667Y72140000D01*
X24411531Y72140000D01*
X24455000Y72135719D01*
X24498469Y72140000D01*
X24498477Y72140000D01*
X24628490Y72152805D01*
X24795313Y72203411D01*
X24949059Y72285589D01*
X25083817Y72396183D01*
X25111534Y72429956D01*
X26253561Y73571983D01*
X26288665Y73565000D01*
X26571335Y73565000D01*
X26848574Y73620147D01*
X27109727Y73728320D01*
X27153348Y73757466D01*
X27372510Y73666686D01*
X27642408Y73613000D01*
X27917592Y73613000D01*
X28187490Y73666686D01*
X28441727Y73771995D01*
X28670535Y73924880D01*
X28865120Y74119465D01*
X29018005Y74348273D01*
X29123314Y74602510D01*
X29177000Y74872408D01*
X29177000Y75147592D01*
X29123314Y75417490D01*
X29018005Y75671727D01*
X28865120Y75900535D01*
X28670535Y76095120D01*
X28441727Y76248005D01*
X28187490Y76353314D01*
X27917592Y76407000D01*
X27642408Y76407000D01*
X27372510Y76353314D01*
X27134870Y76254880D01*
X27109727Y76271680D01*
X26848574Y76379853D01*
X26571335Y76435000D01*
X26288665Y76435000D01*
X26011426Y76379853D01*
X25750273Y76271680D01*
X25515241Y76114637D01*
X25315363Y75914759D01*
X25158320Y75679727D01*
X25050147Y75418574D01*
X24995000Y75141335D01*
X24995000Y74858665D01*
X25001983Y74823561D01*
X24907168Y74728747D01*
X24935000Y74868665D01*
X24935000Y75151335D01*
X24879853Y75428574D01*
X24771680Y75689727D01*
X24614637Y75924759D01*
X24414759Y76124637D01*
X24179727Y76281680D01*
X23918574Y76389853D01*
X23641335Y76445000D01*
X23386672Y76445000D01*
X23420550Y91021767D01*
X23487641Y90976939D01*
X23730595Y90876304D01*
X23988514Y90825000D01*
X24251486Y90825000D01*
X24509405Y90876304D01*
X24752359Y90976939D01*
X24971013Y91123038D01*
X25122975Y91275000D01*
X27733422Y91275000D01*
X28360000Y90648421D01*
%TA.AperFunction,Conductor*%
D31*
G36*
X28360000Y90648421D02*
G01*
X28360000Y90504916D01*
X28408805Y90259555D01*
X28504541Y90028429D01*
X28643527Y89820422D01*
X28820422Y89643527D01*
X29028429Y89504541D01*
X29259555Y89408805D01*
X29504916Y89360000D01*
X29755084Y89360000D01*
X30000445Y89408805D01*
X30145001Y89468682D01*
X30145000Y87316579D01*
X29651494Y86823072D01*
X28995000Y86823072D01*
X28870518Y86810812D01*
X28750820Y86774502D01*
X28640506Y86715537D01*
X28543815Y86636185D01*
X28464463Y86539494D01*
X28405498Y86429180D01*
X28369188Y86309482D01*
X28356928Y86185000D01*
X28356928Y84915000D01*
X28369188Y84790518D01*
X28405498Y84670820D01*
X28464463Y84560506D01*
X28543815Y84463815D01*
X28640506Y84384463D01*
X28750820Y84325498D01*
X28870518Y84289188D01*
X28995000Y84276928D01*
X30265000Y84276928D01*
X30389482Y84289188D01*
X30509180Y84325498D01*
X30619494Y84384463D01*
X30716185Y84463815D01*
X30795537Y84560506D01*
X30854502Y84670820D01*
X30890812Y84790518D01*
X30903072Y84915000D01*
X30903072Y85571494D01*
X31625050Y86293471D01*
X31658817Y86321183D01*
X31718209Y86393551D01*
X31769410Y86455940D01*
X31769411Y86455941D01*
X31851589Y86609687D01*
X31901586Y86774502D01*
X31902195Y86776509D01*
X31906781Y86823072D01*
X31915000Y86906523D01*
X31915000Y86906531D01*
X31919281Y86950000D01*
X31915000Y86993469D01*
X31915000Y90323422D01*
X32426579Y90835000D01*
X32641486Y90835000D01*
X32899405Y90886304D01*
X33142359Y90986939D01*
X33361013Y91133038D01*
X33409782Y91181807D01*
X33416868Y76262864D01*
X33158574Y76369853D01*
X32881335Y76425000D01*
X32598665Y76425000D01*
X32321426Y76369853D01*
X32060273Y76261680D01*
X31825241Y76104637D01*
X31625363Y75904759D01*
X31468320Y75669727D01*
X31360147Y75408574D01*
X31305000Y75131335D01*
X31305000Y74848665D01*
X31360147Y74571426D01*
X31468320Y74310273D01*
X31625363Y74075241D01*
X31825241Y73875363D01*
X32060273Y73718320D01*
X32321426Y73610147D01*
X32598665Y73555000D01*
X32881335Y73555000D01*
X32916439Y73561983D01*
X33418389Y73060033D01*
X33418964Y71849376D01*
X33398102Y71845226D01*
X33209744Y71767205D01*
X33161546Y71735000D01*
X32368469Y71735000D01*
X32325000Y71739281D01*
X32281531Y71735000D01*
X32281523Y71735000D01*
X32151510Y71722195D01*
X31984687Y71671589D01*
X31857349Y71603526D01*
X31830941Y71589411D01*
X31729953Y71506532D01*
X31729951Y71506530D01*
X31696183Y71478817D01*
X31668470Y71445049D01*
X29983422Y69760000D01*
X27066579Y69760000D01*
X26456534Y70370044D01*
X26428817Y70403817D01*
X26294059Y70514411D01*
X26140313Y70596589D01*
X25973490Y70647195D01*
X25843477Y70660000D01*
X25843469Y70660000D01*
X25800000Y70664281D01*
X25756531Y70660000D01*
X19988454Y70660000D01*
X19940256Y70692205D01*
X19751898Y70770226D01*
X19551939Y70810000D01*
X19348061Y70810000D01*
X19148102Y70770226D01*
X18959744Y70692205D01*
X18790226Y70578937D01*
X18646063Y70434774D01*
X18532795Y70265256D01*
X18454774Y70076898D01*
X18415000Y69876939D01*
X18415000Y69673061D01*
X18454774Y69473102D01*
X18532795Y69284744D01*
X18646063Y69115226D01*
X18790226Y68971063D01*
X18959744Y68857795D01*
X19148102Y68779774D01*
X19348061Y68740000D01*
X19551939Y68740000D01*
X19751898Y68779774D01*
X19940256Y68857795D01*
X19988454Y68890000D01*
X25433422Y68890000D01*
X26043470Y68279951D01*
X26071183Y68246183D01*
X26104951Y68218470D01*
X26104953Y68218468D01*
X26160062Y68173241D01*
X26205941Y68135589D01*
X26359687Y68053411D01*
X26526510Y68002805D01*
X26656523Y67990000D01*
X26656533Y67990000D01*
X26699999Y67985719D01*
X26743465Y67990000D01*
X28938030Y67990000D01*
X28825241Y67914637D01*
X28625363Y67714759D01*
X28468320Y67479727D01*
X28360147Y67218574D01*
X28305000Y66941335D01*
X28305000Y66658665D01*
X28360147Y66381426D01*
X28468320Y66120273D01*
X28625363Y65885241D01*
X28825241Y65685363D01*
X29060273Y65528320D01*
X29321426Y65420147D01*
X29598665Y65365000D01*
X29881335Y65365000D01*
X30158574Y65420147D01*
X30419727Y65528320D01*
X30654759Y65685363D01*
X30854637Y65885241D01*
X31011680Y66120273D01*
X31119853Y66381426D01*
X31175000Y66658665D01*
X31175000Y66941335D01*
X31119853Y67218574D01*
X31011680Y67479727D01*
X30854637Y67714759D01*
X30654759Y67914637D01*
X30522894Y68002746D01*
X30523490Y68002805D01*
X30690313Y68053411D01*
X30844059Y68135589D01*
X30978817Y68246183D01*
X31006534Y68279956D01*
X32691579Y69965000D01*
X33161546Y69965000D01*
X33209744Y69932795D01*
X33398102Y69854774D01*
X33598061Y69815000D01*
X33801939Y69815000D01*
X34001898Y69854774D01*
X34190256Y69932795D01*
X34359774Y70046063D01*
X34503937Y70190226D01*
X34617205Y70359744D01*
X34695226Y70548102D01*
X34735000Y70748061D01*
X34735000Y70951939D01*
X34695226Y71151898D01*
X34617205Y71340256D01*
X34503937Y71509774D01*
X34359774Y71653937D01*
X34341044Y71666452D01*
X34812737Y71665684D01*
X36053421Y70425000D01*
X35136439Y69508017D01*
X35101335Y69515000D01*
X34818665Y69515000D01*
X34541426Y69459853D01*
X34280273Y69351680D01*
X34045241Y69194637D01*
X33845363Y68994759D01*
X33688320Y68759727D01*
X33580147Y68498574D01*
X33525000Y68221335D01*
X33525000Y67938665D01*
X33580147Y67661426D01*
X33688320Y67400273D01*
X33845363Y67165241D01*
X34045241Y66965363D01*
X34280273Y66808320D01*
X34541426Y66700147D01*
X34818665Y66645000D01*
X35101335Y66645000D01*
X35378574Y66700147D01*
X35639727Y66808320D01*
X35874759Y66965363D01*
X36074637Y67165241D01*
X36231680Y67400273D01*
X36339853Y67661426D01*
X36395000Y67938665D01*
X36395000Y68221335D01*
X36388017Y68256439D01*
X37575050Y69443471D01*
X37608817Y69471183D01*
X37719411Y69605941D01*
X37735173Y69635431D01*
X37735241Y69635363D01*
X37970273Y69478320D01*
X38231426Y69370147D01*
X38508665Y69315000D01*
X38791335Y69315000D01*
X39068574Y69370147D01*
X39329727Y69478320D01*
X39564759Y69635363D01*
X39764637Y69835241D01*
X39921680Y70070273D01*
X40029853Y70331426D01*
X40085000Y70608665D01*
X40085000Y70891335D01*
X40029853Y71168574D01*
X39921680Y71429727D01*
X39769411Y71657614D01*
X41030577Y71655560D01*
X41142746Y71564078D01*
X41198270Y71527188D01*
X41253198Y71489578D01*
X41262222Y71484698D01*
X41262230Y71484694D01*
X41400082Y71411397D01*
X41461712Y71385995D01*
X41522904Y71359768D01*
X41532699Y71356735D01*
X41532705Y71356733D01*
X41532711Y71356732D01*
X41682176Y71311606D01*
X41747554Y71298661D01*
X41812683Y71284817D01*
X41822889Y71283744D01*
X41978276Y71268508D01*
X41978277Y71268508D01*
X42013895Y71265000D01*
X43851421Y71265000D01*
X41822951Y69236529D01*
X41789184Y69208817D01*
X41761471Y69175049D01*
X41761468Y69175046D01*
X41678590Y69074059D01*
X41596412Y68920313D01*
X41545805Y68753490D01*
X41528719Y68580000D01*
X41533001Y68536521D01*
X41533001Y68432361D01*
X41352359Y68553061D01*
X41109405Y68653696D01*
X40851486Y68705000D01*
X40588514Y68705000D01*
X40330595Y68653696D01*
X40087641Y68553061D01*
X39868987Y68406962D01*
X39683038Y68221013D01*
X39536939Y68002359D01*
X39436304Y67759405D01*
X39385000Y67501486D01*
X39385000Y67238514D01*
X39436304Y66980595D01*
X39536939Y66737641D01*
X39683038Y66518987D01*
X39868987Y66333038D01*
X40087641Y66186939D01*
X40330595Y66086304D01*
X40588514Y66035000D01*
X40851486Y66035000D01*
X41109405Y66086304D01*
X41352359Y66186939D01*
X41533001Y66307639D01*
X41533000Y64120579D01*
X41347755Y63935334D01*
X41375000Y64072303D01*
X41375000Y64307697D01*
X41329077Y64538569D01*
X41238995Y64756045D01*
X41108217Y64951768D01*
X40941768Y65118217D01*
X40746045Y65248995D01*
X40528569Y65339077D01*
X40297697Y65385000D01*
X40062303Y65385000D01*
X39831431Y65339077D01*
X39613955Y65248995D01*
X39418232Y65118217D01*
X39251783Y64951768D01*
X39121005Y64756045D01*
X39030923Y64538569D01*
X38985000Y64307697D01*
X38985000Y64072303D01*
X39030923Y63841431D01*
X39121005Y63623955D01*
X39251783Y63428232D01*
X39418232Y63261783D01*
X39613955Y63131005D01*
X39831431Y63040923D01*
X40062303Y62995000D01*
X40297697Y62995000D01*
X40455840Y63026456D01*
X40450591Y63020060D01*
X40368413Y62866314D01*
X40317806Y62699491D01*
X40300720Y62526001D01*
X40305002Y62482522D01*
X40305001Y60474999D01*
X37858239Y60474999D01*
X37988569Y60500923D01*
X38206045Y60591005D01*
X38401768Y60721783D01*
X38568217Y60888232D01*
X38698995Y61083955D01*
X38789077Y61301431D01*
X38835000Y61532303D01*
X38835000Y61767697D01*
X38789077Y61998569D01*
X38698995Y62216045D01*
X38568217Y62411768D01*
X38401768Y62578217D01*
X38206045Y62708995D01*
X37988569Y62799077D01*
X37757697Y62845000D01*
X37522303Y62845000D01*
X37291431Y62799077D01*
X37073955Y62708995D01*
X36878232Y62578217D01*
X36711783Y62411768D01*
X36581005Y62216045D01*
X36490923Y61998569D01*
X36445444Y61769929D01*
X36391680Y61899727D01*
X36234637Y62134759D01*
X36034759Y62334637D01*
X35832173Y62470000D01*
X36034759Y62605363D01*
X36234637Y62805241D01*
X36391680Y63040273D01*
X36499853Y63301426D01*
X36555000Y63578665D01*
X36555000Y63861335D01*
X36499853Y64138574D01*
X36391680Y64399727D01*
X36234637Y64634759D01*
X36034759Y64834637D01*
X35799727Y64991680D01*
X35538574Y65099853D01*
X35261335Y65155000D01*
X34978665Y65155000D01*
X34701426Y65099853D01*
X34440273Y64991680D01*
X34205241Y64834637D01*
X34005363Y64634759D01*
X33896682Y64472106D01*
X33774637Y64654759D01*
X33574759Y64854637D01*
X33339727Y65011680D01*
X33078574Y65119853D01*
X32801335Y65175000D01*
X32518665Y65175000D01*
X32241426Y65119853D01*
X31980273Y65011680D01*
X31745241Y64854637D01*
X31545363Y64654759D01*
X31388320Y64419727D01*
X31280147Y64158574D01*
X31225000Y63881335D01*
X31225000Y63598665D01*
X31280147Y63321426D01*
X31388320Y63060273D01*
X31545363Y62825241D01*
X31745241Y62625363D01*
X31947827Y62490000D01*
X31745241Y62354637D01*
X31545363Y62154759D01*
X31388320Y61919727D01*
X31280147Y61658574D01*
X31225000Y61381335D01*
X31225000Y61098665D01*
X31280147Y60821426D01*
X31388320Y60560273D01*
X31445298Y60474999D01*
X26826579Y60474999D01*
X26641534Y60660044D01*
X26613817Y60693817D01*
X26479059Y60804411D01*
X26325313Y60886589D01*
X26158490Y60937195D01*
X26028477Y60950000D01*
X26028469Y60950000D01*
X25985000Y60954281D01*
X25941531Y60950000D01*
X23172511Y60950000D01*
X23195000Y61063061D01*
X23195000Y61266939D01*
X23155226Y61466898D01*
X23077205Y61655256D01*
X22963937Y61824774D01*
X22819774Y61968937D01*
X22650256Y62082205D01*
X22461898Y62160226D01*
X22261939Y62200000D01*
X22058061Y62200000D01*
X21858102Y62160226D01*
X21669744Y62082205D01*
X21621546Y62050000D01*
X19876577Y62050000D01*
X19565577Y62361000D01*
X22802531Y62361000D01*
X22846000Y62356719D01*
X22889469Y62361000D01*
X22889477Y62361000D01*
X23019490Y62373805D01*
X23186313Y62424411D01*
X23340059Y62506589D01*
X23474817Y62617183D01*
X23502534Y62650956D01*
X24095050Y63243471D01*
X24128817Y63271183D01*
X24161083Y63310498D01*
X24239411Y63405941D01*
X24321589Y63559686D01*
X24364743Y63701943D01*
X24414759Y63735363D01*
X24614637Y63935241D01*
X24634521Y63965000D01*
X25288797Y63965000D01*
X25315363Y63925241D01*
X25515241Y63725363D01*
X25750273Y63568320D01*
X26011426Y63460147D01*
X26288665Y63405000D01*
X26571335Y63405000D01*
X26848574Y63460147D01*
X27109727Y63568320D01*
X27344759Y63725363D01*
X27544637Y63925241D01*
X27701680Y64160273D01*
X27809853Y64421426D01*
X27865000Y64698665D01*
X27865000Y64981335D01*
X27809853Y65258574D01*
X27701680Y65519727D01*
X27544637Y65754759D01*
X27344759Y65954637D01*
X27109727Y66111680D01*
X26848574Y66219853D01*
X26571335Y66275000D01*
X26288665Y66275000D01*
X26011426Y66219853D01*
X25750273Y66111680D01*
X25515241Y65954637D01*
X25315363Y65754759D01*
X25302160Y65735000D01*
X24948210Y65735000D01*
X24961774Y65744063D01*
X25105937Y65888226D01*
X25219205Y66057744D01*
X25297226Y66246102D01*
X25337000Y66446061D01*
X25337000Y66649939D01*
X25297226Y66849898D01*
X25219205Y67038256D01*
X25105937Y67207774D01*
X24961774Y67351937D01*
X24792256Y67465205D01*
X24603898Y67543226D01*
X24403939Y67583000D01*
X24200061Y67583000D01*
X24000102Y67543226D01*
X23811744Y67465205D01*
X23763546Y67433000D01*
X18901465Y67433000D01*
X18857999Y67437281D01*
X18814533Y67433000D01*
X18814523Y67433000D01*
X18725000Y67424183D01*
X18725000Y67661335D01*
X18669853Y67938574D01*
X18561680Y68199727D01*
X18404637Y68434759D01*
X18204759Y68634637D01*
X18175000Y68654521D01*
X18175000Y71081523D01*
X18179282Y71125000D01*
X18175000Y71168477D01*
X18175000Y71692773D01*
X23248696Y71684512D01*
X23273477Y71686912D01*
X23297313Y71694100D01*
X23319288Y71705801D01*
X23338559Y71721563D01*
X23354385Y71740783D01*
X23366156Y71762720D01*
X23373422Y71786533D01*
X23375903Y71811217D01*
X23376667Y72140000D01*
X24411531Y72140000D01*
X24455000Y72135719D01*
X24498469Y72140000D01*
X24498477Y72140000D01*
X24628490Y72152805D01*
X24795313Y72203411D01*
X24949059Y72285589D01*
X25083817Y72396183D01*
X25111534Y72429956D01*
X26253561Y73571983D01*
X26288665Y73565000D01*
X26571335Y73565000D01*
X26848574Y73620147D01*
X27109727Y73728320D01*
X27153348Y73757466D01*
X27372510Y73666686D01*
X27642408Y73613000D01*
X27917592Y73613000D01*
X28187490Y73666686D01*
X28441727Y73771995D01*
X28670535Y73924880D01*
X28865120Y74119465D01*
X29018005Y74348273D01*
X29123314Y74602510D01*
X29177000Y74872408D01*
X29177000Y75147592D01*
X29123314Y75417490D01*
X29018005Y75671727D01*
X28865120Y75900535D01*
X28670535Y76095120D01*
X28441727Y76248005D01*
X28187490Y76353314D01*
X27917592Y76407000D01*
X27642408Y76407000D01*
X27372510Y76353314D01*
X27134870Y76254880D01*
X27109727Y76271680D01*
X26848574Y76379853D01*
X26571335Y76435000D01*
X26288665Y76435000D01*
X26011426Y76379853D01*
X25750273Y76271680D01*
X25515241Y76114637D01*
X25315363Y75914759D01*
X25158320Y75679727D01*
X25050147Y75418574D01*
X24995000Y75141335D01*
X24995000Y74858665D01*
X25001983Y74823561D01*
X24907168Y74728747D01*
X24935000Y74868665D01*
X24935000Y75151335D01*
X24879853Y75428574D01*
X24771680Y75689727D01*
X24614637Y75924759D01*
X24414759Y76124637D01*
X24179727Y76281680D01*
X23918574Y76389853D01*
X23641335Y76445000D01*
X23386672Y76445000D01*
X23420550Y91021767D01*
X23487641Y90976939D01*
X23730595Y90876304D01*
X23988514Y90825000D01*
X24251486Y90825000D01*
X24509405Y90876304D01*
X24752359Y90976939D01*
X24971013Y91123038D01*
X25122975Y91275000D01*
X27733422Y91275000D01*
X28360000Y90648421D01*
G37*
%TD.AperFunction*%
D30*
X55019153Y71632785D02*
X55047386Y71603954D01*
X55055293Y71597412D01*
X55142258Y71526485D01*
X55197780Y71489597D01*
X55252714Y71451983D01*
X55261741Y71447101D01*
X55360826Y71394417D01*
X55422461Y71369013D01*
X55483644Y71342790D01*
X55493445Y71339756D01*
X55493449Y71339754D01*
X55493453Y71339753D01*
X55600877Y71307320D01*
X55666255Y71294375D01*
X55731384Y71280531D01*
X55741590Y71279458D01*
X55765001Y71277163D01*
X55765001Y65382633D01*
X55578574Y65459853D01*
X55301335Y65515000D01*
X55018665Y65515000D01*
X54741426Y65459853D01*
X54480273Y65351680D01*
X54245241Y65194637D01*
X54128037Y65077433D01*
X54119853Y65118574D01*
X54011680Y65379727D01*
X53854637Y65614759D01*
X53654759Y65814637D01*
X53419727Y65971680D01*
X53158574Y66079853D01*
X52881335Y66135000D01*
X52598665Y66135000D01*
X52321426Y66079853D01*
X52060273Y65971680D01*
X51825241Y65814637D01*
X51625363Y65614759D01*
X51468320Y65379727D01*
X51422872Y65270005D01*
X51418195Y65317490D01*
X51367589Y65484313D01*
X51285411Y65638059D01*
X51174817Y65772817D01*
X51141049Y65800530D01*
X50658762Y66282817D01*
X50698061Y66275000D01*
X50901939Y66275000D01*
X51101898Y66314774D01*
X51290256Y66392795D01*
X51459774Y66506063D01*
X51603937Y66650226D01*
X51717205Y66819744D01*
X51795226Y67008102D01*
X51806535Y67064956D01*
X52075049Y67333470D01*
X52108817Y67361183D01*
X52157247Y67420194D01*
X52195210Y67466452D01*
X52219411Y67495941D01*
X52301589Y67649687D01*
X52352195Y67816510D01*
X52365000Y67946523D01*
X52365000Y67946533D01*
X52369281Y67989999D01*
X52365000Y68033465D01*
X52365000Y68428446D01*
X52439287Y68502733D01*
X52574443Y68705008D01*
X52667540Y68929764D01*
X52715000Y69168363D01*
X52715000Y69411637D01*
X52667540Y69650236D01*
X52574443Y69874992D01*
X52439287Y70077267D01*
X52267267Y70249287D01*
X52064992Y70384443D01*
X51840236Y70477540D01*
X51601637Y70525000D01*
X51358363Y70525000D01*
X51119764Y70477540D01*
X50895008Y70384443D01*
X50692733Y70249287D01*
X50520713Y70077267D01*
X50385557Y69874992D01*
X50292460Y69650236D01*
X50245000Y69411637D01*
X50245000Y69168363D01*
X50292460Y68929764D01*
X50385557Y68705008D01*
X50520713Y68502733D01*
X50595001Y68428445D01*
X50595001Y68356579D01*
X50554956Y68316535D01*
X50498102Y68305226D01*
X50309744Y68227205D01*
X50140226Y68113937D01*
X49996063Y67969774D01*
X49882795Y67800256D01*
X49804774Y67611898D01*
X49765000Y67411939D01*
X49765000Y67208061D01*
X49772817Y67168762D01*
X48886578Y68055000D01*
X49061637Y68055000D01*
X49300236Y68102460D01*
X49524992Y68195557D01*
X49727267Y68330713D01*
X49899287Y68502733D01*
X50034443Y68705008D01*
X50127540Y68929764D01*
X50175000Y69168363D01*
X50175000Y69411637D01*
X50127540Y69650236D01*
X50034443Y69874992D01*
X49899287Y70077267D01*
X49825809Y70150745D01*
X49829281Y70186001D01*
X49825000Y70229467D01*
X49825000Y70229477D01*
X49812195Y70359490D01*
X49761589Y70526313D01*
X49679411Y70680059D01*
X49623603Y70748061D01*
X49596532Y70781047D01*
X49596530Y70781049D01*
X49568817Y70814817D01*
X49535050Y70842529D01*
X49112578Y71265000D01*
X52286105Y71265000D01*
X52322515Y71268586D01*
X52332894Y71268586D01*
X52343100Y71269659D01*
X52498259Y71287063D01*
X52563407Y71300910D01*
X52628767Y71313852D01*
X52638571Y71316887D01*
X52787395Y71364097D01*
X52848630Y71390342D01*
X52910214Y71415725D01*
X52919237Y71420604D01*
X52919242Y71420606D01*
X52919246Y71420609D01*
X53056061Y71495823D01*
X53111062Y71533482D01*
X53166516Y71570326D01*
X53174424Y71576867D01*
X53244507Y71635674D01*
X55019153Y71632785D01*
%TA.AperFunction,Conductor*%
D31*
G36*
X55019153Y71632785D02*
G01*
X55047386Y71603954D01*
X55055293Y71597412D01*
X55142258Y71526485D01*
X55197780Y71489597D01*
X55252714Y71451983D01*
X55261741Y71447101D01*
X55360826Y71394417D01*
X55422461Y71369013D01*
X55483644Y71342790D01*
X55493445Y71339756D01*
X55493449Y71339754D01*
X55493453Y71339753D01*
X55600877Y71307320D01*
X55666255Y71294375D01*
X55731384Y71280531D01*
X55741590Y71279458D01*
X55765001Y71277163D01*
X55765001Y65382633D01*
X55578574Y65459853D01*
X55301335Y65515000D01*
X55018665Y65515000D01*
X54741426Y65459853D01*
X54480273Y65351680D01*
X54245241Y65194637D01*
X54128037Y65077433D01*
X54119853Y65118574D01*
X54011680Y65379727D01*
X53854637Y65614759D01*
X53654759Y65814637D01*
X53419727Y65971680D01*
X53158574Y66079853D01*
X52881335Y66135000D01*
X52598665Y66135000D01*
X52321426Y66079853D01*
X52060273Y65971680D01*
X51825241Y65814637D01*
X51625363Y65614759D01*
X51468320Y65379727D01*
X51422872Y65270005D01*
X51418195Y65317490D01*
X51367589Y65484313D01*
X51285411Y65638059D01*
X51174817Y65772817D01*
X51141049Y65800530D01*
X50658762Y66282817D01*
X50698061Y66275000D01*
X50901939Y66275000D01*
X51101898Y66314774D01*
X51290256Y66392795D01*
X51459774Y66506063D01*
X51603937Y66650226D01*
X51717205Y66819744D01*
X51795226Y67008102D01*
X51806535Y67064956D01*
X52075049Y67333470D01*
X52108817Y67361183D01*
X52157247Y67420194D01*
X52195210Y67466452D01*
X52219411Y67495941D01*
X52301589Y67649687D01*
X52352195Y67816510D01*
X52365000Y67946523D01*
X52365000Y67946533D01*
X52369281Y67989999D01*
X52365000Y68033465D01*
X52365000Y68428446D01*
X52439287Y68502733D01*
X52574443Y68705008D01*
X52667540Y68929764D01*
X52715000Y69168363D01*
X52715000Y69411637D01*
X52667540Y69650236D01*
X52574443Y69874992D01*
X52439287Y70077267D01*
X52267267Y70249287D01*
X52064992Y70384443D01*
X51840236Y70477540D01*
X51601637Y70525000D01*
X51358363Y70525000D01*
X51119764Y70477540D01*
X50895008Y70384443D01*
X50692733Y70249287D01*
X50520713Y70077267D01*
X50385557Y69874992D01*
X50292460Y69650236D01*
X50245000Y69411637D01*
X50245000Y69168363D01*
X50292460Y68929764D01*
X50385557Y68705008D01*
X50520713Y68502733D01*
X50595001Y68428445D01*
X50595001Y68356579D01*
X50554956Y68316535D01*
X50498102Y68305226D01*
X50309744Y68227205D01*
X50140226Y68113937D01*
X49996063Y67969774D01*
X49882795Y67800256D01*
X49804774Y67611898D01*
X49765000Y67411939D01*
X49765000Y67208061D01*
X49772817Y67168762D01*
X48886578Y68055000D01*
X49061637Y68055000D01*
X49300236Y68102460D01*
X49524992Y68195557D01*
X49727267Y68330713D01*
X49899287Y68502733D01*
X50034443Y68705008D01*
X50127540Y68929764D01*
X50175000Y69168363D01*
X50175000Y69411637D01*
X50127540Y69650236D01*
X50034443Y69874992D01*
X49899287Y70077267D01*
X49825809Y70150745D01*
X49829281Y70186001D01*
X49825000Y70229467D01*
X49825000Y70229477D01*
X49812195Y70359490D01*
X49761589Y70526313D01*
X49679411Y70680059D01*
X49623603Y70748061D01*
X49596532Y70781047D01*
X49596530Y70781049D01*
X49568817Y70814817D01*
X49535050Y70842529D01*
X49112578Y71265000D01*
X52286105Y71265000D01*
X52322515Y71268586D01*
X52332894Y71268586D01*
X52343100Y71269659D01*
X52498259Y71287063D01*
X52563407Y71300910D01*
X52628767Y71313852D01*
X52638571Y71316887D01*
X52787395Y71364097D01*
X52848630Y71390342D01*
X52910214Y71415725D01*
X52919237Y71420604D01*
X52919242Y71420606D01*
X52919246Y71420609D01*
X53056061Y71495823D01*
X53111062Y71533482D01*
X53166516Y71570326D01*
X53174424Y71576867D01*
X53244507Y71635674D01*
X55019153Y71632785D01*
G37*
%TD.AperFunction*%
%TD*%
M02*
