M48
; DRILL file {KiCad (5.1.9)-1} date 05/24/21 21:10:05
; FORMAT={-:-/ absolute / inch / decimal}
; #@! TF.CreationDate,2021-05-24T21:10:05+02:00
; #@! TF.GenerationSoftware,Kicad,Pcbnew,(5.1.9)-1
; #@! TF.FileFunction,Plated,1,2,PTH
FMAT,2
INCH
T1C0.0157
T2C0.0268
T3C0.0272
T4C0.0276
T5C0.0300
T6C0.0315
T7C0.0340
T8C0.0354
T9C0.0862
T10C0.1181
%
G90
G05
T1
X0.0346Y2.2122
X0.2728Y2.476
X0.68Y2.16
X0.7213Y2.4549
X0.7657Y2.747
X0.8352Y2.3648
X0.8724Y2.4081
X0.8732Y2.0157
X0.9568Y2.62
X0.9724Y2.324
X0.9774Y3.2106
X1.0069Y2.0384
X1.2614Y3.2116
X1.3268Y2.7894
X1.88Y1.89
X1.91Y2.56
X1.9193Y2.2697
X2.0Y2.65
T2
X0.1142Y2.3717
X0.1288Y2.3363
X0.1642Y2.4217
X0.1642Y2.3217
X0.1995Y2.407
X0.2142Y2.3717
T3
X1.4819Y2.4272
X1.5819Y2.5272
X1.6819Y2.4272
T4
X0.1091Y2.11
X0.1591Y2.06
X0.2091Y2.11
X0.4231Y3.3658
X0.4945Y2.3067
X0.5445Y2.2567
X0.5945Y2.3067
X0.611Y3.4343
X0.6129Y3.4859
X0.7543Y3.3445
X0.8496Y3.6283
X0.9496Y3.6283
X1.2799Y3.6287
X1.3236Y2.0626
X1.3236Y1.9839
X1.3236Y1.9051
X1.3799Y3.6287
X1.4902Y3.3409
X1.6031Y2.9524
X1.6031Y2.6524
X1.6311Y3.4362
X1.6316Y3.4824
X1.6839Y2.2327
X1.6839Y1.9327
X1.819Y3.3678
X1.8268Y2.728
X1.9268Y2.728
X2.0268Y2.728
X2.1669Y2.3457
X2.1669Y2.0457
T5
X0.23Y2.55
X0.34Y2.55
X0.76Y3.12
X1.0665Y3.4681
X1.0937Y2.9531
X1.1665Y3.5681
X1.1665Y3.3681
X1.47Y3.13
X2.1697Y2.4692
T6
X0.0965Y1.8933
X0.0965Y1.7933
X0.1185Y2.7555
X0.1185Y2.5587
X0.1247Y3.3135
X0.1756Y3.7528
X0.1756Y3.6949
X0.1756Y3.3996
X0.2185Y1.7713
X0.228Y2.72
X0.228Y2.62
X0.3335Y3.1047
X0.3374Y2.72
X0.3374Y2.62
X0.3449Y2.2043
X0.3449Y2.0075
X0.3734Y3.1424
X0.3788Y3.4625
X0.4205Y1.8854
X0.4398Y2.7555
X0.4398Y2.5587
X0.5575Y2.6764
X0.5575Y2.5764
X0.6173Y1.8854
X0.6185Y1.7713
X0.6642Y3.1937
X0.6807Y2.6583
X0.6807Y2.5583
X0.8055Y2.952
X0.8055Y2.552
X0.8512Y3.5453
X0.8512Y3.4614
X0.8512Y3.3787
X0.9252Y2.9531
X0.9252Y2.5531
X0.9453Y2.152
X0.9453Y1.752
X0.9496Y3.5453
X0.9496Y3.4614
X0.9496Y3.3787
X1.0406Y2.9528
X1.0406Y2.5528
X1.0657Y2.1512
X1.0657Y1.7512
X1.1217Y2.7854
X1.1709Y2.6299
X1.1709Y2.2299
X1.278Y2.6803
X1.2839Y3.5449
X1.2839Y3.4622
X1.2839Y3.3791
X1.2858Y2.5094
X1.2858Y2.411
X1.289Y2.9524
X1.3764Y2.6803
X1.3823Y3.5449
X1.3823Y3.4622
X1.3823Y3.3791
X1.3827Y2.5087
X1.3827Y2.4102
X1.3874Y2.9524
X1.5217Y2.7854
X1.5531Y3.187
X1.578Y2.2276
X1.578Y1.8276
X1.6839Y1.85
X1.6839Y1.7516
X1.7732Y1.8866
X1.7764Y2.5472
X1.7764Y2.4472
X1.7764Y2.3472
X1.7764Y2.2472
X1.8439Y3.1357
X1.8483Y3.4775
X1.8744Y2.05
X1.8756Y2.1421
X1.8909Y3.1047
X1.9732Y1.7673
X1.974Y2.1421
X2.0516Y3.7677
X2.0516Y3.7118
X2.0516Y3.4165
X2.0713Y2.05
X2.0764Y2.5472
X2.0764Y2.4472
X2.0764Y2.3472
X2.0764Y2.2472
X2.0997Y3.3135
X2.1701Y1.7673
X2.1717Y2.7197
X2.1717Y2.5228
X2.1732Y1.8866
T7
X0.7736Y2.0177
X0.7736Y1.9177
X0.7736Y1.8177
T8
X0.4484Y2.0886
X0.5484Y2.0886
T9
X1.3728Y2.2555
X1.3728Y1.7122
T10
X1.0854Y1.4398
X1.5909Y1.4398
T0
M30
