0
SECTION
2
HEADER
9
$INSUNITS
70
4
9
$ACADVER
1
AC1014
9
$HANDSEED
5
FFFF
0
ENDSEC
0
SECTION
2
TABLES
0
TABLE
2
VPORT
5
8
100
AcDbSymbolTable
0
ENDTAB
0
TABLE
2
LTYPE
5
5
100
AcDbSymbolTable
0
LTYPE
5
14
100
AcDbSymbolTableRecord
100
AcDbLinetypeTableRecord
2
BYBLOCK
70
0
0
LTYPE
5
15
100
AcDbSymbolTableRecord
100
AcDbLinetypeTableRecord
2
BYLAYER
70
0
0
ENDTAB
0
TABLE
2
LAYER
5
2
100
AcDbSymbolTable
70
2
0
LAYER
5
50
100
AcDbSymbolTableRecord
100
AcDbLayerTableRecord
2
0
70
0
6
CONTINUOUS
0
ENDTAB
0
TABLE
2
STYLE
5
3
100
AcDbSymbolTable
70
1
0
STYLE
5
11
100
AcDbSymbolTableRecord
100
AcDbTextStyleTableRecord
2
STANDARD
70
0
0
ENDTAB
0
TABLE
2
VIEW
5
6
100
AcDbSymbolTable
70
0
0
ENDTAB
0
TABLE
2
UCS
5
7
100
AcDbSymbolTable
70
0
0
ENDTAB
0
TABLE
2
APPID
5
9
100
AcDbSymbolTable
70
2
0
APPID
5
12
100
AcDbSymbolTableRecord
100
AcDbRegAppTableRecord
2
ACAD
70
0
0
ENDTAB
0
TABLE
2
DIMSTYLE
5
A
100
AcDbSymbolTable
70
1
0
ENDTAB
0
TABLE
2
BLOCK_RECORD
5
1
100
AcDbSymbolTable
70
1
0
BLOCK_RECORD
5
1F
100
AcDbSymbolTableRecord
100
AcDbBlockTableRecord
2
*MODEL_SPACE
0
BLOCK_RECORD
5
1B
100
AcDbSymbolTableRecord
100
AcDbBlockTableRecord
2
*PAPER_SPACE
0
ENDTAB
0
ENDSEC
0
SECTION
2
BLOCKS
0
BLOCK
5
20
100
AcDbEntity
100
AcDbBlockBegin
2
*MODEL_SPACE
0
ENDBLK
5
21
100
AcDbEntity
100
AcDbBlockEnd
0
BLOCK
5
1C
100
AcDbEntity
100
AcDbBlockBegin
2
*PAPER_SPACE
0
ENDBLK
5
1D
100
AcDbEntity
100
AcDbBlockEnd
0
ENDSEC
0
SECTION
2
ENTITIES
0
LINE
5
100
100
AcDbEntity
8
0
100
AcDbLine
10
1.2499999999999998
20
0
30
0
11
55.25
21
0
31
0
0
LINE
5
101
100
AcDbEntity
8
0
100
AcDbLine
10
56.5
20
1.2499999999999993
30
0
11
56.5
21
72
31
0
0
LINE
5
102
100
AcDbEntity
8
0
100
AcDbLine
10
1.7749370367472764e-31
20
72
30
0
11
0
21
1.2499999999999998
31
0
0
LINE
5
103
100
AcDbEntity
8
0
100
AcDbLine
10
1.7749370367472764e-31
20
72
30
0
11
0.57499999999999285
21
72
31
0
0
LINE
5
104
100
AcDbEntity
8
0
100
AcDbLine
10
1.1499999999999999
20
72.610043347752864
30
0
11
1.149999999999999
21
84
31
0
0
LINE
5
105
100
AcDbEntity
8
0
100
AcDbLine
10
3.25
20
86
30
0
11
3.2500000000000071
21
98.800000000000011
31
0
0
LINE
5
106
100
AcDbEntity
8
0
100
AcDbLine
10
1.149999999999999
20
84
30
0
11
3.25
21
86
31
0
0
ARC
5
107
100
AcDbEntity
8
0
100
AcDbCircle
10
0.57500000000000129
20
72.574999999999989
30
0
40
0.57500000000000107
210
0
220
0
230
1
100
AcDbArc
50
269.9999999999992
51
359.98155958747901
0
LINE
5
108
100
AcDbEntity
8
0
100
AcDbLine
10
1.1499999999999999
20
72.610043347752864
30
0
11
1.1500000000000024
21
72.574814938592993
31
0
0
ARC
5
109
100
AcDbEntity
8
0
100
AcDbCircle
10
55.925000000000004
20
72.574999999999989
30
0
40
0.57500002978063025
210
0
220
0
230
1
100
AcDbArc
50
180.01844041252099
51
270.00000000000074
0
LINE
5
110
100
AcDbEntity
8
0
100
AcDbLine
10
53.25
20
86
30
0
11
53.249999999999993
21
98.800000000000011
31
0
0
LINE
5
111
100
AcDbEntity
8
0
100
AcDbLine
10
56.5
20
72
30
0
11
55.925000000000011
21
72
31
0
0
LINE
5
112
100
AcDbEntity
8
0
100
AcDbLine
10
55.350000000000001
20
72.610043347752864
30
0
11
55.350000000000001
21
72.574814938592993
31
0
0
LINE
5
113
100
AcDbEntity
8
0
100
AcDbLine
10
55.350000000000001
20
72.610043347752864
30
0
11
55.350000000000001
21
84
31
0
0
LINE
5
114
100
AcDbEntity
8
0
100
AcDbLine
10
7.2500000000000009
20
98.800000000000011
30
0
11
7.2500000000000009
21
91.799999999999997
31
0
0
LINE
5
115
100
AcDbEntity
8
0
100
AcDbLine
10
5.649999999999995
20
91.858101647269464
30
0
11
5.649999999999995
21
98.800000000000011
31
0
0
ARC
5
116
100
AcDbEntity
8
0
100
AcDbCircle
10
6.4489455452950217
20
91.799999999999756
30
0
40
0.80105541990690154
210
0
220
0
230
1
100
AcDbArc
50
-184.15939380590771
51
0
0
LWPOLYLINE
5
117
100
AcDbEntity
8
0
100
AcDbPolyline
90
18
70
1
43
0.0
10
18.25
20
90.799999999999997
10
18.25
20
91.000000134110451
10
18.25
20
94.18953136438509
42
2.7630857945186387
10
16.649999999999999
20
94.18953136438509
10
16.649999999999999
20
91.599999999999994
10
12.700000000000006
20
91.599999999999994
42
0.41421356237309503
10
11.899999999999999
20
90.799999999999997
10
11.899999999999999
20
83.599999999999994
10
7.6901280654860571
20
83.599999999999994
10
6.4500000000000028
20
83.599999999999994
42
0.41421356237309503
10
5.6500000000000004
20
82.799999999999997
10
5.6500000000000004
20
77.71169982268637
42
0.99999999999999989
10
7.2500000000000062
20
77.71169982268637
10
7.2500000000000009
20
82
10
12.70000000000001
20
82
42
0.41421356237309503
10
13.5
20
82.799999999999997
10
13.5
20
90
10
17.450000000000003
20
90
42
0.41421356237309503
0
LINE
5
118
100
AcDbEntity
8
0
100
AcDbLine
10
16.199999999999996
20
99.25
30
0
11
16.199999999999996
21
100
31
0
0
LINE
5
119
100
AcDbEntity
8
0
100
AcDbLine
10
18.700000000000006
20
99.25
30
0
11
18.700000000000006
21
100
31
0
0
ARC
5
120
100
AcDbEntity
8
0
100
AcDbCircle
10
17.450000000000003
20
99.25
30
0
40
1.2500000000000044
210
0
220
0
230
1
100
AcDbArc
50
-180
51
0
0
LINE
5
121
100
AcDbEntity
8
0
100
AcDbLine
10
16.199999999999996
20
100
30
0
11
8.4500000000000011
21
100
31
0
0
LWPOLYLINE
5
122
100
AcDbEntity
8
0
100
AcDbPolyline
90
17
70
1
43
0.0
10
44.600000000000009
20
83.599999999999994
10
48.899999999999999
20
83.599999999999994
42
-0.41421356237309503
10
49.700000000000003
20
82.799999999999997
10
49.700000000000003
20
77.5
42
-0.99999999999999989
10
48.100000000000009
20
77.5
10
48.100000000000009
20
82
10
43.79999999999999
20
82.000000000000014
42
-0.41421356237309503
10
43.000000000000007
20
82.799999999999997
10
43.000000000000007
20
90
10
39.050000000000004
20
90
42
-0.41421356237309503
10
38.25
20
90.799999999999997
10
38.25
20
91.000000134110451
10
38.25
20
94.18953136438509
42
-2.7630857945186387
10
39.850000000000001
20
94.18953136438509
10
39.850000000000001
20
91.599999999999994
10
43.799999999999997
20
91.599999999999994
42
-0.41421356237309503
10
44.600000000000009
20
90.799999999999997
0
LINE
5
123
100
AcDbEntity
8
0
100
AcDbLine
10
49.250000000000007
20
98.800000000000011
30
0
11
49.250000000000007
21
91.799999999999997
31
0
0
ARC
5
124
100
AcDbEntity
8
0
100
AcDbCircle
10
39.050000000000004
20
99.25
30
0
40
1.2500000000000044
210
0
220
0
230
1
100
AcDbArc
50
-180
51
0
0
ARC
5
125
100
AcDbEntity
8
0
100
AcDbCircle
10
50.051054454671124
20
91.799999999999983
30
0
40
0.80105445467111736
210
0
220
0
230
1
100
AcDbArc
50
-180
51
4.1593938057158146
0
LINE
5
126
100
AcDbEntity
8
0
100
AcDbLine
10
37.799999999999997
20
99.25
30
0
11
37.799999999999997
21
100
31
0
0
LINE
5
127
100
AcDbEntity
8
0
100
AcDbLine
10
50.850000000000009
20
91.858101647269464
30
0
11
50.850000000000009
21
98.800000000000011
31
0
0
LINE
5
128
100
AcDbEntity
8
0
100
AcDbLine
10
40.300000000000011
20
99.25
30
0
11
40.300000000000011
21
100
31
0
0
LWPOLYLINE
5
129
100
AcDbEntity
8
0
100
AcDbPolyline
90
4
70
1
43
0.0
10
14.449999999999999
20
73.599999999999994
10
4.2500000000000018
20
73.599999999999994
42
0.99999999999999989
10
4.2500000000000027
20
72
10
14.449999999999999
20
72
42
0.99999999999999989
0
LWPOLYLINE
5
130
100
AcDbEntity
8
0
100
AcDbPolyline
90
4
70
1
43
0.0
10
52.25
20
73.599999999999994
42
-0.99999999999999989
10
52.25
20
72
10
42.049999999999997
20
72
42
-0.99999999999999989
10
42.049999999999997
20
73.599999999999994
0
CIRCLE
5
131
100
AcDbEntity
8
0
100
AcDbCircle
10
3.9500000000000002
20
41.399999999999999
30
0
40
1.25
210
0
220
0
230
1
0
CIRCLE
5
132
100
AcDbEntity
8
0
100
AcDbCircle
10
9.3500000000000014
20
41.399999999999999
30
0
40
1.25
210
0
220
0
230
1
0
CIRCLE
5
133
100
AcDbEntity
8
0
100
AcDbCircle
10
14.75
20
41.399999999999999
30
0
40
1.25
210
0
220
0
230
1
0
CIRCLE
5
134
100
AcDbEntity
8
0
100
AcDbCircle
10
20.149999999999999
20
41.399999999999999
30
0
40
1.2499999999999976
210
0
220
0
230
1
0
CIRCLE
5
135
100
AcDbEntity
8
0
100
AcDbCircle
10
25.549999999999997
20
41.399999999999999
30
0
40
1.25
210
0
220
0
230
1
0
CIRCLE
5
136
100
AcDbEntity
8
0
100
AcDbCircle
10
30.949999999999996
20
41.399999999999999
30
0
40
1.25
210
0
220
0
230
1
0
CIRCLE
5
137
100
AcDbEntity
8
0
100
AcDbCircle
10
36.349999999999994
20
41.399999999999999
30
0
40
1.2499999999999976
210
0
220
0
230
1
0
CIRCLE
5
138
100
AcDbEntity
8
0
100
AcDbCircle
10
41.75
20
41.399999999999999
30
0
40
1.249999999999998
210
0
220
0
230
1
0
CIRCLE
5
139
100
AcDbEntity
8
0
100
AcDbCircle
10
47.149999999999999
20
41.399999999999999
30
0
40
1.2499999999999976
210
0
220
0
230
1
0
CIRCLE
5
140
100
AcDbEntity
8
0
100
AcDbCircle
10
52.549999999999997
20
41.399999999999999
30
0
40
1.249999999999998
210
0
220
0
230
1
0
CIRCLE
5
141
100
AcDbEntity
8
0
100
AcDbCircle
10
22
20
36.499999999999993
30
0
40
1.4999999999999971
210
0
220
0
230
1
0
CIRCLE
5
142
100
AcDbEntity
8
0
100
AcDbCircle
10
3.9500000000000002
20
31.599999999999994
30
0
40
1.25
210
0
220
0
230
1
0
CIRCLE
5
143
100
AcDbEntity
8
0
100
AcDbCircle
10
9.3500000000000014
20
31.599999999999994
30
0
40
1.25
210
0
220
0
230
1
0
CIRCLE
5
144
100
AcDbEntity
8
0
100
AcDbCircle
10
14.75
20
31.599999999999994
30
0
40
1.25
210
0
220
0
230
1
0
CIRCLE
5
145
100
AcDbEntity
8
0
100
AcDbCircle
10
20.149999999999999
20
31.599999999999994
30
0
40
1.2499999999999976
210
0
220
0
230
1
0
CIRCLE
5
146
100
AcDbEntity
8
0
100
AcDbCircle
10
25.549999999999997
20
31.599999999999994
30
0
40
1.25
210
0
220
0
230
1
0
CIRCLE
5
147
100
AcDbEntity
8
0
100
AcDbCircle
10
30.949999999999996
20
31.599999999999994
30
0
40
1.25
210
0
220
0
230
1
0
CIRCLE
5
148
100
AcDbEntity
8
0
100
AcDbCircle
10
36.349999999999994
20
31.599999999999994
30
0
40
1.2499999999999976
210
0
220
0
230
1
0
CIRCLE
5
149
100
AcDbEntity
8
0
100
AcDbCircle
10
41.75
20
31.599999999999994
30
0
40
1.249999999999998
210
0
220
0
230
1
0
CIRCLE
5
150
100
AcDbEntity
8
0
100
AcDbCircle
10
47.149999999999999
20
31.599999999999994
30
0
40
1.2499999999999976
210
0
220
0
230
1
0
CIRCLE
5
151
100
AcDbEntity
8
0
100
AcDbCircle
10
52.549999999999997
20
31.599999999999994
30
0
40
1.249999999999998
210
0
220
0
230
1
0
ARC
5
152
100
AcDbEntity
8
0
100
AcDbCircle
10
55.25
20
1.2499999999999993
30
0
40
1.2499999999999993
210
0
220
0
230
1
100
AcDbArc
50
-90
51
0
0
ARC
5
153
100
AcDbEntity
8
0
100
AcDbCircle
10
1.2499999999999998
20
1.2499999999999998
30
0
40
1.2499999999999998
210
0
220
0
230
1
100
AcDbArc
50
180
51
270
0
ARC
5
154
100
AcDbEntity
8
0
100
AcDbCircle
10
4.4500000000000011
20
98.800000000000011
30
0
40
1.199999999999994
210
0
220
0
230
1
100
AcDbArc
50
0
51
180
0
ARC
5
155
100
AcDbEntity
8
0
100
AcDbCircle
10
8.4500000000000011
20
98.800000000000011
30
0
40
1.1999999999999922
210
0
220
-0
230
1
100
AcDbArc
50
90
51
180
0
ARC
5
156
100
AcDbEntity
8
0
100
AcDbCircle
10
52.049999999999997
20
98.800000000000011
30
0
40
1.1999999999999922
210
0
220
0
230
1
100
AcDbArc
50
0
51
180
0
ARC
5
157
100
AcDbEntity
8
0
100
AcDbCircle
10
48.049999999999997
20
98.800000000000011
30
0
40
1.2000000000000099
210
0
220
-0
230
1
100
AcDbArc
50
0
51
90
0
LINE
5
158
100
AcDbEntity
8
0
100
AcDbLine
10
37.799999999999997
20
100
30
0
11
18.700000000000006
21
100
31
0
0
LINE
5
159
100
AcDbEntity
8
0
100
AcDbLine
10
40.300000000000011
20
100
30
0
11
48.049999999999997
21
100
31
0
0
LINE
5
160
100
AcDbEntity
8
0
100
AcDbLine
10
53.25
20
86
30
0
11
55.350000000000001
21
84
31
0
0
ENDSEC
0
SECTION
2
OBJECTS
0
DICTIONARY
5
C
100
AcDbDictionary
3
ACAD_GROUP
350
D
3
ACAD_MLINESTYLE
350
17
0
DICTIONARY
5
D
100
AcDbDictionary
0
DICTIONARY
5
1A
330
C
100
AcDbDictionary
0
DICTIONARY
5
17
100
AcDbDictionary
0
ENDSEC
0
EOF
